<svg xmlns="http://www.w3.org/2000/svg" version="1.1" xmlns:xlink="http://www.w3.org/1999/xlink" width="512" height="512" x="0" y="0" viewBox="0 0 512 512" style="enable-background:new 0 0 512 512" xml:space="preserve" class=""><g><path d="M337.9 73.2c-13.2 5-27.1 10.6-41.8 16.5-66.3 26.8-148.9 60.1-232.1 60.1-14.9 0-28 9.8-36.9 27.6C20 191.7 16 210.3 16 229.8s3.9 38.1 11.1 52.4c8.9 17.8 22 27.6 36.9 27.6 8 0 15.9.3 23.8.9L106 426.3c1.2 7.8 7.9 13.5 15.8 13.5h64c4.7 0 9.1-2 12.2-5.6 3-3.6 4.4-8.3 3.7-12.9L187.4 330c39 11.6 75.9 26.5 108.8 39.8 14.7 5.9 28.6 11.5 41.8 16.5 1.8.7 3.8 1 5.6 1 4.9 0 9.7-2.3 12.7-6.3 23.1-30.4 37.5-88.4 37.5-151.3s-14.4-120.9-37.5-151.3c-4.3-5.6-11.8-7.7-18.4-5.2zM55.7 267.9c-4.9-9.8-7.7-23.7-7.7-38.1s2.8-28.3 7.7-38.1c4.1-8.2 7.8-9.9 8.3-9.9 6.3 0 12.6-.2 18.9-.5-2 15.8-3 32-3 48.5s1 32.7 3 48.5c-6.3-.3-12.6-.5-18.9-.5-.5 0-4.2-1.7-8.3-9.9zm111.4 140h-31.6l-14.6-93.3c11 1.8 21.8 3.9 32.6 6.5zm170.1-56c-9.3-3.6-19-7.6-29.1-11.6-55.5-22.4-122-49.2-192.5-58.8-2.4-16.7-3.7-34-3.7-51.6s1.3-34.9 3.7-51.6c70.5-9.6 137-36.4 192.5-58.8 10.1-4.1 19.8-8 29.1-11.6 15.1 27.2 24.6 73.2 24.6 122.1s-9.5 94.7-24.6 121.9zM479.9 213.8h-48c-8.8 0-16 7.2-16 16s7.2 16 16 16h48c8.8 0 16-7.2 16-16s-7.1-16-16-16zM471 313.7l-46.4-12.4c-8.5-2.3-17.3 2.8-19.6 11.3s2.8 17.3 11.3 19.6l46.4 12.4c1.4.4 2.8.5 4.2.5 7.1 0 13.5-4.7 15.4-11.9 2.3-8.4-2.8-17.2-11.3-19.5zM420.5 158.8c1.4 0 2.8-.2 4.2-.5l46.4-12.4c8.5-2.3 13.6-11.1 11.3-19.6s-11.1-13.6-19.6-11.3l-46.4 12.4c-8.5 2.3-13.6 11.1-11.3 19.6 1.9 7.1 8.3 11.8 15.4 11.8z" fill="#C3D1DB" opacity="1" data-original="#C3D1DB" class=""></path></g></svg>