<svg xmlns="http://www.w3.org/2000/svg" xmlns:xlink="http://www.w3.org/1999/xlink" width="32" height="32" viewBox="0 0 32 32" id="wrong_img">
                        <g id="New-Group--">
                            <path fill="#f6511d" stroke="none" d="M 1.402418 24.340551 C -0.325474 26.068453 -0.325474 28.869698 1.402418 30.597599 L 1.402418 30.597599 C 3.130309 32.3255 5.931572 32.3255 7.659464 30.597599 L 30.704304 7.553047 C 32.4319 5.825165 32.4319 3.023596 30.704304 1.295712 L 30.704304 1.295712 C 28.976412 -0.431881 26.174852 -0.431881 24.44697 1.295712 Z"></path>
                            <path fill="#f6511d" stroke="none" d="M 7.659464 1.295712 C 5.931572 -0.431881 3.130309 -0.431881 1.402418 1.295712 L 1.402418 1.295712 C -0.325474 3.023596 -0.325474 5.825165 1.402418 7.553047 L 24.44697 30.597599 C 26.174852 32.3255 28.976412 32.3255 30.704304 30.597599 L 30.704304 30.597599 C 32.4319 28.869698 32.4319 26.068453 30.704304 24.340551 Z"></path>
                        </g>
                    </svg>