<svg xmlns="http://www.w3.org/2000/svg" xmlns:xlink="http://www.w3.org/1999/xlink" width="40"
                        height="30" viewBox="0 0 40 30" id="right_img">
                        <g>
                            <path fill="#32bf4c" stroke="none"
                                d="M 12.408484 21.560326 C 10.653351 23.31575 10.653351 26.161976 12.408484 27.9174 L 12.408484 27.9174 C 14.163926 29.672533 17.010134 29.672533 18.765558 27.9174 L 38.683651 7.999308 C 40.438782 6.243883 40.438782 3.397657 38.683651 1.642233 L 38.683651 1.642233 C 36.928207 -0.1129 34.082001 -0.1129 32.326576 1.642233 Z" />
                            <path fill="#32bf4c" stroke="none"
                                d="M 7.779873 11.034012 C 6.02443 9.27857 3.178515 9.27857 1.42309 11.034012 L 1.42309 11.034012 C -0.332335 12.789455 -0.332335 15.635352 1.42309 17.390797 L 11.949403 27.9174 C 13.704827 29.672533 16.551035 29.672533 18.306479 27.9174 L 18.306479 27.9174 C 20.061609 26.161976 20.061609 23.31575 18.306479 21.560326 Z" />
                        </g>
                    </svg>