<?xml version="1.0" encoding="UTF-8"?>
<!-- Generated by Pixelmator Pro 3.6.4 -->
<svg width="255" height="229" viewBox="0 0 255 229" xmlns="http://www.w3.org/2000/svg">
    <g id="g1">
        <path id="path1" fill="none" stroke="none" d="M 173.399994 368.700012 C 173.5 369.700012 173.600006 370.599976 173.699982 371.599976 C 174.199982 378.400024 172.699982 385.5 169.399994 391.400024 C 165.699997 398.200012 159.699997 403.5 153 406 C 145.699997 408.700012 137.800003 408.200012 130.199997 407.599976 C 129.600006 407.599976 129 407.5 128.5 407.099976 C 128.399994 407 128.300003 406.900024 128.199997 406.799988"/>
        <path id="path2" fill="#ffcd70" stroke="none" d="M 167 378.700012 C 166.5 379.299988 165.800003 379.400024 165.100006 379.400024 C 158.100006 379.799988 151.100006 380.200012 144.100006 380.400024 L 144.100006 380.400024 C 132 380.799988 119.900009 380.599976 108 379 C 104.100006 378.5 100.199997 377.799988 96.400009 377 C 97.199997 362.399994 109.400009 350.399994 122.300003 347.299988 C 135.199997 344.200012 148.5 348.200012 160.399994 354 C 160.699997 367.599976 163.5 371.5 166.399994 375.400024 C 167.100006 376.400024 167.800003 377.799988 167 378.700012 L 167 378.700012 Z"/>
        <path id="path3" fill="#f5b062" stroke="none" d="M 148.899994 376 C 147.5 377.599976 145.899994 379.099976 144.100006 380.400024 L 144.100006 380.400024 C 132 380.799988 119.900009 380.599976 108 379 C 110.5 373.200012 114.5 368.099976 119.400009 364.5 C 127 358.899994 136.800003 357.299988 144.899994 358.5 C 146.300003 358.700012 147.699997 359 149 359.299988 C 149.399994 359.399994 149.800003 359.5 150.199997 359.600006 C 150.300003 360.200012 150.399994 360.799988 150.399994 361.399994 C 150.399994 361.700012 150.5 362.100006 150.5 362.399994 C 150.800003 367 150.300003 371.599976 148.899994 376 Z"/>
        <path id="path4" fill="#ffcd70" stroke="none" d="M 170.399994 377 C 169.800003 379.400024 168.5 381.599976 166.800003 383.599976 C 163.100006 388 157.600006 391.299988 152.699997 393 C 143.199997 396.400024 132.800003 398.299988 122.899994 396.900024 C 118.300003 396.200012 113.899994 394.799988 109.699997 392.400024 C 110.399994 380 118.699997 369.200012 128.899994 363.399994 C 135.399994 359.700012 141.800003 357.5 148.600006 356.299988 C 157.199997 354.700012 165.800003 359.200012 169.399994 367.900024 C 170.699982 370.900024 171.199982 373.799988 170.399994 377 Z"/>
        <path id="path5" fill="#f5b062" stroke="none" d="M 166.800003 383.599976 C 163.100006 388 157.600006 391.299988 152.699997 393 C 143.199997 396.400024 132.800003 398.299988 122.900009 396.900024 C 124.300003 387.099976 129.600006 377.700012 137.199997 372.200012 C 144.800003 366.600006 154.600006 365 162.699997 366.200012 C 164.100006 366.399994 165.5 366.700012 166.800003 367 C 167.199997 367.099976 167.600006 367.200012 168 367.299988 C 168.100006 367.900024 168.199997 368.5 168.199997 369.099976 C 168.199997 369.400024 168.300003 369.799988 168.300003 370.099976 C 168.699997 374.700012 168.199997 379.299988 166.800003 383.599976 L 166.800003 383.599976 Z"/>
        <path id="path6" fill="#ffcd70" stroke="none" d="M 169.399994 391.400024 C 165.699997 398.200012 159.699997 403.5 153 406 C 152.600006 406.099976 152.199997 406.299988 151.800003 406.400024 C 151.600006 406.5 151.399994 406.5 151.100006 406.599976 C 150.600006 406.700012 150.199997 406.900024 149.699997 407 C 143.300003 408.5 136.699997 408 130.199997 407.5 C 129.600006 407.5 129 407.400024 128.5 407 C 128.399994 406.900024 128.300003 406.799988 128.199997 406.700012 C 127.900009 406.299988 127.900009 405.799988 127.900009 405.200012 C 127.900009 404.400024 127.900009 403.599976 127.900009 402.700012 C 128.100006 391.200012 133.800003 379.799988 142.600006 373.400024 C 150.199997 367.799988 160 366.200012 168.100006 367.400024 C 169.5 367.599976 170.899994 367.900024 172.200012 368.200012 C 172.600006 368.299988 173 368.400024 173.399994 368.5 C 173.5 369.099976 173.600006 369.700012 173.600006 370.299988 C 173.600006 370.599976 173.700012 371 173.700012 371.299988 C 174.200012 378.400024 172.600006 385.5 169.399994 391.400024 L 169.399994 391.400024 Z"/>
        <path id="path7" fill="#635bff" stroke="none" d="M 9.800003 0.5 C -2.300003 46.299988 -6.300003 101.399994 15.699997 152.799988 C -10.5 252.299988 33.800003 360.399994 218.100006 386.700012 C 219.200012 349.899994 217.899994 308.5 218.5 270.700012 C 219.200012 228.200012 220.399994 201.100006 224.300018 160 C 258.899994 83.600006 219 2.399994 219 2.399994 C 219 2.399994 190 14.799988 178.600006 27.399994 C 145.600006 19 94.600006 12.799988 50.199997 28.799988 C 50.100006 28.799988 19.700005 4.200012 9.800003 0.5 L 9.800003 0.5 Z"/>
        <path id="path8" fill="#5750de" stroke="none" d="M 200.199982 383.799988 C 200.199982 383.799988 206.699982 314.200012 203.799988 267.700012 C 204.600006 271.799988 208.600006 274.600006 212.699982 275.399994 C 216.799988 276.200012 221 275.299988 225 274.200012 C 217.899994 314.200012 218.399994 370.799988 218.399994 370.799988 L 218.100006 386.799988 L 200.199982 383.799988 L 200.199982 383.799988 Z"/>
        <path id="path9" fill="#5750de" stroke="none" d="M 215.600006 3.899994 C 222 29.399994 223 141.100006 202.399994 158.299988 C 218.5 159.200012 223 174 226.799988 162.100006 C 234.299988 138.899994 242.100006 99.399994 239.199982 72.799988 C 235 34.899994 219 2.399994 219 2.399994 L 215.600006 3.899994 Z"/>
        <path id="path10" fill="#ffffff" stroke="none" opacity="0.15" d="M 42.900009 217.5 C 46.600006 296 113.300003 334.299988 150.399994 347.200012 C 156.300003 349.299988 161.800003 343.200012 159.199997 337.5 C 149.100006 316.100006 131.899994 272.600006 131.399994 222.5 C 131.300003 216.5 126.400009 212.399994 120.5 213.200012 C 101.5 215.799988 78.400009 213.700012 55 207.600006 C 48.600006 206.100006 42.600006 211 42.900009 217.5 L 42.900009 217.5 Z"/>
        <path id="path11" fill="#635bff" stroke="none" d="M 144.300003 197.299988 C 149.899994 260.899994 185.699982 312.299988 185.699982 312.299988 L 197.899994 301.5 C 208 334 224.5 352.799988 253.699982 366.100006 C 253.699982 301.200012 252 192.600006 232.600006 165.799988 C 227.5 158.700012 215.299988 156 207.100006 155.5 C 182.5 154.100006 141.100006 161.5 144.300003 197.299988 L 144.300003 197.299988 Z"/>
        <path id="path12" fill="#5750de" stroke="none" d="M 147.100006 183.700012 C 172.5 161.200012 203.399994 161.100006 214.5 173 C 241.800018 202.5 246 360.600006 246 360.600006 C 246 360.600006 251 367.099976 254.200012 367.599976 C 256 312 251.899994 256.600006 245.700012 201.200012 C 244.5 190.5 240.5 174.5 234 165.899994 C 226.100006 155.5 211.600006 153.899994 198.5 154.5 C 185.399994 155.100006 157.5 162.200012 147.100006 183.700012 L 147.100006 183.700012 Z"/>
        <g id="g2">
            <g id="g3">
                <path id="path13" fill="#ffffff" stroke="none" d="M 46.800003 98 C 46.800003 83.799988 50.900009 63.200012 72.5 63.200012 C 94.100006 63.200012 98.199997 83.799988 98.199997 98 C 98.199997 112.200012 86.100006 112.799988 71.900009 112.799988 C 57.800003 112.700012 46.800003 112.200012 46.800003 98 Z"/>
                <path id="path14" fill="#ffffff" stroke="none" d="M 131.100006 98 C 131.100006 83.799988 135.100006 63.200012 156.800003 63.200012 C 178.5 63.200012 182.5 83.799988 182.5 98 C 182.5 112.200012 170.399994 112.799988 156.199997 112.799988 C 142.100006 112.700012 131.100006 112.200012 131.100006 98 Z"/>
            </g>
            <path id="path15" fill="#ffcd70" stroke="none" d="M 130.5 107.5 C 130.5 116 116.600006 136.100006 114.800003 138.799988 C 114.699997 139 114.600006 139.100006 114.600006 139.100006 C 114.600006 139.100006 99.5 116.5 99.5 107.5 C 99.5 100.700012 107.800003 95.899994 114.100006 95.700012 L 114.199997 95.700012 C 120.5 95.399994 130.5 98.600006 130.5 107.5 Z"/>
            <path id="path16" fill="#f5b062" stroke="none" d="M 114.599991 139.100006 C 115.899994 124.700012 115.899994 110 114.199997 95.700012 C 120.5 95.5 130.5 98.600006 130.5 107.5 C 130.5 116 116.5 136.399994 114.599991 139.100006 L 114.599991 139.100006 Z"/>
            <path id="path17" fill="#33305e" stroke="#33305e" d="M 56 97.299988 C 56 86.899994 63.199997 78.5 72.100006 78.5 C 81 78.5 88.199997 86.899994 88.199997 97.299988 C 88.199997 107.700012 80.800003 112.799988 71.899994 112.799988 C 63 112.799988 56 107.700012 56 97.299988 L 56 97.299988 Z"/>
            <path id="path18" fill="#33305e" stroke="#33305e" d="M 141.199997 97.299988 C 141.199997 86.899994 148.399994 78.5 157.300003 78.5 C 166.199997 78.5 173.399994 86.899994 173.399994 97.299988 C 173.399994 107.700012 166.699997 112.799988 157.800003 112.799988 C 148.899994 112.799988 141.199997 107.700012 141.199997 97.299988 Z"/>
            <path id="path19" fill="#ffffff" stroke="none" d="M 71.355865 85.27298 C 73.230377 87.147461 72.977112 90.43988 70.790192 92.626801 C 68.603271 94.813721 65.310852 95.066986 63.436356 93.192474 C 61.561859 91.317993 61.815125 88.025574 64.002029 85.838654 C 66.18895 83.651733 69.481369 83.398468 71.355865 85.27298 Z"/>
        </g>
        <path id="path20" fill="#ffffff" stroke="none" d="M 156.554062 87.021332 C 158.428574 88.895844 158.175308 92.188263 155.988403 94.375153 C 153.801468 96.562103 150.509048 96.815338 148.634552 94.940857 C 146.760056 93.066345 147.013306 89.773926 149.200226 87.587006 C 151.387146 85.400085 154.679565 85.14682 156.554062 87.021332 Z"/>
        <g id="g4">
            <path id="path21" fill="#ffffff" stroke="#33305e" stroke-width="6" stroke-linecap="round" stroke-linejoin="round" d="M 18.900002 19.799988 C 22.200005 25.5 25 31.5 27.200005 37.600006"/>
            <path id="path22" fill="#ffffff" stroke="#33305e" stroke-width="6" stroke-linecap="round" stroke-linejoin="round" d="M 205.799988 20.899994 C 202.399994 26 200.100006 31.700012 198.899994 37.600006"/>
            <g id="g5">
                <path id="path23" fill="none" stroke="#33305e" stroke-width="6" stroke-linecap="round" stroke-linejoin="round" d="M 171.300018 198.899994 C 173.600006 204 176.899994 208.700012 181 212.600006 C 184.800018 208.399994 188.600006 204.200012 192.5 200"/>
                <path id="path24" fill="none" stroke="#33305e" stroke-width="6" stroke-linecap="round" stroke-linejoin="round" d="M 210.199982 241.600006 C 213.399994 245.600006 216.5 249.600006 221 253.399994 C 223.299988 249.399994 225.5 245.399994 227.799988 241.399994"/>
                <path id="path25" fill="none" stroke="#33305e" stroke-width="6" stroke-linecap="round" stroke-linejoin="round" d="M 214.899994 301.600006 C 214.899994 301.600006 220.600006 308.600006 224.100006 312.899994 L 231.5 298"/>
                <path id="path26" fill="none" stroke="#33305e" stroke-width="6" stroke-linecap="round" stroke-linejoin="round" d="M 146.5 184.299988 C 141.5 206.700012 145.5 230.399994 153.699997 251.899994 C 161.899994 273.399994 174.200012 293 187.100006 311.799988 C 190.399994 308.799988 193.600006 305.799988 196.100006 303.299988 C 205.700012 330.700012 226.300018 354.100006 252.300018 366.899994"/>
            </g>
        </g>
    </g>
</svg>
