<?xml version="1.0" encoding="UTF-8"?>
<!-- Generated by Pixelmator Pro 3.6.4 -->
<svg width="400" height="400" viewBox="0 0 400 400" xmlns="http://www.w3.org/2000/svg">
    <g id="g1">
        <path id="path1" fill="none" stroke="none" d="M 259.399994 513.700012 C 259.5 514.700012 259.600006 515.599976 259.699982 516.599976 C 260.199982 523.400024 258.699982 530.5 255.399994 536.400024 C 251.699997 543.200012 245.699997 548.5 239 551 C 231.699997 553.700012 223.800003 553.200012 216.199997 552.599976 C 215.600006 552.599976 215 552.5 214.5 552.099976 C 214.399994 552 214.300003 551.900024 214.199997 551.799988"/>
        <path id="path2" fill="#ffcd70" stroke="none" d="M 253 523.700012 C 252.5 524.299988 251.800003 524.400024 251.100006 524.400024 C 244.100006 524.799988 237.100006 525.200012 230.100006 525.400024 L 230.100006 525.400024 C 218 525.799988 205.900009 525.599976 194 524 C 190.100006 523.5 186.199997 522.799988 182.400009 522 C 183.199997 507.399994 195.400009 495.399994 208.300003 492.299988 C 221.199997 489.200012 234.5 493.200012 246.399994 499 C 246.699997 512.599976 249.5 516.5 252.399994 520.400024 C 253.100006 521.400024 253.800003 522.799988 253 523.700012 L 253 523.700012 Z"/>
        <path id="path3" fill="#f5b062" stroke="none" d="M 234.899994 521 C 233.5 522.599976 231.899994 524.099976 230.100006 525.400024 L 230.100006 525.400024 C 218 525.799988 205.900009 525.599976 194 524 C 196.5 518.200012 200.5 513.099976 205.400009 509.5 C 213 503.899994 222.800003 502.299988 230.899994 503.5 C 232.300003 503.700012 233.699997 504 235 504.299988 C 235.399994 504.399994 235.800003 504.5 236.199997 504.600006 C 236.300003 505.200012 236.399994 505.799988 236.399994 506.399994 C 236.399994 506.700012 236.5 507.100006 236.5 507.399994 C 236.800003 512 236.300003 516.599976 234.899994 521 Z"/>
        <path id="path4" fill="#ffcd70" stroke="none" d="M 256.399994 522 C 255.800003 524.400024 254.5 526.599976 252.800003 528.599976 C 249.100006 533 243.600006 536.299988 238.699997 538 C 229.199997 541.400024 218.800003 543.299988 208.899994 541.900024 C 204.300003 541.200012 199.899994 539.799988 195.699997 537.400024 C 196.399994 525 204.699997 514.200012 214.899994 508.399994 C 221.399994 504.700012 227.800003 502.5 234.600006 501.299988 C 243.199997 499.700012 251.800003 504.200012 255.399994 512.900024 C 256.699982 515.900024 257.199982 518.799988 256.399994 522 Z"/>
        <path id="path5" fill="#f5b062" stroke="none" d="M 252.800003 528.599976 C 249.100006 533 243.600006 536.299988 238.699997 538 C 229.199997 541.400024 218.800003 543.299988 208.900009 541.900024 C 210.300003 532.099976 215.600006 522.700012 223.199997 517.200012 C 230.800003 511.600006 240.600006 510 248.699997 511.200012 C 250.100006 511.399994 251.5 511.700012 252.800003 512 C 253.199997 512.099976 253.600006 512.200012 254 512.299988 C 254.100006 512.900024 254.199997 513.5 254.199997 514.099976 C 254.199997 514.400024 254.300003 514.799988 254.300003 515.099976 C 254.699997 519.700012 254.199997 524.299988 252.800003 528.599976 L 252.800003 528.599976 Z"/>
        <path id="path6" fill="#ffcd70" stroke="none" d="M 255.399994 536.400024 C 251.699997 543.200012 245.699997 548.5 239 551 C 238.600006 551.099976 238.199997 551.299988 237.800003 551.400024 C 237.600006 551.5 237.399994 551.5 237.100006 551.599976 C 236.600006 551.700012 236.199997 551.900024 235.699997 552 C 229.300003 553.5 222.699997 553 216.199997 552.5 C 215.600006 552.5 215 552.400024 214.5 552 C 214.399994 551.900024 214.300003 551.799988 214.199997 551.700012 C 213.900009 551.299988 213.900009 550.799988 213.900009 550.200012 C 213.900009 549.400024 213.900009 548.599976 213.900009 547.700012 C 214.100006 536.200012 219.800003 524.799988 228.600006 518.400024 C 236.199997 512.799988 246 511.200012 254.100006 512.400024 C 255.5 512.599976 256.899994 512.900024 258.200012 513.200012 C 258.600006 513.299988 259 513.400024 259.399994 513.5 C 259.5 514.099976 259.600006 514.700012 259.600006 515.299988 C 259.600006 515.599976 259.700012 516 259.700012 516.299988 C 260.200012 523.400024 258.600006 530.5 255.399994 536.400024 L 255.399994 536.400024 Z"/>
        <path id="path7" fill="#635bff" stroke="none" d="M 95.800003 145.5 C 83.699997 191.299988 79.699997 246.399994 101.699997 297.799988 C 75.5 397.299988 119.800003 505.399994 304.100006 531.700012 C 305.200012 494.899994 303.899994 453.5 304.5 415.700012 C 305.200012 373.200012 306.399994 346.100006 310.300018 305 C 344.899994 228.600006 305 147.399994 305 147.399994 C 305 147.399994 276 159.799988 264.600006 172.399994 C 231.600006 164 180.600006 157.799988 136.199997 173.799988 C 136.100006 173.799988 105.700005 149.200012 95.800003 145.5 L 95.800003 145.5 Z"/>
        <path id="path8" fill="#5750de" stroke="none" d="M 286.199982 528.799988 C 286.199982 528.799988 292.699982 459.200012 289.799988 412.700012 C 290.600006 416.799988 294.600006 419.600006 298.699982 420.399994 C 302.799988 421.200012 307 420.299988 311 419.200012 C 303.899994 459.200012 304.399994 515.799988 304.399994 515.799988 L 304.100006 531.799988 L 286.199982 528.799988 L 286.199982 528.799988 Z"/>
        <path id="path9" fill="#5750de" stroke="none" d="M 301.600006 148.899994 C 308 174.399994 309 286.100006 288.399994 303.299988 C 304.5 304.200012 309 319 312.799988 307.100006 C 320.299988 283.899994 328.100006 244.399994 325.199982 217.799988 C 321 179.899994 305 147.399994 305 147.399994 L 301.600006 148.899994 Z"/>
        <path id="path10" fill="#ffffff" stroke="none" opacity="0.15" d="M 128.900009 362.5 C 132.600006 441 199.300003 479.299988 236.399994 492.200012 C 242.300003 494.299988 247.800003 488.200012 245.199997 482.5 C 235.100006 461.100006 217.899994 417.600006 217.399994 367.5 C 217.300003 361.5 212.400009 357.399994 206.5 358.200012 C 187.5 360.799988 164.400009 358.700012 141 352.600006 C 134.600006 351.100006 128.600006 356 128.900009 362.5 L 128.900009 362.5 Z"/>
        <path id="path11" fill="#635bff" stroke="none" d="M 230.300003 342.299988 C 235.899994 405.899994 271.699982 457.299988 271.699982 457.299988 L 283.899994 446.5 C 294 479 310.5 497.799988 339.699982 511.100006 C 339.699982 446.200012 338 337.600006 318.600006 310.799988 C 313.5 303.700012 301.299988 301 293.100006 300.5 C 268.5 299.100006 227.100006 306.5 230.300003 342.299988 L 230.300003 342.299988 Z"/>
        <path id="path12" fill="#5750de" stroke="none" d="M 233.100006 328.700012 C 258.5 306.200012 289.399994 306.100006 300.5 318 C 327.800018 347.5 332 505.600006 332 505.600006 C 332 505.600006 337 512.099976 340.200012 512.599976 C 342 457 337.899994 401.600006 331.700012 346.200012 C 330.5 335.5 326.5 319.5 320 310.899994 C 312.100006 300.5 297.600006 298.899994 284.5 299.5 C 271.399994 300.100006 243.5 307.200012 233.100006 328.700012 L 233.100006 328.700012 Z"/>
        <g id="g2">
            <g id="g3">
                <path id="path13" fill="#ffffff" stroke="none" d="M 132.800003 243 C 132.800003 228.799988 136.900009 208.200012 158.5 208.200012 C 180.100006 208.200012 184.199997 228.799988 184.199997 243 C 184.199997 257.200012 172.100006 257.799988 157.900009 257.799988 C 143.800003 257.700012 132.800003 257.200012 132.800003 243 Z"/>
                <path id="path14" fill="#ffffff" stroke="none" d="M 217.100006 243 C 217.100006 228.799988 221.100006 208.200012 242.800003 208.200012 C 264.5 208.200012 268.5 228.799988 268.5 243 C 268.5 257.200012 256.399994 257.799988 242.199997 257.799988 C 228.100006 257.700012 217.100006 257.200012 217.100006 243 Z"/>
            </g>
            <path id="path15" fill="#ffcd70" stroke="none" d="M 216.5 252.5 C 216.5 261 202.600006 281.100006 200.800003 283.799988 C 200.699997 284 200.600006 284.100006 200.600006 284.100006 C 200.600006 284.100006 185.5 261.5 185.5 252.5 C 185.5 245.700012 193.800003 240.899994 200.100006 240.700012 L 200.199997 240.700012 C 206.5 240.399994 216.5 243.600006 216.5 252.5 Z"/>
            <path id="path16" fill="#f5b062" stroke="none" d="M 200.599991 284.100006 C 201.899994 269.700012 201.899994 255 200.199997 240.700012 C 206.5 240.5 216.5 243.600006 216.5 252.5 C 216.5 261 202.5 281.399994 200.599991 284.100006 L 200.599991 284.100006 Z"/>
            <path id="path17" fill="#33305e" stroke="#33305e" d="M 142 242.299988 C 142 231.899994 149.199997 223.5 158.100006 223.5 C 167 223.5 174.199997 231.899994 174.199997 242.299988 C 174.199997 252.700012 166.800003 257.799988 157.899994 257.799988 C 149 257.799988 142 252.700012 142 242.299988 L 142 242.299988 Z"/>
            <path id="path18" fill="#33305e" stroke="#33305e" d="M 227.199997 242.299988 C 227.199997 231.899994 234.399994 223.5 243.300003 223.5 C 252.199997 223.5 259.399994 231.899994 259.399994 242.299988 C 259.399994 252.700012 252.699997 257.799988 243.800003 257.799988 C 234.899994 257.799988 227.199997 252.700012 227.199997 242.299988 Z"/>
            <path id="path19" fill="#ffffff" stroke="none" d="M 157.355865 230.27298 C 159.230377 232.147461 158.977112 235.43988 156.790192 237.626801 C 154.603271 239.813721 151.310852 240.066986 149.436356 238.192474 C 147.561859 236.317993 147.815125 233.025574 150.002029 230.838654 C 152.18895 228.651733 155.481369 228.398468 157.355865 230.27298 Z"/>
        </g>
        <path id="path20" fill="#ffffff" stroke="none" d="M 242.554062 232.021332 C 244.428574 233.895844 244.175308 237.188263 241.988403 239.375153 C 239.801468 241.562103 236.509048 241.815338 234.634552 239.940857 C 232.760056 238.066345 233.013306 234.773926 235.200226 232.587006 C 237.387146 230.400085 240.679565 230.14682 242.554062 232.021332 Z"/>
        <g id="g4">
            <path id="path21" fill="#ffffff" stroke="#33305e" stroke-width="6" stroke-linecap="round" stroke-linejoin="round" d="M 104.900002 164.799988 C 108.200005 170.5 111 176.5 113.200005 182.600006"/>
            <path id="path22" fill="#ffffff" stroke="#33305e" stroke-width="6" stroke-linecap="round" stroke-linejoin="round" d="M 291.799988 165.899994 C 288.399994 171 286.100006 176.700012 284.899994 182.600006"/>
            <g id="g5">
                <path id="path23" fill="none" stroke="#33305e" stroke-width="6" stroke-linecap="round" stroke-linejoin="round" d="M 257.300018 343.899994 C 259.600006 349 262.899994 353.700012 267 357.600006 C 270.800018 353.399994 274.600006 349.200012 278.5 345"/>
                <path id="path24" fill="none" stroke="#33305e" stroke-width="6" stroke-linecap="round" stroke-linejoin="round" d="M 296.199982 386.600006 C 299.399994 390.600006 302.5 394.600006 307 398.399994 C 309.299988 394.399994 311.5 390.399994 313.799988 386.399994"/>
                <path id="path25" fill="none" stroke="#33305e" stroke-width="6" stroke-linecap="round" stroke-linejoin="round" d="M 300.899994 446.600006 C 300.899994 446.600006 306.600006 453.600006 310.100006 457.899994 L 317.5 443"/>
                <path id="path26" fill="none" stroke="#33305e" stroke-width="6" stroke-linecap="round" stroke-linejoin="round" d="M 232.5 329.299988 C 227.5 351.700012 231.5 375.399994 239.699997 396.899994 C 247.899994 418.399994 260.200012 438 273.100006 456.799988 C 276.399994 453.799988 279.600006 450.799988 282.100006 448.299988 C 291.700012 475.700012 312.300018 499.100006 338.300018 511.899994"/>
            </g>
        </g>
    </g>
</svg>
