<?xml version="1.0" encoding="utf-8"?>
<!-- Generator: Adobe Illustrator 26.2.1, SVG Export Plug-In . SVG Version: 6.00 Build 0)  -->
<svg version="1.1" id="a" xmlns="http://www.w3.org/2000/svg" xmlns:xlink="http://www.w3.org/1999/xlink" x="0px" y="0px"
	 viewBox="0 0 395.6 475" style="enable-background:new 0 0 395.6 475;" xml:space="preserve">
<style type="text/css">
	.st0{fill:#704D43;}
	.st1{fill:#80594E;}
	.st2{fill:#79C967;}
	.st3{opacity:0.86;fill:#5DAB4B;enable-background:new    ;}
	.st4{fill:none;stroke:#518C43;stroke-width:4;stroke-linecap:round;stroke-linejoin:round;}
	.st5{opacity:0.77;fill:#5DAB4B;enable-background:new    ;}
	.st6{fill:none;}
	.st7{fill:#FFCD70;}
	.st8{fill:#F5B062;}
	.st9{fill:#635BFF;}
	.st10{fill:#5750DE;}
	.st11{opacity:0.15;fill:#FFFFFF;enable-background:new    ;}
	.st12{fill:#FFFFFF;stroke:#33305E;stroke-width:6;stroke-linecap:round;stroke-linejoin:round;}
	.st13{fill:none;stroke:#33305E;stroke-width:6;stroke-linecap:round;stroke-linejoin:round;}
</style>
<g>
	<path class="st0" d="M334.2,447.5c-94-16.5-271-57.2-306.5-65.5c-4.3-1-8.3-3-11.8-5.7c-3.4-2.7-8-6.5-12.6-10.8
		c5.9-11.8,0.2-0.3,6-12.1c106.6,18.9,228,39.1,331.1,53c3.4,0.5,6.5,1.7,9.2,3.6c5,3.6,8.3,9.4,8.6,15.9l0,0.5
		C358.9,439.5,347.1,449.8,334.2,447.5L334.2,447.5z"/>
	<path class="st1" d="M326.3,436.3c-94-16.5-274.2-56.1-303.5-62.5c-4.3-0.9-14.6-4.2-18-6.9c-0.8-0.6-1.6-1.4-2.6-2.2
		c-5-4.5-0.9-12.7,5.7-11.6c106.6,18.9,229.7,39.4,332.6,53.2c3.4,0.5,6.5,1.7,9.2,3.6c0.4,1.5,0.7,3.1,0.8,4.7l0,0.4
		C351,428.3,339.3,438.6,326.3,436.3L326.3,436.3z"/>
	<path class="st1" d="M161.8,406.4c-23.5,12.4-41.7,16.9-67.5,23.1c-7.9,1.9-16.7,3.5-24.5,1.9c-2-0.4-3.1-2.1-3.1-3.8
		c0-1.6,0.9-3.2,2.7-3.8c21.5-7.5,40-14.7,59.1-27.1c9.2-5.9,19.4-2.4,29,5.4C159.1,403.4,160.5,404.8,161.8,406.4L161.8,406.4z"/>
	<path class="st0" d="M161.8,406.4c-23.5,12.4-41.7,16.9-67.5,23.1c-7.9,1.9-16.7,3.5-24.5,1.9c-2-0.4-3.1-2.1-3.1-3.8
		c15,0.3,29.9-2.5,44.2-6.9c15.5-4.8,32.8-11,47.7-17.5C158.7,403.1,161,403.9,161.8,406.4L161.8,406.4z"/>
	<g>
		<path class="st2" d="M84,405.4L84,405.4c0,0.1,0,0.2-0.1,0.2c0,0,0,0.1-0.1,0.1c-0.1,0.2-0.2,0.3-0.3,0.5
			c-4.6,6.5-11.6,9.7-18.9,9.6h-0.1c-0.6,0-1.3,0-1.9-0.1c-1.7-0.2-3.3-0.5-5-1c-10.8-3.3-18.7-14.5-18.2-25.9
			c0.2-0.1,0.3-0.3,0.5-0.4C50.9,380.6,77.9,384.8,84,405.4L84,405.4z"/>
		<path class="st3" d="M84,405.4c0,0,0,0.1-0.1,0.2c0,0,0,0.1-0.1,0.1c-0.1,0.2-0.2,0.3-0.3,0.5c-4.6,6.5-11.6,9.7-18.9,9.6h-0.1
			c-0.6,0-1.3,0-1.9-0.1c-1.7-0.2-3.3-0.5-5-1c-10.8-3.3-18.7-14.5-18.2-25.9c0,0,33.3,10.9,41.7,15.9C81.6,405,84,405.4,84,405.4
			L84,405.4z"/>
		<path class="st4" d="M66.8,398.8c9.1,3.2,25.2,10.4,34.7,17.2"/>
	</g>
	<g>
		<path class="st2" d="M119,459.5c-4.9,9.5-12,13.3-23.2,16.8c-7.4,2.3-7.4,2.3,0,0c-5.9-9.7-7.9-19.2-2.8-29.4
			c5.1-10.1,15.5-17,28.4-18.8c0.1,0,0.2,0,0.3,0C124.9,438.3,123.8,449.9,119,459.5L119,459.5z"/>
		<path class="st5" d="M119,459.5c-4.9,9.5-12,13.3-23.2,16.8c2.7-5.5,4.9-8.6,7.2-12.6c6.7-11.8,13.3-23.3,18.4-35.6
			c0.1,0,0.2,0,0.3,0C124.9,438.3,123.8,449.9,119,459.5z"/>
		<path class="st4" d="M110,451.2c8.8-14.8,14.8-32,14.8-32"/>
	</g>
</g>
<g>
	<g>
		<path class="st6" d="M232,379.6c0.6,0.8,1.1,1.6,1.6,2.4c3.6,5.8,5.5,12.8,5.4,19.6c-0.1,7.7-3,15.2-7.8,20.5
			c-5.2,5.8-12.4,9-19.4,12c-0.5,0.2-1.1,0.5-1.7,0.3c-0.1,0-0.2-0.1-0.4-0.1"/>
		<path class="st7" d="M231.1,391.4c-0.1,0.7-0.8,1.1-1.3,1.5c-6,3.6-12,7.2-18.1,10.6h0c-10.5,6-21.3,11.4-32.6,15.6
			c-3.7,1.4-7.5,2.6-11.3,3.6c-6.1-13.3-0.9-29.6,9.1-38.4c10-8.8,23.6-11.4,36.9-11.8c6.6,11.8,10.9,14,15.3,16.2
			C230,389.3,231.3,390.2,231.1,391.4L231.1,391.4z"/>
		<path class="st8" d="M213.7,397.4c-0.5,2.1-1.2,4.2-2.2,6.2h0c-10.5,6-21.3,11.4-32.6,15.6c-0.5-6.3,0.6-12.7,3.3-18.1
			c4.2-8.5,12-14.4,19.8-17.2c1.3-0.5,2.7-0.9,4-1.2c0.4-0.1,0.8-0.2,1.2-0.2c0.4,0.5,0.7,1,1.1,1.5c0.2,0.3,0.4,0.6,0.5,0.9
			C211.3,388.6,212.9,392.9,213.7,397.4L213.7,397.4z"/>
		<path class="st7" d="M233.2,388.3c0.6,2.4,0.5,5-0.1,7.5c-1.2,5.6-4.6,11.1-8.1,14.9c-6.8,7.4-15.1,14-24.5,17.3
			c-4.4,1.5-9,2.4-13.8,2.2c-5.2-11.3-2.8-24.7,3.5-34.7c4-6.3,8.7-11.2,14.2-15.5c6.9-5.4,16.6-5.4,23.8,0.6
			C230.6,382.7,232.4,385.1,233.2,388.3L233.2,388.3z"/>
		<path class="st8" d="M233.1,395.8c-1.2,5.6-4.6,11.1-8.1,14.9c-6.8,7.4-15.1,14-24.5,17.3c-3.3-9.4-3-20.1,1.2-28.5
			c4.2-8.5,12-14.4,19.8-17.2c1.3-0.5,2.7-0.9,4-1.2c0.4-0.1,0.8-0.2,1.2-0.2c0.4,0.5,0.7,1,1.1,1.5c0.2,0.3,0.4,0.6,0.5,0.9
			C230.7,387.1,232.3,391.4,233.1,395.8L233.1,395.8z"/>
		<path class="st7" d="M239,401.6c-0.1,7.7-3,15.2-7.8,20.5c-0.3,0.3-0.6,0.6-0.9,1c-0.2,0.2-0.3,0.3-0.5,0.5
			c-0.3,0.3-0.7,0.7-1.1,1c-4.9,4.3-11,7-17,9.5c-0.5,0.2-1.1,0.5-1.7,0.3c-0.1,0-0.2-0.1-0.4-0.1c-0.4-0.2-0.7-0.7-1-1.1
			c-0.4-0.7-0.8-1.4-1.2-2.2c-5.1-10.3-5.4-23-0.6-32.7c4.2-8.5,12-14.4,19.8-17.2c1.3-0.5,2.7-0.9,4-1.2c0.4-0.1,0.8-0.2,1.2-0.2
			c0.4,0.5,0.7,1,1.1,1.5c0.2,0.3,0.4,0.6,0.5,0.9C237.2,387.8,239.1,394.8,239,401.6L239,401.6z"/>
	</g>
	<path class="st9" d="M89.4,39.6c-12.1,45.8-16.1,100.9,5.8,152.3c-25.8,98,16.7,204.2,193.9,232.6c4.5,0.7,8.6-2.7,8.7-7.3
		c0.7-34.6-0.4-72.5,0.2-107.4c0.7-42.5,1.9-69.6,5.8-110.7c34.6-76.4-5.3-157.6-5.3-157.6s-29,12.4-40.4,25
		c-33-8.4-84-14.6-128.4,1.4C129.7,67.8,99.3,43.2,89.4,39.6L89.4,39.6z"/>
	<path class="st10" d="M279.9,422.9c0,0,6.5-69.6,3.5-116.1c0.8,4.1,4.8,6.9,8.8,7.7c4.1,0.8,8.3-0.1,12.3-1.2
		c-5.8,33-6.3,84.4-6.2,104.5c0,4.4-4,7.7-8.3,6.9L279.9,422.9L279.9,422.9z"/>
	<path class="st10" d="M295.2,43c6.4,25.5,7.4,137.2-13.2,154.4c16.1,0.9,20.6,15.7,24.4,3.8c7.5-23.2,15.3-62.7,12.4-89.3
		c-4.2-37.9-20.2-70.4-20.2-70.4L295.2,43L295.2,43z"/>
	<path class="st11" d="M122.5,256.6c3.7,78.5,70.4,116.8,107.5,129.7c5.9,2.1,11.4-4,8.8-9.7c-10.1-21.4-27.3-64.8-27.8-115
		c-0.1-6-5-10.1-10.9-9.3c-19,2.6-42.1,0.5-65.5-5.6C128.2,245.2,122.2,250.1,122.5,256.6L122.5,256.6z"/>
	<path class="st7" d="M210.2,159.2c0,8.5-13.9,28.6-15.7,31.3c-0.1,0.2-0.2,0.3-0.2,0.3s-15.1-22.6-15.1-31.6
		c0-6.8,8.3-11.6,14.6-11.8h0.1C200.1,147.2,210.2,150.3,210.2,159.2z"/>
	<path class="st8" d="M194.2,190.9c1.3-14.4,1.3-29.1-0.4-43.4c6.3-0.2,16.3,2.9,16.3,11.8C210.2,167.8,196.1,188.2,194.2,190.9
		L194.2,190.9z"/>
	<path class="st12" d="M98.5,58.9c3.3,5.7,6,11.7,8.3,17.8"/>
	<path class="st12" d="M285.4,60c-3.4,5.1-5.7,10.8-6.9,16.7"/>
	<g>
		<path class="st9" d="M223.9,212.7c5.6,63.6,41.4,115,41.4,115l12.2-10.8c10.1,32.5,26.6,51.3,55.8,64.6
			c0-64.9-1.7-173.5-21.1-200.3c-5.1-7.1-17.3-9.8-25.5-10.3C262.1,169.5,220.7,176.9,223.9,212.7z"/>
		<path class="st10" d="M226.7,199.1c25.4-22.5,56.3-22.6,67.4-10.7c27.3,29.5,31.5,187.6,31.5,187.6s4.7,6.2,8,6.6
			c1.8-55.6-2.1-110.7-8.3-166c-1.2-10.7-5.2-26.7-11.7-35.3c-7.9-10.4-22.4-12-35.5-11.4S237.1,177.7,226.7,199.1L226.7,199.1z"/>
		<g>
			<path class="st13" d="M251,214.3c2.3,5.1,5.6,9.8,9.7,13.7c3.8-4.2,7.6-8.4,11.5-12.6"/>
			<path class="st13" d="M289.8,257.1c3.2,4,6.3,8,10.8,11.8c2.3-4,4.5-8,6.8-12"/>
			<path class="st13" d="M294.5,317c0,0,5.7,7,9.2,11.3c2.5-5,5-9.9,7.4-14.9"/>
			<path class="st13" d="M226.1,199.7c-5,22.4-1,46.1,7.2,67.6s20.5,41.1,33.4,59.9c3.3-3,6.5-6,9-8.5c9.6,27.4,30.2,50.8,56.2,63.6
				"/>
		</g>
	</g>
	<g>
		<path class="st13" d="M215.9,149.7c5.2,4.9,12.8,7.1,19.8,5.8c7-1.3,13.3-6,16.5-12.4"/>
		<path class="st13" d="M172.9,149.2c-5.1,5-12.6,7.4-19.7,6.4c-7.1-1.1-13.5-5.6-16.9-11.9"/>
	</g>
</g>
<g>
	<path class="st13" d="M347.5,105.6c8.7-0.4,17.3-0.8,26-0.3c-5.3,8.8-11.3,17-17.7,26.4c7.5-2.3,15.5-3.2,23.3-2.6"/>
	<path class="st13" d="M280.9,4.1c7,0.1,14.1,0.2,19.7,1.4c-5.5,6.7-11.6,12.9-18.4,19.1c7.5,1.5,15.1,2.3,22.7,2.4"/>
	<path class="st13" d="M365.5,19.9c8.5-0.1,17.1,0.5,25.1,3.6c-7.6,4.9-15.2,9.8-24.3,17.4c8.8,1.3,17.6,2.6,26.3,3.9"/>
</g>
</svg>
