<?xml version="1.0" encoding="utf-8"?>
<!-- Generator: Adobe Illustrator 26.2.1, SVG Export Plug-In . SVG Version: 6.00 Build 0)  -->
<svg version="1.1" id="a" xmlns="http://www.w3.org/2000/svg" xmlns:xlink="http://www.w3.org/1999/xlink" x="0px" y="0px"
	 viewBox="0 0 254.7 407.5" style="enable-background:new 0 0 254.7 407.5;" xml:space="preserve">
<style type="text/css">
	.st0{fill:none;}
	.st1{fill:#FFCD70;}
	.st2{fill:#F5B062;}
	.st3{fill:#635BFF;}
	.st4{fill:#5750DE;}
	.st5{opacity:0.15;fill:#FFFFFF;enable-background:new    ;}
	.st6{fill:#FFFFFF;}
	.st7{fill:#33305E;stroke:#33305E;stroke-miterlimit:10;}
	.st8{fill:#FFFFFF;stroke:#33305E;stroke-width:6;stroke-linecap:round;stroke-linejoin:round;}
	.st9{fill:none;stroke:#33305E;stroke-width:6;stroke-linecap:round;stroke-linejoin:round;}
</style>
<g>
	<path class="st0" d="M173.4,368.2c0.1,1,0.2,1.9,0.3,2.9c0.5,6.8-1,13.9-4.3,19.8c-3.7,6.8-9.7,12.1-16.4,14.6
		c-7.3,2.7-15.2,2.2-22.8,1.6c-0.6,0-1.2-0.1-1.7-0.5c-0.1-0.1-0.2-0.2-0.3-0.3"/>
	<path class="st1" d="M167,378.2c-0.5,0.6-1.2,0.7-1.9,0.7c-7,0.4-14,0.8-21,1l0,0c-12.1,0.4-24.2,0.2-36.1-1.4
		c-3.9-0.5-7.8-1.2-11.6-2c0.8-14.6,13-26.6,25.9-29.7c12.9-3.1,26.2,0.9,38.1,6.7c0.3,13.6,3.1,17.5,6,21.4
		C167.1,375.9,167.8,377.3,167,378.2L167,378.2z"/>
	<path class="st2" d="M148.9,375.5c-1.4,1.6-3,3.1-4.8,4.4l0,0c-12.1,0.4-24.2,0.2-36.1-1.4c2.5-5.8,6.5-10.9,11.4-14.5
		c7.6-5.6,17.4-7.2,25.5-6c1.4,0.2,2.8,0.5,4.1,0.8c0.4,0.1,0.8,0.2,1.2,0.3c0.1,0.6,0.2,1.2,0.2,1.8c0,0.3,0.1,0.7,0.1,1
		C150.8,366.5,150.3,371.1,148.9,375.5z"/>
	<path class="st1" d="M170.4,376.5c-0.6,2.4-1.9,4.6-3.6,6.6c-3.7,4.4-9.2,7.7-14.1,9.4c-9.5,3.4-19.9,5.3-29.8,3.9
		c-4.6-0.7-9-2.1-13.2-4.5c0.7-12.4,9-23.2,19.2-29c6.5-3.7,12.9-5.9,19.7-7.1c8.6-1.6,17.2,2.9,20.8,11.6
		C170.7,370.4,171.2,373.3,170.4,376.5z"/>
	<path class="st2" d="M166.8,383.1c-3.7,4.4-9.2,7.7-14.1,9.4c-9.5,3.4-19.9,5.3-29.8,3.9c1.4-9.8,6.7-19.2,14.3-24.7
		c7.6-5.6,17.4-7.2,25.5-6c1.4,0.2,2.8,0.5,4.1,0.8c0.4,0.1,0.8,0.2,1.2,0.3c0.1,0.6,0.2,1.2,0.2,1.8c0,0.3,0.1,0.7,0.1,1
		C168.7,374.2,168.2,378.8,166.8,383.1L166.8,383.1z"/>
	<path class="st1" d="M169.4,390.9c-3.7,6.8-9.7,12.1-16.4,14.6c-0.4,0.1-0.8,0.3-1.2,0.4c-0.2,0.1-0.4,0.1-0.7,0.2
		c-0.5,0.1-0.9,0.3-1.4,0.4c-6.4,1.5-13,1-19.5,0.5c-0.6,0-1.2-0.1-1.7-0.5c-0.1-0.1-0.2-0.2-0.3-0.3c-0.3-0.4-0.3-0.9-0.3-1.5
		c0-0.8,0-1.6,0-2.5c0.2-11.5,5.9-22.9,14.7-29.3c7.6-5.6,17.4-7.2,25.5-6c1.4,0.2,2.8,0.5,4.1,0.8c0.4,0.1,0.8,0.2,1.2,0.3
		c0.1,0.6,0.2,1.2,0.2,1.8c0,0.3,0.1,0.7,0.1,1C174.2,377.9,172.6,385,169.4,390.9L169.4,390.9z"/>
	<path class="st3" d="M9.8,0C-2.3,45.8-6.3,100.9,15.7,152.3c-26.2,99.5,18.1,207.6,202.4,233.9c1.1-36.8-0.2-78.2,0.4-116
		c0.7-42.5,1.9-69.6,5.8-110.7C258.9,83.1,219,1.9,219,1.9s-29,12.4-40.4,25c-33-8.4-84-14.6-128.4,1.4C50.1,28.3,19.7,3.7,9.8,0
		L9.8,0z"/>
	<path class="st4" d="M200.2,383.3c0,0,6.5-69.6,3.6-116.1c0.8,4.1,4.8,6.9,8.9,7.7s8.3-0.1,12.3-1.2c-7.1,40-6.6,96.6-6.6,96.6
		l-0.3,16L200.2,383.3L200.2,383.3z"/>
	<path class="st4" d="M215.6,3.4c6.4,25.5,7.4,137.2-13.2,154.4c16.1,0.9,20.6,15.7,24.4,3.8c7.5-23.2,15.3-62.7,12.4-89.3
		C235,34.4,219,1.9,219,1.9L215.6,3.4z"/>
	<path class="st5" d="M42.9,217c3.7,78.5,70.4,116.8,107.5,129.7c5.9,2.1,11.4-4,8.8-9.7c-10.1-21.4-27.3-64.9-27.8-115
		c-0.1-6-5-10.1-10.9-9.3c-19,2.6-42.1,0.5-65.5-5.6C48.6,205.6,42.6,210.5,42.9,217L42.9,217z"/>
	<path class="st3" d="M144.3,196.8c5.6,63.6,41.4,115,41.4,115l12.2-10.8c10.1,32.5,26.6,51.3,55.8,64.6
		c0-64.9-1.7-173.5-21.1-200.3c-5.1-7.1-17.3-9.8-25.5-10.3C182.5,153.6,141.1,161,144.3,196.8L144.3,196.8z"/>
	<path class="st4" d="M147.1,183.2c25.4-22.5,56.3-22.6,67.4-10.7C241.8,202,246,360.1,246,360.1s5,6.5,8.2,7
		c1.8-55.6-2.3-111-8.5-166.4c-1.2-10.7-5.2-26.7-11.7-35.3c-7.9-10.4-22.4-12-35.5-11.4S157.5,161.7,147.1,183.2L147.1,183.2z"/>
	<g>
		<g>
			<path class="st6" d="M46.8,97.5c0-14.2,4.1-34.8,25.7-34.8s25.7,20.6,25.7,34.8s-12.1,14.8-26.3,14.8
				C57.8,112.2,46.8,111.7,46.8,97.5z"/>
			<path class="st6" d="M131.1,97.5c0-14.2,4-34.8,25.7-34.8s25.7,20.6,25.7,34.8s-12.1,14.8-26.3,14.8
				C142.1,112.2,131.1,111.7,131.1,97.5z"/>
		</g>
		<path class="st1" d="M130.5,107c0,8.5-13.9,28.6-15.7,31.3c-0.1,0.2-0.2,0.3-0.2,0.3S99.5,116,99.5,107c0-6.8,8.3-11.6,14.6-11.8
			h0.1C120.5,94.9,130.5,98.1,130.5,107z"/>
		<path class="st2" d="M114.6,138.6c1.3-14.4,1.3-29.1-0.4-43.4c6.3-0.2,16.3,2.9,16.3,11.8C130.5,115.5,116.5,135.9,114.6,138.6
			L114.6,138.6z"/>
		<path class="st7" d="M56,96.8C56,86.4,63.2,78,72.1,78s16.1,8.4,16.1,18.8s-7.4,15.5-16.3,15.5S56,107.2,56,96.8L56,96.8z"/>
		<path class="st7" d="M141.2,96.8c0-10.4,7.2-18.8,16.1-18.8s16.1,8.4,16.1,18.8s-6.7,15.5-15.6,15.5S141.2,107.2,141.2,96.8z"/>
		<ellipse transform="matrix(0.7071 -0.7071 0.7071 0.7071 -42.9822 73.6715)" class="st6" cx="67.4" cy="88.7" rx="5.6" ry="4.8"/>
	</g>
	<ellipse transform="matrix(0.7071 -0.7071 0.7071 0.7071 -19.3017 134.392)" class="st6" cx="152.6" cy="90.5" rx="5.6" ry="4.8"/>
	<g>
		<path class="st8" d="M18.9,19.3C22.2,25,25,31,27.2,37.1"/>
		<path class="st8" d="M205.8,20.4c-3.4,5.1-5.7,10.8-6.9,16.7"/>
		<g>
			<path class="st9" d="M171.3,198.4c2.3,5.1,5.6,9.8,9.7,13.7c3.8-4.2,7.6-8.4,11.5-12.6"/>
			<path class="st9" d="M210.2,241.1c3.2,4,6.3,8,10.8,11.8c2.3-4,4.5-8,6.8-12"/>
			<path class="st9" d="M214.9,301.1c0,0,5.7,7,9.2,11.3l7.4-14.9"/>
			<path class="st9" d="M146.5,183.8c-5,22.4-1,46.1,7.2,67.6c8.2,21.5,20.5,41.1,33.4,59.9c3.3-3,6.5-6,9-8.5
				c9.6,27.4,30.2,50.8,56.2,63.6"/>
		</g>
	</g>
</g>
</svg>
