<?xml version="1.0" encoding="UTF-8"?>
<!-- Generated by Pixelmator Pro 3.6.5 -->
<svg width="924" height="284" viewBox="0 0 924 284" xmlns="http://www.w3.org/2000/svg">
    <path id="path1" fill="#00326f" stroke="none" d="M 93.364792 -0.046143 C 63.072861 -0.046143 46.915756 1.975708 39.844894 1.975708 C 28.063705 1.975708 17.629578 1.637451 7.191101 1.637451 C 1.471161 1.637451 0.461533 1.975708 0.461533 4.331543 C 0.461533 8.368286 1.806412 8.709595 16.957779 8.709595 C 26.378403 8.709595 31.770447 11.73938 31.770447 38.331055 L 31.770447 193.175568 C 31.770447 198.224152 31.093033 198.898102 15.946854 198.898102 C 8.540314 198.898102 6.51889 199.567291 6.51889 202.9375 C 6.51889 206.302917 8.875549 206.63858 12.245743 206.63858 C 23.014694 206.63858 30.421249 205.293732 44.557358 205.293732 C 59.367859 205.293732 73.507874 208.656128 87.646576 208.656128 C 134.438232 208.656128 165.745392 190.820618 165.745392 153.117859 C 165.745392 123.832947 145.878967 112.385284 130.058807 104.301758 C 123.326233 100.937164 116.929306 99.254456 116.929306 98.583557 C 116.929306 97.576508 124.335846 93.871063 130.735382 89.493835 C 141.509521 82.089905 155.983459 70.302643 155.983459 46.404633 C 155.983459 22.503967 137.130554 -0.046997 93.363495 -0.046997 Z M 670.133545 0.338928 C 668.37677 0.338928 657.250122 5.316467 634.413208 6.780457 C 629.437866 7.072815 627.091064 6.777405 627.091064 10.291443 C 627.091064 13.515198 630.022156 14.102539 635.29248 14.102539 C 648.465271 14.102539 650.223816 14.10083 650.223816 32.543976 L 650.223816 193.869446 C 650.223816 199.139801 645.24408 198.84787 633.24115 198.84787 C 626.210938 198.84787 625.919495 200.609406 625.919495 202.658966 C 625.919495 205.000488 626.503357 205.585663 633.24115 205.585663 C 637.339905 205.585663 652.860291 205.002228 662.811462 205.002228 C 668.087891 205.002228 674.52771 205.585663 678.918762 205.585663 C 689.457336 205.585663 691.50647 205.585236 691.50647 202.658966 C 691.50647 200.311401 692.091125 198.555939 677.451294 198.555939 C 672.183167 198.555939 670.133118 195.335602 670.133118 171.036926 C 670.133118 162.541901 671.597107 139.41571 671.597107 27.85968 C 671.597107 19.077942 673.060242 8.532471 673.060242 5.018494 C 673.060242 1.797302 671.59491 0.336304 670.133118 0.336304 Z M 427.054932 0.630859 C 424.41803 0.630859 407.141296 7.068481 386.063843 7.068481 C 382.84259 7.068481 382.257019 8.240967 382.257019 11.167236 C 382.257019 13.221985 383.428223 14.102966 395.428528 14.102966 C 403.333191 14.102966 405.677734 16.738159 405.677734 37.523254 C 405.677734 99.304291 404.797607 185.968262 404.797607 194.457642 C 404.797607 198.848724 402.164185 198.848297 392.209961 198.848297 C 385.182373 198.848297 383.720581 200.312286 383.720581 202.659424 C 383.720581 205.292847 385.477356 205.58609 392.209961 205.58609 C 396.308228 205.58609 407.143066 205.002686 417.102478 205.002686 C 426.471497 205.002686 439.93457 205.58609 444.325195 205.58609 C 450.765869 205.58609 452.23114 205.585663 452.23114 202.659424 C 452.23114 200.311859 451.060791 198.84787 444.325195 198.84787 C 426.174377 198.84787 426.763062 198.850037 426.763062 185.092896 L 426.763062 166.647156 C 426.763062 164.010223 430.860474 161.958038 435.544312 159.029236 C 440.519714 155.808014 444.616699 152.883087 445.788757 152.883087 C 447.545532 152.883087 459.849487 171.332336 472.144836 185.385284 C 484.440552 199.437347 487.077026 206.757721 492.350403 206.757721 C 496.449097 206.757721 505.231262 206.46579 508.744873 206.46579 C 511.37915 206.46579 515.184204 206.757721 518.698242 206.757721 C 525.138 206.757721 527.187622 206.171692 527.187622 204.122528 C 527.187622 201.781036 524.847351 200.311401 517.822449 200.311401 C 507.868652 200.311401 498.498718 185.967407 488.539246 173.96402 C 468.046936 149.367767 462.78009 143.807251 462.78009 141.170776 C 462.78009 139.121613 480.930847 126.242462 495.573303 111.891937 C 504.647461 103.110199 514.599487 90.52298 514.599487 87.883453 C 514.599487 87.004211 513.430054 86.711853 511.088501 86.711853 C 507.577576 86.711853 490.590149 87.587646 486.783813 87.587646 C 483.270203 87.587646 477.710571 86.711853 474.783875 86.711853 C 470.977966 86.711853 469.51355 87.29657 469.51355 89.64328 C 469.51355 92.279755 470.976624 92.861877 475.36731 92.861877 C 488.247742 92.861877 489.127014 93.449188 489.127014 98.132233 C 489.127014 104.28009 486.491394 109.258514 475.075806 120.089386 C 465.706299 128.87677 435.250244 155.810181 427.930298 155.810181 C 427.053223 155.810181 426.763062 154.930939 426.763062 153.758881 C 426.763062 106.036011 428.51416 73.245361 428.51416 28.741089 C 428.51416 19.371582 429.101929 7.068054 429.101929 3.264282 C 429.101929 1.507935 428.516785 0.629578 427.054932 0.629578 Z M 83.261993 8.033081 C 113.895218 8.033081 128.03479 40.350311 128.03479 57.183105 C 128.03479 83.77478 116.92627 90.170837 107.164352 97.577393 C 107.164352 97.577393 93.023483 95.555511 72.493042 95.555511 C 64.409515 95.555511 60.036179 96.22644 60.036179 90.839142 L 60.036179 17.79718 C 60.036179 11.064575 61.047546 8.03479 83.261566 8.03479 Z M 230.884033 83.782135 C 204.241272 83.782135 176.423401 108.378815 176.423401 149.661438 C 176.423401 198.556793 212.145905 210.27301 236.152222 210.27301 C 259.868774 210.27301 284.7565 191.82074 284.7565 190.358917 C 284.7565 189.771576 283.877686 188.015686 282.413269 188.015686 C 280.659088 188.015686 270.118835 195.04541 250.795959 195.04541 C 228.540802 195.04541 197.208954 184.21106 197.208954 143.805511 C 197.208954 137.072906 198.09079 135.60849 202.779022 135.316132 C 236.151794 133.266998 265.431488 126.829346 273.044189 125.066956 C 280.954071 123.31015 285.052765 122.140717 285.052765 120.968201 C 285.052765 118.626709 280.364563 111.598297 275.383545 105.745361 C 264.845032 93.447052 246.109497 83.784729 230.881866 83.784729 Z M 572.283936 83.782135 C 545.643799 83.782135 517.822876 108.378815 517.822876 149.661438 C 517.822876 198.556793 553.543213 210.27301 577.551697 210.27301 C 601.265625 210.27301 626.156433 191.82074 626.156433 190.358917 C 626.156433 189.771576 625.274963 188.015686 623.813171 188.015686 C 622.055969 188.015686 611.514404 195.04541 592.191101 195.04541 C 569.938965 195.04541 538.612305 184.21106 538.612305 143.805511 C 538.612305 137.072906 539.491577 135.60849 544.174133 135.316132 C 577.552551 133.266998 606.82666 126.829346 614.444519 125.066956 C 622.349243 123.31015 626.44873 122.140717 626.44873 120.968201 C 626.44873 118.626709 621.766174 111.598297 616.787781 105.745361 C 606.243591 93.447052 587.508972 83.784729 572.281799 83.784729 Z M 741.161926 83.782135 C 714.516113 83.782135 686.700867 108.378815 686.700867 149.661438 C 686.700867 198.556793 722.421204 210.27301 746.429688 210.27301 C 770.146606 210.27301 795.034851 191.82074 795.034851 190.358917 C 795.034851 189.771576 794.153381 188.015686 792.691589 188.015686 C 790.934387 188.015686 780.39801 195.04541 761.069519 195.04541 C 738.820007 195.04541 707.490723 184.21106 707.490723 143.805511 C 707.490723 137.072906 708.369995 135.60849 713.052979 135.316132 C 746.431396 133.266998 775.711121 126.829346 783.323364 125.066956 C 791.228027 123.31015 795.327637 122.140717 795.327637 120.968201 C 795.327637 118.626709 790.645508 111.598297 785.666626 105.745361 C 775.128052 93.447052 756.386963 83.784729 741.164978 83.784729 Z M 332.773041 85.829559 C 328.084412 85.829559 322.520844 87.293121 317.837341 87.293121 C 311.982269 87.293121 306.417847 86.704895 296.464081 86.704895 C 291.483063 86.704895 291.777588 87.587646 291.777588 91.10379 C 291.777588 94.325439 291.775848 94.030884 297.052246 94.030884 C 313.446289 94.030884 312.858521 94.616486 312.858521 114.524506 L 312.858521 194.751312 C 312.858521 198.850037 311.982269 199.141937 299.978943 199.141937 C 292.948792 199.141937 292.65683 199.724945 292.65683 202.65683 C 292.65683 205.58609 293.240692 205.583923 299.978943 205.583923 C 304.077637 205.583923 314.0336 204.120392 323.987427 204.120392 C 333.359497 204.120392 352.974304 205.583923 357.072571 205.583923 C 364.684875 205.583923 364.978546 205.878448 364.978546 202.65683 C 364.978546 200.017334 364.684875 199.141937 357.072571 199.141937 C 335.408203 199.141937 334.53244 199.139343 334.53244 184.794464 L 334.53244 124.475281 C 334.53244 112.179993 340.969635 105.15329 357.948395 105.15329 C 372.59082 105.15329 376.106567 117.157532 380.205322 117.157532 C 381.962036 117.157532 386.643372 104.276184 386.643372 101.346924 C 386.643372 93.736816 373.177277 87.290955 367.900879 87.290955 C 354.141174 87.290955 340.3862 102.518555 335.995544 102.518555 C 334.823517 102.518555 334.531982 100.469849 334.531982 97.836395 C 334.531982 96.956268 335.115845 90.515167 335.115845 89.050323 C 335.115845 86.703613 333.944672 85.827393 332.772614 85.827393 Z M 917.392334 86.121063 C 913.293579 86.121063 905.38855 87.293121 900.997925 87.293121 C 893.087524 87.293121 887.818604 86.709259 879.916016 86.709259 C 874.645325 86.709259 873.766052 86.707062 873.766052 90.516022 C 873.766052 93.444885 874.938049 93.447479 884.015259 93.447479 C 893.966431 93.447479 893.963745 95.20166 893.963745 103.983826 C 893.963745 108.082123 883.426575 138.536896 876.401184 159.613953 C 871.71814 173.37973 869.960938 177.476288 867.911804 177.476288 C 866.739746 177.476288 863.224915 172.499603 860.877747 166.352173 C 843.31427 121.257538 835.701965 111.008789 835.701965 102.519409 C 835.701965 95.786804 837.458374 94.030029 844.483337 94.030029 C 850.631165 94.030029 851.804993 93.736816 851.804993 91.102936 C 851.804993 87.876099 850.631165 86.707947 844.483337 86.707947 C 835.116821 86.707947 824.865051 87.58374 816.66803 87.58374 C 809.643066 87.58374 807.595215 86.999878 799.398193 86.999878 C 794.127441 86.999878 793.252075 88.466034 793.252075 91.102936 C 793.252075 93.736816 793.542725 94.030029 799.398193 94.030029 C 804.665955 94.030029 806.717285 95.496185 814.03717 113.059662 C 830.141846 151.12326 853.560425 205.289398 853.560425 208.511017 C 853.560425 217.292755 828.388123 251.839783 817.844421 265.013031 C 807.890198 277.606323 794.127441 279.362701 794.127441 281.119904 C 794.127441 282.58432 797.054504 284.046997 802.032898 284.046997 C 808.473572 284.046997 810.521484 281.705505 819.303162 280.536041 C 825.748596 279.656799 829.261719 279.362701 832.483398 272.922882 C 841.849854 253.596985 855.02832 229.87912 873.474487 185.083801 C 896.60376 128.874176 909.488525 93.736359 915.928833 93.736359 C 919.442749 93.736359 923.538452 92.271515 923.538452 89.637634 C 923.538452 86.413422 922.075806 86.118469 917.392334 86.118469 Z M 227.9552 89.932617 C 241.425598 89.932617 258.697174 111.594818 258.697174 118.914734 C 258.697174 120.671509 258.408264 121.257111 255.186615 121.841858 C 233.226868 125.355408 217.415833 129.167847 202.191254 129.167847 C 198.674652 129.167847 198.676392 128.872437 198.676392 127.40802 C 198.676392 123.304108 205.705261 89.931732 227.954773 89.931732 Z M 569.349487 89.932617 C 582.822449 89.932617 600.095764 111.594818 600.095764 118.914734 C 600.095764 120.671509 599.802551 121.257111 596.580872 121.841858 C 574.621155 125.355408 558.811829 129.167847 543.589844 129.167847 C 540.076294 129.167847 540.074951 128.872437 540.074951 127.40802 C 540.074951 123.304108 547.099976 89.931732 569.34906 89.931732 Z M 738.227417 89.932617 C 751.695251 89.932617 768.973694 111.594818 768.973694 118.914734 C 768.973694 120.671509 768.680542 121.257111 765.458862 121.841858 C 743.499084 125.355408 727.690674 129.167847 712.463501 129.167847 C 708.949951 129.167847 708.948608 128.872437 708.948608 127.40802 C 708.948608 123.304108 715.97229 89.931732 738.227051 89.931732 Z M 72.179459 101.944641 C 108.868301 101.944641 133.77597 125.509155 133.77597 155.806732 C 133.77597 185.092041 114.928238 202.601379 89.346619 202.601379 C 78.572479 202.601379 67.804825 200.243408 64.098953 196.201874 C 61.072235 192.834259 60.05957 173.986115 60.05957 170.954193 L 60.05957 110.69519 C 60.05957 103.29126 62.755814 101.943787 72.182053 101.943787 Z M 239.102722 239.362122 C 232.186462 239.362122 226.417603 243.534485 226.417603 250.448547 C 226.417603 263.588898 243.730286 261.246094 243.730286 268.560394 C 243.730286 271.473175 241.500946 273.987518 236.98819 273.987518 C 233.958832 273.987518 230.132141 272.562531 226.929565 270.391663 L 224.074799 275.421204 C 227.274323 277.646179 231.614746 279.765045 236.988617 279.765045 C 244.473541 279.765045 250.701538 274.958618 250.701538 268.332123 C 250.701538 255.01593 233.388428 259.02066 233.388428 250.16095 C 233.388428 247.248138 235.332306 245.1362 239.103149 245.1362 C 242.473358 245.1362 245.099854 246.279663 248.015259 247.762726 L 250.47287 242.847534 C 247.162445 240.793182 243.215302 239.362549 239.103149 239.362549 Z M 377.125671 239.362122 C 365.355347 239.362122 360.101044 247.76358 360.101044 259.533905 C 360.101044 270.733398 365.298615 279.765503 377.125671 279.765503 C 388.95282 279.765503 394.154724 270.733398 394.154724 259.533905 C 394.154724 247.76358 388.896057 239.362122 377.125671 239.362122 Z M 468.878967 239.362122 C 457.108643 239.362122 451.334167 247.819885 451.334167 259.593262 C 451.334167 271.591003 456.59668 279.765045 468.650757 279.765045 C 473.907654 279.765045 478.822388 277.589447 482.820618 273.932526 L 479.335205 269.478607 C 476.135681 272.393585 472.480042 273.987518 468.993347 273.987518 C 461.735352 273.987518 458.304504 268.792542 458.304504 259.534363 C 458.304504 250.33551 461.965332 245.135742 468.878967 245.135742 C 472.59314 245.135742 475.335693 246.45163 478.362427 248.963776 L 481.906738 244.391632 C 477.791992 241.018402 473.735718 239.362122 468.879395 239.362122 Z M 617.643616 239.362122 C 605.870728 239.362122 600.618958 247.76358 600.618958 259.533905 C 600.618958 270.733398 605.816589 279.765503 617.643616 279.765503 C 629.470764 279.765503 634.672668 270.733398 634.672668 259.533905 C 634.672668 247.76358 629.414001 239.362122 617.643616 239.362122 Z M 70.869232 239.932983 L 64.296036 240.622528 L 64.296036 279.134827 L 71.097061 279.134827 L 71.097061 252.850708 L 71.211411 252.850708 L 87.724548 279.134827 L 93.781891 279.134827 L 93.781891 239.99231 L 86.980438 239.99231 L 86.980438 265.709503 L 86.811508 265.709503 L 70.869675 239.933411 Z M 158.101929 239.932983 L 158.101929 279.134827 L 181.873047 279.134827 L 182.389343 273.361206 L 164.902954 273.361206 L 164.902954 262.278687 L 179.589142 262.278687 L 179.589142 256.505035 L 164.902954 256.505035 L 164.902954 245.707062 L 181.416077 245.707062 L 181.416077 239.933411 Z M 402.902222 239.932983 L 402.902222 279.134827 L 409.699768 279.134827 L 409.699768 262.278687 L 424.102722 262.278687 L 424.102722 256.505035 L 409.699768 256.505035 L 409.699768 245.707062 L 425.755981 245.707062 L 425.755981 239.933411 Z M 508.023254 239.932983 L 500.083923 240.563202 L 486.311707 279.134827 L 492.656616 279.134827 L 495.909424 269.702118 L 511.682373 269.702118 L 514.939514 279.134827 L 521.914185 279.134827 L 508.023682 239.932983 Z M 573.377563 239.932983 L 573.377563 279.134827 L 580.175232 279.134827 L 580.175232 262.278687 L 594.577698 262.278687 L 594.577698 256.505035 L 580.175232 256.505035 L 580.175232 245.707062 L 596.235718 245.707062 L 596.235718 239.933411 Z M 680.442078 239.932983 L 673.868896 240.622528 L 673.868896 279.134827 L 680.666443 279.134827 L 680.666443 252.850708 L 680.785156 252.850708 L 697.293945 279.134827 L 703.351257 279.134827 L 703.351257 239.99231 L 696.553711 239.99231 L 696.553711 265.709503 L 696.380432 265.709503 L 680.442078 239.933411 Z M 745.96405 239.932983 L 738.020447 240.563202 L 724.248169 279.134827 L 730.593079 279.134827 L 733.850281 269.702118 L 749.618408 269.702118 L 752.875549 279.134827 L 759.850708 279.134827 L 745.964478 239.932983 Z M 25.882889 239.991882 L 25.882889 265.531494 C 25.882889 274.332733 30.738297 279.765045 40.34082 279.765045 C 49.880112 279.765045 54.738983 274.334045 54.738983 265.476471 L 54.738983 239.991882 L 47.937088 239.991882 L 47.937088 265.933441 C 47.937088 270.792755 45.884476 273.987091 40.340393 273.987091 C 34.740005 273.987091 32.680466 270.790588 32.680466 265.874542 L 32.680466 239.991882 L 25.883759 239.991882 Z M 103.467575 239.991882 L 103.467575 279.134827 L 110.265152 279.134827 L 110.265152 239.991882 Z M 116.947922 239.991882 L 130.43219 279.134827 L 137.91452 279.134827 L 151.458557 239.991882 L 144.770996 239.991882 L 137.288666 261.877167 C 137.288666 261.877167 136.546692 264.103027 134.603241 270.789276 L 134.260193 270.789276 C 132.373474 264.103027 131.63327 261.818268 131.63327 261.818268 L 124.146576 239.991882 L 116.947922 239.991882 Z M 191.38678 239.991882 L 191.38678 279.134827 L 198.184357 279.134827 L 198.184357 263.475861 L 201.441498 263.475861 C 203.899536 263.475861 205.32843 265.765808 206.470581 268.107758 L 211.897308 279.134399 L 219.383972 279.134399 L 211.897308 265.019958 C 211.442505 264.104767 210.755127 263.074341 209.499054 262.330231 L 209.499054 262.219757 C 214.639893 260.276306 216.871368 256.278076 216.871368 251.595062 C 216.871368 244.794891 212.583801 239.99231 203.953674 239.99231 L 191.387207 239.99231 Z M 258.798523 239.991882 L 258.798523 279.134827 L 265.596069 279.134827 L 265.596069 239.991882 Z M 273.421021 239.991882 L 273.421021 245.820984 L 283.766815 245.820984 L 283.766815 279.134827 L 290.564362 279.134827 L 290.564362 245.7612 L 300.44931 245.7612 L 300.965607 239.991882 Z M 305.415161 239.991882 L 317.758118 262.38913 L 317.758118 279.134827 L 324.555237 279.134827 L 324.555237 262.388702 L 336.902527 239.991882 L 329.411499 239.991882 L 323.870453 251.137665 C 323.870453 251.137665 323.184814 252.562256 321.243958 256.906982 L 321.075043 256.906982 C 319.015045 252.562256 318.270508 251.137665 318.270508 251.137665 L 313.072052 239.991882 L 305.416443 239.991882 Z M 527.422363 239.991882 L 527.422363 279.134827 L 550.563293 279.134827 L 551.07959 273.361206 L 534.223389 273.361206 L 534.223389 239.991882 Z M 557.699097 239.991882 L 557.699097 279.134827 L 564.496643 279.134827 L 564.496643 239.991882 Z M 640.535522 239.991882 L 640.535522 279.134827 L 647.336975 279.134827 L 647.336975 263.475861 L 650.594116 263.475861 C 653.049133 263.475861 654.480652 265.765808 655.622803 268.107758 L 661.049927 279.134399 L 668.537048 279.134399 L 661.050354 265.019958 C 660.595581 264.104767 659.908203 263.074341 658.652161 262.330231 L 658.652161 262.219757 C 663.792542 260.276306 666.024414 256.278076 666.024414 251.595062 C 666.024414 244.794891 661.73645 239.99231 653.10675 239.99231 L 640.535522 239.99231 Z M 711.893982 239.991882 L 711.893982 279.134827 L 718.691528 279.134827 L 718.691528 239.991882 Z M 377.115784 245.135315 C 383.859619 245.135315 387.115479 251.020294 387.115479 259.533905 C 387.115479 268.047546 383.805481 273.987091 377.115784 273.987091 C 370.375366 273.987091 367.06192 268.044952 367.06192 259.474152 C 367.06192 250.96051 370.375366 245.135315 377.115784 245.135315 Z M 617.628479 245.135315 C 624.371948 245.135315 627.627747 251.020294 627.627747 259.533905 C 627.627747 268.047546 624.315125 273.987091 617.628479 273.987091 C 610.885071 273.987091 607.574219 268.044952 607.574219 259.474152 C 607.574219 250.96051 610.885498 245.135315 617.628479 245.135315 Z M 198.183929 245.820984 L 203.784302 245.820984 C 208.413177 245.820984 209.900543 247.992249 209.900543 251.649628 C 209.900543 255.363739 208.013397 257.761536 203.898651 257.761536 L 198.183929 257.761536 Z M 647.335693 245.820984 L 652.936096 245.820984 C 657.56543 245.820984 659.052795 247.992249 659.052795 251.649628 C 659.052795 255.363739 657.165161 257.761536 653.050415 257.761536 L 647.335693 257.761536 Z M 503.65509 246.848785 L 503.76947 246.848785 C 506.454895 254.961365 506.912231 256.217438 506.912231 256.217438 L 509.940735 264.84671 L 497.539307 264.84671 L 500.567749 256.217865 C 500.567749 256.217865 501.026917 254.961792 503.655518 246.848785 Z M 741.595947 246.848785 L 741.710266 246.848785 C 744.395691 254.961365 744.857361 256.217438 744.857361 256.217438 L 747.881531 264.84671 L 735.480103 264.84671 L 738.512878 256.217865 C 738.512878 256.217865 738.967712 254.961792 741.596313 246.848785 Z"/>
</svg>
