<?xml version="1.0" encoding="UTF-8"?>
<!-- Generated by Pixelmator Pro 3.6.5 -->
<svg width="924" height="222" viewBox="0 0 924 222" xmlns="http://www.w3.org/2000/svg">
    <g id="g1">
        <path id="path1" fill="#f58427" stroke="none" d="M 789.970154 216.966522 L 825.858643 216.966522 L 825.858643 140.477966 C 825.858643 122.235046 834.098267 99.289429 861.168091 99.289429 C 879.411011 99.289429 887.641235 108.116913 887.641235 128.710907 L 887.641235 216.966522 L 923.529663 216.966522 L 923.529663 118.418335 C 923.529663 75.167969 894.40625 64.576752 869.109009 64.576752 C 848.804321 64.576752 834.387512 72.51767 826.446594 82.819641 L 825.858643 82.819641 L 825.858643 1.618408 L 789.970154 1.618408 Z M 778.791565 106.941101 C 769.674255 84.583374 752.019836 64.576752 715.833252 64.576752 C 667.589783 64.576752 639.642761 98.113617 639.642761 142.530945 C 639.642761 186.957123 667.589783 220.493988 713.182922 220.493988 C 753.494324 220.493988 770.552002 196.671204 780.554749 174.891998 L 749.957458 158.720306 C 744.368164 172.251099 735.251404 187.545044 713.779663 187.545044 C 688.772217 187.545044 677.294434 165.784058 677.294434 142.530945 C 677.294434 119.295502 690.237305 97.525696 715.833252 97.525696 C 729.951355 97.525696 742.604431 106.642456 747.316528 121.35788 Z M 517.651001 123.410889 C 521.477112 107.529022 535.305969 93.99823 556.189758 93.99823 C 580.311218 93.99823 590.01593 115.46994 590.01593 123.410889 Z M 627.676941 151.068634 C 627.676941 97.814941 605.906616 64.576752 556.189758 64.576752 C 507.9375 64.576752 479.989929 98.113617 479.989929 142.530945 C 479.989929 186.957123 507.9375 220.493988 556.189758 220.493988 C 596.781006 220.493988 618.261536 201.084656 629.440674 184.017578 L 599.141479 166.371979 C 595.605164 171.364532 584.426025 187.545044 556.189758 187.545044 C 536.771057 187.545044 518.238892 173.137085 517.651001 151.068634 Z M 410.175903 35.689056 L 410.175903 182.841766 C 410.175903 205.498138 420.17926 218.730255 449.591858 218.730255 C 460.779846 218.730255 469.597961 216.966522 478.136169 215.202789 L 478.136169 185.781311 C 472.836182 186.369232 467.246338 187.545044 462.244934 187.545044 C 448.416077 187.545044 446.064453 181.078583 446.064453 169.311523 L 446.064453 93.99823 L 478.136169 93.99823 L 478.136169 68.104218 L 446.064453 68.104218 L 446.064453 -0.24469 Z M 350.039551 216.966522 L 385.92804 216.966522 L 385.92804 1.618408 L 350.039551 1.618408 Z M 288.45575 163.722229 C 288.45575 182.841766 266.984589 191.081329 250.206787 191.081329 C 237.264465 191.081329 226.971863 183.719482 226.971863 172.540344 C 226.971863 158.422211 238.151001 154.5961 251.681244 151.9552 L 271.389221 147.830994 C 277.865082 146.655151 283.753021 144.891418 288.45575 142.530945 Z M 324.344269 113.416962 C 324.344269 71.052582 292.28186 64.576752 260.210083 64.576752 C 227.559784 64.576752 196.663818 78.107513 196.663818 113.118286 L 232.561157 114.592773 C 232.561157 98.412262 239.326843 92.234497 260.210083 92.234497 C 275.802704 92.234497 288.45575 96.349884 288.45575 111.056458 L 288.45575 115.46994 C 279.338989 118.707581 262.561737 121.647156 249.618866 124.297424 L 234.614166 127.237 C 212.555084 131.650452 189.310822 144.602173 189.310822 173.725006 C 189.310822 202.549744 211.668518 220.493988 239.914185 220.493988 C 258.44635 220.493988 274.626862 214.614899 288.45575 203.43631 C 288.45575 207.261871 289.631561 213.439056 291.983215 216.966522 L 329.933563 216.966522 C 327.880554 213.728882 324.344269 207.261871 324.344269 191.958527 Z M 183.902039 68.104218 C 173.899261 24.27478 141.827484 2.206299 99.76178 2.206299 C 37.102081 2.206299 0.453979 53.099518 0.453979 112.2323 C 0.453979 171.364532 32.688065 222.257721 99.76178 222.257721 C 141.538239 222.257721 169.485229 201.961823 186.253662 159.896118 L 150.365173 143.417511 C 142.71405 167.837067 127.121429 185.781311 99.76178 185.781311 C 57.985336 185.781311 40.628998 148.717529 40.628998 112.2323 C 40.628998 75.75589 57.985336 38.691559 99.76178 38.691559 C 123.593964 38.691559 142.71405 54.573975 145.951691 77.817719 Z"/>
    </g>
</svg>
