<?xml version="1.0" encoding="UTF-8"?>
<!-- Generated by Pixelmator Pro 3.6.5 -->
<svg width="399" height="80" viewBox="0 0 399 80" xmlns="http://www.w3.org/2000/svg">
    <g id="Logo">
        <path id="path1" fill="#800000" stroke="none" d="M 398.390015 5.639999 L 398.420013 5.589996 L 398.420013 5.529999 C 398.369995 4.559998 398.339996 3.299995 398.339996 2 L 398.339996 1.739998 L 398.089996 1.799995 C 397.76001 1.869995 396.109985 1.869995 394.51001 1.869995 L 389.570007 1.869995 C 388.559998 1.869995 387.660004 1.849998 386.470001 1.790001 L 386.420013 1.790001 L 386.369995 1.809998 C 386.149994 1.919998 386.109985 2.229996 386.100006 2.330002 C 386.079987 2.559998 386.149994 2.75 386.290009 2.839996 L 386.809998 2.93 C 388.170013 3.089996 388.23999 3.239998 388.23999 6.110001 L 388.23999 15.779999 C 388.23999 18.619995 388.170013 18.769997 386.809998 18.93 L 386.070007 19.019997 L 386 19.07 C 385.850006 19.220001 385.820007 19.470001 385.850006 19.650002 C 385.880005 19.849998 385.970001 20 386.100006 20.07 L 386.149994 20.090004 L 386.200012 20.090004 C 387.459991 20.040001 388.359985 20.010002 389.549988 20.010002 C 390.630005 20.010002 391.559998 20.040001 393.119995 20.090004 L 393.170013 20.090004 L 393.220001 20.07 C 393.399994 19.980003 393.470001 19.739998 393.480011 19.550003 C 393.48999 19.32 393.429993 19.129997 393.290009 19.049995 L 392.279999 18.940002 C 390.910004 18.82 390.829987 18.650002 390.829987 15.790001 L 390.829987 12.059998 C 390.829987 11.540001 390.829987 11.540001 391.51001 11.540001 L 393.339996 11.540001 C 394.279999 11.540001 394.98999 11.559998 395.339996 11.659996 C 395.720001 11.779999 395.920013 12.029999 396.059998 12.529999 L 396.339996 13.639999 L 396.390015 13.68 C 396.649994 13.909996 397.230011 13.900002 397.390015 13.639999 L 397.429993 13.589996 L 397.429993 13.529999 C 397.429993 13.25 397.410004 12.889999 397.390015 12.489998 C 397.359985 12 397.329987 11.449997 397.329987 10.919998 C 397.329987 10.379997 397.359985 9.799995 397.390015 9.290001 C 397.410004 8.869995 397.429993 8.5 397.429993 8.199997 L 397.429993 8.139999 L 397.390015 8.089996 C 397.26001 7.900002 396.98999 7.879997 396.880005 7.879997 C 396.660004 7.879997 396.459991 7.949997 396.359985 8.07 L 396.079987 9.229996 C 395.929993 9.879997 395.75 9.949997 395.540009 10.019997 C 395.26001 10.110001 394.429993 10.169998 393.320007 10.169998 L 391.48999 10.169998 C 390.809998 10.169998 390.809998 10.169998 390.809998 9.650002 L 390.809998 3.979996 C 390.809998 3.110001 390.809998 3.110001 391.410004 3.110001 L 393.049988 3.110001 C 394.160004 3.110001 395.040009 3.110001 395.600006 3.269997 C 396.75 3.57 397.100006 4.339996 397.329987 5.659996 L 397.339996 5.729996 L 397.399994 5.779999 C 397.5 5.869995 397.649994 5.919998 397.809998 5.919998 C 398.040009 5.919998 398.290009 5.830002 398.390015 5.639999 L 398.390015 5.639999 Z M 380.359985 10.860001 C 380.359985 6.32 377.380005 1.440002 370.829987 1.440002 C 365.26001 1.440002 361.059998 5.610001 361.059998 11.129997 C 361.059998 15.760002 364.420013 20.440002 370.829987 20.440002 C 376.269989 20.449997 380.359985 16.330002 380.359985 10.860001 L 380.359985 10.860001 Z M 377.26001 11.699997 C 377.26001 17.239998 373.980011 19.199997 371.179993 19.199997 C 365.640015 19.199997 364.160004 13.589996 364.160004 10.269997 C 364.160004 4.669998 367.51001 2.690002 370.380005 2.690002 C 375.459991 2.690002 377.26001 7.540001 377.26001 11.699997 L 377.26001 11.699997 Z M 353.640015 57.610001 C 353.640015 69.209999 362.279999 79.459999 376.589996 79.459999 C 389.029999 79.459999 398.959991 69.980003 398.959991 56.959999 C 398.959991 45.620003 391.480011 34.849998 376.589996 34.849998 C 363.309998 34.849998 353.640015 44.720001 353.640015 57.610001 L 353.640015 57.610001 Z M 360.089996 55.550003 C 360.089996 41.43 368.790009 36.860001 375.5 36.860001 C 387.809998 36.860001 392.519989 48.330002 392.519989 58.970001 C 392.519989 71.669998 385.170013 77.470001 377.440002 77.470001 C 364.730011 77.459999 360.089996 65.090004 360.089996 55.550003 L 360.089996 55.550003 Z M 347.48999 2.830002 C 347.630005 2.709999 347.700012 2.519997 347.679993 2.309998 C 347.660004 2.099998 347.559998 1.919998 347.410004 1.830002 L 347.350006 1.790001 L 347.290009 1.790001 C 345.380005 1.900002 344.25 1.900002 342.23999 1.790001 L 342.190002 1.790001 L 342.140015 1.809998 C 341.98999 1.889999 341.890015 2.040001 341.859985 2.220001 C 341.820007 2.440002 341.890015 2.659996 342.040009 2.809998 L 342.089996 2.860001 L 342.640015 2.919998 C 343.160004 2.979996 343.48999 3.110001 343.579987 3.18 C 343.5 3.559998 342.559998 5.309998 341.98999 6.369995 L 341.869995 6.599998 C 341.220001 7.849998 340.480011 9.199997 339.529999 10.82 C 338.820007 9.540001 338.130005 8.129997 337.459991 6.769997 C 337.200012 6.239998 336.940002 5.699997 336.670013 5.18 C 336.480011 4.790001 335.869995 3.419998 335.859985 3.199997 C 335.859985 3.150002 335.980011 3.040001 336.809998 2.919998 L 337.230011 2.860001 L 337.279999 2.809998 C 337.429993 2.659996 337.48999 2.400002 337.429993 2.169998 C 337.390015 1.989998 337.269989 1.849998 337.109985 1.799995 L 337.070007 1.790001 L 337.029999 1.790001 C 336.369995 1.839996 335.410004 1.869995 334.170013 1.869995 C 332.929993 1.869995 331.940002 1.839996 331.070007 1.790001 L 331.01001 1.790001 L 330.959991 1.82 C 330.829987 1.900002 330.73999 2.040001 330.709991 2.220001 C 330.670013 2.440002 330.730011 2.659996 330.859985 2.809998 L 330.910004 2.869995 L 331.730011 3.019997 C 332.440002 3.139999 332.799988 3.199997 333.700012 4.949997 L 336.869995 11.129997 C 337.630005 12.589996 337.709991 12.889999 337.709991 14.369995 L 337.709991 15.739998 C 337.709991 18.659996 337.640015 18.799995 336.290009 18.949997 L 335.380005 19.040001 L 335.329987 19.089996 C 335.179993 19.239998 335.160004 19.489998 335.190002 19.68 C 335.220001 19.879997 335.309998 20.029999 335.440002 20.090004 L 335.48999 20.110001 L 335.540009 20.110001 C 336.98999 20.059998 337.929993 20.029999 339.049988 20.029999 C 340.140015 20.029999 341.100006 20.059998 342.700012 20.110001 L 342.75 20.110001 L 342.799988 20.090004 C 342.929993 20.029999 343.019989 19.870003 343.049988 19.68 C 343.079987 19.5 343.059998 19.25 342.899994 19.089996 L 342.850006 19.040001 L 341.75 18.949997 C 340.51001 18.860001 340.329987 18.650002 340.329987 15.739998 L 340.329987 14.339996 C 340.329987 12.330002 340.390015 12.129997 341.559998 10.089996 L 343.25 7.159996 C 343.399994 6.900002 343.549988 6.639999 343.690002 6.389999 C 344.75 4.540001 345.51001 3.209999 346.649994 3.010002 L 347.459991 2.869995 L 347.48999 2.830002 L 347.48999 2.830002 Z M 337.079987 35.699997 C 335.980011 35.440002 332.570007 34.730003 328.890015 34.730003 C 319.149994 34.730003 312.769989 37.760002 308.459991 42.270004 C 304.459991 46.520004 302.660004 52.07 302.660004 57.550003 C 302.660004 63.220001 304.720001 68.309998 308.589996 72.18 C 313.549988 77.209999 320.579987 79.340004 328.25 79.340004 C 331.730011 79.340004 336.369995 78.57 339.790009 77.660004 C 341.01001 77.340004 342.179993 77.080002 342.950012 77.080002 C 343.209991 76.889999 343.209991 76.5 343.019989 76.309998 C 341.859985 75.860001 341.470001 74.309998 341.470001 71.730003 L 341.470001 68.120003 C 341.470001 64.830002 341.529999 63.029999 344.23999 62.699997 L 345.269989 62.57 C 345.720001 62.18 345.660004 61.220001 345.209991 60.959999 C 343.079987 61.090004 340.890015 61.150002 338.380005 61.150002 C 334.579987 61.150002 331.029999 61.090004 329.160004 60.959999 C 328.709991 61.150002 328.640015 62.309998 329.160004 62.57 L 332 62.889999 C 336 63.340004 336.190002 63.730003 336.190002 69.139999 L 336.190002 71.720001 C 336.190002 73.779999 335.869995 74.940002 335.549988 75.389999 C 334.839996 76.480003 332.450012 77.32 328.459991 77.32 C 315.5 77.32 309.119995 67.580002 309.119995 55.209999 C 309.119995 45.540001 314.600006 36.639999 327.109985 36.639999 C 333.690002 36.639999 338.519989 38.830002 340.320007 45.790001 C 340.709991 46.18 341.869995 46.110001 342.059998 45.599998 C 341.480011 41.730003 341.089996 38.379997 341.089996 36.25 C 340.299988 36.410004 338.309998 35.959999 337.079987 35.699997 L 337.079987 35.699997 Z M 327.089996 1.459999 L 327.109985 1.389999 L 327.079987 1.32 C 326.980011 1.119995 326.700012 1.099998 326.589996 1.099998 C 326.519989 1.099998 326.420013 1.110001 326.339996 1.139999 L 326.269989 1.169998 L 326.230011 1.229996 C 325.890015 1.830002 325.73999 1.879997 324.309998 1.879997 L 313.209991 1.879997 C 312.01001 1.879997 311.470001 1.82 311.359985 1.220001 L 311.350006 1.159996 L 311.299988 1.110001 C 311.230011 1.040001 311.100006 1 310.929993 1 C 310.869995 1 310.649994 1.010002 310.529999 1.080002 L 310.459991 1.129997 L 310.440002 1.220001 C 310.25 2.290001 309.850006 3.989998 309.429993 5.190002 L 309.399994 5.269997 L 309.440002 5.349998 C 309.600006 5.669998 310.149994 5.830002 310.450012 5.610001 L 310.48999 5.580002 L 310.51001 5.529999 C 310.779999 4.909996 311.040009 4.32 311.670013 3.75 C 312.26001 3.209999 313.600006 3.129997 314.839996 3.129997 L 316.320007 3.129997 C 316.920013 3.129997 316.920013 3.129997 316.920013 3.779999 L 316.920013 15.790001 C 316.920013 18.699997 316.75 18.830002 315.440002 18.940002 L 314.470001 19.019997 L 314.380005 19.049995 C 314.220001 19.150002 314.130005 19.349998 314.140015 19.590004 C 314.149994 19.770004 314.220001 20 314.399994 20.080002 L 314.450012 20.099998 L 314.5 20.099998 C 316.140015 20.050003 317.130005 20.020004 318.230011 20.020004 C 319.279999 20.020004 320.149994 20.050003 321.73999 20.099998 L 321.790009 20.099998 L 321.839996 20.080002 C 322.059998 19.970001 322.100006 19.660004 322.100006 19.559998 C 322.109985 19.330002 322.049988 19.139999 321.910004 19.049995 L 320.950012 18.940002 C 319.609985 18.82 319.529999 18.650002 319.529999 15.790001 L 319.529999 3.739998 C 319.529999 3.470001 319.529999 3.209999 319.570007 3.169998 C 319.619995 3.119995 319.910004 3.119995 320.100006 3.119995 L 322 3.119995 C 323.440002 3.119995 324.420013 3.330002 324.98999 3.75 C 325.23999 3.940002 325.459991 4.619995 325.579987 5.57 L 325.589996 5.629997 L 325.630005 5.68 C 325.730011 5.799995 325.910004 5.869995 326.119995 5.869995 C 326.369995 5.869995 326.589996 5.760002 326.679993 5.580002 L 326.709991 5.529999 L 326.700012 5.470001 C 326.619995 4.699997 326.799988 2.540001 327.089996 1.459999 L 327.089996 1.459999 Z M 302.600006 15.729996 L 302.600006 6.159996 C 302.600006 3.220001 302.679993 3.040001 304.049988 2.93 L 304.779999 2.869995 L 304.820007 2.839996 C 304.950012 2.75 305.019989 2.559998 305.01001 2.330002 C 305 2.239998 304.970001 1.919998 304.75 1.809998 L 304.700012 1.790001 L 304.649994 1.790001 C 303.380005 1.839996 302.429993 1.869995 301.329987 1.869995 C 300.179993 1.869995 299.25 1.839996 297.950012 1.790001 L 297.899994 1.790001 L 297.850006 1.809998 C 297.630005 1.919998 297.589996 2.239998 297.589996 2.330002 C 297.579987 2.559998 297.640015 2.75 297.779999 2.839996 L 297.820007 2.869995 L 298.540009 2.93 C 299.910004 3.049995 299.98999 3.229996 299.98999 6.159996 L 299.98999 15.720001 C 299.98999 18.610001 299.920013 18.760002 298.529999 18.93 L 297.790009 19.019997 L 297.73999 19.07 C 297.589996 19.220001 297.559998 19.470001 297.589996 19.660004 C 297.619995 19.860001 297.709991 20.010002 297.839996 20.07 L 297.890015 20.090004 L 297.940002 20.090004 C 299.309998 20.040001 300.209991 20.010002 301.320007 20.010002 C 302.390015 20.010002 303.279999 20.040001 304.640015 20.090004 L 304.690002 20.090004 L 304.73999 20.07 C 304.959991 19.959999 305 19.639999 305 19.550003 C 305.01001 19.32 304.950012 19.129997 304.809998 19.040001 L 304.049988 18.93 C 302.670013 18.769997 302.600006 18.619995 302.600006 15.729996 L 302.600006 15.729996 Z M 297.179993 76.699997 C 294.410004 76.379997 293.570007 75.410004 291.700012 69.870003 L 282.869995 43.959999 C 281.899994 41.120003 280.869995 38.160004 280.029999 35.32 C 279.899994 34.870003 279.450012 34.739998 279.059998 34.739998 C 278.350006 35.580002 277.26001 36.739998 275.709991 37.190002 C 275.899994 38.220001 275.519989 39.440002 274.609985 41.770004 L 268.040009 59.18 C 265.329987 66.400002 263.529999 70.590004 262.369995 73.559998 C 261.470001 75.879997 260.049988 76.590004 258.5 76.720001 L 256.369995 76.910004 C 255.980011 77.230003 256.109985 78.260002 256.5 78.520004 C 258.23999 78.459999 260.559998 78.330002 262.690002 78.330002 C 265.720001 78.389999 267.720001 78.389999 269.399994 78.520004 C 269.980011 78.260002 269.980011 77.230003 269.529999 76.910004 L 267.399994 76.720001 C 265.850006 76.590004 265.529999 76.199997 265.529999 75.43 C 265.529999 74.720001 265.980011 72.980003 266.950012 70.080002 L 269.209991 63.309998 C 269.660004 61.959999 270.049988 61.760002 271.660004 61.760002 L 281.390015 61.760002 C 283.320007 61.760002 283.579987 61.949997 284.029999 63.370003 L 286.859985 72.139999 C 287.380005 73.690002 287.700012 74.849998 287.700012 75.559998 C 287.700012 76.209999 286.799988 76.590004 285.450012 76.720001 L 283.579987 76.910004 C 283.130005 77.230003 283.190002 78.260002 283.709991 78.520004 C 285.579987 78.459999 288.029999 78.330002 291.119995 78.330002 C 294.019989 78.330002 296.279999 78.389999 298.920013 78.520004 C 299.23999 78.260002 299.369995 77.230003 298.920013 76.910004 L 297.179993 76.699997 L 297.179993 76.699997 Z M 280.549988 59.160004 L 272.619995 59.160004 C 270.809998 59.160004 270.75 59.099998 271.269989 57.610001 L 275.329987 46.389999 C 276.040009 44.459999 276.679993 42.910004 276.880005 42.590004 L 277 42.590004 C 277.390015 43.360001 277.970001 45.110001 278.480011 46.650002 L 281.959991 57.160004 C 282.540009 58.910004 282.410004 59.160004 280.549988 59.160004 L 280.549988 59.160004 Z M 284.179993 5.470001 C 284.179993 4.43 284.570007 2.690002 287.170013 2.690002 C 289.540009 2.690002 290.26001 4.229996 290.630005 5.57 L 290.670013 5.650002 C 290.76001 5.75 290.899994 5.809998 291.079987 5.809998 C 291.279999 5.809998 291.559998 5.729996 291.670013 5.549995 L 291.700012 5.5 L 291.700012 5.440002 C 291.700012 4.339996 291.470001 2.809998 291.209991 2.089996 L 291.160004 1.959999 L 291.019989 1.959999 C 290.829987 1.959999 290.470001 1.909996 290.130005 1.809998 C 289.48999 1.639999 288.480011 1.449997 287.579987 1.449997 C 284.179993 1.449997 281.890015 3.389999 281.890015 6.279999 C 281.890015 8.729996 283.76001 10.339996 284.880005 11.07 L 287.429993 12.739998 C 289.279999 13.93 289.540009 15.169998 289.540009 16.330002 C 289.540009 17.760002 288.570007 19.209999 286.390015 19.209999 C 283.670013 19.209999 282.480011 17.110001 281.970001 15.360001 L 281.940002 15.299995 C 281.859985 15.18 281.709991 15.110001 281.529999 15.110001 C 281.350006 15.110001 281.089996 15.18 280.959991 15.369995 L 280.920013 15.43 L 280.920013 15.5 C 280.970001 16.709999 281.320007 18.699997 281.670013 19.349998 L 281.700012 19.400002 L 281.75 19.43 C 282.279999 19.739998 283.75 20.449997 286.040009 20.449997 C 289.579987 20.449997 291.970001 18.369995 291.970001 15.269997 C 291.970001 13.119995 290.839996 11.379997 288.519989 9.940002 L 286.369995 8.599998 C 285.549988 8.089996 284.179993 7.010002 284.179993 5.470001 L 284.179993 5.470001 Z M 277.410004 20.129997 C 277.529999 20.029999 277.600006 19.870003 277.570007 19.720001 C 277.549988 19.57 277.459991 19.459999 277.329987 19.400002 L 277.269989 19.389999 C 276.630005 19.339996 275.980011 19.080002 275.529999 18.690002 C 273.679993 17.139999 272.209991 14.869995 270.170013 11.589996 C 270.029999 11.360001 270.01001 11.260002 270.01001 11.220001 C 270.899994 10.849998 273.420013 9.529999 273.420013 6.57 C 273.420013 4.32 272.149994 3.18 271.079987 2.629997 C 269.730011 1.900002 268.01001 1.799995 266.5 1.799995 C 264.040009 1.799995 262.130005 1.869995 260.48999 2.010002 L 260.420013 2.029999 C 260.26001 2.110001 260.160004 2.279999 260.140015 2.489998 C 260.119995 2.720001 260.209991 2.940002 260.359985 3.049995 L 260.399994 3.080002 L 261.309998 3.190002 C 262.190002 3.299995 262.309998 3.489998 262.309998 6.129997 L 262.309998 15.779999 C 262.309998 18.619995 262.23999 18.769997 260.880005 18.93 L 260.130005 19.019997 L 260.079987 19.080002 C 259.929993 19.260002 259.910004 19.510002 259.950012 19.690002 C 259.98999 19.870003 260.070007 20 260.200012 20.07 L 260.25 20.090004 L 260.299988 20.090004 C 261.48999 20.040001 262.470001 20.010002 263.649994 20.010002 C 264.76001 20.010002 265.690002 20.040001 266.839996 20.090004 L 266.890015 20.090004 L 266.940002 20.07 C 267.140015 19.970001 267.190002 19.709999 267.200012 19.610001 C 267.230011 19.370003 267.160004 19.169998 267.029999 19.059998 L 267 19.019997 L 266.380005 18.93 C 265 18.739998 264.950012 18.619995 264.950012 15.779999 L 264.950012 12.389999 C 264.950012 12.010002 264.950012 12.010002 266.01001 12.010002 C 267.040009 12.010002 267.390015 12.260002 267.75 12.779999 C 268.160004 13.369995 268.630005 14.119995 269.089996 14.849998 C 269.570007 15.610001 270.019989 16.330002 270.380005 16.830002 C 272.220001 19.459999 273.619995 20.300003 276.109985 20.300003 C 276.630005 20.300003 277.079987 20.25 277.359985 20.160004 L 277.410004 20.129997 L 277.410004 20.129997 Z M 269.309998 10.139999 C 268.540009 10.720001 267.5 10.799995 266.670013 10.799995 C 265.459991 10.799995 265.079987 10.75 264.970001 10.720001 C 264.940002 10.610001 264.940002 10.290001 264.940002 9.979996 L 264.940002 3.690002 C 264.940002 3.089996 264.940002 3.040001 266.480011 3.040001 C 269.5 3.040001 270.570007 5.159996 270.570007 6.970001 C 270.579987 8.459999 270.170013 9.470001 269.309998 10.139999 L 269.309998 10.139999 Z M 255.429993 16.199997 L 255.440002 16.139999 L 255.410004 16.080002 C 255.290009 15.82 255.01001 15.709999 254.779999 15.709999 C 254.649994 15.709999 254.529999 15.75 254.429993 15.809998 L 254.369995 15.889999 C 253.600006 17.43 252.910004 18.209999 252.549988 18.400002 C 251.970001 18.690002 251.160004 18.779999 249.200012 18.779999 C 246.959991 18.779999 246.390015 18.510002 246.100006 18.229996 C 245.720001 17.830002 245.640015 16.949997 245.640015 15.580002 L 245.640015 11.790001 C 245.640015 11.269997 245.640015 11.269997 246.320007 11.269997 L 247.880005 11.269997 C 248.820007 11.269997 249.519989 11.290001 249.899994 11.400002 C 250.269989 11.489998 250.459991 11.739998 250.579987 12.269997 L 250.820007 13.32 L 250.859985 13.409996 C 250.959991 13.529999 251.149994 13.599998 251.359985 13.599998 C 251.609985 13.599998 251.809998 13.510002 251.890015 13.349998 L 251.920013 13.299995 L 251.920013 13.239998 C 251.920013 12.979996 251.899994 12.629997 251.880005 12.239998 C 251.850006 11.75 251.820007 11.199997 251.820007 10.659996 C 251.820007 10.099998 251.850006 9.519997 251.880005 9.019997 C 251.899994 8.610001 251.920013 8.239998 251.920013 7.949997 L 251.920013 7.900002 L 251.890015 7.849998 C 251.799988 7.690002 251.600006 7.599998 251.350006 7.599998 C 251.140015 7.599998 250.950012 7.669998 250.850006 7.790001 L 250.589996 8.979996 C 250.470001 9.589996 250.320007 9.690002 250.079987 9.760002 C 249.790009 9.860001 248.980011 9.909996 247.859985 9.909996 L 246.299988 9.909996 C 245.619995 9.909996 245.619995 9.909996 245.619995 9.360001 L 245.619995 3.989998 C 245.619995 3.119995 245.619995 3.119995 246.220001 3.119995 L 248.149994 3.119995 C 249.290009 3.119995 250.160004 3.150002 250.709991 3.279999 C 251.929993 3.589996 252.179993 4.360001 252.549988 5.529999 L 252.600006 5.690002 L 252.640015 5.760002 C 252.730011 5.869995 252.890015 5.93 253.079987 5.93 C 253.26001 5.93 253.519989 5.869995 253.640015 5.690002 L 253.679993 5.629997 L 253.640015 5.229996 C 253.5 3.669998 253.369995 2.339996 253.230011 1.93 L 253.170013 1.75 L 252.98999 1.790001 C 252.690002 1.860001 251.029999 1.860001 249.410004 1.860001 L 244.359985 1.860001 C 243.320007 1.860001 242.440002 1.839996 241.200012 1.779999 L 241.149994 1.779999 L 241.100006 1.799995 C 240.880005 1.909996 240.839996 2.220001 240.829987 2.32 C 240.809998 2.559998 240.880005 2.739998 241.019989 2.830002 L 241.540009 2.919998 C 242.920013 3.080002 243 3.260002 243 6.099998 L 243 15.769997 C 243 18.68 242.829987 18.809998 241.519989 18.919998 L 240.559998 19.010002 L 240.51001 19.059998 C 240.359985 19.209999 240.329987 19.459999 240.359985 19.639999 C 240.390015 19.840004 240.480011 19.989998 240.609985 20.059998 L 240.660004 20.080002 L 240.709991 20.080002 C 242.26001 20.029999 243.200012 20 244.359985 20 L 246.779999 20 C 249.119995 20 251.480011 20.029999 253.980011 20.080002 L 254.109985 20.080002 L 254.170013 19.959999 C 254.570007 19.220001 255.23999 17.139999 255.429993 16.199997 L 255.429993 16.199997 Z M 237.01001 2.82 C 237.160004 2.669998 237.179993 2.419998 237.160004 2.239998 C 237.130005 2.040001 237.049988 1.900002 236.920013 1.82 L 236.869995 1.790001 L 236.809998 1.790001 C 235.910004 1.839996 235.089996 1.869995 234.220001 1.869995 C 233.160004 1.869995 232.149994 1.839996 231.440002 1.790001 L 231.380005 1.790001 L 231.329987 1.82 C 231.179993 1.909996 231.079987 2.080002 231.059998 2.299995 C 231.040009 2.510002 231.109985 2.709999 231.23999 2.830002 L 231.290009 2.869995 L 231.829987 2.93 C 232.769989 3.040001 232.859985 3.229996 232.859985 3.229996 C 232.859985 3.409996 232.829987 3.669998 232.630005 4.199997 C 232.170013 5.369995 230.890015 8.449997 230.130005 10.209999 C 229.929993 10.669998 229.679993 11.260002 229.399994 11.919998 C 228.890015 13.129997 228.269989 14.599998 227.73999 15.75 C 226.470001 12.830002 225.299988 9.900002 224.109985 6.909996 C 223.320007 4.979996 222.869995 3.580002 222.790009 3.229996 C 222.829987 3.150002 223.059998 3.029999 223.869995 2.919998 L 224.329987 2.860001 L 224.380005 2.82 C 224.519989 2.699997 224.589996 2.5 224.570007 2.290001 C 224.549988 2.080002 224.450012 1.900002 224.299988 1.809998 L 224.25 1.779999 L 224.190002 1.779999 C 223 1.839996 222.059998 1.860001 220.950012 1.860001 C 219.829987 1.860001 218.970001 1.839996 218.170013 1.779999 L 218.100006 1.779999 L 218.040009 1.82 C 217.880005 1.919998 217.779999 2.099998 217.769989 2.299995 C 217.75 2.510002 217.829987 2.699997 217.959991 2.82 L 218.01001 2.860001 L 218.559998 2.919998 C 219.600006 3.040001 219.959991 3.519997 220.570007 5 L 225.299988 16.659996 C 225.859985 18.059998 226.279999 19.25 226.529999 20.209999 L 226.559998 20.309998 L 226.660004 20.349998 C 226.820007 20.410004 226.980011 20.449997 227.140015 20.449997 C 227.290009 20.449997 227.440002 20.410004 227.549988 20.340004 L 227.609985 20.300003 L 227.630005 20.230003 C 228.089996 18.790001 229.380005 15.619995 230.420013 13.239998 L 231.869995 9.940002 C 233.119995 7.119995 234.149994 4.989998 234.869995 3.790001 C 235.209991 3.239998 235.570007 2.989998 236.100006 2.949997 L 236.980011 2.889999 L 237.01001 2.82 L 237.01001 2.82 Z M 219.470001 40.209999 C 214.570007 44.010002 211.350006 50.139999 211.350006 57.290001 C 211.350006 65.610001 215.350006 71.470001 220.5 75.020004 C 225.209991 78.18 230.75 79.340004 236.549988 79.340004 C 240.679993 79.340004 245.320007 78.370003 246.73999 77.860001 C 247.450012 77.599998 248.220001 77.349998 249 77.220001 C 249.970001 76 251.640015 71.739998 252.089996 68.389999 C 251.829987 67.940002 250.859985 67.809998 250.420013 68.129997 C 248.940002 71.93 245.26001 77.349998 236.950012 77.349998 C 226.380005 77.349998 217.799988 69.870003 217.799988 56.330002 C 217.799988 42.989998 226.179993 36.730003 236.040009 36.730003 C 245.390015 36.730003 248.290009 41.760002 249.26001 46.139999 C 249.709991 46.529999 250.679993 46.459999 251 46.010002 C 250.48999 42.080002 250.160004 38.020004 250.100006 36.529999 C 249.519989 36.599998 249.070007 36.470001 248.299988 36.270004 C 245.269989 35.43 240.369995 34.720001 236.890015 34.720001 C 230.170013 34.730003 224.170013 36.540001 219.470001 40.209999 L 219.470001 40.209999 Z M 211.220001 15.729996 L 211.220001 6.159996 C 211.220001 3.25 211.309998 3.040001 212.670013 2.93 L 213.390015 2.869995 L 213.429993 2.839996 C 213.559998 2.75 213.630005 2.559998 213.619995 2.330002 C 213.609985 2.239998 213.579987 1.919998 213.359985 1.809998 L 213.309998 1.790001 L 213.26001 1.790001 C 211.990005 1.839996 211.039993 1.869995 209.940002 1.869995 C 208.789993 1.869995 207.860001 1.839996 206.559998 1.790001 L 206.509995 1.790001 L 206.460007 1.809998 C 206.240005 1.919998 206.199997 2.229996 206.190002 2.330002 C 206.179993 2.559998 206.240005 2.75 206.380005 2.839996 L 206.419998 2.869995 L 207.139999 2.93 C 208.5 3.049995 208.589996 3.260002 208.589996 6.159996 L 208.589996 15.720001 C 208.589996 18.610001 208.520004 18.760002 207.130005 18.93 L 206.389999 19.019997 L 206.339996 19.07 C 206.190002 19.220001 206.160004 19.470001 206.190002 19.660004 C 206.220001 19.860001 206.309998 20.010002 206.440002 20.07 L 206.490005 20.090004 L 206.539993 20.090004 C 207.899994 20.040001 208.800003 20.010002 209.919998 20.010002 C 210.979996 20.010002 211.910004 20.040001 213.23999 20.090004 L 213.290009 20.090004 L 213.339996 20.07 C 213.559998 19.959999 213.600006 19.639999 213.609985 19.550003 C 213.619995 19.32 213.559998 19.129997 213.420013 19.040001 L 212.660004 18.93 C 211.289993 18.769997 211.220001 18.619995 211.220001 15.729996 L 211.220001 15.729996 Z M 197.740005 68.510002 L 197.740005 45.559998 C 197.740005 38.730003 197.869995 37.629997 201.669998 37.309998 L 203.279999 37.18 C 203.669998 36.919998 203.539993 35.760002 203.149994 35.57 C 199.929993 35.699997 197.740005 35.760002 195.160004 35.760002 C 192.449997 35.760002 190.259995 35.690002 187.039993 35.57 C 186.649994 35.760002 186.520004 36.919998 186.910004 37.18 L 188.520004 37.309998 C 192.320007 37.629997 192.449997 38.730003 192.449997 45.559998 L 192.449997 68.510002 C 192.449997 75.340004 192.320007 76.25 188.520004 76.699997 L 186.910004 76.889999 C 186.520004 77.279999 186.649994 78.309998 187.039993 78.5 C 190.259995 78.370003 192.460007 78.309998 195.160004 78.309998 C 197.740005 78.309998 199.929993 78.370003 203.149994 78.5 C 203.539993 78.309998 203.669998 77.150002 203.279999 76.889999 L 201.669998 76.699997 C 197.869995 76.25 197.740005 75.349998 197.740005 68.510002 L 197.740005 68.510002 Z M 201.070007 2.82 C 201.199997 2.690002 201.259995 2.479996 201.240005 2.269997 C 201.220001 2.080002 201.119995 1.919998 200.979996 1.830002 L 200.919998 1.790001 L 200.850006 1.790001 C 199.970001 1.839996 199.270004 1.869995 198.100006 1.869995 C 197.149994 1.869995 196.270004 1.849998 194.940002 1.790001 L 194.899994 1.790001 L 194.860001 1.799995 C 194.699997 1.860001 194.589996 2 194.559998 2.199997 C 194.520004 2.440002 194.589996 2.68 194.740005 2.82 L 194.789993 2.860001 L 195.309998 2.919998 C 196.229996 3.040001 196.699997 3.169998 196.830002 3.360001 C 197.149994 3.869995 197.339996 5.849998 197.339996 8.809998 L 197.339996 14.559998 C 197.339996 14.82 197.339996 15.119995 197.320007 15.330002 C 196.389999 14.369995 195.410004 13.279999 194.199997 11.919998 L 190.460007 7.729996 C 187.800003 4.75 186.279999 2.790001 185.940002 1.919998 L 185.880005 1.769997 L 185.720001 1.790001 C 185.399994 1.839996 184.960007 1.869995 184.509995 1.869995 C 184.039993 1.869995 182.610001 1.869995 181.490005 1.790001 L 181.429993 1.790001 L 181.380005 1.82 C 181.240005 1.889999 181.139999 2.040001 181.110001 2.220001 C 181.070007 2.440002 181.139999 2.68 181.270004 2.82 L 181.320007 2.869995 L 181.850006 2.93 C 182.570007 3.019997 183.100006 3.220001 183.389999 3.510002 C 183.889999 4.059998 183.929993 4.549995 183.929993 5.299995 L 183.929993 13.309998 C 183.929993 14.610001 183.929993 17.650002 183.600006 18.519997 C 183.539993 18.659996 183.309998 18.839996 182.580002 18.940002 L 181.779999 19.029999 L 181.729996 19.080002 C 181.610001 19.199997 181.550003 19.389999 181.570007 19.590004 C 181.589996 19.790001 181.679993 19.959999 181.809998 20.059998 L 181.869995 20.099998 L 181.940002 20.099998 C 182.869995 20.050003 183.589996 20.020004 184.720001 20.020004 C 185.630005 20.020004 186.539993 20.040001 187.850006 20.099998 L 187.919998 20.099998 L 187.979996 20.059998 C 188.110001 19.970001 188.190002 19.830002 188.220001 19.660004 C 188.25 19.459999 188.199997 19.260002 188.080002 19.099998 L 188.029999 19.029999 L 187.100006 18.940002 C 186.460007 18.889999 186.009995 18.739998 185.889999 18.529999 C 185.600006 18.019997 185.429993 16.029999 185.429993 13.07 L 185.429993 7.209999 C 185.429993 6.729996 185.440002 6.220001 185.490005 5.849998 C 185.919998 6.330002 186.630005 7.169998 187.270004 7.919998 C 187.710007 8.440002 188.110001 8.919998 188.380005 9.220001 L 194.610001 16.309998 C 196.679993 18.669998 197.669998 19.840004 198.029999 20.349998 L 198.089996 20.440002 L 198.199997 20.440002 C 198.550003 20.440002 198.820007 20.279999 198.910004 20 L 198.919998 19.959999 L 198.910004 19.919998 C 198.869995 19.610001 198.830002 18.540001 198.830002 15.239998 L 198.830002 8.459999 C 198.830002 7.080002 198.820007 4.220001 199.210007 3.379997 C 199.240005 3.309998 199.570007 3.080002 200.559998 2.93 L 201 2.869995 L 201.070007 2.82 L 201.070007 2.82 Z M 176.990005 2.779999 C 177.110001 2.639999 177.169998 2.409996 177.130005 2.220001 C 177.100006 2.049995 177.020004 1.919998 176.880005 1.830002 L 176.820007 1.799995 L 176.75 1.799995 C 175.820007 1.849998 175.089996 1.879997 173.940002 1.879997 C 172.910004 1.879997 171.910004 1.849998 170.889999 1.799995 L 170.820007 1.799995 L 170.759995 1.839996 C 170.639999 1.919998 170.550003 2.080002 170.520004 2.260002 C 170.490005 2.459999 170.539993 2.659996 170.660004 2.790001 L 170.720001 2.860001 L 171.479996 2.919998 C 172.100006 2.970001 172.520004 3.139999 172.660004 3.379997 C 172.970001 3.93 173.149994 5.869995 173.149994 8.839996 L 173.149994 11.93 C 173.149994 15.099998 172.25 18.869995 167.979996 18.869995 C 164.399994 18.869995 162.729996 16.659996 162.729996 11.900002 L 162.729996 6.099998 C 162.729996 3.239998 162.820007 3.040001 164.149994 2.919998 L 164.850006 2.860001 L 164.889999 2.830002 C 165.020004 2.739998 165.089996 2.559998 165.080002 2.330002 C 165.070007 2.139999 164.990005 1.909996 164.820007 1.82 L 164.770004 1.799995 L 164.720001 1.799995 C 163.449997 1.849998 162.539993 1.879997 161.429993 1.879997 C 160.330002 1.879997 159.380005 1.849998 158.110001 1.799995 L 158.059998 1.799995 L 158.009995 1.82 C 157.830002 1.909996 157.759995 2.139999 157.740005 2.32 C 157.720001 2.549995 157.789993 2.729996 157.929993 2.82 L 157.979996 2.849998 L 158.699997 2.909996 C 160.029999 3.029999 160.119995 3.229996 160.119995 6.089996 L 160.119995 12.43 C 160.119995 15.68 160.789993 17.68 162.289993 18.93 C 163.470001 19.940002 165.210007 20.459999 167.449997 20.459999 C 169.570007 20.459999 171.589996 19.68 172.729996 18.43 C 174.029999 17.029999 174.669998 14.889999 174.669998 11.869995 L 174.669998 8.830002 C 174.669998 7.470001 174.669998 4.279999 175.029999 3.440002 C 175.149994 3.169998 175.610001 2.959999 176.199997 2.909996 L 176.929993 2.849998 L 176.990005 2.779999 L 176.990005 2.779999 Z M 146.110001 37.18 C 146.5 36.919998 146.369995 35.760002 145.979996 35.57 C 143.210007 35.699997 141.020004 35.760002 138.5 35.760002 C 135.729996 35.760002 133.539993 35.629997 130.380005 35.57 C 129.990005 35.760002 129.860001 36.919998 130.25 37.18 L 131.929993 37.309998 C 135.279999 37.57 135.729996 38.660004 135.729996 45.43 L 135.729996 68.639999 C 135.729996 75.410004 135.600006 76.050003 131.990005 76.699997 L 130.899994 76.889999 C 130.509995 77.279999 130.639999 78.309998 131.029999 78.5 C 133.539993 78.440002 135.740005 78.309998 138.509995 78.309998 C 141.020004 78.309998 143.220001 78.370003 146.699997 78.5 C 147.089996 78.309998 147.220001 77.150002 146.830002 76.889999 L 144.960007 76.699997 C 141.350006 76.309998 141.029999 75.410004 141.029999 68.639999 L 141.029999 59.550003 C 141.029999 57.620003 141.160004 57.489998 144.25 57.489998 L 162.690002 57.489998 C 165.779999 57.489998 165.910004 57.620003 165.910004 59.550003 L 165.910004 68.639999 C 165.910004 75.410004 165.910004 76.050003 161.979996 76.699997 L 160.759995 76.889999 C 160.369995 77.279999 160.5 78.309998 160.889999 78.5 C 163.729996 78.370003 166.050003 78.309998 168.690002 78.309998 C 171.199997 78.309998 173.399994 78.370003 176.490005 78.5 C 176.880005 78.309998 177.009995 77.150002 176.619995 76.889999 L 175.070007 76.699997 C 171.330002 76.25 171.199997 75.410004 171.199997 68.639999 L 171.199997 45.43 C 171.199997 38.660004 171.330002 37.690002 175.070007 37.309998 L 176.419998 37.18 C 176.809998 36.919998 176.679993 35.760002 176.289993 35.57 C 173.389999 35.699997 171.199997 35.760002 168.679993 35.760002 C 166.039993 35.760002 163.850006 35.690002 160.880005 35.57 C 160.490005 35.760002 160.360001 36.919998 160.75 37.18 L 161.970001 37.309998 C 165.770004 37.699997 165.899994 38.660004 165.899994 45.43 L 165.899994 52.840004 C 165.899994 54.840004 165.770004 54.900002 162.679993 54.900002 L 144.240005 54.900002 C 141.149994 54.900002 141.020004 54.840004 141.020004 52.840004 L 141.020004 45.43 C 141.020004 38.660004 141.149994 37.690002 144.889999 37.309998 L 146.110001 37.18 L 146.110001 37.18 Z M 143.509995 16.199997 L 143.520004 16.139999 L 143.490005 16.080002 C 143.369995 15.82 143.089996 15.709999 142.860001 15.709999 C 142.729996 15.709999 142.610001 15.75 142.509995 15.809998 L 142.440002 15.889999 C 141.669998 17.43 140.979996 18.209999 140.630005 18.400002 C 140.050003 18.690002 139.240005 18.779999 137.279999 18.779999 C 135.039993 18.779999 134.470001 18.510002 134.179993 18.229996 C 133.800003 17.82 133.720001 16.949997 133.720001 15.580002 L 133.720001 11.790001 C 133.720001 11.269997 133.720001 11.269997 134.399994 11.269997 L 135.960007 11.269997 C 136.899994 11.269997 137.600006 11.290001 137.979996 11.400002 C 138.350006 11.489998 138.550003 11.739998 138.660004 12.269997 L 138.899994 13.32 L 138.940002 13.409996 C 139.039993 13.529999 139.229996 13.599998 139.440002 13.599998 C 139.690002 13.599998 139.880005 13.510002 139.970001 13.349998 L 140 13.299995 L 140 13.239998 C 140 12.979996 139.979996 12.629997 139.960007 12.239998 C 139.929993 11.75 139.899994 11.199997 139.899994 10.659996 C 139.899994 10.099998 139.929993 9.519997 139.960007 9.019997 C 139.979996 8.610001 140.009995 8.239998 140.009995 7.949997 L 140.009995 7.900002 L 139.979996 7.849998 C 139.889999 7.690002 139.690002 7.599998 139.440002 7.599998 C 139.229996 7.599998 139.039993 7.669998 138.940002 7.790001 L 138.679993 8.979996 C 138.559998 9.589996 138.410004 9.690002 138.169998 9.760002 C 137.880005 9.860001 137.080002 9.909996 135.949997 9.909996 L 134.389999 9.909996 C 133.710007 9.909996 133.710007 9.909996 133.710007 9.360001 L 133.710007 3.989998 C 133.710007 3.119995 133.710007 3.119995 134.309998 3.119995 L 136.240005 3.119995 C 137.380005 3.119995 138.25 3.150002 138.800003 3.279999 C 140.029999 3.589996 140.270004 4.360001 140.639999 5.529999 L 140.690002 5.690002 L 140.729996 5.760002 C 140.820007 5.869995 140.979996 5.93 141.169998 5.93 C 141.360001 5.93 141.610001 5.869995 141.729996 5.690002 L 141.770004 5.629997 L 141.729996 5.229996 C 141.589996 3.669998 141.460007 2.339996 141.320007 1.93 L 141.259995 1.75 L 141.080002 1.790001 C 140.779999 1.860001 139.119995 1.860001 137.5 1.860001 L 132.449997 1.860001 C 131.419998 1.860001 130.529999 1.839996 129.289993 1.779999 L 129.240005 1.779999 L 129.190002 1.799995 C 128.970001 1.909996 128.929993 2.220001 128.929993 2.32 C 128.910004 2.559998 128.979996 2.739998 129.119995 2.830002 L 129.639999 2.919998 C 131.020004 3.080002 131.100006 3.260002 131.100006 6.099998 L 131.100006 15.769997 C 131.100006 18.68 130.929993 18.809998 129.619995 18.919998 L 128.660004 19.010002 L 128.610001 19.059998 C 128.460007 19.209999 128.429993 19.459999 128.460007 19.650002 C 128.490005 19.849998 128.580002 20 128.710007 20.059998 L 128.759995 20.080002 L 128.809998 20.080002 C 130.360001 20.029999 131.300003 20 132.460007 20 L 134.880005 20 C 137.220001 20 139.580002 20.029999 142.070007 20.080002 L 142.199997 20.080002 L 142.259995 19.959999 C 142.639999 19.229996 143.320007 17.139999 143.509995 16.199997 L 143.509995 16.199997 Z M 121.059998 15.779999 L 121.059998 6.110001 C 121.059998 3.25 121.139999 3.07 122.479996 2.93 L 123.039993 2.879997 L 123.130005 2.849998 C 123.259995 2.760002 123.330002 2.580002 123.320007 2.339996 C 123.309998 2.25 123.279999 1.93 123.059998 1.82 L 123.009995 1.799995 L 122.960007 1.799995 C 121.660004 1.860001 120.770004 1.879997 119.800003 1.879997 C 118.639999 1.879997 117.699997 1.849998 116.559998 1.799995 L 116.509995 1.799995 L 116.460007 1.82 C 116.240005 1.93 116.199997 2.239998 116.199997 2.339996 C 116.179993 2.57 116.25 2.760002 116.389999 2.849998 L 116.990005 2.940002 C 118.360001 3.080002 118.440002 3.260002 118.440002 6.119995 L 118.440002 9.209999 C 118.440002 9.860001 118.440002 9.860001 117.300003 9.860001 L 109.619995 9.860001 C 108.479996 9.860001 108.479996 9.860001 108.479996 9.209999 L 108.479996 6.119995 C 108.479996 3.260002 108.559998 3.080002 109.910004 2.940002 L 110.419998 2.889999 L 110.509995 2.860001 C 110.639999 2.769997 110.710007 2.580002 110.699997 2.349998 C 110.690002 2.260002 110.660004 1.940002 110.429993 1.830002 L 110.380005 1.809998 L 110.330002 1.809998 C 109.110001 1.869995 108.210007 1.889999 107.220001 1.889999 C 106.520004 1.889999 105.910004 1.869995 105.240005 1.849998 C 104.809998 1.839996 104.360001 1.82 103.839996 1.809998 L 103.789993 1.809998 L 103.75 1.830002 C 103.529999 1.940002 103.490005 2.25 103.479996 2.349998 C 103.460007 2.589996 103.529999 2.769997 103.669998 2.860001 L 103.720001 2.889999 L 104.470001 2.949997 C 105.649994 3.040001 105.860001 3.279999 105.860001 6.129997 L 105.860001 15.799995 C 105.860001 18.599998 105.809998 18.709999 104.470001 18.949997 L 103.949997 19.040001 L 103.899994 19.089996 C 103.75 19.239998 103.720001 19.489998 103.75 19.68 C 103.779999 19.879997 103.869995 20.029999 104 20.090004 L 104.050003 20.110001 L 104.100006 20.110001 C 104.470001 20.099998 104.820007 20.090004 105.169998 20.080002 C 105.809998 20.059998 106.460007 20.029999 107.210007 20.029999 C 108.220001 20.029999 109.080002 20.050003 110.619995 20.110001 L 110.669998 20.110001 L 110.720001 20.090004 C 110.899994 20 110.970001 19.760002 110.979996 19.57 C 110.990005 19.339996 110.919998 19.150002 110.789993 19.07 L 109.919998 18.959999 C 108.630005 18.82 108.470001 18.690002 108.470001 15.809998 L 108.470001 12.019997 C 108.470001 11.369995 108.470001 11.369995 109.610001 11.369995 L 117.289993 11.369995 C 118.429993 11.369995 118.429993 11.369995 118.429993 12.019997 L 118.429993 15.809998 C 118.429993 18.669998 118.399994 18.729996 116.970001 18.959999 L 116.389999 19.049995 L 116.339996 19.099998 C 116.190002 19.25 116.160004 19.5 116.190002 19.690002 C 116.220001 19.889999 116.320007 20.040001 116.440002 20.099998 L 116.490005 20.120003 L 116.539993 20.120003 C 117.830002 20.059998 118.759995 20.040001 119.779999 20.040001 C 120.839996 20.040001 121.770004 20.07 123.020004 20.120003 L 123.070007 20.120003 L 123.119995 20.099998 C 123.339996 19.989998 123.380005 19.68 123.389999 19.580002 C 123.410004 19.349998 123.339996 19.159996 123.199997 19.07 L 122.470001 18.959999 C 121.119995 18.769997 121.059998 18.619995 121.059998 15.779999 L 121.059998 15.779999 Z M 98.970001 1.459999 L 98.990005 1.379997 L 98.949997 1.309998 C 98.850006 1.110001 98.550003 1.089996 98.460007 1.089996 C 98.389999 1.089996 98.289993 1.099998 98.210007 1.129997 L 98.139999 1.159996 L 98.100006 1.220001 C 97.75 1.82 97.610001 1.869995 96.179993 1.869995 L 85.080002 1.869995 C 83.879997 1.869995 83.339996 1.809998 83.230003 1.209999 L 83.220001 1.150002 L 83.169998 1.099998 C 83.099998 1.029999 82.970001 0.989998 82.800003 0.989998 C 82.739998 0.989998 82.519997 1 82.400002 1.080002 L 82.330002 1.129997 L 82.309998 1.220001 C 82.120003 2.290001 81.720001 3.989998 81.300003 5.190002 L 81.269997 5.269997 L 81.309998 5.349998 C 81.470001 5.669998 82.019997 5.830002 82.32 5.610001 L 82.360001 5.580002 L 82.379997 5.529999 C 82.650002 4.909996 82.910004 4.32 83.540001 3.75 C 84.130005 3.209999 85.470001 3.129997 86.699997 3.129997 L 88.179993 3.129997 C 88.779999 3.129997 88.779999 3.129997 88.779999 3.779999 L 88.779999 15.790001 C 88.779999 18.699997 88.610001 18.830002 87.300003 18.940002 L 86.330002 19.019997 L 86.240005 19.049995 C 86.080002 19.150002 85.990005 19.349998 86 19.590004 C 86.009995 19.770004 86.080002 20 86.25 20.080002 L 86.300003 20.099998 L 86.350006 20.099998 C 87.990005 20.050003 88.990005 20.020004 90.080002 20.020004 C 91.130005 20.020004 92 20.050003 93.589996 20.099998 L 93.639999 20.099998 L 93.690002 20.080002 C 93.869995 19.989998 93.940002 19.75 93.949997 19.559998 C 93.960007 19.330002 93.899994 19.139999 93.759995 19.059998 L 92.800003 18.949997 C 91.460007 18.830002 91.380005 18.659996 91.380005 15.799995 L 91.380005 3.739998 C 91.380005 3.470001 91.380005 3.209999 91.419998 3.159996 C 91.470001 3.110001 91.759995 3.110001 91.949997 3.110001 L 93.860001 3.110001 C 95.300003 3.110001 96.279999 3.32 96.850006 3.739998 C 97.100006 3.93 97.320007 4.610001 97.440002 5.559998 L 97.449997 5.619995 L 97.490005 5.669998 C 97.589996 5.790001 97.770004 5.860001 97.979996 5.860001 C 98.229996 5.860001 98.449997 5.75 98.529999 5.57 L 98.559998 5.519997 L 98.550003 5.459999 C 98.5 4.699997 98.679993 2.529999 98.970001 1.459999 L 98.970001 1.459999 Z M 80.68 57.300003 C 80.68 65.620003 84.679993 71.480003 89.830002 75.029999 C 94.539993 78.190002 100.080002 79.349998 105.880005 79.349998 C 110.009995 79.349998 114.649994 78.379997 116.059998 77.870003 C 116.770004 77.610001 117.539993 77.360001 118.320007 77.230003 C 119.289993 76.010002 120.960007 71.75 121.410004 68.400002 C 121.149994 67.949997 120.190002 67.82 119.729996 68.139999 C 118.25 71.940002 114.570007 77.360001 106.259995 77.360001 C 95.690002 77.360001 87.110001 69.879997 87.110001 56.340004 C 87.110001 43 95.490005 36.739998 105.350006 36.739998 C 114.699997 36.739998 117.600006 41.770004 118.570007 46.150002 C 119.020004 46.540001 119.990005 46.470001 120.309998 46.020004 C 119.789993 42.090004 119.470001 38.029999 119.410004 36.540001 C 118.830002 36.610001 118.380005 36.480003 117.610001 36.279999 C 114.580002 35.440002 109.679993 34.730003 106.199997 34.730003 C 99.5 34.730003 93.5 36.529999 88.789993 40.209999 C 83.900002 44.020004 80.68 50.139999 80.68 57.300003 L 80.68 57.300003 Z M 63.910004 46.419998 L 63.910004 1.519997 C 27.839996 -1.959999 0.610001 1.519997 0.610001 1.519997 C 0.610001 1.519997 0.610001 46.419998 0.610001 46.43 C 3.48 76.870003 31.989998 80.440002 32.260002 80.400002 C 37.360001 79.470001 61.260002 74.669998 63.910004 46.419998 L 63.910004 46.419998 Z M 10.77 57.629997 C 11.349998 58.020004 12.029999 58.190002 12.650002 58.459999 C 13.419998 60.470001 12.669998 62.459999 12.240002 61.629997 C 11.48 60.190002 11.18 58.989998 10.77 57.629997 L 10.77 57.629997 Z M 10.810001 35.559998 L 10.759998 35.510002 C 10.700001 35.510002 6.75 38 4.189999 36.809998 C 6.099998 35.75 12.73 31.540001 14.540001 30.349998 C 15.389999 30.529999 15.740002 30.230003 16.009998 30.040001 C 15.32 30.080002 13.02 30.440002 14.18 28.389999 C 14.630001 30.230003 17.84 28.540001 19 28.270004 C 22.220001 27.529999 22.199997 30.970001 21.919998 32.389999 C 21.82 32.919998 22.910004 33.300003 23.440002 33.220001 C 22.519997 35.489998 20.940002 33.349998 20.75 34.220001 C 20.669998 34.57 19.619999 34.849998 19.619999 35.720001 C 19.630001 36.910004 20.089996 36.260002 20.139999 37.190002 C 20.190002 38.090004 19.759998 37.389999 19.860001 38.360001 C 20.010002 39.900002 22.559998 38.160004 23.610001 38.57 C 24.139999 38.779999 24.489998 39.25 25 39.160004 C 25.150002 39.040001 25.080002 38.449997 25.059998 38.25 C 25.010002 37.760002 24.099998 37.699997 23.68 37.040001 C 23.309998 36.459999 24.099998 34.709999 24.519997 34.190002 C 25.129997 37.080002 27.839996 36.169998 28.239998 39.209999 C 28.5 40.07 27.309998 41.020004 28.269997 42.419998 C 27.559998 43.110001 26.699997 46.400002 28.190002 47.949997 C 27.940002 48.650002 27.599998 50.260002 28.93 51.209999 C 28.480003 52.160004 28.589996 53.330002 28.959999 54.520004 C 28.129997 54.520004 28.300003 49.870003 23.330002 49.720001 C 23.220001 49.690002 23.190002 50.25 23.330002 50.5 C 23.93 51.550003 24.720001 51.489998 24.550003 53.949997 C 24.489998 54.790001 24 53.800003 23.730003 53.57 C 23.129997 53.040001 22.660004 52.970001 22.400002 51.239998 C 20.379997 52.82 20.580002 54.739998 20.709999 55.709999 C 20.709999 55.709999 20.260002 54.5 19.75 53.25 C 19.720001 53.18 21.800003 50.690002 22.129997 50.090004 C 26.32 42.550003 19.419998 52.529999 19.41 52.5 C 19.040001 51.639999 18.709999 50.900002 18.5 50.660004 C 18.549999 50.559998 19.700001 49.270004 20.220001 48.190002 C 23.459999 41.440002 18.290001 50.440002 18.110001 50.270004 C 17.720001 49.919998 17.400002 49.480003 17.150002 49.639999 C 17.09 50.68 16.84 50.540001 16.919998 51.590004 C 16.380001 52.309998 15.220001 53.440002 14.41 54.010002 C 14.41 54.010002 14.209999 52.139999 14.259998 52.07 C 14.669998 51.57 16.259998 49.860001 16.59 49.349998 C 21.900002 41.010002 14.099998 51.360001 14.09 51.270004 C 14.029999 50.940002 13.610001 50.389999 13.150002 49.93 C 13.150002 49.93 14.869999 47.580002 15.299999 46.709999 C 18.529999 40.059998 12.700001 49.650002 12.639999 49.620003 C 12.5 49.550003 12.490002 49.550003 12.32 49.489998 C 12.16 49.440002 12.5 47.580002 12.720001 46.459999 C 13.16 44.25 11.98 46.029999 11.66 49.540001 C 11.360001 49.590004 10.630001 49.660004 10.360001 49.910004 C 10.540001 50.849998 10.759998 50.129997 11.150002 51.029999 C 11.619999 52.110001 10.5 53.870003 11.470001 55.169998 C 11.849998 55.669998 11.869999 55.590004 11.799999 55.910004 C 11.200001 55.870003 10.830002 55.860001 10.450001 56.370003 C 9.709999 53.010002 9.73 51.389999 9.91 47.980003 C 9.990002 46.43 10.5 44.080002 10.259998 44.029999 C 10.040001 43.989998 6.52 53.050003 5.669998 54.830002 C 4.189999 54.330002 6.59 46.480003 9.650002 42.709999 C 9.939999 41.510002 8.049999 43.93 6.919998 44.889999 C 5.880001 45.770004 4.57 46.93 3.139999 46.529999 C 4.98 44.590004 9.18 40.959999 9.650002 40.050003 C 10.040001 39.270004 6.779999 42.470001 3.330002 41.279999 C 5.59 40.07 10.799999 37.410004 10.810001 35.559998 L 10.810001 35.559998 Z M 17.02 52.599998 C 17.029999 53.43 16.970001 54.040001 17.220001 54.879997 C 17.610001 56.150002 17.41 55.760002 16.880001 55.32 C 16.459999 54.849998 16.060001 54.459999 15.860001 53.910004 C 15.799999 53.529999 16.119999 53.5 17.02 52.599998 L 17.02 52.599998 Z M 25.349998 32.18 C 24.849998 31.32 25.949997 30.5 25.949997 30.5 C 25.919998 32.910004 29 31.260002 30.610001 32.020004 C 31 32.199997 31.269997 32.540001 31.43 32.900002 C 29.699997 31.699997 26.5 34.139999 25.349998 32.18 L 25.349998 32.18 Z M 7.220001 12.909996 C 4.470001 12.909996 4.529999 8.779999 7.220001 8.779999 C 9.919998 8.779999 9.919998 12.909996 7.220001 12.909996 L 7.220001 12.909996 Z M 7.220001 21.150002 C 4.41 21.150002 4.41 17.029999 7.220001 17.029999 C 9.919998 17.029999 9.939999 21.150002 7.220001 21.150002 L 7.220001 21.150002 Z M 12.439999 12.25 L 10.040001 12.25 L 10.040001 9.889999 L 12.439999 9.889999 L 12.439999 12.25 L 12.439999 12.25 Z M 12.439999 20.470001 L 10.040001 20.470001 L 10.040001 18.110001 L 12.439999 18.110001 L 12.439999 20.470001 L 12.439999 20.470001 Z M 31.82 24.529999 C 31.82 24.529999 29.309998 23.169998 26.360001 22.970001 C 23.510002 22.779999 17.75 25.059998 13.330002 24.760002 L 13.330002 5.339996 C 13.330002 5.339996 18.369999 6.010002 20.440002 5.209999 C 27.480003 2.489998 31.809998 5.529999 31.809998 5.529999 L 31.809998 24.529999 L 31.82 24.529999 Z M 36.68 27.690002 C 36.800003 28.419998 36.120003 28.610001 36.120003 28.610001 C 37.18 28.860001 37.68 28.230003 37.889999 27.830002 C 38.300003 29.520004 36.589996 29.610001 36.059998 29.709999 C 36.059998 29.709999 36.919998 29.959999 36.970001 30.520004 C 37.080002 31.949997 38 31.830002 38.199997 31.709999 C 38.169998 31.879997 37.879997 32.739998 36.849998 31.970001 C 36.68 32.139999 37.129997 32.410004 37.220001 33.120003 C 37.339996 34.020004 37.309998 34.849998 38.339996 35.389999 C 37.709999 35.889999 36.959999 34.580002 36.889999 34.739998 C 36.82 34.919998 37.769997 35.400002 36.720001 37.879997 C 36.239998 37.599998 36.510002 37.660004 35.949997 37 C 35.519997 36.639999 35.360001 36.559998 35.709999 37.150002 C 36.330002 37.919998 36.480003 39.699997 36.260002 40.169998 C 35.75 39.949997 35.879997 39.540001 35.279999 38.980003 C 35.220001 39.220001 35.470001 40.389999 36.089996 40.949997 C 37.169998 41.919998 37.550003 43.099998 37.57 43.330002 C 37.660004 44.209999 37.379997 45.379997 37.269997 46.510002 C 36.75 46.440002 36.309998 44.970001 36.190002 45.050003 C 36.040001 45.150002 36.25 46.489998 37.230003 47.400002 C 37.699997 48.779999 37.510002 49.520004 37.389999 49.57 C 37.220001 49.639999 36.699997 48.160004 36.410004 48.419998 C 37.800003 51.949997 36.830002 53.169998 36.459999 54.260002 C 36.169998 53.150002 36.029999 52.309998 35.669998 51.050003 C 34.910004 51.639999 34.730003 52.520004 33.809998 53.330002 C 33.809998 51.889999 32.980003 48.419998 32.32 47.610001 C 32.290001 47.57 31.129997 50.720001 30.599998 52.120003 C 29.910004 53.940002 29.809998 56.209999 30.599998 57.980003 C 28.889999 55.540001 28.699997 51.010002 30.18 50.400002 C 30.309998 50.080002 30.089996 49.010002 29.760002 49.139999 C 29.669998 49.660004 29.730003 50.110001 29.300003 50.620003 C 28.169998 50.290001 28.68 48.900002 28.779999 48.449997 C 30.25 46.690002 29.330002 46.279999 29.260002 46.330002 C 29.099998 46.730003 28.959999 47.230003 28.510002 47.410004 C 27.57 45.790001 28.169998 43.239998 29.959999 41.340004 C 30.040001 40.629997 29.160004 41.870003 28.589996 41.830002 C 28.440002 40.459999 28.940002 38.090004 31.470001 38 C 30.989998 37.860001 30.730003 37.770004 30.610001 37.370003 C 31.370003 37.260002 33.769997 37.07 33.379997 35.18 C 33.150002 35.410004 33.080002 35.75 32.459999 36.129997 C 32.040001 36.389999 31.580002 36.410004 31.339996 36.040001 C 32.449997 35.669998 32.089996 34.32 30.629997 34.720001 C 30.190002 34.840004 29.529999 34.379997 29.5 33.860001 C 29.82 34.18 30.480003 33.940002 30.860001 33.699997 C 32.489998 32.639999 33.489998 34.18 33.709999 34.510002 C 33.779999 34.510002 34.440002 32.970001 32.120003 32.559998 C 31.93 32.020004 31.400002 31.059998 29.82 31.18 C 29.300003 29.349998 27.730003 30.25 27.779999 31.080002 C 26.110001 29.849998 27.809998 28.300003 28.480003 28.059998 C 28.949997 28.099998 28.839996 29.580002 29.660004 29.330002 C 29.860001 29.270004 29.019997 28.309998 29.339996 27.879997 C 30.089996 27.449997 30.080002 28.43 30.449997 28.07 C 30.629997 27.43 31.370003 27.07 31.980003 27 C 33.720001 26.739998 35.050003 28.610001 36.68 27.690002 L 36.68 27.690002 Z M 52.029999 24.830002 C 48.330002 25.080002 40.639999 22.970001 38.690002 22.970001 C 34.660004 22.970001 32.709999 24.540001 32.709999 24.540001 C 32.709999 24.540001 32.720001 6.239998 32.709999 5.580002 C 32.709999 5.580002 38.010002 3.099998 41.860001 4.519997 C 46.580002 6.260002 52.029999 5.489998 52.029999 5.489998 L 52.029999 24.830002 L 52.029999 24.830002 Z M 56.910004 17.360001 C 58.949997 17.059998 59.260002 19.470001 59.260002 19.470001 L 59.260002 19.470001 C 58.760002 19.07 57.75 18.889999 57.059998 19.330002 C 54.779999 20.800003 52.720001 20.809998 52.720001 20.809998 L 52.720001 17.129997 C 52.720001 17.129997 53.150002 17.909996 56.910004 17.360001 L 56.910004 17.360001 Z M 59.32 12.32 C 59.300003 12.209999 59.279999 12.040001 59.25 11.809998 C 59.199997 11.440002 58.139999 11.229996 57.400002 11.559998 C 56.360001 12.019997 53.739998 13.510002 52.790001 13.229996 L 52.790001 9.549995 C 55.139999 10.57 56.059998 9.650002 56.82 9.650002 C 59.139999 9.650002 59.260002 11.82 59.260002 11.82 C 59.290001 12.040001 59.309998 12.209999 59.32 12.32 L 59.32 12.32 Z M 56.690002 50.459999 C 56 50.639999 54.190002 51.360001 53.75 52.080002 C 53.980003 48.160004 52.720001 44.309998 52.309998 43.379997 C 51.519997 41.57 52.660004 47.599998 52.739998 48.989998 C 52.739998 49.050003 46.230003 40.620003 50.160004 47.110001 C 51.18 48.790001 52.769997 49.889999 52.769997 49.919998 C 52.800003 51.090004 52.720001 51.949997 52.5 52.580002 C 52.099998 52.900002 43.639999 41.32 48.309998 49.340004 C 48.889999 50.330002 52.279999 53.340004 52.260002 53.410004 C 52.040001 53.870003 51.660004 54.529999 51.139999 55.020004 C 51.050003 54.93 49.190002 53.559998 49.169998 53.470001 C 49.029999 52.57 49.019997 51.730003 47.919998 52.360001 C 47.919998 52.360001 43.75 47.510002 45.68 50.910004 C 46.519997 52.400002 47.080002 52.559998 47.300003 52.830002 C 47.300003 52.830002 46.650002 53.709999 46.449997 54.639999 C 46.370003 55.010002 42.830002 50.720001 44.220001 53.419998 C 44.660004 54.279999 46.279999 55.230003 46.260002 55.290001 C 46.089996 55.849998 45.93 56.400002 45.75 56.75 C 45.529999 57.199997 42.43 59.669998 42.43 59.669998 C 42.43 59.669998 43.040001 57.709999 44.349998 56.75 C 45.099998 56.199997 45.099998 56.32 45.599998 56.010002 C 45.589996 55.720001 45.309998 55.25 44.949997 55.120003 C 44.5 54.959999 43.029999 55.230003 43.029999 55.230003 C 43.169998 54.5 42.519997 52.910004 42.529999 51.169998 C 41.980003 51.220001 41.010002 52.080002 40.769997 52.559998 C 40.599998 55.440002 39.970001 54.580002 39.389999 56.660004 C 38.75 55.790001 39.43 54.540001 38.809998 53.730003 C 37.949997 52.610001 37.82 51.849998 37.690002 50.480003 C 37.889999 50.370003 38.769997 49.400002 37.970001 47.360001 C 37.839996 44.160004 39.269997 42.940002 36.709999 40.709999 C 36.919998 40.639999 37.080002 39.040001 37.080002 39.040001 C 38.959999 40.040001 38.589996 37.879997 39.32 37.449997 C 40.480003 36.770004 40.269997 36.07 39.75 35.199997 C 43.080002 36.150002 39.599998 38.419998 41.110001 38.470001 C 42.199997 38.5 42.93 38.230003 43.410004 37.489998 C 43.919998 36.709999 43.32 36.239998 44.730003 34.980003 C 44.870003 34.860001 45.25 34.010002 44.129997 33.779999 C 43.879997 33.730003 44.129997 32.770004 44.129997 32.770004 C 43.230003 33.529999 42.949997 34.599998 41.510002 33.919998 C 40.769997 33.57 40.290001 33.910004 39.989998 34.059998 C 39.989998 34.059998 39.839996 33.459999 40.449997 33.25 C 42.029999 32.720001 42.419998 32.090004 42.330002 31.75 C 42.120003 30.93 42.050003 31.75 42.099998 30.889999 C 42.120003 30.550003 42.519997 30.080002 42.849998 29.68 C 43.919998 28.389999 44.68 28.870003 44.949997 28.989998 C 45.57 28.510002 45.68 28.540001 46.260002 28.309998 C 47.25 27.919998 49.400002 28.57 50.599998 29.120003 C 51.18 29.379997 51.879997 29.540001 52.550003 29.389999 C 52.540001 29.739998 52.300003 29.93 52.050003 30 C 51.68 30.120003 51.230003 30 51.260002 30.270004 C 51.279999 30.43 51.790001 30.459999 52.110001 30.550003 C 53.889999 31.040001 56.190002 32.629997 54.68 32.290001 C 54.5 32.25 55.769997 33.239998 56.730003 34.520004 L 60.120003 37.809998 C 59.959999 38 58.779999 37.830002 55.010002 34.300003 C 54.470001 34.779999 59.589996 38.629997 61.699997 42.720001 C 61.519997 42.849998 58.889999 41.889999 57.940002 40.910004 C 56.480003 39.400002 54.800003 35.550003 54.110001 36.120003 C 54.029999 36.150002 56.889999 40.610001 58.300003 43.25 C 59.010002 44.590004 59.599998 46.5 59.650002 47.949997 C 59.879997 55.07 58.800003 54.520004 58.809998 54.520004 C 57.139999 48.910004 56.360001 42.400002 53.93 39.389999 C 52.970001 38.18 56.540001 44.629997 56.690002 50.459999 L 56.690002 50.459999 Z M 49.32 56.860001 C 48.57 57.520004 48.080002 57.75 48.239998 57.43 C 48.419998 57.059998 48.559998 56.760002 48.660004 56.480003 C 48.699997 56.379997 49.32 56.860001 49.32 56.860001 L 49.32 56.860001 Z M 48.830002 55.970001 C 49 55.370003 49 54.959999 49.07 54.43 C 49.099998 54.199997 49.110001 54.230003 49.120003 54.040001 C 49.120003 53.980003 50.75 55.389999 50.839996 55.449997 C 50.43 55.959999 50.080002 56.150002 49.690002 56.510002 C 49.419998 56.279999 48.809998 56.029999 48.830002 55.970001 L 48.830002 55.970001 Z M 54.110001 57.779999 C 51.849998 60.010002 48.459999 59.199997 45.790001 60.400002 C 43.370003 61.279999 41.620003 63.520004 39.080002 64.090004 C 38.330002 64.330002 38.209999 64.699997 38.690002 64.690002 C 38.970001 64.68 40.519997 66.300003 42.989998 65.050003 C 43.82 64.629997 46.379997 63.199997 46.82 63.120003 C 45.43 64.440002 44.730003 65.629997 43.489998 66.32 C 42.730003 66.75 39.629997 67.849998 36.550003 67.25 C 35.18 66.980003 34.129997 68.25 34.480003 68.220001 C 35.209999 68.020004 36.029999 68.120003 36.529999 68.770004 C 37.43 69.470001 38.720001 70.349998 39.839996 69.040001 C 40.209999 68.610001 41.980003 67.690002 43.650002 69.379997 C 41.879997 69.290001 42.050003 72.470001 38.699997 72.099998 C 37.459999 72.090004 34.709999 69.25 33.93 70.129997 C 32.540001 71.690002 36.910004 73.169998 35.019997 75.129997 C 33.309998 76.900002 31.269997 73.720001 31.269997 73.720001 C 32.339996 74.169998 34.300003 74.459999 33.440002 72.720001 C 33.099998 72.029999 32.440002 71.410004 32.440002 70.139999 C 32.290001 69.510002 28.379997 75.18 25.790001 72.620003 C 24.769997 71.610001 22.709999 69.410004 20.849998 68.57 C 25.790001 68.150002 26.540001 70.129997 26.779999 70.440002 C 28.360001 72.57 29.82 70.410004 30.160004 70.029999 C 30.669998 69.440002 31.400002 68.639999 31.139999 68.520004 C 29.220001 67.610001 27.040001 67.419998 25.400002 68.169998 C 28.900002 63.360001 31.620003 67.860001 31.620003 67.860001 C 32 68.099998 31.519997 65.010002 28.059998 64.840004 C 25.900002 64.730003 24 66.68 22.5 66.68 C 21.290001 66.68 17.610001 64.199997 16.75 61.989998 C 18.889999 63.590004 21.620003 64.510002 23.32 63.489998 C 26.519997 61.580002 30.540001 64.459999 30.730003 64.110001 C 29.839996 63.410004 27.800003 60.690002 22.309998 62.239998 C 20.18 63.459999 19.279999 61.330002 17.98 61.300003 C 20.199997 59.330002 21.75 60.330002 22.519997 60.389999 C 22.699997 60.389999 21.589996 59.470001 20.809998 59.389999 C 14.75 58.760002 10.900002 57.090004 10.900002 57.090004 C 10.869999 57.090004 11.41 55.870003 14.009998 56.75 C 14.009998 56.75 11.669998 55.32 11.689999 53.480003 C 11.77 52.349998 12.310001 51.129997 11.450001 50.190002 C 14.970001 50.050003 12.470001 54.949997 14.939999 56.220001 C 14.990002 56.239998 14.209999 55.050003 15.310001 54.120003 C 15.82 55.559998 17.080002 56.309998 17.959999 56.540001 C 18.169998 56.43 18.419998 55.980003 18.419998 55.989998 C 17.490002 54.449997 17.369999 52.660004 17.619999 50.610001 L 17.66 50.590004 C 17.860001 50.599998 18.200001 51.300003 18.439999 51.809998 C 18.950001 52.910004 18.939999 54.5 19.959999 55.809998 C 20.529999 56.529999 20.879997 57.25 21.389999 57.599998 C 21.610001 57.090004 21.449997 56.209999 21.410004 55.980003 C 21.290001 55.150002 20.769997 53.690002 22.199997 52.400002 C 22.870003 54.32 23.769997 53.770004 23.900002 54.690002 C 24.07 55.980003 24.010002 55.779999 23.879997 56.770004 C 23.949997 58.139999 25.190002 58.520004 26.290001 59.400002 C 28.779999 60.75 30.43 61.489998 31.510002 63.220001 C 32.040001 60.290001 24.139999 59.709999 25.160004 54.059998 C 25.050003 51.809998 25.440002 51.620003 23.839996 50.239998 C 27.010002 50.330002 28.739998 55.529999 28.910004 56.480003 C 29.230003 58.220001 30.290001 58.309998 31.739998 60.590004 C 31.949997 60.669998 29.139999 54.529999 32.489998 49.279999 C 32.489998 49.279999 33.620003 52.010002 33.089996 53.800003 C 32.769997 54.879997 33.07 56.07 33.129997 56.75 C 33.190002 57.440002 32.989998 54.260002 35.379997 52.620003 C 35.529999 53.82 36.68 55.690002 35.589996 57.68 C 34.260002 60.110001 34.160004 59.239998 34.139999 62.220001 C 34.260002 62.169998 34.599998 60.160004 35.519997 59.020004 C 37.449997 56.610001 36.07 55.32 37.949997 53.230003 C 38.099998 54.270004 38.370003 53.860001 38.480003 54.790001 C 38.730003 56.879997 36.550003 59.160004 37.040001 59.090004 C 37.589996 59.010002 38.480003 58.529999 38.779999 56.949997 C 38.779999 56.949997 39.580002 58.389999 38.849998 58.879997 C 37.519997 59.75 37.239998 60.690002 37.449997 61.75 C 38.519997 60.480003 39.970001 59.07 39.720001 57.25 C 39.839996 56.160004 41.029999 55.709999 41.260002 53.169998 C 41.300003 52.75 41.720001 52.239998 42.139999 52.010002 C 41.959999 53.440002 43.07 54.919998 41.800003 56.660004 C 42.089996 56.809998 43.150002 55.300003 44.709999 55.849998 C 41.580002 56.410004 42.489998 59.809998 40.099998 61.370003 C 39.379997 61.840004 39.5 62.370003 39.279999 62.43 C 41.419998 62.309998 43.07 59.760002 43.360001 59.559998 C 45.510002 58.099998 45.980003 57.879997 46.839996 55.520004 C 47.18 54.620003 46.93 54.230003 48.120003 53.020004 C 48.639999 54.209999 47.879997 56.690002 47.699997 57.220001 C 47.309998 58.360001 45.959999 59.340004 46.25 59.340004 C 52.019997 56.790001 51.949997 55.080002 53.330002 53.260002 C 53.739998 52.559998 55.800003 51.349998 56.559998 51.239998 C 56.370003 51.620003 55.57 52.260002 55.540001 52.949997 C 55.470001 54.220001 55.059998 55 54.410004 56.029999 C 54.769997 56.480003 55.459999 55.190002 56.160004 55.840004 C 55.25 56.139999 54.830002 57.169998 54.110001 57.779999 L 54.110001 57.779999 Z M 55.07 57.449997 C 54.730003 59.129997 54.150002 60.690002 53.139999 62.139999 C 52.43 63.169998 52.139999 61.169998 52.75 59.239998 C 53.620003 58.889999 54.489998 58.209999 55.07 57.449997 L 55.07 57.449997 Z M 50.68 14.799995 C 50.550003 14.75 50.269997 14.699997 50.089996 14.699997 C 49.910004 14.699997 49.82 14.949997 50.040001 15.010002 C 50.18 15.049995 50.440002 15.089996 50.690002 15.110001 C 50.860001 15.119995 50.809998 14.849998 50.68 14.799995 L 50.68 14.799995 Z M 50.029999 15.610001 C 50.169998 15.650002 50.419998 15.690002 50.68 15.709999 C 50.839996 15.729996 50.790001 15.459999 50.660004 15.409996 C 50.529999 15.360001 50.25 15.309998 50.080002 15.309998 C 49.889999 15.299995 49.809998 15.540001 50.029999 15.610001 L 50.029999 15.610001 Z M 50.029999 19.279999 C 49.900002 19.129997 49.559998 18.849998 49.25 18.629997 C 49.07 18.779999 48.709999 19.040001 48.480003 19.159996 C 48.309998 18.970001 48.080002 18.699997 47.730003 18.419998 C 47.519997 18.559998 46.910004 19.119995 46.660004 19.260002 C 47.029999 19.269997 47.580002 19.389999 47.599998 19.739998 C 47.610001 20.020004 47.580002 21.760002 47.599998 22.080002 C 47.830002 22.129997 48.089996 22.110001 48.419998 22.090004 C 48.440002 21.840004 48.43 19.840004 48.440002 19.599998 C 48.550003 19.540001 48.68 19.480003 48.739998 19.419998 C 48.870003 19.510002 49.25 19.959999 49.480003 20.080002 C 49.629997 19.959999 50.040001 19.610001 50.209999 19.440002 C 50.389999 19.25 50.190002 19.129997 50.029999 19.279999 L 50.029999 19.279999 Z M 49.010002 16.360001 C 49.220001 15.979996 49.529999 15.360001 49.510002 14.889999 C 49.480003 14.309998 49.129997 13.459999 48.279999 13.169998 C 47.209999 13.549995 46.540001 14.400002 46.510002 15.400002 C 46.489998 15.989998 46.989998 17.190002 48.019997 17.199997 C 48.339996 16.909996 48.68 16.580002 49.010002 16.360001 L 49.010002 16.360001 Z M 48.360001 16.589996 C 48.160004 16.489998 47.440002 15.93 47.269997 15.5 C 47.050003 14.919998 47.050003 14.279999 47.669998 13.909996 C 48.150002 14.089996 48.709999 14.559998 48.760002 14.989998 C 48.82 15.559998 48.660004 16.220001 48.360001 16.589996 L 48.360001 16.589996 Z M 48.330002 12.119995 L 49.099998 11.279999 C 49.099998 11.279999 48.760002 11.010002 48.550003 10.760002 C 48.550003 10.580002 48.550003 8.889999 48.620003 8.799995 C 48.040001 8.279999 47.620003 8.220001 47.370003 8.25 C 46.900002 8.32 46.419998 8.919998 46.269997 9.129997 C 46.160004 9.290001 46.190002 9.489998 46.269997 9.559998 C 46.360001 9.639999 46.480003 9.709999 46.610001 9.790001 C 46.589996 9.779999 46.57 9.760002 46.550003 9.75 C 46.330002 9.959999 46.010002 10.549995 46.019997 10.959999 C 46.019997 11.369995 46.389999 11.959999 46.639999 12.18 C 46.910004 11.970001 47.32 11.619995 47.910004 11.5 C 47.970001 11.790001 48.110001 11.959999 48.330002 12.119995 L 48.330002 12.119995 Z M 47.870003 10.169998 C 47.489998 10.029999 46.739998 9.68 46.470001 9.459999 C 46.400002 9.400002 46.389999 9.369995 46.480003 9.229996 C 46.650002 8.970001 46.849998 8.75 46.989998 8.760002 C 47.110001 8.760002 47.870003 9.169998 47.849998 9.379997 C 47.860001 9.529999 47.870003 9.849998 47.870003 10.169998 L 47.870003 10.169998 Z M 47.870003 11.32 C 47.669998 11.330002 47.5 11.379997 47.25 11.5 C 47.040001 11.330002 46.5 10.68 46.900002 9.949997 C 46.839996 9.919998 46.790001 9.889999 46.730003 9.849998 C 47.099998 10.059998 47.519997 10.229996 47.860001 10.339996 C 47.860001 10.629997 47.849998 10.889999 47.849998 10.989998 C 47.849998 11.119995 47.860001 11.220001 47.870003 11.32 L 47.870003 11.32 Z M 45.650002 7.849998 C 45.470001 7.849998 44.25 7.879997 44.220001 7.809998 C 44.129997 7.549995 44.110001 7.229996 44.32 6.790001 C 44.419998 6.57 44.220001 6.479996 44.139999 6.699997 C 44.059998 6.919998 43.449997 7.760002 42.82 8.029999 C 42.489998 8.159996 43.220001 8.459999 43.169998 8.449997 C 43.169998 9.260002 43.279999 10.479996 43.459999 10.970001 C 43.57 11.260002 43.900002 11.729996 44.129997 11.589996 C 44.279999 11.5 44.599998 10.860001 44.699997 10.779999 C 44.879997 10.639999 44.699997 10.389999 44.559998 10.540001 C 44.400002 10.68 44.260002 10.459999 44.209999 10.309998 C 44.160004 10.169998 44.010002 8.379997 44.080002 8.339996 C 44.080002 8.339996 45.519997 8.169998 45.669998 8.169998 C 45.75 8.159996 45.760002 7.849998 45.650002 7.849998 L 45.650002 7.849998 Z M 41.690002 11.139999 L 42.290001 10.369995 C 41.860001 10.299995 41.68 10.220001 41.379997 9.869995 L 41.389999 7.949997 L 40.779999 7.339996 L 40.57 7.360001 L 39.610001 8.199997 C 39.510002 8.349998 39.769997 8.349998 39.900002 8.169998 L 40.589996 8.57 L 40.620003 10.43 C 40.669998 10.650002 40.860001 10.869995 41.129997 11.139999 L 41.690002 11.139999 L 41.690002 11.139999 Z M 41.169998 6.869995 L 41.5 6.580002 L 41.5 6.110001 L 41.050003 5.669998 L 40.599998 6.049995 L 40.610001 6.589996 L 40.889999 6.869995 L 41.169998 6.869995 L 41.169998 6.869995 Z M 39.639999 6.279999 C 39.379997 6.25 38.540001 6.32 38.230003 6.369995 C 37.919998 6.419998 37.919998 6.57 38.18 6.599998 C 38.43 6.629997 38.480003 6.68 38.620003 7.019997 C 38.739998 7.360001 38.129997 8.919998 37.980003 9.290001 C 37.800003 9.019997 37.150002 7.599998 37.150002 7.400002 C 37.150002 7.260002 37.440002 7.119995 37.559998 7.089996 C 37.800003 7.019997 37.790001 6.849998 37.610001 6.82 C 37.099998 6.75 35.32 6.589996 35 6.549995 C 34.769997 6.529999 34.669998 6.790001 34.940002 6.790001 C 35.230003 6.799995 35.519997 6.709999 35.839996 7.169998 C 36.199997 7.690002 37.330002 10.119995 37.599998 11.139999 C 37.730003 10.919998 38.860001 7.650002 38.93 7.299995 C 39.010002 6.959999 39.25 6.629997 39.580002 6.529999 C 39.93 6.449997 39.900002 6.299995 39.639999 6.279999 L 39.639999 6.279999 Z M 34.279999 14.199997 C 34.300003 15.559998 34.839996 15.68 35.459999 16.029999 C 36.050003 16.360001 37.029999 16.299995 37.769997 16.099998 C 38.050003 16.019997 38.199997 16 38.190002 16.239998 C 38.190002 16.389999 38.400002 16.360001 38.400002 16.25 C 38.400002 16.139999 38.410004 15 38.410004 14.869995 C 38.410004 14.729996 38.199997 14.75 38.199997 14.869995 C 38.199997 15.059998 38.199997 15.119995 38.010002 15.389999 C 37.5 16.139999 36.230003 16.110001 35.550003 15.190002 C 35.32 14.879997 35.099998 14.459999 35.370003 14.379997 C 35.639999 14.299995 36.459999 14.470001 37 14.510002 C 37.32 14.529999 38.07 14.610001 38.169998 14.659996 C 38.25 14.720001 38.379997 14.799995 38.379997 14.639999 C 38.389999 14.479996 38.389999 13.949997 38.389999 13.790001 C 38.389999 13.629997 38.269997 13.709999 38.18 13.760002 C 38.089996 13.82 37.290001 13.959999 36.970001 14.010002 C 36.650002 14.07 35.660004 14.150002 35.400002 14.059998 C 35.129997 13.970001 35.220001 13.440002 35.459999 13.129997 C 36.150002 12.220001 37.540001 12.279999 38.050003 13.040001 C 38.220001 13.299995 38.220001 13.369995 38.220001 13.559998 C 38.220001 13.68 38.419998 13.690002 38.419998 13.559998 C 38.43 13.43 38.440002 12.049995 38.440002 11.940002 C 38.440002 11.830002 38.239998 11.790001 38.239998 11.940002 C 38.239998 12.040001 38.019997 12.099998 37.800003 12.040001 C 37.370003 11.900002 36.110001 12.099998 35.550003 12.409996 C 35.040001 12.709999 34.269997 13.369995 34.279999 14.199997 L 34.279999 14.199997 Z M 34.519997 16.610001 C 34.540001 17 34.68 20.330002 34.639999 20.790001 C 34.610001 21.050003 34.970001 21.330002 35.290001 21.550003 C 35.449997 21.360001 35.790001 20.860001 36.07 20.650002 C 36.239998 20.510002 36.120003 20.419998 35.989998 20.470001 C 35.739998 20.590004 35.480003 20.5 35.449997 20.199997 C 35.43 19.910004 35.43 17.040001 35.449997 16.629997 C 35.260002 16.639999 34.709999 16.629997 34.519997 16.610001 L 34.519997 16.610001 Z M 37.269997 19.339996 C 37.050003 19.550003 36.650002 20.090004 36.660004 20.489998 C 36.669998 20.900002 36.860001 21.290001 37.099998 21.510002 C 37.5 21.230003 37.760002 20.840004 38.43 20.580002 C 38.510002 20.889999 38.730003 20.940002 39 21.139999 C 39.160004 20.970001 39.730003 20.270004 39.849998 20.139999 C 39.980003 20.020004 39.900002 19.900002 39.720001 20.020004 C 39.540001 20.139999 39.419998 20.07 39.120003 19.739998 C 39.129997 19.559998 39.099998 18.129997 39.169998 18.049995 C 38.900002 17.760002 38.639999 17.349998 38.32 17.379997 C 37.849998 17.419998 37.25 18.239998 37.099998 18.449997 C 36.980003 18.599998 37.110001 19.190002 37.190002 19.269997 C 37.230003 19.309998 37.239998 19.309998 37.269997 19.339996 L 37.269997 19.339996 Z M 37.599998 19.57 C 37.860001 19.720001 37.989998 19.629997 38.400002 19.580002 C 38.400002 19.840004 38.389999 20.07 38.389999 20.190002 C 38.209999 20.32 37.989998 20.43 37.730003 20.559998 C 37.540001 20.400002 37.239998 20.260002 37.599998 19.57 L 37.599998 19.57 Z M 37.389999 18.389999 C 37.559998 18.129997 37.669998 18.080002 37.809998 18.080002 C 37.93 18.089996 38.410004 18.419998 38.389999 18.639999 C 38.410004 18.779999 38.419998 19.080002 38.419998 19.389999 C 38.059998 19.43 37.809998 19.470001 37.410004 19.139999 C 37.32 19.07 37.300003 18.529999 37.389999 18.389999 L 37.389999 18.389999 Z M 40.269997 17.860001 C 39.970001 18.010002 40.68 18.290001 40.629997 18.279999 C 40.620003 19.089996 40.459999 20.410004 40.739998 20.82 C 40.910004 21.080002 41.300003 21.239998 41.559998 21.139999 C 41.809998 21.040001 42.129997 20.540001 42.230003 20.459999 C 42.419998 20.32 42.260002 20.169998 42.099998 20.32 C 41.949997 20.459999 41.529999 20.360001 41.470001 20.220001 C 41.43 20.07 41.370003 18.309998 41.449997 18.269997 C 41.449997 18.269997 41.949997 18.260002 42.089996 18.260002 C 42.199997 18.260002 42.199997 17.940002 42.099998 17.940002 C 41.919998 17.940002 41.510002 17.900002 41.489998 17.830002 C 41.43 17.659996 41.5 17.129997 41.610001 16.909996 C 41.720001 16.690002 41.510002 16.589996 41.43 16.809998 C 41.330002 17.049995 40.809998 17.599998 40.269997 17.860001 L 40.269997 17.860001 Z M 40.419998 14.199997 C 40.449997 14.959999 40.050003 15.760002 39.620003 16.129997 C 40.370003 15.940002 40.459999 15.489998 40.870003 14.970001 C 41.099998 15.299995 41.510002 15.709999 41.82 15.879997 C 42.040001 15.739998 42.650002 15.049995 42.779999 14.909996 C 42.339996 14.790001 41.489998 14.339996 41.279999 13.869995 C 41.110001 13.519997 41.150002 13.349998 41.32 13.07 C 41.470001 13.269997 42.5 13.739998 42.970001 12.949997 C 42.459999 12.760002 42 12.43 41.849998 12.159996 C 41.709999 12.269997 41.260002 12.769997 41 12.919998 C 40.940002 12.650002 40.519997 12.349998 40.18 12.290001 C 40.07 12.409996 39.269997 13.019997 38.910004 13.190002 C 38.800003 13.239998 38.839996 13.489998 39 13.43 C 39.150002 13.369995 39.389999 13.18 39.68 13.040001 C 40.010002 13.18 40.379997 13.510002 40.419998 14.199997 L 40.419998 14.199997 Z M 43.989998 14.330002 C 44.080002 13.869995 44.410004 13.68 44.550003 13.540001 C 44.760002 13.769997 44.970001 14.040001 45.290001 14.040001 C 45.599998 14.040001 45.919998 13.900002 46.019997 13.769997 C 45.760002 13.559998 45.18 12.949997 45.07 12.839996 C 44.779999 13 43.5 13.669998 43.389999 14.440002 C 43.230003 15.57 43.589996 15.799995 44.089996 16.419998 C 44.370003 16.769997 44.839996 16.790001 45.050003 16.729996 C 45.279999 16.57 46.120003 15.779999 46.209999 15.68 C 46.290001 15.580002 46.169998 15.489998 46.07 15.589996 C 45.970001 15.690002 46.010002 15.729996 45.870003 15.75 C 45.730003 15.769997 45.160004 15.869995 44.830002 15.699997 C 44.410004 15.459999 43.870003 14.949997 43.989998 14.330002 L 43.989998 14.330002 Z M 43.360001 17.940002 C 43.169998 18.129997 42.839996 18.349998 42.529999 18.699997 C 42.790001 18.720001 43 18.769997 43.120003 19.019997 C 43.25 19.260002 43.139999 20.290001 43.160004 20.690002 C 43.18 21.07 43.410004 21.160004 43.720001 21.470001 C 44.019997 21.389999 44.870003 21.040001 45.160004 20.840004 C 45.129997 21.160004 45.529999 21.510002 45.769997 21.580002 C 45.93 21.410004 46.099998 21.309998 46.330002 21.099998 C 46.099998 20.949997 46.129997 20.93 46.050003 20.629997 C 45.980003 20.340004 46.07 19.239998 46.07 18.769997 C 45.889999 18.5 45.599998 18.169998 45.290001 17.949997 C 45.080002 18.139999 44.790001 18.400002 44.449997 18.760002 C 44.699997 18.729996 45.190002 18.830002 45.220001 19.040001 C 45.239998 19.309998 45.279999 19.910004 45.220001 20.370003 C 45.160004 20.840004 43.910004 20.620003 43.889999 20.309998 C 43.860001 19.989998 43.949997 19.059998 43.959999 18.619995 C 43.800003 18.330002 43.690002 18.18 43.360001 17.940002 L 43.360001 17.940002 Z M 35.050003 29.209999 L 35.050003 29.160004 C 34.330002 29.059998 33.760002 28.550003 33.089996 28.300003 C 32.169998 27.949997 31.199997 28.660004 31.199997 28.770004 C 31.199997 29.020004 31.459999 29.139999 32.199997 28.68 C 31.620003 29.349998 32.279999 29.900002 32.279999 29.900002 C 32.040001 29.860001 31.690002 29.779999 31.470001 29.660004 C 31.43 29.900002 31.760002 29.989998 31.919998 30.099998 C 33.160004 30.599998 33.970001 29.419998 35.050003 29.209999 L 35.050003 29.209999 Z M 32.970001 29.830002 C 32.970001 29.830002 33.300003 29.480003 33.300003 29.220001 C 33.300003 28.879997 32.980003 28.629997 32.980003 28.629997 C 33.260002 28.709999 33.919998 29.080002 34.150002 29.239998 L 32.970001 29.830002 L 32.970001 29.830002 Z M 26.230003 20.510002 L 26.580002 20.120003 C 26.18 20.050003 26.370003 20.050003 26.160004 19.860001 L 26.150002 18.239998 L 25.629997 17.479996 L 25.43 17.510002 L 24.620003 18.269997 C 24.410004 18.459999 24.599998 18.549995 24.839996 18.339996 L 25.379997 18.619995 L 25.389999 20.330002 C 25.43 20.540001 25.620003 20.590004 25.879997 20.860001 L 26.230003 20.510002 L 26.230003 20.510002 Z M 26.410004 14.879997 C 26.68 15.659996 27.330002 15.900002 27.809998 15.940002 C 27.949997 15.669998 28.220001 15.269997 28.360001 15.080002 C 28.580002 14.790001 28.360001 14.619995 28.199997 14.949997 C 28.080002 15.199997 27.459999 14.93 27.239998 14.709999 C 26.940002 14.43 26.75 13.690002 26.989998 13.43 C 27.230003 13.169998 27.580002 13.290001 28.029999 13.269997 C 28.330002 13.260002 28.389999 12.979996 28.440002 12.839996 C 28.300003 12.769997 28.080002 12.650002 27.800003 12.479996 C 27.510002 12.669998 27.059998 13.049995 26.870003 13.209999 C 26.629997 13.419998 26.139999 14.129997 26.410004 14.879997 L 26.410004 14.879997 Z M 27.580002 19.150002 C 27.290001 19.449997 27.07 19.779999 27.07 20.199997 C 27.080002 20.599998 27.220001 21 27.620003 21.18 C 27.980003 20.910004 28.440002 20.590004 28.889999 20.510002 C 29.110001 20.770004 29.440002 20.949997 29.650002 21.110001 C 29.790001 20.940002 30.230003 20.580002 30.360001 20.470001 C 30.480003 20.349998 30.360001 20.18 30.239998 20.340004 C 30.150002 20.480003 29.830002 20.379997 29.739998 20.230003 C 29.739998 20.059998 29.580002 18.269997 29.650002 18.18 C 29.389999 17.889999 28.940002 17.239998 28.639999 17.269997 C 28.199997 17.309998 27.550003 17.940002 27.410004 18.139999 C 27.300003 18.290001 27.440002 19.029999 27.529999 19.099998 C 27.550003 19.129997 27.559998 19.129997 27.580002 19.150002 L 27.580002 19.150002 Z M 28.730003 19.309998 C 28.400002 19.32 28.120003 19.220001 27.760002 18.900002 C 27.690002 18.839996 27.629997 18.43 27.709999 18.299995 C 27.870003 18.049995 27.870003 17.970001 28.010002 17.970001 C 28.120003 17.970001 28.779999 18.369995 28.75 18.589996 C 28.760002 18.739998 28.75 19.029999 28.730003 19.309998 L 28.730003 19.309998 Z M 27.849998 19.370003 C 28.150002 19.57 28.330002 19.550003 28.709999 19.510002 C 28.690002 19.720001 28.68 19.910004 28.68 19.989998 C 28.68 20.080002 28.720001 20.150002 28.739998 20.230003 C 28.540001 20.300003 28.290001 20.340004 28.099998 20.440002 C 27.93 20.290001 27.279999 19.849998 27.849998 19.370003 L 27.849998 19.370003 Z M 30.339996 16.040001 L 30.699997 15.650002 C 30.290001 15.57 30.290001 15.599998 30.080002 15.409996 L 30.099998 13.540001 L 29.75 13.019997 L 29.559998 13.040001 L 28.75 13.790001 C 28.529999 13.989998 28.730003 14.080002 28.970001 13.860001 L 29.389999 14.119995 L 29.410004 15.879997 C 29.449997 16.089996 29.639999 16.159996 29.900002 16.43 L 30.339996 16.040001 L 30.339996 16.040001 Z M 29.709999 9.489998 C 29.540001 9.479996 29.290001 9.790001 30.269997 9.889999 C 30.419998 9.909996 30.620003 9.549995 29.709999 9.489998 L 29.709999 9.489998 Z M 29.720001 8.909996 C 29.559998 8.900002 29.309998 9.349998 30.279999 9.309998 C 30.43 9.299995 30.550003 8.949997 29.720001 8.909996 L 29.720001 8.909996 Z M 29.910004 11.849998 L 29.489998 11.419998 L 29.07 11.799995 L 29.080002 12.32 L 29.339996 12.580002 L 29.599998 12.580002 L 29.910004 12.299995 L 29.910004 11.849998 L 29.910004 11.849998 Z M 29.050003 7.839996 C 28.769997 7.639999 28.459999 7.169998 27.769997 7.139999 C 27.080002 7.110001 26.300003 7.739998 26.050003 8.129997 C 25.709999 8.650002 26.129997 9.099998 26.559998 9.440002 C 26.279999 9.68 25.889999 10.049995 25.529999 10.389999 C 25.669998 10.549995 26.459999 10.919998 26.910004 10.909996 C 27.580002 10.889999 28.199997 10.549995 28.580002 10.239998 C 29.279999 9.690002 29.040001 9.099998 28.330002 8.690002 C 28.260002 8.650002 28.199997 8.639999 28.129997 8.619995 C 28.57 8.279999 28.959999 7.970001 29.050003 7.839996 L 29.050003 7.839996 Z M 27.290001 9.290001 C 27.519997 9.389999 27.760002 9.5 28.019997 9.650002 C 28.389999 9.860001 28.199997 10.260002 27.800003 10.449997 C 27.389999 10.639999 26.660004 10.110001 26.540001 9.889999 C 26.690002 9.760002 26.980003 9.540001 27.290001 9.290001 L 27.290001 9.290001 Z M 28.029999 8.299995 C 27.970001 8.349998 27.790001 8.489998 27.599998 8.639999 C 27.489998 8.659996 27.370003 8.669998 27.260002 8.659996 C 26.910004 8.610001 26.739998 8.349998 26.580002 8.129997 C 26.410004 7.909996 26.839996 7.720001 27.059998 7.75 C 27.269997 7.779999 27.75 8.040001 28.029999 8.299995 L 28.029999 8.299995 Z M 25.150002 9.82 C 24.120003 10.080002 23.639999 9.260002 23.540001 9.040001 C 23.949997 8.619995 24.660004 7.919998 25.089996 7.57 C 24.809998 7.309998 24.690002 6.879997 24.18 6.839996 C 23.739998 6.849998 22.709999 7.349998 22.529999 8.650002 C 22.360001 9.900002 23.529999 10.580002 24.459999 10.610001 C 24.769997 10.610001 25.160004 10.209999 25.349998 10.110001 C 25.769997 9.909996 25.620003 9.709999 25.150002 9.82 L 25.150002 9.82 Z M 23.459999 8.790001 C 23.199997 7.959999 23.300003 7.669998 23.82 7.260002 C 23.940002 7.549995 24.230003 7.75 24.400002 7.849998 C 24.110001 8.139999 23.650002 8.650002 23.459999 8.790001 L 23.459999 8.790001 Z M 22.279999 8.049995 C 22.459999 7.879997 22.269997 7.75 22.110001 7.900002 C 21.989998 7.760002 21.699997 7.459999 21.540001 7.269997 C 21.370003 7.409996 20.989998 7.639999 20.769997 7.760002 C 20.599998 7.57 20.389999 7.57 20.059998 7.299995 C 19.869999 7.440002 19.459999 7.75 19.240002 8.019997 C 19.630001 8.129997 19.93 8.159996 19.950001 8.489998 C 19.959999 8.760002 19.919998 10.449997 19.939999 10.760002 C 20.150002 10.809998 20.410004 10.779999 20.709999 10.769997 C 20.730003 10.529999 20.720001 8.409996 20.720001 8.18 C 20.830002 8.119995 20.949997 8.059998 21 8 C 21.120003 8.089996 21.370003 8.449997 21.57 8.57 C 21.720001 8.459999 22.110001 8.220001 22.279999 8.049995 L 22.279999 8.049995 Z M 19.040001 12.419998 C 18.59 12.459999 17.950001 12.979996 17.759998 13.43 C 17.68 13.610001 17.790001 14.260002 17.869999 14.330002 C 17.93 14.379997 17.970001 14.419998 18.02 14.459999 C 17.73 14.729996 17.450001 14.959999 17.459999 15.369995 C 17.470001 15.760002 17.779999 16.110001 18.18 16.290001 C 18.389999 15.959999 18.73 15.760002 19.09 15.68 C 19.119999 15.989998 19.189999 16.220001 19.400002 16.369995 C 19.549999 16.209999 20.129997 15.699997 20.25 15.589996 C 20.370003 15.470001 20.279999 15.330002 20.139999 15.470001 C 20.050003 15.549995 19.84 15.43 19.779999 15.330002 C 19.779999 15.159996 19.779999 13.369995 19.860001 13.290001 C 19.59 13 19.34 12.389999 19.040001 12.419998 L 19.040001 12.419998 Z M 19.07 14.239998 C 18.57 14.559998 18.41 14.549995 18.07 14.169998 C 17.900002 13.970001 17.919998 13.599998 17.990002 13.459999 C 18.139999 13.220001 18.41 12.970001 18.540001 12.979996 C 18.650002 12.989998 19.049999 13.470001 19.02 13.690002 C 19.060001 13.799995 19.07 14.010002 19.07 14.239998 L 19.07 14.239998 Z M 19.080002 15.139999 C 19.080002 15.239998 19.080002 15.32 19.080002 15.409996 C 18.98 15.43 18.880001 15.459999 18.740002 15.519997 C 18.560001 15.369995 17.689999 15.080002 18.259998 14.629997 C 18.610001 14.830002 18.740002 14.669998 19.080002 14.470001 C 19.080002 14.760002 19.080002 15.029999 19.080002 15.139999 L 19.080002 15.139999 Z M 18.689999 11.339996 C 18.630001 11.260002 18.509998 11.139999 18.509998 10.979996 C 18.509998 10.879997 18.52 9.799995 18.52 9.659996 C 18.52 9.529999 18.27 9.549995 18.27 9.659996 C 18.259998 9.849998 18.290001 10.18 18.119999 10.440002 C 17.650002 11.169998 16.740002 11.479996 16.110001 10.580002 C 15.889999 10.279999 15.84 9.830002 15.82 9.510002 C 15.779999 9.080002 16.099998 8.519997 16.119999 8.470001 C 16.93 7.409996 18.049999 8.199997 18.139999 8.629997 C 18.200001 8.919998 18.259998 9.269997 18.259998 9.449997 C 18.25 9.57 18.52 9.559998 18.52 9.43 C 18.52 9.299995 18.529999 7.669998 18.529999 7.559998 C 18.529999 7.449997 18.32 7.419998 18.310001 7.559998 C 18.299999 7.82 18.150002 7.839996 17.950001 7.779999 C 17.540001 7.659996 16.639999 7.459999 16.110001 7.769997 C 15.650002 8.040001 14.939999 8.68 14.950001 9.479996 C 14.959999 10.799995 15.459999 10.909996 16.040001 11.269997 C 16.580002 11.589996 17.330002 11.379997 18.02 11.18 C 18.290001 11.110001 18.330002 11.279999 18.459999 11.470001 C 18.669998 11.769997 18.849998 11.580002 18.689999 11.339996 L 18.689999 11.339996 Z M 15.029999 13.209999 C 14.57 13.909996 14.32 15.010002 15.110001 15.659996 C 15.48 15.970001 15.790001 16.209999 16.549999 16.080002 C 16.700001 15.779999 16.77 15.68 17.040001 15.330002 C 16.52 15.409996 16.110001 15.32 15.73 15.029999 C 14.939999 14.419998 15.189999 13.43 15.419998 13.099998 C 15.849998 12.470001 16.450001 13.369995 16.560001 13.489998 C 16.700001 13.32 16.939999 13.080002 17.18 12.900002 C 16.950001 12.589996 16.75 12.299995 16.59 12.110001 C 16.09 12.290001 15.349998 12.739998 15.029999 13.209999 L 15.029999 13.209999 Z M 15.360001 19.25 C 15.189999 20.510002 16.380001 21.25 16.950001 21.5 C 17.09 21.209999 17.389999 20.739998 17.669998 20.410004 C 17.889999 20.160004 17.650002 20.090004 17.450001 20.279999 C 17.189999 20.57 16.400002 20.290001 16.200001 19.919998 C 16.580002 19.629997 17.560001 18.809998 17.990002 18.459999 C 17.709999 18.190002 17.27 17.529999 17.200001 17.150002 C 16.810001 17.419998 15.549999 17.949997 15.360001 19.25 L 15.360001 19.25 Z M 16.580002 17.889999 C 16.689999 18.18 17.060001 18.739998 17.220001 18.830002 C 16.939999 19.110001 16.240002 19.590004 16.049999 19.720001 C 15.689999 19.279999 15.5 18.549995 16.580002 17.889999 L 16.580002 17.889999 Z M 19.169998 17.440002 C 18.919998 17.669998 18.73 17.879997 18.369999 18.169998 C 18.540001 18.360001 18.82 18.599998 18.849998 18.93 C 18.869999 19.260002 18.860001 20.809998 18.880001 21.199997 C 19.139999 21.199997 19.099998 21.230003 19.549999 21.209999 C 19.509998 20.949997 19.540001 18.940002 19.540001 18.650002 C 19.709999 18.489998 19.73 18.459999 19.93 18.32 C 20.07 18.440002 20.400002 18.510002 20.400002 18.729996 C 20.400002 18.949997 20.459999 19.900002 20.389999 20.25 C 20.300003 20.68 20.339996 20.989998 20.57 21.419998 C 20.75 21.220001 21.400002 20.760002 21.550003 20.650002 C 21.690002 20.529999 21.620003 20.440002 21.440002 20.489998 C 21.25 20.529999 21.209999 20.57 21.209999 20.449997 C 21.209999 20.220001 21.120003 19.169998 21.099998 18.5 C 21.080002 17.830002 20.75 17.629997 20.559998 17.540001 C 20.370003 17.75 19.939999 18.019997 19.68 18.239998 C 19.48 18.089996 19.389999 17.769997 19.169998 17.440002 L 19.169998 17.440002 Z M 21.870003 15.82 C 22.099998 15.639999 22.260002 15.339996 22.349998 15.260002 C 22.519997 15.119995 22.379997 14.970001 22.230003 15.110001 C 22.110001 15.220001 21.809998 14.959999 21.790001 14.940002 C 21.690002 14.82 21.540001 13.290001 21.610001 13.260002 C 21.610001 13.260002 22.580002 13.139999 22.709999 13.139999 C 22.809998 13.150002 22.82 12.839996 22.720001 12.830002 C 22.559998 12.830002 21.82 12.93 21.790001 12.860001 C 21.75 12.699997 21.650002 12.150002 21.889999 11.68 C 22 11.479996 21.889999 11.279999 21.809998 11.489998 C 21.720001 11.699997 21.110001 12.650002 20.720001 12.809998 C 20.400002 12.940002 20.43 13.019997 20.639999 13.07 C 20.800003 13.099998 20.980003 13.299995 20.940002 13.299995 C 20.910004 14.089996 20.830002 15.059998 21.07 15.470001 C 21.25 15.720001 21.669998 15.989998 21.870003 15.82 L 21.870003 15.82 Z M 25.220001 16.159996 C 25.099998 16.400002 24.910004 16.619995 24.550003 16.779999 C 24.769997 16.970001 25.050003 17.209999 25.230003 17.330002 C 25.440002 17.089996 25.639999 16.869995 25.879997 16.639999 C 25.639999 16.599998 25.360001 16.470001 25.220001 16.159996 L 25.220001 16.159996 Z M 23.68 15.299995 C 23.989998 15.269997 24.489998 15.459999 25.040001 15.409996 C 25.699997 15.360001 26.209999 14.339996 25.93 13.549995 C 25.669998 12.799995 24.830002 12.93 24.260002 12.75 C 23.739998 12.610001 23.529999 12.279999 24.089996 11.909996 C 24.760002 11.479996 25.580002 12.169998 25.660004 12.32 C 25.779999 12.540001 25.879997 12.540001 25.879997 12.25 C 25.900002 11.629997 25.839996 11.979996 25.779999 11.389999 C 25.760002 11.18 25.610001 11.159996 25.589996 11.360001 C 25.580002 11.559998 25.330002 11.5 25.139999 11.5 C 24.949997 11.5 24.389999 11.409996 23.910004 11.68 C 23.599998 11.860001 22.910004 12.409996 23.300003 13.059998 C 23.529999 13.440002 24.870003 13.760002 25.209999 13.979996 C 25.550003 14.199997 25.620003 14.760002 25.300003 15.019997 C 24.900002 15.339996 23.809998 15.07 23.650002 14.879997 C 23.43 14.639999 23.349998 14.440002 23.300003 14.150002 C 23.25 13.860001 23.010002 13.889999 23.010002 14.150002 C 23.010002 14.409996 23.07 15.32 23.120003 15.529999 C 23.160004 15.75 23.379997 15.68 23.400002 15.510002 C 23.43 15.349998 23.540001 15.309998 23.68 15.299995 L 23.68 15.299995 Z M 22.269997 18.110001 C 22.010002 18.299995 22.57 18.57 22.519997 18.549995 C 22.540001 19.339996 22.43 20.150002 22.690002 20.550003 C 22.860001 20.800003 23.389999 20.980003 23.480003 20.739998 C 23.57 20.5 23.970001 20.010002 24.059998 19.93 C 24.230003 19.779999 24.080002 19.650002 23.940002 19.790001 C 23.650002 20.099998 23.489998 19.959999 23.269997 19.75 C 23.169998 19.629997 23.129997 18.529999 23.199997 18.5 C 23.199997 18.5 23.730003 18.419998 23.860001 18.419998 C 23.959999 18.419998 23.949997 18.110001 23.849998 18.110001 C 23.690002 18.110001 23.220001 18.110001 23.190002 18.040001 C 23.129997 17.889999 23.279999 17.139999 23.309998 16.809998 C 23.330002 16.580002 23.209999 16.5 23.139999 16.720001 C 23.080002 16.949997 22.57 17.889999 22.269997 18.110001 L 22.269997 18.110001 Z"/>
    </g>
</svg>
