<?xml version="1.0" encoding="utf-8"?>
<!-- Generator: Adobe Illustrator 25.4.1, SVG Export Plug-In . SVG Version: 6.00 Build 0)  -->
<svg version="1.1" id="a" xmlns="http://www.w3.org/2000/svg" xmlns:xlink="http://www.w3.org/1999/xlink" x="0px" y="0px"
	 viewBox="0 0 1021.8 877.2" style="enable-background:new 0 0 1021.8 877.2;" xml:space="preserve">
<style type="text/css">
	.st0{fill:#95CCF5;}
	.st1{clip-path:url(#SVGID_00000061451839509866265960000007328040982756720547_);}
	.st2{fill:#4E8927;}
	.st3{fill:#664323;}
	.st4{fill:#CB8251;}
	.st5{fill:#A56A43;}
	.st6{fill:#845034;}
	.st7{fill:#603E26;}
	.st8{fill:#145272;}
	.st9{fill:#FAC176;}
	.st10{fill-rule:evenodd;clip-rule:evenodd;fill:#FF7133;}
	.st11{fill-rule:evenodd;clip-rule:evenodd;fill:#F54343;}
	.st12{fill-rule:evenodd;clip-rule:evenodd;fill:#AF362F;}
	.st13{fill-rule:evenodd;clip-rule:evenodd;fill:#2E2F5D;}
	.st14{fill:#F29C1E;}
	.st15{fill:#3D3DC1;}
	.st16{fill:none;stroke:#33305E;stroke-width:4.402;stroke-linecap:round;stroke-linejoin:round;}
	.st17{fill:none;}
	.st18{fill:#FFCD70;}
	.st19{fill:#F5B062;}
	.st20{fill:#635BFF;}
	.st21{fill:#5750DE;}
	.st22{opacity:0.15;fill:#FFFFFF;enable-background:new    ;}
	.st23{fill:#FFFFFF;}
	
		.st24{clip-path:url(#SVGID_00000132796357411246266660000005910049257390956719_);fill:#33305E;stroke:#33305E;stroke-width:0.7947;stroke-miterlimit:10;}
	
		.st25{clip-path:url(#SVGID_00000064341658200856308540000017250117752613251458_);fill:#33305E;stroke:#33305E;stroke-width:0.7947;stroke-miterlimit:10;}
	.st26{fill:#FFFFFF;stroke:#33305E;stroke-width:4.7322;stroke-linecap:round;stroke-linejoin:round;}
	.st27{fill:none;stroke:#33305E;stroke-width:4.7322;stroke-linecap:round;stroke-linejoin:round;}
	.st28{opacity:0.24;fill:#FFFFFF;}
	.st29{fill:none;stroke:#33305E;stroke-width:3.6223;stroke-linecap:round;stroke-linejoin:round;}
	.st30{fill:#AF362F;}
	.st31{fill:#072C41;}
	.st32{fill:#4C301D;}
	.st33{fill:#3F2713;}
	.st34{fill:#FFFFFF;stroke:#33305E;stroke-width:4.5151;stroke-linecap:round;stroke-linejoin:round;}
	.st35{fill:#33305E;stroke:#33305E;stroke-width:0.6073;stroke-miterlimit:10;}
	.st36{fill:none;stroke:#635BFF;stroke-width:4.5151;stroke-linecap:round;stroke-linejoin:round;}
	.st37{fill:#B21F9D;}
	.st38{fill:#C655B6;}
	.st39{fill:#E063C8;}
	.st40{fill:none;stroke:#FDD728;stroke-width:3.1351;stroke-linecap:round;stroke-linejoin:round;}
	.st41{fill:#FDD728;}
</style>
<g>
	<path class="st0" d="M986.2,423.3c31.5-57.9,27.1-135.5-6.4-194.2c-41.8-73-119-119.6-199-145.6c-54-17.5-110.5-27.2-167.3-28.8
		c-52.6-1.5-105.4,3.9-156.5,16.2C423,60.7,386.1,55,347.5,55C180,55,44.1,161.1,44.1,291.9c0,28.4,6.4,55.6,18.2,80.9
		c-7.9,12.4-15.2,25.1-21.8,38.3C-10,512.4,0.9,627.9,72.9,716c63.7,77.9,161.8,122.9,261.6,136.1c89.3,11.8,317.5,1,475.5-107.5
		c37.4-25.7,137.1-94,156.8-180.1c7.9-34.6,8.7-72.8-10.3-102.8C968.6,450.5,978.5,437.5,986.2,423.3z"/>
	<g>
		<defs>
			<path id="SVGID_1_" d="M932.8,70.1c-0.4,0.2-0.7,0.5-1.1,0.7c-7,4.8-13,11.2-20.6,15.1c-7.6,3.9-17.9,4.5-23.8-1.8
				c-4.8-5.1-5-12.8-7.5-19.3c-4.9-12.4-18.4-19.7-31.6-20.9c-13.3-1.2-26.4,2.7-39,6.9c-12.7,4.2-26.6,8.7-39,3.8
				c-5.8-2.3-10.6-6.4-16-9.6c-19.1-11.4-42.9-10.1-65.1-8.2c-12.5,1.1-25.5,2.2-37.2-2.4c-6.6-2.6-12.4-7-18.6-10.5
				c-26.9-15-62.8-11.8-86.5,7.8c-32-30.3-73-10.4-106.7,6.3c-28.6,14.3-50,6.9-81.4,1.5c-45.5-7.8-91.8,2.1-137,11.3
				c-20.1,4.1-42.5,7.6-59.7-3.5c-5.5-3.5-10.1-8.4-16.1-11.2c-11.9-5.5-26.6-0.7-36.2,8.2S94.4,65.8,89.4,77.9
				c-19.9,48.1-34.2,98.8-58.7,144.7c-11.3,21.2-25.1,43-23.7,66.9c1.1,19.7,12.7,37.5,27,51c4.3,4,8.9,7.9,11.4,13.1
				c6.3,13.4-4.8,29-6.7,41.3c-2.6,16.6-3.6,27.1-10.3,43.4c-12.3,30.1-18.3,63.6-19.1,96.1C8,600.5,31.2,664.9,72.9,716
				c63.7,77.9,161.8,122.9,261.6,136.1c89.3,11.8,317.5,1,475.5-107.5c27.5-18.9,54.4-38.7,78.9-61.6c8.4-7.8,18.1-17.5,23.9-27.6
				c4.9-8.5,3.8-18,13.1-23.9c4.8-3.1,10.6-4.2,16.1-6c28-8.8,39.6-32.4,57.5-52.5c10.2-11.4,15.5-26.2,19.8-40.8
				c2.1-7,4-14.5,2.3-21.6c-1.2-5.4-4.4-10.2-5.8-15.6c-1.6-6.1-1-12.6-0.3-18.9c5-45.7,11.4-96.6,4.5-142.4
				c-1.8-12.1-4.7-24-5.7-36.2c-2-25.1,4-52.4-8.8-74.1c-7.1-11.9-19.3-20.7-24.1-33.7c-3.5-9.4-2.5-19.8-1.5-29.8
				c2-20.1,4-40.3,6-60.4c0.8-8.1,1.6-16.5-1.3-24.1C976,52.2,948.2,59.8,932.8,70.1z"/>
		</defs>
		<clipPath id="SVGID_00000065783212372059898280000002560348686648198585_">
			<use xlink:href="#SVGID_1_"  style="overflow:visible;"/>
		</clipPath>
		<g style="clip-path:url(#SVGID_00000065783212372059898280000002560348686648198585_);">
			<path class="st2" d="M705.1,53.6c0,0,2.3,24.5-5.2,47.3s-22.5,44.9-22.5,44.9s-20.7-31.1-5.8-59.3
				C686.5,58.3,705.1,53.6,705.1,53.6z"/>
			<path class="st2" d="M686.6,165.7c0,0,10.6-19.6,26.8-33.6c16.2-13.9,37.1-24.2,37.1-24.2s-1.6,32.6-25.4,47.5
				C701.3,170.3,686.6,165.7,686.6,165.7z"/>
			<path class="st2" d="M773.4,120.8c0,0,10.6-19.6,26.8-33.6C816.5,73.3,837.3,63,837.3,63s-1.6,32.6-25.4,47.5
				C788.1,125.4,773.4,120.8,773.4,120.8z"/>
			<path class="st2" d="M773.5,145.8c0,0,15.1-6.1,31-5.2c15.9,0.9,32.9,6.9,32.9,6.9s-15.6,19.8-36.4,14.9
				C780.1,157.5,773.5,145.8,773.5,145.8z"/>
			<path class="st2" d="M764.1,172c0,0,9.7-4.2,20.2-2.5c10.6,1.7,22.2,7.8,22.2,7.8s-9.2,15.7-23.3,10.4
				C769.2,182.3,764.1,172,764.1,172z"/>
			<path class="st3" d="M736.2,240.8c0,0,44.4-76.3,56.6-114.4l2.4-18.1l-15.7,5.5c0,0-26.7,52.7-40.9,69.2
				c-14.2,16.5-33.4,27.9-33.4,27.9s-0.8-44-8.3-61.3s-22-17.7-22-17.7l-3.9,10.2c0,0,3.9,53.9,0,72.8s-9.8,33.4-9.8,33.4
				L736.2,240.8z"/>
			<path class="st3" d="M605.2,248.3c0,0-5.5-69.2-14.2-91.2c-8.7-22-11-18.1-12.2-10.6s2.8,33.4,4.7,54.7c2,21.2,2,58.2,2,58.2
				L605.2,248.3z"/>
			<path class="st3" d="M534,261.6c0,0-12.6-50.7-33.4-67.6c0,0-10.6-6.3-5.5,5.9c5.1,12.2,21,31.9,18.8,68.4L534,261.6z"/>
			
				<rect x="381.5" y="616.1" transform="matrix(-1 -4.489532e-11 4.489532e-11 -1 1106.4526 1301.0818)" class="st4" width="343.4" height="68.8"/>
			
				<rect x="381.5" y="548" transform="matrix(-1 -4.490065e-11 4.490065e-11 -1 1106.4526 1164.8219)" class="st5" width="343.4" height="68.8"/>
			
				<rect x="381.5" y="479.6" transform="matrix(-1 -4.490065e-11 4.490065e-11 -1 1106.4526 1028.1235)" class="st4" width="343.4" height="68.8"/>
			
				<rect x="381.5" y="411.5" transform="matrix(-1 -4.490331e-11 4.490331e-11 -1 1106.4526 891.8636)" class="st5" width="343.4" height="68.8"/>
			
				<rect x="381.5" y="343.2" transform="matrix(-1 -4.489798e-11 4.489798e-11 -1 1106.4526 755.1652)" class="st4" width="343.4" height="68.8"/>
			
				<rect x="381.5" y="275" transform="matrix(-1 -4.488999e-11 4.488999e-11 -1 1106.4526 618.9052)" class="st5" width="343.4" height="68.8"/>
			
				<rect x="422.1" y="206.7" transform="matrix(-1 -4.490109e-11 4.490109e-11 -1 1109.9597 482.2068)" class="st4" width="265.8" height="68.8"/>
			
				<rect x="484.4" y="138.6" transform="matrix(-1 -4.490420e-11 4.490420e-11 -1 1108.4156 345.9469)" class="st5" width="139.5" height="68.8"/>
			<polygon class="st6" points="341,295.2 363.7,695.3 422.1,700.5 410.8,266.6 			"/>
			<polygon class="st5" points="332.8,295.2 355.5,695.3 413.9,700.5 399.5,273.4 			"/>
			<circle class="st7" cx="374.2" cy="386.6" r="14"/>
			<circle class="st7" cx="377.8" cy="534.5" r="14"/>
			<path class="st3" d="M131.3,1344.3c0,0-2.4-107.1-4.2-134.2c-1.8-27.1-1.2-54.7-17.4-119.7c-16.2-65-14.4-116.7-15-132.4
				s2.4-45.7-8.4-62.6C48.8,837.3,6.6,767.8-2.5,698.8c-2.9-21.6-4.7-43.6-1.2-65.1c5.4-33.1,24-51.3,46.8-73.1
				c25.5-24.4,48.9-52.5,64.2-84.5c27.7-57.8,44.1-92.9,77.8-119.4c33.6-26.5,102.1-123.6,114.7-160.7l8.7-18.7c0,0,4.3,9-5.8,32.6
				s-46,85.2-81.7,125.4s-38,39.8-48.4,52.8s-22.4,26.5-31.6,53.7s-37.5,100.6-73.1,139.8c-35.7,39.2-38.6,39.5-40.4,48.1
				c-1.8,8.6-0.9,19.2,15.6,54.6c16.5,35.4,53.7,94.7,70.5,116.2c16.8,21.5,47.2,49.6,70.5,43.9c0,0,6.5,2.4,12.4-13.9
				c5.9-16.2,24.2-45.4,26.5-64c2.4-18.6,3.5-48.7,3.2-59.3c-0.3-10.6,20.6-5.6,20.6-5.6s11.8,33,20.6,34.8
				c8.8,1.8,13-14.2,13.3-30.1s28.3-5.6,28.3-5.6s-8.8,18.3-10.9,25.4c-2.1,7.1-2.7,25.7,3.2,27.7c5.9,2.1,21.5-0.9,33.6-13.3
				c12.1-12.4,32.4-34.8,41.6-38.9s33,2.4,33,2.4s-0.6,9.7-10.3,18.6c0,0,23.9,13.6,99.4-16.8s187.9-5.9,187.9-5.9
				s-72,23.3-102.9,36c-31,12.7-110.9,26.5-151.3,25.4s-70.2-12.7-106.8,12.7s-68.1,60.8-77.9,73.4c-9.7,12.7-13.3,33-12.1,45.4
				c1.2,12.4,13.9,99.4,13.9,99.4s24.2,125.6,32.7,170.5s15.6,151.3,14.5,186.4c-1.2,35.1-152.8,19.5-152.8,19.5L131.3,1344.3z"/>
			<path class="st3" d="M684.4,706.6c0,0-33,47.5-74.3,62.5c-41.3,15-45.1,16.5-51.3,24.5s-10.3,17.1-15.6,29.5
				c-5.3,12.4-13.6,18.9-34.6,25c-15.1,4.4-40.4,17.1-71,52.6c-43.3,50.2-94.9,105.7-133.6,177.3c-42.1,77.9-35.7,96.2-35.7,96.2
				l-26-181.7c0,0,41.9,4.4,97.3-52.1S465.2,755,465.2,755l32.7-2.7c0,0-19.8,37.2-22.1,46.6c-2.4,9.4,3.2,21.5,19.2,20.6
				c15.9-0.9,27.7-11.5,33.9-23.6s24.8-61.1,24.8-61.1l32.1-5c0,0-13.9,23.6-13.9,31.6s9.4,7.4,16.8,4.7
				c7.4-2.7,55.5-32.7,70.5-59.6H684.4z"/>
			<path class="st3" d="M722.7,677.7c0,0,57-27.1,110.1-93.2c0,0,29.9-41.7,47.2-38.9s26.3,7.2,46.8-0.1
				c20.4-7.3,52.3-36.1,52.3-36.1s-47.2,23.2-64.9,24.4c-17.7,1.2-28.3-2.8-28.3-2.8s66.2-72.6,80.2-92.1c0,0-12,3.4-42.2,29.6
				s-37.7,33.9-43.1,34.7s-8.4-18.7-7.7-31.3c0.6-12.7,5.8-37.3,5.8-37.3s-17.4,29.8-17.6,80.6c0,0-2.8,10.3-20.4,24.4
				s-38,38.4-57.9,48c-19.9,9.6-25.1,2.6-24.2-11.8s36-72.5,57.3-95.6c21.2-23.2,58.8-66.7,96.3-95.2c38.3-29.1,62-43.7,67.8-54.5
				c0,0,3.2-5.4-3.4-2.1c-6.6,3.2-72,47.2-81.9,52.8c0,0,6.6-19.5,1.7-32c0,0-3.4,7.3-7.1,16.9s-1.7,23.8-17.8,30.2
				c-16.1,6.4-18.7-10.1-16.3-19.9c2.4-9.9,31.7-74.4,39.2-95.2C902,260.4,932,170.8,955.6,150c0,0-6-4.5-16.1,4.9
				c-10.1,9.4-45.2,80.4-55.8,110.9c-10.5,30.4-26.4,68.8-31.1,83c-4.7,14.2-19.3,69.3-27,82.1s-12.9,6.6-12.9,6.6
				s-7.1-115.8,3.2-147.2h-21.2c0,0-10.2,67.6,4.7,151.8c0,0,6.7,17.3-8.3,36.6s-28.7,58.6-42.5,72.4s-26,27.1-26,27.1V677.7z"/>
			<path class="st2" d="M983.9,222.7c0,0-11.8,36.2-42.1,49.6c-30.3,13.4-53.1,7.1-53.1,7.1S908.3,227.4,983.9,222.7z"/>
			<path class="st2" d="M812,218c0,0,21.1,31.6,12.9,63.7c-8.2,32.1-27.3,46.1-27.3,46.1S769,280.3,812,218z"/>
			<path class="st2" d="M901.4,224c0,0-23-15.4-26.5-36.3s0-45.2,0-45.2s18.5,10.4,23.6,28.2S903.9,211.5,901.4,224z"/>
			<path class="st2" d="M956.7,74.8c0,0,2.4,30.3-6.3,58.2s-25.6,55.1-25.6,55.1s-22.8-38.5-5.9-73.1
				C935.9,80.3,956.7,74.8,956.7,74.8z"/>
			<path class="st2" d="M517.5,100.4c0,0,30.2,2.8,56.3,16c26.1,13.2,50,34.5,50,34.5s-41.8,16-73.1-6.5S517.5,100.4,517.5,100.4z"
				/>
			<path class="st2" d="M285.3,102.9c0,0,2.3,24.5-5.2,47.3c-7.5,22.7-22.5,44.9-22.5,44.9s-20.7-31.1-5.8-59.3
				C266.7,107.5,285.3,102.9,285.3,102.9z"/>
			<path class="st2" d="M259,194.9c0,0,20.2-14.1,43.7-18.7c23.5-4.6,50.1-2.5,50.1-2.5S335.9,207,304,207.9
				C272.1,208.8,259,194.9,259,194.9z"/>
			<path class="st2" d="M65.2,363.3c0,0,21.2,29.9,51.5,26.7s45.4-17.3,45.4-17.3S90,349.9,65.2,363.3z"/>
			<path class="st2" d="M986.6,280.8c0,0-0.7,39.4-24.9,61.8c-3.5,3.3-7.8,5.7-12.3,7.3l-13.1,4.5
				C936.3,354.3,941.4,300.8,986.6,280.8z"/>
			<path class="st3" d="M215.6,325.4c0,0-11.2-36.6-8.9-66.1c2.4-29.5,2-52.3,2-52.3s-6.3,2.3-9.8,28.5c-3.5,26.2,4.7,72.6,5.1,85.2
				c0.4,12.6-2,29.5-2,29.5L215.6,325.4z"/>
			<path class="st3" d="M138.7,186.9c0,0,15.3,56.2,28.7,73.5c0,0,65.3-35,92.4-71.6l2.4,8.6c0,0-54.3,50.4-84.6,70.4
				c0,0-11.8,6.7-13.4,37.4s4.3,74.7,4.3,74.7l-10.6,9c0,0-8.7-75.1,1.6-118.4c0,0,1.6-3.5-4.3-14.9s-21.6-54.3-21.6-65.7
				C133.6,178.6,138.7,186.9,138.7,186.9z"/>
			<path class="st3" d="M262.2,359.1c0,1.2-53.9,60.1-128.6,103.2l2.4-15.9c0,0,55.1-20.1,118-90.1L262.2,359.1z"/>
			<path class="st2" d="M95.8,496.9c0,0,10.6-23-3.5-54.8c0,0-25.2,16.5,0,60.3L95.8,496.9z"/>
			<g>
				<path class="st3" d="M232.7,457.8c-18.2,0-41.9-4-63.2-20.2c-1.6-1.2-2-3.6-0.7-5.2c1.2-1.6,3.6-2,5.2-0.7
					c38.5,29.1,86.6,15.3,87.1,15.1c2-0.6,4.1,0.5,4.6,2.5c0.6,2-0.5,4.1-2.5,4.6C262.3,454.3,249.9,457.8,232.7,457.8z"/>
			</g>
			<g>
				<path class="st3" d="M208.6,455.2c-0.5,0-1-0.1-1.5-0.3c-1.9-0.8-2.7-3.1-1.9-4.9c10.4-23,26.3-33.7,32.3-37.7
					c0.5-0.3,1.1-0.7,1.5-1c0.1-0.2,0.2-0.4,0.4-0.6c1.3-1.6,3.6-1.9,5.2-0.6c1,0.8,1.5,2,1.5,3.2c-0.1,2.2-1.6,3.3-4.4,5.1
					c-6,4-20.1,13.5-29.7,34.5C211.4,454.4,210,455.2,208.6,455.2z M239.9,415.9L239.9,415.9L239.9,415.9z"/>
			</g>
			<path class="st2" d="M751.9,643.6c0,0,24.7-11,42.5-2.2s19.8,20.5,19.8,20.5S773.7,670.8,751.9,643.6z"/>
			<path class="st2" d="M137.8,194.8c0,0-12.4-24-4.8-42.3s19.3-21,19.3-21S163.7,171.4,137.8,194.8z"/>
			<path class="st2" d="M148.4,242.8c0,0-26.3,6.3-42.2-5.5s-15.8-23.7-15.8-23.7S131.8,212.2,148.4,242.8z"/>
			<path class="st2" d="M936.3,535.7c0,0,23.4,13.7,26.7,33.2s-5.1,28.1-5.1,28.1S927,569.3,936.3,535.7z"/>
			<path class="st2" d="M1006.6,468.9c0,0-26.6,26.7-54.1,27.3c-27.5,0.6-36-11.3-36-11.3S964.6,451.3,1006.6,468.9z"/>
			<path class="st2" d="M267.5,492.7c0,0-29.3,0-44.7-14.7s-13.6-26-13.6-26S254.1,459.9,267.5,492.7z"/>
			<path class="st2" d="M279.5,422.8c0,0-11.2,18.3-26.2,22.7c-15,4.4-21.2-0.7-21.2-0.7S254.2,419.6,279.5,422.8z"/>
			<polygon class="st6" points="765.5,295.2 742.8,695.3 684.4,700.5 698.8,273.4 			"/>
			<polygon class="st5" points="777.5,295.2 754.8,695.3 696.4,700.5 710.8,273.4 			"/>
			<path class="st8" d="M-32.4,706.6h842.5c2.5,0,4.8-1.5,5.8-3.7l5.7-12.4c2-4.2-1.1-9.1-5.8-9.1H-32.4V706.6z"/>
			<circle class="st7" cx="735.2" cy="387.4" r="14"/>
			<circle class="st7" cx="730.6" cy="532.1" r="14"/>
			<circle class="st7" cx="797.1" cy="352" r="14"/>
			<path class="st9" d="M89.2,855.3l144,7.1c9.8,0.5,18-7,18.5-16.8v0c0.5-9.8-7-18-16.8-18.5l-144-7.1c-9.8-0.5-18,7-18.5,16.8v0
				C72,846.5,79.5,854.8,89.2,855.3z"/>
			<g>
				<path class="st10" d="M238.3,682.4H133.2c-3.7,0-6.7-3-6.7-6.7v-70h111.9L238.3,682.4L238.3,682.4z"/>
				<path class="st11" d="M299.9,682.4h-61.5v-76.7h66v72.2C304.3,680.3,302.3,682.4,299.9,682.4z"/>
				<path class="st12" d="M235.4,614.4H123.7c-2.4,0-4.3-1.9-4.3-4.3v-17.4c0-5.7,4.6-10.3,10.3-10.3h105.7L235.4,614.4L235.4,614.4
					z"/>
				<path class="st12" d="M235.4,614.4h72.4c3,0,5.5-2.5,5.5-5.5v-17.6c0-5-4-8.9-8.9-8.9h-69L235.4,614.4L235.4,614.4L235.4,614.4z
					"/>
				<rect x="177.4" y="564.8" class="st13" width="8.2" height="17.5"/>
				<rect x="235.4" y="564.8" class="st13" width="8.2" height="17.5"/>
				<path class="st13" d="M245,566.1h-68c-1.4,0-2.5-1.1-2.5-2.5v-9.3c0-1.4,1.1-2.5,2.5-2.5h68c1.4,0,2.5,1.1,2.5,2.5v9.3
					C247.5,564.9,246.4,566.1,245,566.1z"/>
				<path class="st13" d="M156.4,624.3h-12.5c-2.9,0-5.2-2.3-5.2-5.2v-13.5h22.8v13.5C161.6,622,159.3,624.3,156.4,624.3z"/>
				<path class="st13" d="M211.3,624.3h-12.5c-2.9,0-5.2-2.3-5.2-5.2v-13.5h22.8v13.5C216.4,622,214.1,624.3,211.3,624.3z"/>
			</g>
			<circle class="st7" cx="94.4" cy="836.6" r="9.3"/>
			<circle class="st7" cx="229.8" cy="841.2" r="9.3"/>
			<g>
				<g>
					<path class="st15" d="M228,254.7c38.4,26.8,84.2,30.8,84.2,30.8l-0.3-11.9c23,9.6,41.4,9.2,62.6-1
						c-36.5-30.5-98.5-80.7-122.7-82.4c-6.4-0.5-13.7,5.1-17.8,9.5C221.6,212.9,206.3,239.7,228,254.7L228,254.7z"/>
					<path class="st15" d="M221.6,246.7c-0.7-24.9,13.8-42.3,25.7-43c29.5-1.5,120.4,70.6,120.4,70.6s6,0.2,7.8-1.3
						c-33.8-37.2-67.1-66.8-101.2-89.4c-6.6-4.4-14,6.3-21.9,5.9c-9.6-0.4-17.3,7-23.1,14.6C223.5,211.7,214.4,230.8,221.6,246.7
						L221.6,246.7z"/>
					<g>
						<path class="st16" d="M241.6,240.3c4,1.1,8.2,1.5,12.3,1c-0.6-4.1-1.2-8.2-1.7-12.4"/>
						<path class="st16" d="M283.9,238.5c3.8,0.1,7.5,0.2,11.7-0.5c-1.2-3.2-2.4-6.3-3.6-9.5"/>
						<path class="st16" d="M319.9,264.1c0,0,6.6,0.1,10.7,0.1l-4.9-11.2"/>
					</g>
				</g>
				<path class="st17" d="M173.9,385.9c-0.1,0.1-0.2,0.1-0.3,0.2c-0.4,0.3-0.9,0.3-1.4,0.3c-6,0-12.3-0.2-17.8-2.8
					c-5.1-2.4-9.5-7-11.9-12.6c-2.2-4.9-2.9-10.5-2.1-15.8c0.1-0.8,0.3-1.5,0.4-2.3"/>
				<path class="st18" d="M145.3,361.3c-0.6-0.8,0.1-1.8,0.7-2.6c2.5-2.9,5-5.8,6.1-16.4c9.7-3.8,20.4-6,30.4-2.8s18.7,13.5,18.4,25
					c-3,0.4-6.2,0.7-9.2,0.8c-9.5,0.5-19-0.2-28.5-1.3l0,0c-5.5-0.6-11-1.4-16.4-2.2C146.2,361.9,145.6,361.8,145.3,361.3
					L145.3,361.3z"/>
				<path class="st19" d="M159.3,349.6c0-0.2,0.1-0.5,0.1-0.8c0-0.5,0.2-0.9,0.3-1.4c0.3-0.1,0.6-0.1,1-0.2c1-0.2,2.2-0.3,3.3-0.4
					c6.4-0.4,14,1.5,19.6,6.4c3.6,3.2,6.4,7.4,8,12.1c-9.5,0.5-19-0.2-28.5-1.3l0,0c-1.3-1.1-2.5-2.4-3.5-3.8
					C158.9,356.8,158.8,353.2,159.3,349.6z"/>
				<path class="st18" d="M144.1,352.7c3.4-6.6,10.5-9.6,17.1-7.8c5.3,1.4,10.2,3.5,15,6.9c7.6,5.2,13.5,14.3,13.2,24.1
					c-3.5,1.6-7,2.4-10.7,2.7c-7.9,0.5-15.9-1.7-23.2-5c-3.7-1.7-7.8-4.6-10.5-8.3c-1.2-1.7-2.1-3.5-2.4-5.4
					C142.3,357.2,142.9,354.9,144.1,352.7z"/>
				<path class="st19" d="M145.1,365.2c-0.8-3.5-0.9-7.1-0.3-10.7c0-0.2,0.1-0.5,0.1-0.8c0-0.5,0.2-0.9,0.3-1.4
					c0.3-0.1,0.6-0.1,1-0.2c1-0.2,2.2-0.3,3.3-0.4c6.4-0.4,14,1.5,19.6,6.4c5.6,4.8,9.2,12.6,9.6,20.4c-7.9,0.5-15.9-1.7-23.2-5
					C151.8,371.8,147.7,368.9,145.1,365.2L145.1,365.2z"/>
				<path class="st18" d="M142.5,371.1c-2.1-4.8-2.9-10.5-2.1-16.1c0-0.2,0.1-0.5,0.1-0.8c0-0.5,0.2-0.9,0.3-1.4
					c0.3-0.1,0.6-0.1,1-0.2c1-0.2,2.2-0.3,3.3-0.4c6.4-0.4,14,1.5,19.6,6.4c6.5,5.6,10.2,14.9,9.6,24c-0.1,0.7-0.1,1.3-0.2,2
					c0,0.5-0.1,0.9-0.3,1.2c-0.1,0.1-0.2,0.1-0.3,0.2c-0.4,0.3-0.9,0.3-1.4,0.3c-5.1,0-10.4-0.1-15.3-1.7c-0.4-0.1-0.7-0.3-1.1-0.4
					c-0.2-0.1-0.4-0.1-0.5-0.2c-0.3-0.1-0.6-0.3-0.9-0.4C149.4,381.3,145,376.7,142.5,371.1L142.5,371.1z"/>
				<path class="st20" d="M293.6,74.4c-8,2.3-33.5,19.6-33.6,19.6c-33.8-15.5-74.3-14-100.8-9.5c-8.1-10.7-30.1-22.3-30.1-22.3
					s-36.7,61.2-14.5,123.5c0.4,32.6-0.5,53.9-2.7,87.4c-2,29.7-5.7,62.2-7.3,91.2c146.6-8.6,188.5-90.6,174.4-170.6
					C299.7,154.7,300.1,111.2,293.6,74.4L293.6,74.4z"/>
				<path class="st21" d="M118.8,363.1l-14.3,1.2l0.8-12.6c0,0,4.1-44.5,1.1-76.4c3.1,1.1,6.3,2.1,9.6,1.8c3.3-0.4,6.6-2.3,7.5-5.5
					C118.3,308,118.8,363.1,118.8,363.1L118.8,363.1z"/>
				<path class="st21" d="M129.1,62.1c0,0-14.7,24.5-20.5,54c-4,20.7-0.5,52.3,3.9,71c2.2,9.6,6.7-1.7,19.4-1.4
					c-15.1-14.9-6.9-102.6-0.2-122.2L129.1,62.1z"/>
				<path class="st22" d="M253.4,242.8c0.7-5.1-3.7-9.3-8.9-8.6c-18.8,3.3-37.1,3.4-51.8,0.1c-4.6-1-8.7,1.9-9.2,6.6
					c-3.7,39.3-20.1,72.4-29.4,88.6c-2.4,4.3,1.5,9.5,6.3,8.2C190.4,329.9,245.3,304.2,253.4,242.8L253.4,242.8z"/>
				<g>
					<path class="st18" d="M205.3,142.3L205.3,142.3c5,0.6,11.2,4.9,10.8,10.2c-0.6,7.1-13.9,23.8-13.9,23.8s-0.1-0.1-0.1-0.2
						c-1.2-2.2-10.8-18.9-10.3-25.6C192.3,143.6,200.4,141.7,205.3,142.3z"/>
					<path class="st19" d="M202.2,176.4c-1.3-2.2-11-19.2-10.4-25.9c0.6-7,8.6-8.8,13.6-8.2C203.1,153.5,202.1,165,202.2,176.4
						L202.2,176.4z"/>
					<g>
						<g>
							<g>
								<path class="st23" d="M238.3,157.9c-11.3-0.9-20.8-2.1-19.9-13.3s5.4-27.3,22.5-26s19.1,17.9,18.2,29.1
									S249.4,158.7,238.3,157.9z"/>
								<path class="st23" d="M171.5,152.7c-11.3-0.9-20.8-2.1-19.9-13.3c0.9-11.3,5.3-27.3,22.5-26c17.2,1.3,19.1,17.9,18.2,29.1
									S182.7,153.5,171.5,152.7z"/>
							</g>
							<g>
								<defs>
									<path id="SVGID_00000155115520001498647090000000424501504228205969_" d="M238.3,157.9c-11.3-0.9-20.8-2.1-19.9-13.3
										s5.4-27.3,22.5-26s19.1,17.9,18.2,29.1S249.4,158.7,238.3,157.9z"/>
								</defs>
								<clipPath id="SVGID_00000049181742259869749420000018349394642961372332_">
									<use xlink:href="#SVGID_00000155115520001498647090000000424501504228205969_"  style="overflow:visible;"/>
								</clipPath>
								
									<path style="clip-path:url(#SVGID_00000049181742259869749420000018349394642961372332_);fill:#33305E;stroke:#33305E;stroke-width:0.7947;stroke-miterlimit:10;" d="
									M259.2,147c-0.6,8.2-6.5,11.9-13.5,11.3c-7.1-0.5-12.6-5-12-13.3c0.6-8.2,6.9-14.5,13.9-13.9
									C254.6,131.6,259.8,138.7,259.2,147L259.2,147z"/>
							</g>
							<g>
								<defs>
									<path id="SVGID_00000031175186077034920260000005663984529648444824_" d="M171.5,152.7c-11.3-0.9-20.8-2.1-19.9-13.3
										c0.9-11.3,5.3-27.3,22.5-26c17.2,1.3,19.1,17.9,18.2,29.1S182.7,153.5,171.5,152.7z"/>
								</defs>
								<clipPath id="SVGID_00000055703782306575922700000005425377061552152729_">
									<use xlink:href="#SVGID_00000031175186077034920260000005663984529648444824_"  style="overflow:visible;"/>
								</clipPath>
								
									<path style="clip-path:url(#SVGID_00000055703782306575922700000005425377061552152729_);fill:#33305E;stroke:#33305E;stroke-width:0.7947;stroke-miterlimit:10;" d="
									M178,153.7c-7.1-0.5-12-5-11.4-13.2c0.6-8.2,6.9-14.5,13.9-13.9s12.2,7.6,11.6,15.9C191.5,150.6,185.1,154.2,178,153.7z"/>
							</g>
							
								<ellipse transform="matrix(0.7595 -0.6505 0.6505 0.7595 -36.1138 198.8143)" class="st23" cx="250.8" cy="148.3" rx="3.8" ry="4.5"/>
						</g>
						
							<ellipse transform="matrix(0.7595 -0.6505 0.6505 0.7595 -48.94 154.7863)" class="st23" cx="184.9" cy="143.6" rx="3.8" ry="4.5"/>
					</g>
				</g>
				<path class="st26" d="M277.5,102.4c2.1-4.7,4.7-9.2,7.7-13.4"/>
				<path class="st26" d="M142.6,91.1c-0.6-4.7-2-9.3-4.3-13.6"/>
				<g>
					<g>
						<path class="st20" d="M168.5,238.1c16.6-23-8.6-44.7-25.8-53.6c-5.8-3-15.1-6-21.4-3.3c-23.9,10.4-68.7,83.4-94.8,127.4
							c25.2,2.7,43.9-3.4,63.8-21.4l3.9,12.2C94.1,299.5,139.1,279,168.5,238.1L168.5,238.1z"/>
						<path class="st21" d="M172,227.7c1.6-18.8-14.5-34.8-23.1-40.5c-8.6-5.7-19.1-10.4-28.7-6.5c-7.9,3.2-17,12.5-22.1,19.2
							c-26.5,35.1-51.5,71-72.7,109.5c2.4,0.9,8.4-1.5,8.4-1.5s66.4-105.6,96.8-114.6C142.9,189.7,163.8,202.2,172,227.7L172,227.7z
							"/>
					</g>
					<g>
						<path class="st27" d="M134.7,220.5c1,4.4,1.8,8.8,2.7,13.2c4.3-1,8.5-2.9,12.1-5.4"/>
						<path class="st27" d="M94.1,234.4c0,3.6-0.2,7.2-0.2,10.9c4.6-0.8,8.3-2.2,12.1-3.7"/>
						<path class="st27" d="M68.8,271.3l-1,13.1c4.1-1.5,10.8-4,10.8-4"/>
						<path class="st27" d="M27,309.7c22.8,1.8,46.2-5.8,63.7-20.6c0.7,2.7,1.7,6,2.7,9.4c16.3-7.6,32.5-15.9,46.7-27.2
							c14.2-11.3,26.4-25.8,32.1-43"/>
					</g>
				</g>
				<path class="st27" d="M224.6,156.4c0,0-18.9-35.4-40-3.3"/>
				<g>
					<polygon class="st28" points="185.1,167.6 161.1,144.5 153.6,149.8 178.9,176.2 					"/>
					<polygon class="st28" points="175.2,178.4 151.2,155.2 149.8,160.1 168.9,179.8 					"/>
					<circle class="st28" cx="167.7" cy="161.6" r="18"/>
					<circle class="st29" cx="167.7" cy="161.6" r="18.4"/>
				</g>
				<g>
					<polygon class="st28" points="258.1,173.7 234.1,150.6 226.6,155.9 252,182.3 					"/>
					<polygon class="st28" points="248.2,184.5 224.2,161.3 222.8,166.2 242,185.9 					"/>
					<circle class="st28" cx="240.7" cy="167.7" r="18"/>
					<circle class="st29" cx="240.7" cy="167.7" r="18.4"/>
				</g>
				<g>
					<path class="st30" d="M314.7,270.5L314.7,270.5c3.8,1.6,8.3-0.2,9.9-4l56.3-133.6l-13.9-5.9l-56.3,133.6
						C309.1,264.4,310.9,268.8,314.7,270.5z"/>
					<path class="st31" d="M410.9,124.4c0,0,8.7,18.1-4.7,27.3c0,0-59.6-13.5-68.7-19.4c0,0-6-6-1.4-11.7s17.5-12.5,25.8-11.1
						C370.1,110.9,403.3,117.6,410.9,124.4z"/>
				</g>
			</g>
			<g>
				<path class="st14" d="M314.3,401.2L636.1,79.4c7.3-7.3,7.3-19.1,0-26.4L612,28.9c-7.3-7.3-19.1-7.3-26.4,0L263.8,350.7
					c-7.3,7.3-7.3,19.1,0,26.4l24.1,24.1C295.2,408.5,307,408.5,314.3,401.2z"/>
				<path class="st9" d="M468.2,79.4L790,401.2c7.3,7.3,19.1,7.3,26.4,0l24.1-24.1c7.3-7.3,7.3-19.1,0-26.4L518.7,28.9
					c-7.3-7.3-19.1-7.3-26.4,0L468.2,53C460.9,60.3,460.9,72.1,468.2,79.4z"/>
			</g>
			<circle class="st7" cx="305.9" cy="352" r="14"/>
			<circle class="st7" cx="554.2" cy="110.8" r="14"/>
			<circle class="st7" cx="801" cy="362.7" r="14"/>
			<path class="st32" d="M634.1,355.7l-0.4,6.9l-18.2,321.8H467.2l-14.9-328.8c-0.2-4.4,3.3-8,7.7-8h166.4
				C630.9,347.6,634.4,351.3,634.1,355.7z"/>
			<path class="st33" d="M634.1,355.7l-0.4,6.9H483.1c-4.3,0-7.7,3.6-7.5,7.9l16.1,313.9h-24.4l-14.9-328.8c-0.2-4.4,3.3-8,7.7-8
				h166.4C630.9,347.6,634.4,351.3,634.1,355.7z"/>
		</g>
	</g>
	<g>
		<path class="st20" d="M471,577.6c20.5-15.7,44-19.7,52.4-8.7c8.4,10.9-1.4,32.6-22,48.3C480.9,633,449,626,449,626
			S450.5,593.4,471,577.6z"/>
		<path class="st22" d="M485.6,566.4c20.5-15.7,44-19.7,52.4-8.7s-1.4,32.6-22,48.3c-20.5,15.7-52.4,8.7-52.4,8.7
			S465.1,582.2,485.6,566.4z"/>
		<path class="st20" d="M498.5,590.4c0,0,26.2,88.3,135.5,59.8v-83.8L498.5,590.4z"/>
		<path class="st20" d="M634,568.6c0,38.4-30.3,72.4-68.7,72.4S495,607,495,568.6c0-53.3,31.1-64,69.5-64S634,516.4,634,568.6z"/>
		<path class="st22" d="M609,571.3c0,20.3-5.9,69.7-30.5,69.7c-37.5,0-58.6-49.4-58.6-69.7c0-20.3,19.9-36.8,44.5-36.8
			S609,550.9,609,571.3z"/>
		<g>
			<path class="st20" d="M502.5,542.9c0,0-8.7-6.8-1.6-29.5c0.7-2.1,3.3-2.9,5-1.4l20.8,18.7L502.5,542.9z"/>
			<line class="st34" x1="507.1" y1="522.5" x2="509.3" y2="529.5"/>
		</g>
		<g>
			<path class="st20" d="M625.5,542.9c0,0,8.7-6.8,1.6-29.5c-0.7-2.1-3.3-2.9-5-1.4l-20.8,18.7L625.5,542.9z"/>
			<line class="st34" x1="620.8" y1="522.5" x2="618.6" y2="529.5"/>
		</g>
		<path class="st23" d="M555.1,540c0,10.7-6.6,15.9-17.3,15.9s-18.2-4.1-18.2-14.8s7.5-20.4,18.2-20.4S555.1,529.4,555.1,540z"/>
		<path class="st35" d="M549.5,545.2c0,6.5-5.2,10.4-11.7,10.4s-11.7-4-11.7-10.4s5.2-13.1,11.7-13.1S549.5,538.7,549.5,545.2z"/>
		<circle class="st23" cx="536.4" cy="551.1" r="4.6"/>
		<path class="st23" d="M606.9,540c0,10.7-6.6,15.9-17.3,15.9c-10.7,0-18.2-4.1-18.2-14.8s7.5-20.4,18.2-20.4
			C600.3,520.7,606.9,529.4,606.9,540z"/>
		<path class="st35" d="M601.3,545.2c0,6.5-5.2,10.4-11.7,10.4c-6.5,0-11.7-4-11.7-10.4s5.2-13.1,11.7-13.1
			C596.1,532.1,601.3,538.7,601.3,545.2z"/>
		<circle class="st23" cx="588.1" cy="550.8" r="4.6"/>
		<g>
			<path class="st18" d="M570.9,552.6c0,3.8-6.2,12.7-7,13.9c0,0.1-0.1,0.1-0.1,0.1s-6.7-10.1-6.7-14.1c0-3,3.7-5.2,6.5-5.2h0
				C566.4,547.2,570.9,548.6,570.9,552.6z"/>
			<path class="st19" d="M563.8,566.6c0.6-6.4,0.6-12.9-0.2-19.3c2.8-0.1,7.3,1.3,7.3,5.2C570.9,556.4,564.6,565.4,563.8,566.6
				L563.8,566.6z"/>
		</g>
		<g>
			<path class="st18" d="M552.1,687.7L552.1,687.7c-2.4,0-4.3-1.9-4.3-4.3v-34.2c0-2.4,1.9-4.3,4.3-4.3l0,0c2.4,0,4.3,1.9,4.3,4.3
				v34.2C556.4,685.8,554.5,687.7,552.1,687.7z"/>
			<path class="st18" d="M552.1,660.8c0,0-0.5,4.7-3.2,9.7c-1-0.4-2.1-0.6-3.3-0.6c-2.8,0-5.1,1.5-7.1,3.3c-1.2,1.1-1.8,2.9-2.1,4.4
				c-0.4,2.1-2.2,3.7-4.3,3.9c0,0-0.1,0-0.1,0c-3.5,0.3-6.2-2.9-5.2-6.3C528.7,669.3,534.3,660.8,552.1,660.8z"/>
			<path class="st18" d="M551.3,660.8c0,0,0.5,4.7,3.2,9.7c1-0.4,2.1-0.6,3.3-0.6c2.8,0,5.1,1.5,7.1,3.3c1.2,1.1,1.8,2.9,2.1,4.4
				c0.4,2.1,2.2,3.7,4.3,3.9c0,0,0.1,0,0.1,0c3.5,0.3,6.2-2.9,5.2-6.3C574.8,669.3,569.1,660.8,551.3,660.8z"/>
		</g>
		<g>
			<path class="st18" d="M613.5,687.7L613.5,687.7c-2.4,0-4.3-1.9-4.3-4.3v-34.2c0-2.4,1.9-4.3,4.3-4.3l0,0c2.4,0,4.3,1.9,4.3,4.3
				v34.2C617.7,685.8,615.8,687.7,613.5,687.7z"/>
			<path class="st18" d="M613.5,660.8c0,0-0.5,4.7-3.2,9.7c-1-0.4-2.1-0.6-3.3-0.6c-2.8,0-5.1,1.5-7.1,3.3c-1.2,1.1-1.8,2.9-2.1,4.4
				c-0.4,2.1-2.2,3.7-4.3,3.9c0,0-0.1,0-0.1,0c-3.5,0.3-6.2-2.9-5.2-6.3C590,669.3,595.7,660.8,613.5,660.8z"/>
			<path class="st18" d="M612.6,660.8c0,0,0.5,4.7,3.2,9.7c1-0.4,2.1-0.6,3.3-0.6c2.8,0,5.1,1.5,7.1,3.3c1.2,1.1,1.8,2.9,2.1,4.4
				c0.4,2.1,2.2,3.7,4.3,3.9c0,0,0.1,0,0.1,0c3.5,0.3,6.2-2.9,5.2-6.3C636.1,669.3,630.4,660.8,612.6,660.8z"/>
		</g>
		<path class="st36" d="M498,607.1l-5.8,0.3c-2.4,0.1-4-2.5-2.9-4.6l0.3-0.6"/>
		<path class="st36" d="M478.2,594.5c0.1,0-2.2,0.8-3.8,1.3c-0.7,0.2-1.3-0.4-1.1-1.1l3.1-8.8"/>
		<g>
			<path class="st37" d="M665.7,570.2h16.3c5,0,9,4,9,8.9v14h-3.7v-8.5l0,0c0-4.4-3.5-7.9-7.9-7.9h-10.9l0,0c-4.4,0-7.9,3.5-7.9,7.9
				v8.5h-3.7v-14C656.7,574.2,660.7,570.2,665.7,570.2z"/>
			<path class="st37" d="M712.4,629.6l0,21.7c6.7,18.6,5.3,23.1,3.5,24.3l0,0c0,0-2.5,0.5-7.7,1.4c0.6,1.7,1.1,3.4,1.6,5.1
				c1.4,0.5,4.5,1.4,7.8,0.2c0,0,3.4-1.2,6-5C727.4,671.7,723,652.8,712.4,629.6z"/>
			<path class="st37" d="M663.5,590.5c-4.2,0.7-12.4,2.7-18,9.6c-2.8,3.5-4,7.2-5.4,13.8c-1.3,6.1-1.8,10.8-2.1,14.6
				c-1.4,20.2-1.3,19.3-2.1,21.7c-4.1,12-14.5,15.6-13.1,19.2c0.8,2.1,5.3,3.8,21.5,1.7c0.8,1.6,1.6,3.2,2.4,4.7
				c-5.7,3.1-18,8.9-29.4,5.7c-2.1-0.6-5.8-1.7-7-4.6c-1.3-3.3,1.5-7.2,3.9-10.6c8.6-12.2,12.9-18.3,13.8-19.8
				c7-13-3.2-19.3,3.4-36.9c1.5-4,4.8-12.4,13.2-17.9c6.4-4.1,12.9-4.9,16.4-5C661.9,588.1,662.7,589.2,663.5,590.5z"/>
			<path class="st38" d="M671.6,583.3c20,0,36.2,16.2,36.2,36.2l0.1,55.1c0,5.7-4.6,10.3-10.2,10.3l-51.9,0.1
				c-5.7,0-10.3-4.6-10.3-10.2l-0.1-55.1C635.4,599.6,651.6,583.3,671.6,583.3L671.6,583.3L671.6,583.3z"/>
			<g>
				<path class="st39" d="M676.1,584c20,0,36.2,16.2,36.2,36.2l0.1,55.1c0,5.7-4.6,10.3-10.2,10.3l-51.9,0
					c-5.7,0-10.3-4.6-10.3-10.2l-0.1-55.1C639.9,600.2,656.1,584,676.1,584L676.1,584L676.1,584z"/>
				<path class="st40" d="M706.7,636v-15c0-16.8-13.6-30.3-30.4-30.3l0,0c-16.7,0-30.3,13.6-30.3,30.4v15"/>
				<ellipse class="st41" cx="677.5" cy="634.7" rx="6.9" ry="6.9"/>
				<path class="st37" d="M705.1,651v25.3c0,2.3-1.8,4.1-4.1,4.1l-46.3,0c-2.3,0-4.1-1.8-4.1-4.1V651c0-2.3,1.8-4.1,4.1-4.1l46.3,0
					C703.2,646.8,705.1,648.7,705.1,651z"/>
				
					<rect x="650.6" y="653.1" transform="matrix(1 -1.404254e-03 1.404254e-03 1 -0.9189 0.9525)" class="st41" width="54.5" height="3.5"/>
			</g>
		</g>
		<g>
			<path class="st20" d="M675.9,640c0,0-32.6-1.7-48.2-22.3c-2.3-3-4.3-6-6-9.1c-10.4-18-11.7-36.2-2.3-43.3c9.4-7.1,26.5-0.9,41,14
				c2.5,2.5,4.9,5.3,7.1,8.3C683.2,608.2,675.9,640,675.9,640z"/>
			<path class="st22" d="M664.8,625.3c0,0-26.4-1.3-43.1-16.7c-10.4-18-11.7-36.2-2.3-43.3c9.4-7.1,26.5-0.9,41,14
				C670.7,599.5,664.8,625.3,664.8,625.3z"/>
			<path class="st36" d="M656.6,592.5l2.6,5.2c1.1,2.2-0.7,4.7-3.1,4.4l-0.7-0.1"/>
			<path class="st36" d="M643.7,602.1c0-0.1,0.6,2.2,1,3.9c0.2,0.7-0.5,1.3-1.2,1l-8.5-3.7"/>
		</g>
	</g>
</g>
</svg>
