<?xml version="1.0" encoding="utf-8"?>
<!-- Generator: Adobe Illustrator 25.4.1, SVG Export Plug-In . SVG Version: 6.00 Build 0)  -->
<svg version="1.1" id="a" xmlns="http://www.w3.org/2000/svg" xmlns:xlink="http://www.w3.org/1999/xlink" x="0px" y="0px"
	 viewBox="0 0 1021.8 817.6" style="enable-background:new 0 0 1021.8 817.6;" xml:space="preserve">
<style type="text/css">
	.st0{fill:#E5AC67;}
	.st1{opacity:0.38;}
	.st2{fill-rule:evenodd;clip-rule:evenodd;fill:#C9955D;}
	.st3{fill:#D19B61;}
	.st4{fill:#84E9F4;}
	.st5{fill:#B2B2B2;}
	.st6{fill:#DB4545;}
	.st7{fill:#EF5050;}
	.st8{fill:#7171C6;}
	.st9{fill:#CEEE4D;}
	.st10{fill:#9EC724;}
	.st11{fill:#FFA6CA;}
	.st12{fill:#F7F484;}
	.st13{fill:#E8DA74;}
	.st14{fill:#FFFFFF;}
	.st15{fill:#CECECE;}
	.st16{fill:#29385B;}
</style>
<g>
	<path class="st0" d="M1000,338.5c-3.5,14.1-8.9,29.1-16.5,41.6c-0.6,1.1-3.4,4.2-7,8.1c-4.9,5.3-11.5,12.2-16.7,17.4
		c-4.8,4.9-8.5,8.3-8.6,8c13.6,38.4,8.9,79.5,1.5,119.4c-0.9,5.1-1.9,10.2-2.9,15.2c-0.1,0.7-0.3,1.5-0.5,2.2
		c-10.6,52-34,93.8-65.4,127.4c-5.7,6.1-11.6,11.9-17.8,17.4c-129.8,116.5-362.7,119-436.1,112.1c-80.6-7.7-166.8-27.7-219.2-88.6
		c-6.1-7.1-11.8-15-15.4-23.5c-2.4-5.6-3.9-11.4-4.2-17.4l0-0.8c-0.3-11.6,4.1-24-1.1-34.4c-5-10.1-17-14.4-27.6-18.8
		c-0.3-0.1-0.6-0.2-0.9-0.4c-38.5-16-67.6-41.7-89-73c-3.9-5.6-7.5-11.5-10.8-17.4C41.6,496.7,30,454.7,25,412.1
		c-0.3-2.2-0.5-4.3-0.7-6.5c-0.6-5.8-1.1-11.6-1.4-17.4c-2.4-45.1,4-88.4,25.4-127.4c3.3-5.9,6.8-11.7,10.8-17.4
		c1-1.5,2.1-3,3.2-4.5c37.3-50.7,87.1-92.6,144.1-120.7c77.8-38.3,168.7-50.6,254.5-34.4c14,2.6,53.7-27.2,69.1-33.3
		c31.4-12.4,67.5-19.1,101.2-21.7c73.1-5.5,148.4,7.2,213.4,41.1c65,33.9,119.1,89.5,145.8,156.8c2.2,5.4,4.1,10.9,5.8,16.5
		c1.7,5.7,3.2,11.6,4.5,17.4C1006.1,286.5,1006.4,313.1,1000,338.5z"/>
</g>
<g class="st1">
	<g>
		<path class="st2" d="M884,677.7c-5.7,6.1-11.6,11.9-17.8,17.4H195.5c-2.4-5.6-3.9-11.4-4.2-17.4H884z"/>
	</g>
	<g>
		<path class="st2" d="M952.8,532.9c-0.9,5.1-1.9,10.2-2.9,15.2c-0.1,0.7-0.3,1.5-0.5,2.2H72.7c-3.9-5.6-7.5-11.5-10.8-17.4H952.8z"
			/>
	</g>
	<g>
		<path class="st2" d="M976.5,388.1c-4.9,5.3-11.5,12.2-16.7,17.4H24.3c-0.6-5.8-1.1-11.6-1.4-17.4H976.5z"/>
	</g>
	<g>
		<path class="st2" d="M1000.7,260.8H48.3c3.3-5.9,6.8-11.7,10.8-17.4h937.1C997.9,249.1,999.4,254.9,1000.7,260.8z"/>
	</g>
</g>
<g>
	<path class="st3" d="M65.4,234.7L91.9,426h28.5l9,62l182.1-29.8l-6.6-69.1c0,0,25.5-23.1,20.5-58.4c-0.6-4.3-35.9-170.7-37.3-175.5
		C276,110.7,65.4,234.7,65.4,234.7z"/>
</g>
<g>
	<polygon class="st3" points="309.4,480.4 280.9,677.7 245.5,733 251.8,754.4 438.2,773.1 443.3,744.8 540,745.1 540,500.3 	"/>
</g>
<g>
	<path class="st3" d="M875.5,680.4c-7.1,5.3-13.9,10.2-20.3,14.5l-63.5,4.6l2.8,32.7c-19.3,10.1-39.3,19-59.7,26.8l-132.2,14.1
		l4.3-121.8l22.1,31.3l20.1-240.3h231C880.1,442.3,876.8,632.5,875.5,680.4z"/>
</g>
<g>
	<path class="st3" d="M351.6,101.3L389.8,335h28.5l9,62l175.6-27.4v-71.5c0,0,19.6-62,7.4-106.4S351.6,101.3,351.6,101.3z"/>
</g>
<g>
	<path class="st3" d="M716.3,108.7l-46.3,188.4l20.1,3.8l-33.8,62.1l174.5,33.7l13.5-62.6l77.9,12.4c0,0,13.2-173.5,14.5-190.8
		C940.2,109.7,716.3,108.7,716.3,108.7z"/>
</g>
<g>
	<g>
		<path class="st4" d="M908.2,334l-226.9-47.7c0,0,29.6-162.2,47.7-232.1l98.3,22.4l31.1,7.1l96.4,21.9l-23.2,113.9L908.2,334z"/>
	</g>
	<g>
		<g>
			<path class="st5" d="M843.7,77.7c-1.2,2.3-4.6,8.3-8.1,14.5c-0.8,1.4-0.3,3.3,1.1,4.1v0c1.5,0.9,3.4,0.4,4.2-1
				c3.7-6.1,7.2-12,8.6-14.2l0,0c-0.5-2.6-3.1-4.2-5.7-3.4L843.7,77.7z"/>
		</g>
		<g>
			<polygon class="st6" points="864.1,72.4 875.9,44.6 861.1,37.3 844.2,59.6 			"/>
		</g>
		<g>
			<path class="st7" d="M870.4,88.5c2.1-6.5-0.1-14.1-5.3-18.4l-20-11.6c-6.4-2.4-14.1-0.5-18.6,4.6l0,0
				c10.3,14,25.9,23.2,43.1,25.4L870.4,88.5z"/>
		</g>
		<g>
			<path class="st7" d="M888.6,43.6c-3.3,3.7-9,5.1-13.6,3.3l-14.7-8.5c-3.8-3.2-5.4-8.8-3.9-13.5L888.6,43.6z"/>
		</g>
	</g>
	<g>
		<path class="st8" d="M841.6,294c-0.8,0-1.6-0.1-2.4-0.5c-2.7-1.1-4.3-3.7-4.1-6.5c0-0.7,0.1-1.4,0.4-2.2c0.3-0.9,0.8-1.7,1.4-2.3
			c2-2.8,5.2-4.8,8.7-5.2c1.9-0.2,3.7,0.4,5.1,1.6c1.4,1.3,2.2,3.1,2.1,4.9c-0.1,3.1-1.7,6.1-4.4,8c-1.5,1-3.2,1.6-5,1.8
			C842.9,293.9,842.2,294,841.6,294z M847.6,289.9C847.6,289.9,847.6,289.9,847.6,289.9C847.6,289.9,847.6,289.9,847.6,289.9z"/>
	</g>
	<g>
		<path class="st8" d="M851.5,262.4c-0.7,0-1.3-0.1-2-0.3c-3.4-1.1-5.3-4.7-4.2-8.1c3.5-11.1,11.9-19.5,17.8-24.8
			c2.3-2,4.6-4,6.8-5.9c4.7-4,9.2-7.7,13-12.1c2.7-3,4.2-5.5,4.8-7.8c0.5-2.1,0.2-4.3-0.8-5.4c-0.7-0.8-2.1-1.4-4-1.9
			c-10-2.6-21.6,2.1-26.9,10.9c-1.8,3.1-5.8,4.1-8.9,2.2c-3.1-1.8-4.1-5.8-2.2-8.9c8.3-13.9,25.7-20.9,41.3-16.8
			c4.3,1.1,7.6,2.9,10,5.5c4.2,4.3,5.7,11.1,4,17.6c-1.5,5.7-5,10.2-7.6,13.1c-4.4,5.1-9.5,9.3-14.4,13.4c-2.2,1.8-4.4,3.7-6.5,5.6
			c-4.8,4.3-11.5,11-14.1,19.1C856.8,260.6,854.3,262.4,851.5,262.4z"/>
	</g>
	<g>
		<path class="st8" d="M809.3,177.2c-2.8,0-5.6-0.2-8.4-0.5c-1.2-0.1-3.5-0.4-5.5-1.8c-1.2-0.8-2-1.9-2.6-2.6
			c-0.2-0.3-0.5-0.6-0.6-0.7c-0.7-0.7-2.3-1.1-4.3-1.2c-1.2,0-2.5,0.1-3.8,0.2c-2.1,0.2-4.3,0.3-6.7,0.1c-5.7-0.5-10.2-3.4-12-7.7
			c-0.3-0.8-0.5-1.5-0.7-2.1c-0.1-0.4-0.3-0.9-0.4-1.1c-0.1-0.1-0.6-1-4.4-1.2c-10-0.6-20.4,0.6-30,3.7c-2.4,0.8-4.9-0.6-5.7-2.9
			c-0.8-2.4,0.6-4.9,2.9-5.7c10.8-3.5,22-4.8,33.3-4.1c2.2,0.1,8.9,0.6,11.8,5.9c0.6,1.1,0.9,2.2,1.1,3c0.1,0.4,0.2,0.8,0.3,1
			c0.5,1.1,2.3,2.1,4.5,2.3c1.6,0.1,3.3,0,5.2-0.1c1.5-0.1,3-0.2,4.6-0.2c4.6,0,8.2,1.3,10.7,3.8c0.5,0.5,0.9,1,1.3,1.5
			c0.2,0.3,0.6,0.7,0.7,0.8c0.1,0.1,0.6,0.2,1.4,0.3c4.3,0.5,8.7,0.6,13.1,0.2c2.5-0.2,4.7,1.6,4.9,4.1c0.2,2.5-1.6,4.7-4.1,4.9
			C813.6,177.1,811.4,177.2,809.3,177.2z"/>
	</g>
	<g>
		<path class="st8" d="M825,135.1c-5.3,0-10.5-2.9-13.1-7.6c-0.2-0.3-0.3-0.6-0.5-1c-0.1-0.2-0.2-0.5-0.4-0.7c-0.1,0-0.4,0-0.7,0
			c-2.3-0.1-4.7,0.3-7.3,0.6c-4.5,0.6-9.7,1.3-14.8-0.2c-3.4-1.1-6.1-2.9-8.8-4.7c-1.5-1-2.8-1.9-4.2-2.6
			c-9.3-4.8-21.2-1.5-32.7,2.2c-2.4,0.8-5-0.5-5.7-2.9c-0.8-2.4,0.5-5,2.9-5.7c13.3-4.4,27.3-8.1,39.7-1.6c1.9,1,3.5,2.1,5.1,3.2
			c2.2,1.5,4.3,2.9,6.4,3.5c3.2,1,6.9,0.5,10.8-0.1c2.8-0.4,5.7-0.8,8.8-0.7c1.6,0,4,0.3,6.1,1.8c1.6,1.2,2.4,2.8,2.9,3.9
			c0.1,0.2,0.2,0.4,0.3,0.6c1.1,2.1,3.9,3.3,6.2,2.8c2.4-0.6,4.9,1,5.4,3.4c0.6,2.4-1,4.9-3.4,5.4C827.1,135,826,135.1,825,135.1z"
			/>
	</g>
	<g>
		<path class="st8" d="M922.2,156.7c-0.1,0-0.2,0-0.3,0l-14.9-0.9c-3-0.2-5-1.4-6.1-3.5c-0.6-1.2-0.6-2.3-0.6-3.1
			c-0.3-0.1-0.8-0.2-1.3-0.2c-3.6-0.2-7.3-0.1-10.9,0.3l-0.5,0.1c-6.1,0.7-14.5,1.6-19.5-4.6c-0.9-1.1-1.5-2.2-2-3.2
			c-0.4-0.7-0.9-1.7-1.3-2c-0.3-0.2-1-0.3-2.2-0.3c-4.9-0.2-9.9,0.3-14.7,1.4c-2.4,0.6-4.9-0.9-5.5-3.4c-0.6-2.4,0.9-4.9,3.4-5.5
			c5.6-1.3,11.3-1.9,17.1-1.7c2.2,0.1,4.6,0.3,6.8,1.8c2.3,1.5,3.4,3.6,4.3,5.3c0.4,0.7,0.7,1.4,1.1,1.8c1.9,2.3,7,1.8,11.4,1.3
			l0.5-0.1c4.1-0.5,8.3-0.6,12.4-0.3c5.4,0.3,9.2,3.1,9.9,7l13.1,0.8c2.5,0.2,4.4,2.3,4.3,4.8C926.5,154.9,924.5,156.7,922.2,156.7z
			"/>
	</g>
	<g>
		<path class="st8" d="M804.4,202.8c-0.3,0-0.6,0-0.8-0.1c-6.8-1.3-13.8-1.3-20.7-0.2c-7.1,1.2-9.4-2.5-10.1-4.1
			c-0.3-0.8-0.4-1.5-0.5-2.1c-0.3-0.1-0.8-0.1-1.3-0.1c-6.3-0.2-12.6,0.8-18.6,2.8c-2.4,0.8-5-0.5-5.8-2.9c-0.8-2.4,0.5-5,2.9-5.8
			c7-2.3,14.3-3.4,21.7-3.3c7.6,0.2,9.4,4.5,9.9,6.3c0,0.1,0,0.2,0.1,0.2c0.1,0,0.1,0,0.2,0c7.9-1.3,16-1.3,23.9,0.2
			c2.5,0.5,4.1,2.8,3.6,5.3C808.5,201.3,806.6,202.8,804.4,202.8z"/>
	</g>
</g>
<g>
	<g>
		<path class="st9" d="M818,687.8L638.4,679c0,0,3.7-164.8,10.7-236.7l100.6,6.7l31.8,2.1l98.7,6.4l-5,116.1
			C874.4,692,836,688.6,818,687.8z"/>
	</g>
	<g>
		<path class="st10" d="M818,687.8c0,0,11.4-1.1,14.4-5.6c2.9-4.4,2.2-10.3-0.3-15c-2.5-4.6-6.5-8.1-10.5-11.6
			c16.7-3.6,30.5-16.3,38.6-31.4c12.6-23.2,14.9-50.5,14.9-50.5C874.4,692,836,688.6,818,687.8z"/>
	</g>
	<g>
		<g>
			<path class="st8" d="M795.3,664.5c-0.4,0-0.8,0-1.2-0.1c-2.3-0.5-4-2.5-4.2-4.8c-0.1-0.6-0.1-1.2,0-1.8c0.1-0.8,0.4-1.5,0.9-2.1
				c1.3-2.6,3.6-4.6,6.4-5.4c1.5-0.4,3.1-0.2,4.4,0.7c1.3,0.8,2.2,2.2,2.4,3.7c0.4,2.6-0.6,5.2-2.6,7.1c-1.1,1-2.4,1.8-3.8,2.1
				C796.9,664.3,796.1,664.5,795.3,664.5z M800.5,660.3C800.5,660.3,800.5,660.3,800.5,660.3C800.5,660.3,800.5,660.3,800.5,660.3z"
				/>
		</g>
		<g>
			<path class="st8" d="M799.3,637.4c-0.3,0-0.5,0-0.8-0.1c-2.9-0.4-4.9-3.2-4.5-6.1c1.5-9.5,7.1-17.4,11.3-22.6
				c1.6-1.9,3.2-3.8,4.8-5.7c3.3-3.9,6.5-7.5,9-11.5c1.8-2.8,2.7-5,2.9-7c0.2-1.8-0.4-3.5-1.4-4.3c-0.7-0.5-1.9-0.9-3.5-1
				c-8.5-0.8-17.3,4.5-20.5,12.4c-1.1,2.7-4.2,4.1-6.9,3c-2.7-1.1-4.1-4.2-3-6.9c5-12.4,18.2-20.4,31.5-19.1
				c3.7,0.4,6.6,1.4,8.9,3.2c4,3,6.1,8.3,5.6,13.8c-0.5,4.9-2.8,9-4.5,11.7c-3,4.7-6.5,8.8-10,12.8c-1.5,1.8-3.1,3.6-4.6,5.4
				c-3.4,4.2-8,10.5-9,17.4C804.2,635.5,801.9,637.4,799.3,637.4z"/>
		</g>
	</g>
	<g>
		<g>
			<path class="st5" d="M768.8,464.2c0.1,2.6,0.2,9.4,0.3,16.6c0,1.6,1.3,3,3,3l0,0c1.7,0,3.1-1.3,3.1-3c0.1-7.2,0.2-14,0.3-16.6
				l0,0c-1.7-2-4.8-2-6.6-0.1L768.8,464.2z"/>
		</g>
		<g>
			<polygon class="st6" points="783.8,449.3 780,419.3 763.5,420.4 760.1,448.2 			"/>
		</g>
		<g>
			<path class="st7" d="M797.4,460c-1.4-6.6-7.2-12.1-13.9-13.2l-23.2,0c-6.7,1.2-12.4,6.7-13.8,13.3h0c15.9,6.9,34,7,50,0.2
				L797.4,460z"/>
		</g>
		<g>
			<path class="st7" d="M790.4,412c-1,4.9-5.2,8.9-10.1,9.7l-17,0c-4.9-0.8-9.1-4.8-10.2-9.7L790.4,412z"/>
		</g>
	</g>
	<g>
		<path class="st8" d="M754.6,520.8c-6.2,0-12-2.2-15.2-7.6c-0.4-0.7-0.8-1.5-1.1-2.1c-0.3-0.7-0.7-1.4-0.9-1.7
			c-0.6-0.7-2.6-0.7-5.7-0.1l-50.4,9c-2.5,0.4-4.8-1.2-5.3-3.7c-0.4-2.5,1.2-4.8,3.7-5.3l50.4-9c2.9-0.5,9.6-1.7,13.9,2.8
			c1.3,1.4,2,2.9,2.6,4.2c0.2,0.5,0.4,1,0.7,1.3c2.7,4.6,11.2,3.3,16.2,1.3c1-0.4,2-0.8,3-1.2c7.1-3,15.1-6.3,23.3-3.2
			c1.3,0.5,2.5,1.1,3.6,1.7c0.9,0.5,1.7,0.9,2.4,1.2c2.7,1,6.1,0.9,9.3,0.8l42.1-1.5c2.5-0.1,4.6,1.9,4.7,4.4
			c0.1,2.5-1.9,4.6-4.4,4.7l-42.1,1.5c-3.8,0.1-8.5,0.3-13-1.4c-1.3-0.5-2.4-1.1-3.4-1.6c-0.9-0.5-1.7-0.9-2.5-1.2
			c-4.8-1.8-10.5,0.6-16.6,3.1c-1.1,0.4-2.1,0.9-3.2,1.3C763,519.9,758.7,520.8,754.6,520.8z"/>
	</g>
	<g>
		<path class="st8" d="M664.5,559.8c-2,0-3.9-1.4-4.4-3.4c-0.6-2.4,0.8-4.9,3.2-5.6l44.7-11.8c7.8-2,13.7-0.2,15.8,4.9
			c0.5,1.3,0.7,2.5,0.8,3.4c0,0.2,0.1,0.5,0.1,0.7c0.3,0.1,0.8,0.2,1.7,0.2c4.2,0.1,8.7-0.7,13.4-1.6c8.6-1.7,17.5-3.4,25.9,1
			c0.7,0.3,1.3,0.7,2,1.1c1.1,0.6,2,1.2,2.9,1.4c1.5,0.4,3.6-0.3,5.5-0.8l19.9-5.7c2.6-0.8,5.9-1.7,9.4-1.2c2.6,0.4,4.7,1.4,6.6,2.3
			c0.5,0.2,1,0.5,1.5,0.7c9.6,4.2,20.7,2,33.3-1.2c2.4-0.6,4.9,0.9,5.5,3.3s-0.9,4.9-3.3,5.5c-10.9,2.7-25.9,6.4-39.1,0.7
			c-0.6-0.3-1.2-0.5-1.8-0.8c-1.4-0.7-2.8-1.3-3.9-1.5c-1.6-0.2-3.7,0.4-5.6,0.9l-19.9,5.7c-2.7,0.8-6.3,1.8-10.2,0.9
			c-2.1-0.5-3.9-1.5-5.4-2.4c-0.5-0.3-1-0.6-1.5-0.9c-5.6-2.9-12.6-1.6-20-0.2c-5,1-10.2,2-15.4,1.8c-5.6-0.2-8.1-2.6-9.2-4.6
			c-0.9-1.6-1.1-3.2-1.2-4.3c0-0.3-0.1-0.7-0.1-1c-0.5-0.2-2.3-0.4-5.1,0.3l-44.7,11.8C665.3,559.7,664.9,559.8,664.5,559.8z"/>
	</g>
	<g>
		<path class="st8" d="M770.5,598c-0.7,0-1.4-0.2-2-0.5c-13.3-6.7-30.7-6.9-53-0.6c-1.6,0.5-3.3,0-4.5-1.2c-1.9-1.9-2.1-4.3-1.9-6.1
			l-40.6,3.8c-2.5,0.2-4.7-1.6-4.9-4.1c-0.2-2.5,1.6-4.7,4.1-4.9l43.3-4c0.8-0.1,2.4-0.2,4,0.5c2.9,1.3,3.5,3.8,3.6,5.8
			c22.1-5.4,39.8-4.6,54.1,2.7c2.2,1.1,3.1,3.9,2,6.1C773.7,597.1,772.1,598,770.5,598z"/>
	</g>
</g>
<g>
	<g>
		<path class="st11" d="M525.3,733L294,716.8c0,0,7-164.7,15.4-236.4l100.4,8.7l31.7,2.8l98.5,8.4l-7.4,116L525.3,733z"/>
	</g>
	<g>
		<g>
			<path class="st5" d="M403.4,487.2c-0.7,2.5-2.6,9.1-4.6,16c-0.5,1.6,0.4,3.2,2,3.8l0,0c1.6,0.5,3.4-0.3,3.9-2
				c2.2-6.8,4.3-13.4,5.1-15.8l0,0c-1.1-2.4-4-3.3-6.3-2L403.4,487.2z"/>
		</g>
		<g>
			<polygon class="st6" points="422.1,477.4 427.3,447.6 411.2,443.8 399.8,469.4 			"/>
		</g>
		<g>
			<path class="st7" d="M431.9,491.6c0.6-6.8-3.3-13.7-9.4-16.7l-22.2-6.7c-6.7-0.8-13.8,2.7-17.1,8.7l0,0
				c13.2,11.3,30.5,16.7,47.8,14.9L431.9,491.6z"/>
		</g>
		<g>
			<path class="st7" d="M439.4,443.7c-2.4,4.3-7.6,7-12.5,6.3l-16.2-4.9c-4.4-2.2-7.3-7.3-6.9-12.3L439.4,443.7z"/>
		</g>
	</g>
	<g>
		<path class="st8" d="M385.1,546.1c-6.2,0-13.3-2.9-15-9.5c-11.6-1.6-23.5-0.3-34.6,3.7c-2.8,1-5.8-0.4-6.8-3.2s0.4-5.8,3.2-6.8
			c13-4.7,27.2-6.1,40.9-4c1.1,0.2,4.1,0.6,6.1,3.3c1.1,1.6,1.4,3.1,1.5,4.1c0,0.1,0,0.2,0.1,0.3c0.1,0.5,2,1.6,4.9,1.6
			c3-0.1,6.2-0.8,9.6-1.5c6-1.3,12.9-2.9,19.8-0.6c2.8,0.9,4.3,4,3.4,6.8c-0.9,2.8-4,4.3-6.8,3.4c-4.1-1.4-9-0.3-14.1,0.9
			c-3.8,0.8-7.6,1.7-11.7,1.8C385.4,546.1,385.3,546.1,385.1,546.1z"/>
	</g>
	<g>
		<path class="st8" d="M488.6,550.8c-3.8,0-7.3-0.9-10.4-1.8c-0.6-0.2-1.3-0.3-1.9-0.5c-11.9-3-24.4-3-36.3,0.1
			c-2.9,0.7-5.8-1-6.5-3.9c-0.7-2.9,1-5.8,3.9-6.5c13.6-3.5,27.9-3.5,41.5-0.1c0.7,0.2,1.3,0.3,2,0.5c3,0.8,5.9,1.5,8.4,1.4
			c3.2-0.2,6.5-1.9,10-3.6c4-2,8.6-4.3,13.8-4.7c2.9-0.2,5.5,2,5.7,4.9c0.2,2.9-2,5.5-4.9,5.7c-3.2,0.2-6.4,1.9-9.9,3.6
			c-4.1,2.1-8.7,4.4-14.1,4.7C489.5,550.8,489,550.8,488.6,550.8z"/>
	</g>
	<g>
		<path class="st8" d="M416.8,586.9c-4.1,0-8.2-0.6-12.2-2.2c-2.7-1.1-5.1-2.6-7.3-4c-1.6-1-3.1-2-4.7-2.7
			c-8.5-4.1-19.2-2.3-26.6-0.6c-2.2,0.5-4.5,1.1-6.7,1.7c-7.9,2.1-16.2,4.2-24.8,4c-2.9-0.1-5.3-2.5-5.2-5.5s2.5-5.3,5.5-5.2
			c7.2,0.2,14.3-1.7,21.9-3.6c2.2-0.6,4.6-1.2,6.9-1.7c8.9-2.1,22.1-4.2,33.7,1.3c2.1,1,3.9,2.2,5.7,3.3c2,1.2,3.8,2.4,5.7,3.2
			c6.2,2.5,13.6,1.2,21.3-0.2c1.6-0.3,3.1-0.6,4.7-0.8c11.7-1.9,23.5-1.8,35-1.8c11.6,0,23.6,0.1,35.4,3.4c2.8,0.8,4.5,3.8,3.7,6.6
			c-0.8,2.8-3.8,4.5-6.6,3.7c-10.3-2.9-21.6-3-32.5-3c-11,0-22.4-0.1-33.3,1.7c-1.5,0.2-3,0.5-4.5,0.8
			C427,586,421.9,586.9,416.8,586.9z"/>
	</g>
	<g>
		<path class="st8" d="M379.6,636.6c-0.7,0-1.4,0-2.1-0.1c-5.4-0.4-10.3-2.2-14.9-4c-2.4-0.9-4.6-1.8-6.9-2.4
			c-9.1-2.6-19-1.6-27.4,2.8c-2.6,1.4-5.8,0.3-7.2-2.3c-1.4-2.6-0.3-5.8,2.3-7.2c10.7-5.6,23.6-6.9,35.2-3.6
			c2.7,0.8,5.3,1.8,7.8,2.7c4.1,1.6,8,3.1,11.9,3.4c3.3,0.2,6.9-0.4,10.8-1.9c1.3-0.5,2.6-1.1,3.9-1.7c4.3-1.9,9.1-4.1,14.6-4
			c3.4,0.1,6.5,1,9.2,1.8c1.1,0.3,2.1,0.6,3.1,0.9c2.9,0.7,5.3,0.6,6.4-0.3c2.3-1.8,5.7-1.4,7.5,0.9c1.8,2.3,1.4,5.7-0.9,7.5
			c-3.9,3-9.2,3.8-15.5,2.3c-1.3-0.3-2.5-0.7-3.6-1c-2.3-0.7-4.4-1.3-6.3-1.3c-3.1-0.1-6.5,1.5-10.1,3.1c-1.4,0.6-2.9,1.3-4.4,1.9
			C388.3,635.7,383.9,636.6,379.6,636.6z"/>
	</g>
	<g>
		<g>
			<path class="st8" d="M461.7,701.2c-0.4,0-0.8,0-1.3-0.2c-2.3-0.6-3.9-2.6-4.1-4.8c-0.1-0.6-0.1-1.2,0.1-1.8
				c0.2-0.8,0.5-1.4,0.9-2c1.3-2.6,3.7-4.5,6.5-5.3c1.5-0.4,3.1-0.1,4.4,0.8c1.3,0.9,2.1,2.3,2.3,3.8c0.3,2.6-0.7,5.2-2.7,7
				c-1.1,1-2.5,1.7-3.9,2C463.3,701,462.5,701.2,461.7,701.2z M466.9,697.1C466.9,697.1,466.9,697.1,466.9,697.1
				C466.9,697.1,466.9,697.1,466.9,697.1z"/>
		</g>
		<g>
			<path class="st8" d="M466.3,674.2c-0.3,0-0.6,0-0.9-0.1c-2.9-0.5-4.9-3.3-4.4-6.2c1.6-9.5,7.5-17.3,11.7-22.3
				c1.6-1.9,3.3-3.8,4.9-5.6c3.4-3.8,6.6-7.4,9.3-11.3c1.8-2.8,2.8-5,3-6.9c0.2-1.8-0.3-3.5-1.3-4.3c-0.7-0.5-1.8-0.9-3.5-1.1
				c-8.5-1-17.4,4.1-20.7,12c-1.2,2.7-4.3,4-7,2.8c-2.7-1.2-4-4.3-2.8-7c5.2-12.3,18.6-20,31.8-18.4c3.7,0.4,6.5,1.5,8.8,3.3
				c3.9,3.1,5.9,8.4,5.3,13.9c-0.6,4.8-3,8.9-4.7,11.6c-3.1,4.6-6.7,8.7-10.2,12.6c-1.6,1.7-3.2,3.5-4.7,5.3
				c-3.5,4.1-8.2,10.3-9.4,17.3C471.1,672.4,468.8,674.2,466.3,674.2z"/>
		</g>
	</g>
</g>
<g>
	<g>
		<path class="st12" d="M573.6,287.8l-177.3,29.3c0,0-31.1-161.9-39.5-233.6l99.7-14.7l31.5-4.6l97.8-14.5l19.6,114.6
			C629.7,280,591.5,284.7,573.6,287.8z"/>
	</g>
	<g>
		<path class="st13" d="M573.6,287.8c0,0,10.9-3.5,12.9-8.5c1.9-4.9,0-10.6-3.4-14.6c-3.4-4-8.1-6.6-12.7-9.1
			c15.6-7,26.3-22.4,31.1-38.8c7.4-25.3,3.9-52.6,3.9-52.6C629.7,280,591.5,284.7,573.6,287.8z"/>
	</g>
	<g>
		<g>
			<path class="st5" d="M457.6,64.6c1.1,2.3,3.8,8.6,6.6,15.2c0.7,1.5,2.4,2.2,3.9,1.6v0c1.6-0.6,2.4-2.4,1.7-4
				c-2.7-6.6-5.2-13-6.1-15.4v0c-2.4-1.2-5.2,0-6.1,2.5L457.6,64.6z"/>
		</g>
		<g>
			<polygon class="st6" points="465.8,45.1 450.8,18.9 436,26.2 443.5,53.2 			"/>
		</g>
		<g>
			<path class="st7" d="M482.4,49.9c-3.9-5.6-11.3-8.4-17.9-6.9l-21.4,8.9c-5.7,3.6-8.9,10.9-7.7,17.6h0
				c17.4,0.3,34.1-6.5,46.3-18.9L482.4,49.9z"/>
		</g>
		<g>
			<path class="st7" d="M457.7,8.2c0.9,4.9-1.4,10.2-5.6,12.9l-15.6,6.5c-4.8,1.1-10.3-1-13.1-5.1L457.7,8.2z"/>
		</g>
	</g>
	<g>
		<path class="st8" d="M382.8,133.5c-2.1,0-4-1.2-4.9-3.2c-1.2-2.7,0.1-5.9,2.8-7l33.1-14.1c3.3-1.4,9.3-4,15.1-1.1
			c1.8,0.9,3.1,2.2,4.2,3.2c0.5,0.5,1,1,1.4,1.3c2.2,1.5,6.3,0.5,10.5-0.7c20.3-6.2,41-11.8,61.7-16.7c4.2-1,9.3-2.2,14.7-2.3
			c1.9,0,3.8,0.1,5.6,0.2c1.9,0.1,3.6,0.2,5.3,0.1c6.4-0.3,12.7-3.1,17.1-7.7c2-2.1,5.4-2.2,7.6-0.2c2.1,2,2.2,5.4,0.2,7.6
			c-6.3,6.6-15.2,10.6-24.4,11c-2.2,0.1-4.3,0-6.4-0.2c-1.7-0.1-3.3-0.2-4.8-0.2c-3.9,0.1-7.8,0.9-12.4,2
			c-20.4,4.7-40.9,10.3-60.9,16.5c-4.5,1.4-13,4-19.8-0.7c-1.1-0.8-2-1.6-2.7-2.3c-0.6-0.6-1.2-1.2-1.6-1.4c-1.3-0.7-4.7,0.8-6,1.4
			l-33.1,14.1C384.2,133.4,383.5,133.5,382.8,133.5z"/>
	</g>
	<g>
		<path class="st8" d="M387.4,169.3c-2.1,0-4.1-1.3-5-3.4c-1.1-2.7,0.2-5.8,3-6.9c9.7-3.9,19.6-7.5,29.5-10.8
			c1.6-0.5,5.7-1.9,9.2,0.8c1.1,0.9,1.8,1.9,2.2,2.5c0.2,0,0.5,0.1,0.9,0.1c4.9,0.5,9.9,0.4,14.8-0.3c2.9-0.5,5.6,1.6,6.1,4.5
			c0.4,2.9-1.6,5.6-4.5,6.1c-5.8,0.9-11.7,1-17.6,0.4c-1.5-0.2-4.9-0.5-7.3-3.2c-0.2-0.3-0.4-0.5-0.6-0.8
			c-9.6,3.2-19.3,6.7-28.7,10.5C388.7,169.2,388.1,169.3,387.4,169.3z"/>
	</g>
	<g>
		<path class="st8" d="M467.8,151.3c-2.8,0-5.2-2.2-5.3-5.1c-0.1-2.9,2.2-5.4,5.1-5.6c4.9-0.2,9.7-2.1,14.8-4
			c4.8-1.8,9.8-3.7,15.3-4.5c4-0.5,8-0.4,11.8-0.3c5.7,0.2,11.1,0.4,15.4-1.8c0.5-0.2,0.9-0.5,1.3-0.7c1.8-1.1,4.1-2.4,7-2.6
			c2.1-0.2,4,0.2,5.5,0.6c0.5,0.1,1,0.2,1.4,0.3c4.7,0.7,9.9-2.9,14.3-6.6c4.6-3.9,11-9.1,18.9-8.4c2.9,0.3,5.1,2.9,4.8,5.8
			c-0.3,2.9-2.9,5.1-5.8,4.8c-3.5-0.3-7.5,3-11,5.9c-6.2,5.2-13.8,10.4-22.8,9c-0.8-0.1-1.5-0.3-2.2-0.4c-0.8-0.2-1.7-0.4-2.2-0.3
			c-0.6,0.1-1.7,0.7-2.7,1.3c-0.6,0.3-1.2,0.7-1.8,1c-6.7,3.5-13.8,3.2-20.7,3c-3.5-0.1-6.9-0.2-10,0.2c-4.2,0.6-8.4,2.2-12.9,3.9
			c-5.7,2.2-11.6,4.4-18.1,4.7C468,151.3,467.9,151.3,467.8,151.3z"/>
	</g>
	<g>
		<path class="st8" d="M405.7,218.6c-0.3,0-0.7,0-1-0.1c-2.9-0.6-4.8-3.4-4.2-6.3c0.7-3.6,2.2-11.2,8.5-14.5c2-1,4-1.4,5.8-1.6
			c4.9-0.6,9.8-0.5,14.4-0.3c4.2,0.2,8.3,0.3,12.1-0.1c11.7-1.3,22.7-8.2,32.4-14.3c2.5-1.6,5.8-0.8,7.4,1.7
			c1.6,2.5,0.8,5.8-1.7,7.4c-10.7,6.7-22.8,14.3-36.9,15.9c-4.7,0.5-9.3,0.4-13.8,0.2c-4.4-0.2-8.6-0.3-12.7,0.2
			c-0.8,0.1-1.7,0.2-2.2,0.5c-1.8,0.9-2.6,5.2-2.9,7C410.4,216.8,408.2,218.6,405.7,218.6z"/>
	</g>
	<g>
		<path class="st8" d="M419.5,248.4c-0.7,0-1.3-0.1-2-0.4c-2.7-1.1-4.1-4.2-3-6.9c2.3-5.7,8.4-7.4,11.1-8.2
			c5.2-1.4,10.4-2.7,15.7-3.7c5.1-1,11.2-2,17.6-1.8c1.1,0,2.2,0.1,3.3,0.2c1.9,0.1,3.8,0.2,5.5,0.1c6.9-0.5,13.6-4.8,19.5-8.6
			c2.5-1.6,5.8-0.9,7.4,1.6c1.6,2.5,0.9,5.8-1.6,7.4c-6.6,4.3-14.9,9.6-24.5,10.3c-2.4,0.2-4.7,0-6.9-0.1c-1-0.1-1.9-0.1-2.9-0.1
			c-5.4-0.2-10.8,0.7-15.3,1.6c-5,1-10,2.1-14.8,3.5c-3.6,1-4,1.7-4,1.8C423.7,247.1,421.7,248.4,419.5,248.4z"/>
	</g>
	<g>
		<g>
			<path class="st8" d="M544.7,258.9C544.7,258.9,544.7,258.9,544.7,258.9c-2.4,0-4.4-1.6-5.1-3.8c-0.2-0.6-0.3-1.1-0.3-1.8
				c0-0.8,0.1-1.5,0.4-2.2c0.7-2.8,2.6-5.3,5.1-6.6c1.4-0.7,3-0.8,4.4-0.3c1.4,0.6,2.6,1.7,3.1,3.2c0.9,2.4,0.5,5.2-1,7.5
				c-0.9,1.2-2,2.2-3.3,2.9C547.1,258.5,546,258.9,544.7,258.9z"/>
		</g>
		<g>
			<path class="st8" d="M542.9,231.6c-2.8,0-5.2-2.2-5.3-5c-0.6-9.6,3.3-18.5,6.3-24.4c1.1-2.2,2.3-4.4,3.5-6.5
				c2.5-4.5,4.8-8.7,6.4-13.2c1.1-3.1,1.6-5.5,1.3-7.4c-0.2-1.8-1.1-3.4-2.3-3.9c-0.8-0.4-2-0.5-3.6-0.3c-8.5,1-16,8-17.4,16.5
				c-0.5,2.9-3.3,4.9-6.2,4.4c-2.9-0.5-4.9-3.3-4.4-6.2c2.3-13.1,13.5-23.8,26.7-25.3c3.7-0.4,6.7,0,9.3,1.2
				c4.5,2.1,7.7,6.8,8.3,12.3c0.6,4.8-0.8,9.4-1.9,12.4c-1.9,5.2-4.5,10-7.1,14.6c-1.1,2-2.3,4.2-3.3,6.2c-2.4,4.8-5.6,11.9-5.2,19
				c0.2,2.9-2.1,5.5-5,5.7C543.2,231.6,543.1,231.6,542.9,231.6z"/>
		</g>
	</g>
</g>
<g>
	<g>
		
			<rect x="429.1" y="273.3" transform="matrix(0.9909 -0.1346 0.1346 0.9909 -37.9098 71.5641)" class="st14" width="162.5" height="85.7"/>
		<path class="st15" d="M431.4,375l-12.8-94.5l170.6-23.2l12.8,94.5L431.4,375z M429.5,288.8l10.2,75.3l151.4-20.6l-10.2-75.3
			L429.5,288.8z"/>
	</g>
	<g>
		<g>
			<path class="st16" d="M464.4,311.8c1.7-0.2,3.2-0.2,4.6,0.2c1.4,0.4,2.7,1,3.8,1.8c1.1,0.9,2,2,2.7,3.3c0.7,1.4,1.2,2.9,1.4,4.7
				c0.2,1.8,0.2,3.4-0.1,4.9c-0.3,1.5-0.9,2.8-1.7,3.9c-0.8,1.1-1.9,2.1-3.2,2.8c-1.3,0.7-2.8,1.2-4.4,1.4c-1.7,0.2-3.2,0.2-4.7-0.2
				c-1.4-0.4-2.7-1-3.8-1.8c-1.1-0.9-2-2-2.7-3.3c-0.7-1.4-1.2-2.9-1.4-4.7c-0.2-1.8-0.2-3.4,0.1-4.9c0.3-1.5,0.9-2.8,1.8-3.9
				c0.8-1.1,1.9-2,3.2-2.8C461.2,312.5,462.7,312,464.4,311.8z M466.9,330.7c1.9-0.3,3.2-1.1,3.9-2.4c0.7-1.4,0.9-3.3,0.6-5.7
				c-0.3-2.4-1-4.2-2.1-5.3c-1.1-1.1-2.5-1.6-4.4-1.3c-1.9,0.3-3.2,1.1-3.9,2.5c-0.7,1.4-0.9,3.3-0.6,5.7c0.3,2.4,1,4.2,2.1,5.3
				C463.6,330.5,465.1,331,466.9,330.7z"/>
		</g>
		<g>
			<path class="st16" d="M498.7,311.6l-8,1.1l2.5,18.4l-5.4,0.7l-2.5-18.4l-8,1.1l-0.5-4l21.3-2.9L498.7,311.6z"/>
		</g>
		<g>
			<path class="st16" d="M510.1,305.9c1.4-0.2,2.6-0.2,3.7-0.1c1.1,0.1,2,0.4,2.7,0.8c0.7,0.4,1.3,0.9,1.7,1.5s0.7,1.3,0.8,2.1
				c0.1,0.5,0.1,1,0,1.5c-0.1,0.5-0.2,1.1-0.5,1.6c-0.2,0.5-0.6,1-1.1,1.5c-0.5,0.5-1.1,0.9-1.9,1.2c0.8,0.1,1.5,0.2,2.1,0.4
				c0.6,0.2,1.2,0.5,1.7,0.9s0.9,0.8,1.2,1.4c0.3,0.5,0.5,1.2,0.6,1.9c0.2,1.1,0.1,2.1-0.3,3c-0.4,0.9-0.9,1.7-1.6,2.3
				c-0.7,0.6-1.6,1.2-2.6,1.6c-1,0.4-2.1,0.7-3.2,0.8l-9.2,1.2l-3-22.4L510.1,305.9z M506.9,310l0.8,5.9l3.5-0.5
				c0.5-0.1,1-0.2,1.4-0.4c0.4-0.2,0.8-0.5,1-0.8c0.3-0.3,0.5-0.7,0.6-1.1c0.1-0.4,0.2-0.8,0.1-1.3c0-0.3-0.1-0.7-0.3-1
				c-0.2-0.3-0.4-0.6-0.7-0.8c-0.3-0.2-0.7-0.4-1.2-0.5c-0.5-0.1-1.1-0.1-1.7,0L506.9,310z M513,324.6c1.1-0.2,2-0.6,2.6-1.2
				c0.6-0.6,0.8-1.4,0.7-2.4c-0.1-0.4-0.2-0.8-0.3-1.1c-0.2-0.3-0.4-0.6-0.7-0.8c-0.3-0.2-0.7-0.4-1.2-0.5c-0.5-0.1-1.1-0.1-1.8,0
				l-4,0.5l0.8,6L513,324.6z"/>
		</g>
		<g>
			<path class="st16" d="M529,315.5c0.2,1.1,0.6,2.1,1,2.9c0.4,0.8,0.9,1.4,1.5,1.9c0.6,0.5,1.3,0.8,2,1c0.8,0.2,1.6,0.2,2.4,0.1
				c0.9-0.1,1.6-0.3,2.2-0.6c0.6-0.3,1.1-0.6,1.6-0.9c0.4-0.3,0.8-0.6,1.2-0.8c0.3-0.3,0.7-0.4,1-0.4c0.5-0.1,0.8,0.1,1.1,0.4
				l1.8,1.8c-0.5,0.8-1.1,1.5-1.8,2s-1.4,1.1-2.2,1.4c-0.8,0.4-1.6,0.7-2.4,0.9c-0.8,0.2-1.6,0.4-2.4,0.5c-1.6,0.2-3,0.1-4.4-0.2
				c-1.4-0.3-2.7-0.9-3.8-1.8c-1.1-0.9-2.1-2-2.8-3.4c-0.8-1.4-1.3-3.1-1.6-5.1c-0.2-1.5-0.2-3,0.2-4.4c0.3-1.4,0.9-2.7,1.6-3.8
				c0.8-1.1,1.8-2.1,3.1-2.8c1.3-0.8,2.7-1.3,4.4-1.5c1.4-0.2,2.7-0.1,4,0.1c1.3,0.3,2.4,0.8,3.3,1.6c1,0.7,1.8,1.7,2.4,2.9
				c0.7,1.2,1.1,2.6,1.3,4.2c0.1,0.8,0.1,1.4,0,1.7c-0.1,0.3-0.5,0.5-0.9,0.6L529,315.5z M538.8,310.8c-0.1-0.7-0.3-1.3-0.6-1.9
				c-0.3-0.6-0.6-1.1-1.1-1.5c-0.5-0.4-1-0.7-1.6-0.9c-0.6-0.2-1.4-0.2-2.2-0.1c-1.6,0.2-2.7,0.8-3.5,1.8c-0.8,1-1.2,2.3-1.2,4
				L538.8,310.8z"/>
		</g>
		<g>
			<path class="st16" d="M566.1,302.4l-8,1.1l2.5,18.4l-5.4,0.7l-2.5-18.4l-8,1.1l-0.5-4l21.3-2.9L566.1,302.4z"/>
		</g>
	</g>
</g>
<g>
	<g>
		<path class="st9" d="M274.5,384.5L97.2,413.8c0,0-31.1-161.9-39.5-233.6l99.7-14.7l31.5-4.6l97.8-14.5l19.6,114.6
			C330.5,376.7,292.3,381.4,274.5,384.5z"/>
	</g>
	<g>
		<path class="st10" d="M274.5,384.5c0,0,10.9-3.5,12.9-8.5c1.9-4.9,0-10.6-3.4-14.6c-3.4-4-8.1-6.6-12.7-9.1
			c15.6-7,26.3-22.4,31.1-38.8c7.4-25.3,3.9-52.6,3.9-52.6C330.5,376.7,292.3,381.4,274.5,384.5z"/>
	</g>
	<g>
		<g>
			<path class="st5" d="M158.5,161.3c1.1,2.3,3.8,8.6,6.6,15.2c0.7,1.5,2.4,2.2,3.9,1.6l0,0c1.6-0.6,2.4-2.4,1.7-4
				c-2.7-6.6-5.2-13-6.1-15.4h0c-2.4-1.2-5.2,0-6.1,2.5L158.5,161.3z"/>
		</g>
		<g>
			<polygon class="st6" points="166.7,141.8 151.7,115.5 136.9,122.9 144.4,149.9 			"/>
		</g>
		<g>
			<path class="st7" d="M183.3,146.5c-3.9-5.6-11.3-8.4-17.9-6.9l-21.4,8.9c-5.7,3.6-8.9,10.9-7.7,17.6l0,0
				c17.4,0.3,34.1-6.5,46.3-18.9L183.3,146.5z"/>
		</g>
		<g>
			<path class="st7" d="M158.5,104.9c0.9,4.9-1.4,10.2-5.6,12.9l-15.6,6.5c-4.8,1.1-10.3-1-13.1-5.1L158.5,104.9z"/>
		</g>
	</g>
	<g>
		<path class="st8" d="M83.7,230.2c-2.1,0-4-1.2-4.9-3.2c-1.2-2.7,0.1-5.9,2.8-7l33.1-14.1c3.3-1.4,9.3-4,15.1-1.1
			c1.8,0.9,3.1,2.2,4.2,3.2c0.5,0.5,1,1,1.4,1.3c2.2,1.5,6.3,0.5,10.5-0.7c20.3-6.2,41-11.8,61.7-16.7c5.1-1.2,9.7-2.2,14.7-2.3
			c1.9,0,3.8,0.1,5.6,0.2c1.9,0.1,3.6,0.2,5.3,0.1c6.4-0.3,12.7-3.1,17.1-7.7c2-2.1,5.4-2.2,7.6-0.2c2.1,2,2.2,5.4,0.2,7.6
			c-6.3,6.6-15.2,10.6-24.4,11c-2.2,0.1-4.3,0-6.4-0.2c-1.7-0.1-3.3-0.2-4.8-0.2c-3.9,0.1-7.8,0.9-12.4,2
			c-20.4,4.7-40.9,10.3-60.9,16.5c-4.5,1.4-13,4-19.8-0.7c-1.1-0.8-2-1.6-2.7-2.3c-0.6-0.6-1.2-1.2-1.6-1.4c-1.3-0.7-4.7,0.8-6,1.4
			l-33.1,14.1C85.1,230.1,84.4,230.2,83.7,230.2z"/>
	</g>
	<g>
		<path class="st8" d="M88.3,266c-2.1,0-4.1-1.3-5-3.4c-1.1-2.7,0.2-5.8,3-6.9c9.7-3.9,19.6-7.5,29.5-10.8c1.6-0.5,5.7-1.9,9.2,0.8
			c1.1,0.9,1.8,1.9,2.2,2.5c0.2,0,0.5,0.1,0.9,0.1c4.9,0.5,9.9,0.4,14.8-0.3c2.9-0.4,5.6,1.6,6.1,4.5c0.4,2.9-1.6,5.6-4.5,6.1
			c-5.8,0.9-11.7,1-17.6,0.4c-1.5-0.2-4.9-0.5-7.3-3.2c-0.2-0.3-0.5-0.5-0.6-0.8c-9.6,3.2-19.3,6.7-28.7,10.5
			C89.6,265.9,88.9,266,88.3,266z"/>
	</g>
	<g>
		<path class="st8" d="M168.7,247.9c-2.8,0-5.2-2.2-5.3-5.1c-0.1-2.9,2.2-5.4,5.1-5.6c4.9-0.2,9.7-2.1,14.8-4
			c4.8-1.8,9.8-3.7,15.3-4.5c4-0.5,8-0.4,11.8-0.3c5.7,0.2,11.1,0.4,15.4-1.8c0.5-0.2,0.9-0.5,1.3-0.7c1.8-1.1,4.1-2.4,7-2.6
			c2.1-0.2,4,0.2,5.5,0.6c0.5,0.1,1,0.2,1.4,0.3c4.7,0.7,9.9-2.9,14.3-6.6c4.6-3.9,11-9.1,18.9-8.4c2.9,0.3,5.1,2.9,4.8,5.8
			c-0.3,2.9-2.9,5.1-5.8,4.8c-3.5-0.3-7.5,3-11,5.9c-6.2,5.2-13.8,10.4-22.8,9c-0.8-0.1-1.5-0.3-2.2-0.4c-0.8-0.2-1.7-0.4-2.2-0.3
			c-0.6,0.1-1.7,0.7-2.7,1.3c-0.6,0.3-1.2,0.7-1.8,1c-6.7,3.5-13.8,3.2-20.7,3c-3.5-0.1-6.9-0.2-10,0.2c-4.2,0.6-8.4,2.2-12.9,3.9
			c-5.7,2.2-11.6,4.4-18.1,4.7C168.8,247.9,168.8,247.9,168.7,247.9z"/>
	</g>
	<g>
		<path class="st8" d="M106.5,315.3c-0.3,0-0.7,0-1-0.1c-2.9-0.6-4.8-3.4-4.2-6.3c0.7-3.6,2.2-11.2,8.5-14.5c2-1,4-1.4,5.8-1.6
			c4.9-0.6,9.7-0.5,14.4-0.3c4.2,0.2,8.3,0.3,12.1-0.1c11.7-1.3,22.7-8.2,32.4-14.3c2.5-1.6,5.8-0.8,7.4,1.7
			c1.6,2.5,0.8,5.8-1.7,7.4c-10.7,6.7-22.8,14.3-36.9,15.9c-4.7,0.5-9.3,0.4-13.8,0.2c-4.4-0.2-8.6-0.3-12.7,0.2
			c-0.8,0.1-1.7,0.2-2.2,0.5c-1.8,0.9-2.6,5.2-2.9,7C111.3,313.5,109,315.3,106.5,315.3z"/>
	</g>
	<g>
		<path class="st8" d="M120.4,345.1c-0.7,0-1.3-0.1-2-0.4c-2.7-1.1-4.1-4.2-3-6.9c2.3-5.7,8.4-7.4,11.1-8.2
			c5.2-1.4,10.5-2.7,15.7-3.7c5.1-1,11.2-2,17.6-1.8c1.1,0,2.2,0.1,3.3,0.2c1.9,0.1,3.8,0.2,5.5,0.1c6.9-0.5,13.6-4.8,19.5-8.6
			c2.5-1.6,5.8-0.9,7.4,1.6c1.6,2.5,0.9,5.8-1.6,7.4c-6.6,4.3-14.9,9.6-24.5,10.3c-2.4,0.2-4.7,0-6.9-0.1c-1-0.1-1.9-0.1-2.9-0.1
			c-5.4-0.2-10.8,0.7-15.3,1.6c-5,1-10,2.1-14.8,3.5c-3.6,1-4,1.7-4,1.8C124.5,343.8,122.5,345.1,120.4,345.1z"/>
	</g>
	<g>
		<g>
			<path class="st8" d="M245.6,355.6C245.6,355.6,245.6,355.6,245.6,355.6c-2.4,0-4.4-1.6-5.1-3.8c-0.2-0.6-0.3-1.1-0.3-1.8
				c0-0.8,0.1-1.5,0.4-2.2c0.7-2.8,2.6-5.3,5.1-6.6c1.4-0.7,3-0.8,4.4-0.3c1.4,0.6,2.6,1.7,3.1,3.2c0.9,2.4,0.5,5.2-1,7.5
				c-0.9,1.2-2,2.2-3.3,2.9C248,355.2,246.8,355.6,245.6,355.6z"/>
		</g>
		<g>
			<path class="st8" d="M243.8,328.3c-2.8,0-5.2-2.2-5.3-5c-0.6-9.6,3.3-18.5,6.3-24.4c1.1-2.2,2.3-4.4,3.5-6.5
				c2.5-4.5,4.8-8.7,6.4-13.2c1.1-3.1,1.6-5.5,1.3-7.4c-0.2-1.8-1.1-3.4-2.3-3.9c-0.8-0.4-2-0.5-3.6-0.3c-8.5,1-16,8-17.4,16.5
				c-0.5,2.9-3.3,4.9-6.2,4.4c-2.9-0.5-4.9-3.3-4.4-6.2c2.2-13.1,13.5-23.8,26.7-25.3c3.7-0.4,6.7,0,9.3,1.2
				c4.5,2.1,7.7,6.8,8.3,12.3c0.6,4.8-0.8,9.4-1.9,12.4c-1.9,5.2-4.5,10-7.1,14.6c-1.1,2-2.3,4.2-3.3,6.2c-2.4,4.8-5.6,11.9-5.2,19
				c0.2,2.9-2.1,5.5-5,5.7C244,328.3,243.9,328.3,243.8,328.3z"/>
		</g>
	</g>
</g>
<g>
	<g>
		
			<rect x="129.9" y="370" transform="matrix(0.9909 -0.1346 0.1346 0.9909 -53.6459 32.1803)" class="st14" width="162.5" height="85.7"/>
		<path class="st15" d="M132.3,471.7l-12.8-94.5L290.1,354l12.8,94.5L132.3,471.7z M130.4,385.5l10.2,75.3L292,440.2l-10.2-75.3
			L130.4,385.5z"/>
	</g>
	<g>
		<g>
			<path class="st16" d="M165.2,408.5c1.7-0.2,3.2-0.2,4.6,0.2c1.4,0.4,2.7,1,3.8,1.8c1.1,0.9,2,2,2.7,3.3c0.7,1.4,1.2,2.9,1.4,4.7
				c0.2,1.8,0.2,3.4-0.1,4.9c-0.3,1.5-0.9,2.8-1.7,3.9c-0.8,1.1-1.9,2.1-3.2,2.8c-1.3,0.7-2.8,1.2-4.4,1.4c-1.7,0.2-3.2,0.2-4.7-0.2
				c-1.4-0.4-2.7-1-3.8-1.8c-1.1-0.9-2-2-2.7-3.3c-0.7-1.4-1.2-2.9-1.4-4.7c-0.2-1.8-0.2-3.4,0.1-4.9c0.3-1.5,0.9-2.8,1.8-3.9
				c0.8-1.1,1.9-2,3.2-2.8S163.6,408.7,165.2,408.5z M167.8,427.4c1.9-0.3,3.2-1.1,3.9-2.4c0.7-1.4,0.9-3.3,0.6-5.7
				c-0.3-2.4-1-4.2-2.1-5.3c-1.1-1.1-2.5-1.6-4.4-1.3c-1.9,0.3-3.2,1.1-3.9,2.5c-0.7,1.4-0.9,3.3-0.6,5.7c0.3,2.4,1,4.2,2.1,5.3
				C164.4,427.2,165.9,427.7,167.8,427.4z"/>
		</g>
		<g>
			<path class="st16" d="M199.5,408.3l-8,1.1l2.5,18.4l-5.4,0.7l-2.5-18.4l-8,1.1l-0.5-4l21.3-2.9L199.5,408.3z"/>
		</g>
		<g>
			<path class="st16" d="M211,402.6c1.4-0.2,2.6-0.2,3.7-0.1c1.1,0.1,2,0.4,2.7,0.8c0.7,0.4,1.3,0.9,1.7,1.5
				c0.4,0.6,0.7,1.3,0.8,2.1c0.1,0.5,0.1,1,0,1.5s-0.2,1.1-0.5,1.6c-0.2,0.5-0.6,1-1.1,1.5c-0.5,0.5-1.1,0.9-1.9,1.2
				c0.8,0.1,1.5,0.2,2.1,0.4c0.6,0.2,1.2,0.5,1.7,0.9s0.9,0.8,1.2,1.4c0.3,0.5,0.5,1.2,0.6,1.9c0.2,1.1,0.1,2.1-0.3,3
				c-0.4,0.9-0.9,1.7-1.6,2.3c-0.7,0.6-1.6,1.2-2.6,1.6c-1,0.4-2.1,0.7-3.2,0.8l-9.2,1.2l-3-22.4L211,402.6z M207.8,406.6l0.8,5.9
				l3.5-0.5c0.5-0.1,1-0.2,1.4-0.4c0.4-0.2,0.8-0.5,1-0.8s0.5-0.7,0.6-1.1c0.1-0.4,0.2-0.8,0.1-1.3c0-0.3-0.1-0.7-0.3-1
				c-0.2-0.3-0.4-0.6-0.7-0.8c-0.3-0.2-0.7-0.4-1.2-0.5c-0.5-0.1-1.1-0.1-1.7,0L207.8,406.6z M213.8,421.3c1.1-0.2,2-0.6,2.6-1.2
				c0.6-0.6,0.8-1.4,0.7-2.4c-0.1-0.4-0.2-0.8-0.3-1.1c-0.2-0.3-0.4-0.6-0.7-0.8c-0.3-0.2-0.7-0.4-1.2-0.5c-0.5-0.1-1.1-0.1-1.8,0
				l-4,0.5l0.8,6L213.8,421.3z"/>
		</g>
		<g>
			<path class="st16" d="M229.8,412.2c0.2,1.1,0.6,2.1,1,2.9c0.4,0.8,0.9,1.4,1.5,1.9c0.6,0.5,1.3,0.8,2,1c0.8,0.2,1.6,0.2,2.4,0.1
				c0.9-0.1,1.6-0.3,2.2-0.6c0.6-0.3,1.1-0.6,1.6-0.9c0.4-0.3,0.8-0.6,1.2-0.8c0.3-0.3,0.7-0.4,1-0.4c0.5-0.1,0.8,0.1,1.1,0.4
				l1.8,1.8c-0.5,0.8-1.1,1.5-1.8,2c-0.7,0.6-1.4,1.1-2.2,1.4c-0.8,0.4-1.6,0.7-2.4,0.9c-0.8,0.2-1.6,0.4-2.4,0.5
				c-1.6,0.2-3,0.1-4.4-0.2c-1.4-0.3-2.7-0.9-3.8-1.8c-1.1-0.9-2.1-2-2.8-3.4s-1.3-3.1-1.6-5.1c-0.2-1.5-0.2-3,0.2-4.4
				c0.3-1.4,0.9-2.7,1.6-3.8c0.8-1.1,1.8-2.1,3.1-2.8c1.3-0.8,2.7-1.3,4.4-1.5c1.4-0.2,2.7-0.1,4,0.1c1.3,0.3,2.4,0.8,3.3,1.6
				c1,0.7,1.8,1.7,2.4,2.9c0.7,1.2,1.1,2.6,1.3,4.2c0.1,0.8,0.1,1.4,0,1.7c-0.1,0.3-0.5,0.5-0.9,0.6L229.8,412.2z M239.6,407.5
				c-0.1-0.7-0.3-1.3-0.6-1.9c-0.3-0.6-0.6-1.1-1.1-1.5c-0.5-0.4-1-0.7-1.6-0.9c-0.6-0.2-1.4-0.2-2.2-0.1c-1.6,0.2-2.7,0.8-3.5,1.8
				c-0.8,1-1.2,2.3-1.2,4L239.6,407.5z"/>
		</g>
		<g>
			<path class="st16" d="M266.9,399.1l-8,1.1l2.5,18.4l-5.4,0.7l-2.5-18.4l-8,1.1l-0.5-4l21.3-2.9L266.9,399.1z"/>
		</g>
	</g>
</g>
<g>
	<g>
		
			<rect x="659.9" y="273.9" transform="matrix(0.9866 0.1631 -0.1631 0.9866 61.5834 -116.6267)" class="st14" width="162.5" height="85.7"/>
		<path class="st15" d="M818.3,377.9l-169.9-28.1l15.6-94.1l169.9,28.1L818.3,377.9z M659.6,341.8l150.7,24.9l12.4-74.9L672,266.9
			L659.6,341.8z"/>
	</g>
	<g>
		<g>
			<path class="st16" d="M698.5,299.1c1.7,0.3,3.1,0.8,4.4,1.5c1.3,0.8,2.3,1.7,3.1,2.9c0.8,1.1,1.3,2.5,1.6,4
				c0.3,1.5,0.3,3.1,0,4.9c-0.3,1.8-0.8,3.3-1.6,4.6c-0.8,1.3-1.7,2.4-2.8,3.3c-1.1,0.8-2.4,1.4-3.9,1.7s-3,0.3-4.6,0.1
				c-1.7-0.3-3.1-0.8-4.4-1.6c-1.3-0.8-2.3-1.7-3.1-2.9c-0.8-1.2-1.3-2.5-1.6-4c-0.3-1.5-0.3-3.1,0-4.9c0.3-1.8,0.8-3.3,1.6-4.6
				c0.8-1.3,1.7-2.4,2.8-3.2c1.1-0.8,2.4-1.4,3.9-1.7C695.3,298.8,696.8,298.8,698.5,299.1z M695.4,317.9c1.9,0.3,3.3-0.1,4.4-1.2
				c1.1-1.1,1.8-2.8,2.2-5.2c0.4-2.4,0.3-4.3-0.4-5.7c-0.7-1.4-1.9-2.3-3.8-2.6c-1.9-0.3-3.4,0.1-4.5,1.2c-1.1,1.1-1.9,2.9-2.3,5.3
				c-0.4,2.4-0.2,4.3,0.5,5.7C692.2,316.7,693.5,317.6,695.4,317.9z"/>
		</g>
		<g>
			<path class="st16" d="M731.3,309l-7.9-1.3l-3,18.3l-5.4-0.9l3-18.3l-7.9-1.3l0.7-4L732,305L731.3,309z"/>
		</g>
		<g>
			<path class="st16" d="M743.9,307c1.4,0.2,2.6,0.6,3.6,1c1,0.4,1.8,1,2.3,1.5c0.6,0.6,1,1.2,1.2,1.9c0.2,0.7,0.3,1.4,0.1,2.2
				c-0.1,0.5-0.2,1-0.4,1.5s-0.5,1-0.9,1.4c-0.4,0.4-0.9,0.8-1.5,1.1c-0.6,0.3-1.3,0.5-2.2,0.6c0.7,0.3,1.3,0.6,1.9,1
				c0.6,0.4,1,0.8,1.4,1.3c0.4,0.5,0.6,1.1,0.8,1.7c0.1,0.6,0.2,1.3,0,2c-0.2,1.1-0.6,2.1-1.2,2.8c-0.6,0.7-1.3,1.3-2.2,1.7
				c-0.9,0.4-1.9,0.7-2.9,0.7s-2.2,0-3.3-0.1l-9.1-1.5l3.7-22.3L743.9,307z M741.2,325.6c1.1,0.2,2.1,0.1,2.8-0.4
				c0.7-0.4,1.2-1.1,1.4-2.1c0.1-0.4,0.1-0.8,0-1.2c0-0.4-0.2-0.7-0.4-1c-0.2-0.3-0.6-0.6-1-0.8c-0.4-0.2-1-0.4-1.8-0.5l-4-0.7l-1,6
				L741.2,325.6z M739.7,309.8l-1,5.8l3.5,0.6c0.5,0.1,1,0.1,1.5,0c0.5-0.1,0.9-0.2,1.2-0.5c0.4-0.2,0.7-0.5,0.9-0.9
				c0.2-0.4,0.4-0.8,0.5-1.2c0.1-0.3,0.1-0.7,0-1c-0.1-0.3-0.2-0.7-0.4-1c-0.2-0.3-0.6-0.6-1-0.8c-0.4-0.2-1-0.4-1.7-0.5
				L739.7,309.8z"/>
		</g>
		<g>
			<path class="st16" d="M759.2,321.6c-0.1,1.2-0.1,2.2,0.1,3.1c0.2,0.9,0.5,1.6,0.9,2.3c0.4,0.6,1,1.1,1.7,1.5
				c0.7,0.4,1.4,0.7,2.3,0.8s1.6,0.2,2.3,0.1c0.7-0.1,1.2-0.2,1.8-0.4c0.5-0.2,1-0.3,1.3-0.5c0.4-0.1,0.7-0.2,1.1-0.1
				c0.4,0.1,0.8,0.3,0.9,0.7l1.2,2.2c-0.7,0.6-1.5,1.1-2.3,1.4c-0.8,0.3-1.6,0.6-2.5,0.7c-0.9,0.1-1.7,0.2-2.6,0.2
				c-0.9,0-1.7-0.1-2.4-0.2c-1.5-0.3-2.9-0.8-4.2-1.5c-1.2-0.7-2.3-1.7-3.1-2.9c-0.8-1.2-1.4-2.5-1.7-4.1c-0.3-1.6-0.3-3.3,0-5.3
				c0.3-1.5,0.7-2.9,1.4-4.2c0.7-1.3,1.6-2.3,2.7-3.1c1.1-0.8,2.3-1.4,3.8-1.8c1.4-0.4,3-0.4,4.6-0.1c1.4,0.2,2.7,0.7,3.8,1.3
				c1.1,0.6,2,1.5,2.7,2.5c0.7,1,1.2,2.2,1.5,3.5s0.3,2.8,0,4.4c-0.1,0.8-0.3,1.3-0.5,1.6c-0.2,0.3-0.6,0.3-1.1,0.3L759.2,321.6z
				 M769.9,320.1c0.1-0.7,0.1-1.4,0-2c-0.1-0.6-0.3-1.2-0.6-1.8c-0.3-0.5-0.8-1-1.3-1.3c-0.6-0.4-1.2-0.6-2-0.7
				c-1.5-0.3-2.8,0-3.9,0.7c-1,0.7-1.8,1.9-2.3,3.5L769.9,320.1z"/>
		</g>
		<g>
			<path class="st16" d="M798.5,320l-7.9-1.3l-3,18.3l-5.4-0.9l3-18.3l-7.9-1.3l0.7-4l21.2,3.5L798.5,320z"/>
		</g>
	</g>
</g>
<g>
	<g>
		
			<rect x="258.5" y="658.5" transform="matrix(0.9866 0.1631 -0.1631 0.9866 118.9215 -46.0154)" class="st14" width="162.5" height="85.7"/>
		<path class="st15" d="M416.9,762.4L247,734.3l15.6-94.1l169.9,28.1L416.9,762.4z M258.2,726.3l150.7,24.9l12.4-74.9l-150.7-24.9
			L258.2,726.3z"/>
	</g>
	<g>
		<g>
			<path class="st16" d="M297.1,683.6c1.6,0.3,3.1,0.8,4.4,1.5c1.3,0.8,2.3,1.7,3.1,2.9c0.8,1.1,1.3,2.5,1.6,4s0.3,3.1,0,4.9
				c-0.3,1.8-0.8,3.3-1.6,4.6s-1.7,2.4-2.8,3.3c-1.1,0.8-2.4,1.4-3.9,1.7c-1.4,0.3-3,0.3-4.6,0.1c-1.7-0.3-3.1-0.8-4.4-1.6
				c-1.3-0.8-2.3-1.7-3.1-2.9s-1.3-2.5-1.6-4c-0.3-1.5-0.3-3.1,0-4.9c0.3-1.8,0.8-3.3,1.6-4.6c0.8-1.3,1.7-2.4,2.8-3.2
				c1.1-0.8,2.4-1.4,3.9-1.7C293.9,683.4,295.4,683.4,297.1,683.6z M294,702.4c1.9,0.3,3.3-0.1,4.4-1.2c1.1-1.1,1.8-2.8,2.2-5.2
				c0.4-2.4,0.3-4.3-0.4-5.7c-0.7-1.4-1.9-2.3-3.8-2.6c-1.9-0.3-3.4,0.1-4.5,1.2c-1.1,1.1-1.9,2.9-2.3,5.3s-0.2,4.3,0.5,5.7
				S292.1,702.1,294,702.4z"/>
		</g>
		<g>
			<path class="st16" d="M329.9,693.5l-7.9-1.3l-3,18.3l-5.4-0.9l3-18.3l-7.9-1.3l0.7-4l21.2,3.5L329.9,693.5z"/>
		</g>
		<g>
			<path class="st16" d="M342.5,691.5c1.4,0.2,2.6,0.6,3.6,1c1,0.4,1.8,1,2.3,1.5c0.6,0.6,1,1.2,1.2,1.9c0.2,0.7,0.3,1.5,0.1,2.2
				c-0.1,0.5-0.2,1-0.4,1.5c-0.2,0.5-0.5,1-0.9,1.4c-0.4,0.4-0.9,0.8-1.5,1.1c-0.6,0.3-1.3,0.5-2.2,0.6c0.7,0.3,1.3,0.6,1.9,1
				c0.6,0.4,1,0.8,1.4,1.3c0.4,0.5,0.6,1.1,0.8,1.7c0.1,0.6,0.2,1.3,0,2c-0.2,1.1-0.6,2.1-1.2,2.8c-0.6,0.7-1.3,1.3-2.2,1.7
				c-0.9,0.4-1.9,0.7-2.9,0.7c-1.1,0.1-2.2,0-3.3-0.1l-9.1-1.5l3.7-22.3L342.5,691.5z M339.8,710.1c1.1,0.2,2.1,0.1,2.8-0.4
				c0.7-0.4,1.2-1.1,1.4-2.1c0.1-0.4,0.1-0.8,0-1.2c-0.1-0.4-0.2-0.7-0.4-1c-0.2-0.3-0.6-0.6-1-0.8c-0.4-0.2-1-0.4-1.8-0.5l-4-0.7
				l-1,6L339.8,710.1z M338.3,694.4l-1,5.8l3.5,0.6c0.5,0.1,1,0.1,1.5,0c0.5-0.1,0.9-0.2,1.2-0.5c0.4-0.2,0.7-0.5,0.9-0.9
				c0.2-0.4,0.4-0.8,0.5-1.2c0.1-0.3,0.1-0.7,0-1c-0.1-0.3-0.2-0.7-0.4-1c-0.2-0.3-0.6-0.6-1-0.8c-0.4-0.2-1-0.4-1.7-0.5
				L338.3,694.4z"/>
		</g>
		<g>
			<path class="st16" d="M357.7,706.1c-0.1,1.2-0.1,2.2,0.1,3.1c0.2,0.9,0.5,1.6,0.9,2.3c0.4,0.6,1,1.1,1.7,1.5
				c0.7,0.4,1.4,0.7,2.3,0.8s1.6,0.2,2.3,0.1c0.7-0.1,1.2-0.2,1.8-0.4c0.5-0.2,1-0.3,1.3-0.5c0.4-0.1,0.7-0.2,1.1-0.1
				c0.4,0.1,0.8,0.3,0.9,0.7l1.2,2.2c-0.7,0.6-1.5,1.1-2.3,1.4c-0.8,0.3-1.6,0.6-2.5,0.7c-0.9,0.1-1.7,0.2-2.6,0.2
				c-0.9,0-1.7-0.1-2.4-0.2c-1.5-0.3-2.9-0.8-4.2-1.5c-1.2-0.7-2.3-1.7-3.1-2.9c-0.8-1.2-1.4-2.5-1.7-4.1c-0.3-1.6-0.3-3.3,0-5.3
				c0.3-1.5,0.7-2.9,1.4-4.2c0.7-1.3,1.6-2.3,2.7-3.1c1.1-0.8,2.3-1.4,3.8-1.8c1.4-0.4,3-0.4,4.6-0.1c1.4,0.2,2.7,0.7,3.8,1.3
				c1.1,0.6,2,1.5,2.7,2.5c0.7,1,1.2,2.2,1.5,3.5c0.3,1.3,0.3,2.8,0,4.4c-0.1,0.8-0.3,1.3-0.5,1.6c-0.2,0.3-0.6,0.3-1.1,0.3
				L357.7,706.1z M368.5,704.6c0.1-0.7,0.1-1.4,0-2c-0.1-0.6-0.3-1.2-0.6-1.8c-0.3-0.5-0.8-1-1.3-1.3c-0.6-0.4-1.2-0.6-2-0.7
				c-1.5-0.3-2.8,0-3.9,0.7c-1,0.7-1.8,1.9-2.3,3.5L368.5,704.6z"/>
		</g>
		<g>
			<path class="st16" d="M397,704.6l-7.9-1.3l-3,18.3l-5.4-0.9l3-18.3l-7.9-1.3l0.7-4l21.2,3.5L397,704.6z"/>
		</g>
	</g>
</g>
<g>
	<g>
		
			<rect x="615.9" y="650.6" transform="matrix(0.9977 -6.707410e-02 6.707410e-02 0.9977 -44.9418 48.3236)" class="st14" width="162.5" height="85.7"/>
		<path class="st15" d="M614.5,746.8l-6.4-95.2l171.8-11.5l6.4,95.2L614.5,746.8z M618.4,660.7l5.1,75.8l152.4-10.2l-5.1-75.8
			L618.4,660.7z"/>
	</g>
	<g>
		<g>
			<path class="st16" d="M651.6,686c1.7-0.1,3.2,0.1,4.6,0.5c1.4,0.5,2.6,1.1,3.7,2.1c1,0.9,1.9,2.1,2.5,3.5c0.6,1.4,1,3,1.1,4.8
				c0.1,1.8,0,3.4-0.5,4.9s-1.1,2.7-2,3.8c-0.9,1.1-2,1.9-3.4,2.6c-1.3,0.6-2.8,1-4.5,1.1c-1.7,0.1-3.2-0.1-4.6-0.5
				c-1.4-0.4-2.6-1.1-3.7-2.1c-1-0.9-1.9-2.1-2.5-3.5c-0.6-1.4-1-3-1.1-4.8c-0.1-1.8,0-3.4,0.5-4.9c0.4-1.5,1.1-2.7,2-3.8
				c0.9-1.1,2-1.9,3.4-2.5C648.4,686.5,649.9,686.1,651.6,686z M652.9,705c1.9-0.1,3.2-0.8,4-2.2s1.1-3.2,1-5.6
				c-0.2-2.4-0.7-4.2-1.7-5.5c-1-1.2-2.4-1.8-4.3-1.6c-1.9,0.1-3.3,0.9-4.1,2.2c-0.8,1.3-1.2,3.2-1,5.6c0.2,2.4,0.7,4.2,1.7,5.4
				C649.6,704.6,651,705.1,652.9,705z"/>
		</g>
		<g>
			<path class="st16" d="M685.9,688.1l-8,0.5l1.2,18.5l-5.4,0.4l-1.2-18.5l-8,0.5l-0.3-4l21.5-1.4L685.9,688.1z"/>
		</g>
		<g>
			<path class="st16" d="M697.7,683.2c1.4-0.1,2.7,0,3.7,0.2c1,0.2,1.9,0.5,2.6,1c0.7,0.4,1.2,1,1.6,1.6c0.4,0.6,0.6,1.4,0.6,2.1
				c0,0.5,0,1-0.1,1.5c-0.1,0.5-0.3,1-0.6,1.5c-0.3,0.5-0.7,1-1.2,1.4c-0.5,0.4-1.2,0.8-2,1.1c0.8,0.1,1.5,0.3,2.1,0.5
				c0.6,0.2,1.2,0.6,1.7,1c0.5,0.4,0.8,0.9,1.1,1.4c0.3,0.6,0.4,1.2,0.5,1.9c0.1,1.1-0.1,2.1-0.5,3c-0.4,0.9-1,1.6-1.8,2.2
				c-0.8,0.6-1.7,1.1-2.7,1.4s-2.1,0.5-3.3,0.6l-9.2,0.6l-1.5-22.5L697.7,683.2z M694.2,687l0.4,5.9l3.6-0.2c0.5,0,1-0.1,1.4-0.3
				c0.4-0.2,0.8-0.4,1.1-0.7c0.3-0.3,0.5-0.7,0.7-1.1c0.1-0.4,0.2-0.8,0.2-1.3c0-0.3-0.1-0.7-0.2-1c-0.1-0.3-0.4-0.6-0.7-0.8
				c-0.3-0.2-0.7-0.4-1.1-0.5s-1.1-0.2-1.7-0.1L694.2,687z M699.2,702c1.1-0.1,2-0.4,2.7-1c0.6-0.6,0.9-1.4,0.8-2.4
				c0-0.4-0.1-0.8-0.2-1.1c-0.1-0.4-0.3-0.6-0.6-0.9c-0.3-0.2-0.7-0.4-1.2-0.5c-0.5-0.1-1.1-0.1-1.8-0.1l-4.1,0.3l0.4,6L699.2,702z"
				/>
		</g>
		<g>
			<path class="st16" d="M715.8,694c0.2,1.2,0.4,2.1,0.8,3c0.4,0.8,0.8,1.5,1.4,2c0.6,0.5,1.2,0.9,2,1.1s1.6,0.3,2.4,0.2
				c0.9-0.1,1.6-0.2,2.3-0.5c0.6-0.2,1.2-0.5,1.6-0.8c0.5-0.3,0.9-0.5,1.2-0.8c0.3-0.2,0.7-0.4,1-0.4c0.5,0,0.8,0.1,1,0.4l1.7,1.9
				c-0.6,0.7-1.2,1.4-1.9,1.9c-0.7,0.5-1.5,1-2.3,1.3c-0.8,0.3-1.6,0.6-2.4,0.8c-0.8,0.2-1.6,0.3-2.4,0.3c-1.6,0.1-3-0.1-4.4-0.5
				c-1.4-0.4-2.6-1.1-3.7-2.1c-1.1-1-1.9-2.2-2.6-3.6c-0.7-1.5-1.1-3.2-1.2-5.2c-0.1-1.5,0-3,0.5-4.4c0.4-1.4,1-2.6,1.9-3.7
				c0.9-1.1,1.9-1.9,3.2-2.6c1.3-0.7,2.8-1.1,4.5-1.2c1.4-0.1,2.7,0,4,0.4c1.2,0.4,2.3,1,3.2,1.8s1.7,1.8,2.2,3.1
				c0.6,1.2,0.9,2.7,1,4.3c0.1,0.8,0,1.4-0.2,1.7c-0.2,0.3-0.5,0.5-1,0.5L715.8,694z M725.9,690c0-0.7-0.2-1.4-0.4-2
				c-0.2-0.6-0.6-1.1-1-1.6c-0.4-0.4-1-0.8-1.6-1c-0.6-0.2-1.3-0.3-2.1-0.3c-1.6,0.1-2.8,0.6-3.6,1.6s-1.3,2.3-1.5,3.9L725.9,690z"
				/>
		</g>
		<g>
			<path class="st16" d="M753.7,683.5l-8,0.5l1.2,18.5l-5.4,0.4l-1.2-18.5l-8,0.5l-0.3-4l21.5-1.4L753.7,683.5z"/>
		</g>
	</g>
</g>
</svg>
