<?xml version="1.0" encoding="utf-8"?>
<!-- Generator: Adobe Illustrator 25.4.1, SVG Export Plug-In . SVG Version: 6.00 Build 0)  -->
<svg version="1.1" id="a" xmlns="http://www.w3.org/2000/svg" xmlns:xlink="http://www.w3.org/1999/xlink" x="0px" y="0px"
	 viewBox="0 0 1021.8 817.6" style="enable-background:new 0 0 1021.8 817.6;" xml:space="preserve">
<style type="text/css">
	.st0{fill:#E5AC67;}
	.st1{fill:#A56A43;}
	.st2{clip-path:url(#SVGID_00000152230782643140680420000005956629299335800470_);}
	.st3{fill:#CE8046;}
	.st4{fill:#BFCEF8;}
	.st5{clip-path:url(#SVGID_00000098206700700517209110000013623619358875477910_);}
	.st6{fill:#664323;}
	.st7{fill:#4E8927;}
	.st8{fill:#D19B61;}
	.st9{fill:#84E9F4;}
	.st10{fill:#B2B2B2;}
	.st11{fill:#DB4545;}
	.st12{fill:#EF5050;}
	.st13{fill:#7171C6;}
	.st14{fill:#3D3DC1;}
	.st15{fill:none;stroke:#33305E;stroke-width:4.8351;stroke-linecap:round;stroke-linejoin:round;}
	.st16{fill:none;}
	.st17{fill:#FFCD70;}
	.st18{fill:#F5B062;}
	.st19{fill:#635BFF;}
	.st20{fill:#5750DE;}
	.st21{opacity:0.15;fill:#FFFFFF;enable-background:new    ;}
	.st22{fill:#FFFFFF;stroke:#CECECE;stroke-width:10.5363;stroke-miterlimit:10;}
	.st23{fill:#29385B;}
	.st24{fill:#FFFFFF;}
	.st25{fill:#33305E;stroke:#33305E;stroke-width:0.8663;stroke-miterlimit:10;}
	.st26{fill:#FFFFFF;stroke:#33305E;stroke-width:5.1978;stroke-linecap:round;stroke-linejoin:round;}
	.st27{fill:none;stroke:#33305E;stroke-width:5.1978;stroke-linecap:round;stroke-linejoin:round;}
	.st28{opacity:0.24;fill:#FFFFFF;}
	.st29{fill:none;stroke:#33305E;stroke-width:3.9788;stroke-linecap:round;stroke-linejoin:round;}
	.st30{fill:#724816;}
	.st31{fill:#F99569;}
	.st32{fill:#C96E4F;}
	.st33{fill:#D37757;}
	.st34{fill:none;stroke:#33305E;stroke-width:5.672;stroke-linecap:round;stroke-linejoin:round;}
	.st35{fill:#6D433C;}
	.st36{fill:#331E10;}
	.st37{fill:#B7A69A;}
</style>
<path class="st0" d="M949.9,636.4c-69.5,98.2-192.4,147.4-312.3,157c-137.9,11.1-276.1,15.4-408.8-32.9
	c-37.2-13.6-73.6-30.5-105.3-54.3c-51.7-38.9-89.4-96-104.8-158.7C9.8,511.1,9,470,30.3,439.2c3.3-4.8,7.2-9.4,9.5-14.7
	c0.5-1.3,1-2.5,1.3-3.9c2.1-8.9-1.6-18-4.7-26.6C16,336,25.6,269.8,54.8,215.7c29.2-54.1,76.7-96.9,129.8-128
	c133.7-78.4,309.6-80,445.5-6.5c5.8,3.1,11.8,6.3,18.3,7.3c8.6,1.3,17.2-1.3,25.6-3.2c63.6-14.9,132.4,3.1,185.7,40.8
	c53.4,37.7,92.1,93.5,117.2,153.8c18.7,45,29.6,93.9,31.7,142.8c0,0.6,0,1.2,0.1,1.8C1011.5,499.8,993.3,575.1,949.9,636.4z"/>
<path class="st1" d="M949.9,636.4c-69.5,98.2-192.4,147.4-312.3,157c-137.9,11.1-276.1,15.4-408.8-32.9
	c-37.2-13.6-73.6-30.5-105.3-54.3c-51.7-38.9-89.4-96-104.8-158.7C9.8,511.1,9,470,30.3,439.2c3.3-4.8,7.2-9.4,9.5-14.7h968.9
	C1011.5,499.8,993.3,575.1,949.9,636.4z"/>
<g>
	<defs>
		<path id="SVGID_1_" d="M949.9,636.4c-69.5,98.2-192.4,147.4-312.3,157c-137.9,11.1-276.1,15.4-408.8-32.9
			c-37.2-13.6-73.6-30.5-105.3-54.3c-51.7-38.9-89.4-96-104.8-158.7C9.8,511.1,9,470,30.3,439.2c3.3-4.8,7.2-9.4,9.5-14.7
			c0.5-1.3,1-2.5,1.3-3.9c2.1-8.9-1.6-18-4.7-26.6C16,336,25.6,269.8,54.8,215.7c14.9-26.5,33.1-50.4,54.9-71.6
			c10-9.7,20.5-17.3,31.7-25.2c11.7-8.3,19.7-20.6,28.7-31.8c29.7-37,60.7-75.1,102.6-97.4c54.9-29.3,125.6-26.5,178.1,7.1
			c14,9,26.7,19.9,41.2,28.1c42.9,24.5,94.2,32.5,138.2,56.3c5.8,3.1,11.8,6.3,18.3,7.3c8.6,1.3,17.2-1.3,25.6-3.2
			c63.6-14.9,132.4,3.1,185.7,40.8c53.4,37.7,92.1,93.5,117.2,153.8c18.7,45,29.6,93.9,31.7,142.8c0,0.6,0,1.2,0.1,1.8
			C1011.5,499.8,993.3,575.1,949.9,636.4z"/>
	</defs>
	<clipPath id="SVGID_00000134219499104779105610000000833018259368840099_">
		<use xlink:href="#SVGID_1_"  style="overflow:visible;"/>
	</clipPath>
	<g style="clip-path:url(#SVGID_00000134219499104779105610000000833018259368840099_);">
		<g>
			<path class="st3" d="M787.4,324.6h294.3c11.2,0,20.4-9.2,20.4-20.4V10c0-11.2-9.2-20.4-20.4-20.4H787.4
				C776.2-10.4,767-1.2,767,10v294.3C767,315.4,776.2,324.6,787.4,324.6z"/>
			<path class="st4" d="M801.4,308.6h266.2c10.1,0,18.4-8.3,18.4-18.4V24c0-10.1-8.3-18.4-18.4-18.4H801.4
				C791.3,5.6,783,13.9,783,24v266.2C783,300.3,791.3,308.6,801.4,308.6z"/>
			<g>
				<defs>
					<path id="SVGID_00000111158922812940364390000011774669192770269838_" d="M801.4,308.6h266.2c10.1,0,18.4-8.3,18.4-18.4V24
						c0-10.1-8.3-18.4-18.4-18.4H801.4C791.3,5.6,783,13.9,783,24v266.2C783,300.3,791.3,308.6,801.4,308.6z"/>
				</defs>
				<clipPath id="SVGID_00000133514341274542250380000003816211137316196736_">
					<use xlink:href="#SVGID_00000111158922812940364390000011774669192770269838_"  style="overflow:visible;"/>
				</clipPath>
				<g style="clip-path:url(#SVGID_00000133514341274542250380000003816211137316196736_);">
					<path class="st6" d="M1420.4,888.2c0,0-35.1-67-43.3-84.4c-8.1-17.3-18-34.2-30.2-80c-12.2-45.7-31-77.1-36-86.9
						c-5-9.9-17.1-27.4-16.2-41.6c3.2-48.8,5.5-106.1-12.4-151.9c-5.6-14.3-12-28.5-21.5-40.6c-14.6-18.6-32.4-23.5-53.9-29.2
						c-24.1-6.4-48.2-15.7-68.6-30.2c-36.9-26.2-59-42.3-88.9-47.2c-29.9-4.9-105.3-41.5-125.9-60.1l-16-11.6
						c0,0,4.6,10.1,18.9,21.2c14.3,11.2,57.6,36.9,93.4,49.5s37.1,11.6,48,16.1c10.8,4.5,22.9,8.7,37.9,22.4
						c14.9,13.6,57.5,49.4,93,61.4s37.4,11.2,41.4,15.9c4,4.7,7.1,11.5,9,39.1c1.9,27.5-0.8,76.9-3.8,95.9
						c-3,19.1-12.2,46.8-28.5,51.3c0,0-3.2,3.7-12.4-4.3c-9.2-8-30.5-19.8-38.3-30.5c-7.8-10.7-18.8-28.9-22.3-35.5
						c-3.4-6.7-14.7,3.6-14.7,3.6s4,24.5-0.9,28.6c-4.9,4.1-12.9-4.3-18.5-14.1s-19.4,6.2-19.4,6.2s11.7,8.3,15.4,11.9
						c3.7,3.7,10.4,15,7.5,18.2c-2.9,3.3-13.6,6.8-25.3,3.3s-32-10.4-39-9.8s-19.6,12.8-19.6,12.8s3.7,5.8,12.7,8
						c0,0-10.1,16.6-67.2,23.6c-57.1,7-118.1,60.6-118.1,60.6s52.4-10.2,75.9-13c23.5-2.8,77.6-21.5,102.2-36.1
						c24.6-14.5,39-31.8,70.3-28.7c31.3,3.2,62.9,14.3,73.2,18.8c10.4,4.5,19.5,15.9,23,23.9c3.5,8.1,25.4,66.2,25.4,66.2
						s28,85.9,38.1,116.6c10,30.6,42.1,98.9,54.8,120.2s101.1-40.2,101.1-40.2L1420.4,888.2z"/>
					<path class="st7" d="M900.7,173.6c0,0,7,16,19.4,27.4c12.4,11.5,29.2,20,29.2,20s2.2-26.3-16.7-38.6
						C913.8,170.1,900.7,173.6,900.7,173.6z"/>
					<path class="st7" d="M948.4,221.4c0,0-17.3-1.8-33.4,3.4c-16.1,5.2-31.8,15.6-31.8,15.6s21.8,14.8,41.8,4.5
						C945,234.5,948.4,221.4,948.4,221.4z"/>
					<path class="st6" d="M1019.8,287.3c0,0-5.6-26.5-17.1-43.9s-19.1-31.7-19.1-31.7s4.7-0.7,15.8,14.2c11.1,15,21.9,46.5,26,54.4
						c4.1,7.9,11.3,17.6,11.3,17.6L1019.8,287.3z"/>
					<path class="st6" d="M1020,175.4c0,0,9.8,40,7.4,55.3c0,0-52.3,0.7-81.6-12.6l1.5,6.1c0,0,50.8,12.6,76.3,14.6
						c0,0,9.6,0.1,21,18.5c11.5,18.4,22.9,47.7,22.9,47.7l9.7,2c0,0-20.3-49.4-41.5-72.6c0,0-2.2-1.6-2.4-10.7
						c-0.3-9.1-5.2-40.9-9.1-48C1020.3,168.5,1020,175.4,1020,175.4z"/>
					<path class="st7" d="M1023.2,180c0,0-0.5-19.1-11.5-27.8c-11-8.7-19.1-6.4-19.1-6.4S999.3,174.3,1023.2,180z"/>
				</g>
			</g>
			
				<rect x="925.8" y="-4.8" transform="matrix(-1 -4.484603e-11 4.484603e-11 -1 1870.1515 303.8128)" class="st3" width="18.5" height="313.4"/>
		</g>
		<g>
			<path class="st8" d="M422.7,285.8L222.8,294c0,0-9.7-141.8-9.3-204.1l86.9-2.1l27.5-0.7l85.2-2.2l4.7,100.1L422.7,285.8z"/>
			<g>
				<path class="st8" d="M314.4,85.3c-0.5,2.2-2.1,7.9-3.7,13.8c-0.4,1.4,0.4,2.8,1.8,3.2l0,0c1.4,0.4,2.9-0.4,3.3-1.8
					c1.8-5.9,3.5-11.6,4.2-13.7v0c-1-2.1-3.5-2.8-5.5-1.6L314.4,85.3z"/>
				<polygon class="st8" points="330.4,76.5 334.4,50.7 320.4,47.7 311,70 				"/>
				<path class="st8" d="M339.1,88.6c0.4-5.8-3.1-11.7-8.4-14.3l-19.2-5.5c-5.8-0.6-11.9,2.6-14.6,7.8l0,0
					c11.6,9.5,26.6,13.9,41.4,12.1L339.1,88.6z"/>
				<path class="st8" d="M344.7,47.2c-2,3.8-6.4,6.1-10.7,5.7l-14.1-4c-3.9-1.9-6.4-6.2-6.1-10.5L344.7,47.2z"/>
			</g>
			<path class="st8" d="M357.1,261.1c0.2-1.8,1.5-3.5,3.2-4.1c0.4,1.9-1.4,4-3.3,3.8"/>
			<path class="st8" d="M346.8,189.1c3.3-10.9,14.2-18.9,25.5-18.8c2.3,0,4.7,0.4,6.6,1.6c3,1.9,4.5,5.6,4.5,9.1
				c0,3.5-1.3,6.9-2.9,10.1c-3.6,7-8.7,13.2-13.1,19.8s-8.2,13.9-8.7,21.8"/>
			<path class="st8" d="M235,176.7c7.8-4.9,16.6-8.3,25.6-10c2.6-0.5,5.7-0.7,7.5,1.3c0.8,0.8,1.2,1.9,1.8,2.8
				c1.8,2.3,5.1,2.9,7.9,2.4s5.6-1.7,8.4-2.4c2.3-0.6,4.8-0.7,6.8,0.5c1,0.6,1.7,1.4,2.8,1.8c1,0.4,2.1,0.3,3.1,0.1
				c4-0.5,7.9-1.5,11.7-2.8"/>
			<path class="st8" d="M237,139.6c9-5.7,19.4-11.7,29.8-9.3c4,0.9,7.7,3.1,11.8,3.3c6,0.3,11.4-3.6,17.3-4.9c1-0.2,2.1-0.4,3,0
				c1,0.4,1.6,1.4,2.4,2.2c2.6,2.8,7.1,3.5,10.4,1.8"/>
			<path class="st8" d="M329.5,133.5c4.1-2.1,8.4-3.7,12.9-4.7c1.3-0.3,2.7-0.5,4-0.1c2.1,0.7,3.2,2.9,4.9,4.2
				c3.9,2.9,9.4,0.7,13.9-1c3.1-1.2,6.4-2.1,9.7-2.7c2.1-0.4,5-0.2,5.6,1.9c0.2,0.6,0.1,1.3,0.5,1.8c0.5,0.6,1.4,0.5,2.1,0.3
				c4.2-0.8,8.5-1.6,12.7-2.4"/>
			<path class="st8" d="M261.7,202.7c5-3.2,10.5-5.5,16.2-6.8c1.9-0.4,4.4-0.5,5.3,1.2c0.3,0.6,0.4,1.3,0.8,1.8c1,1.3,3,0.7,4.5,0.1
				c5.9-2.6,12.2-4.2,18.6-4.6"/>
		</g>
		<g>
			<path class="st9" d="M413.9,260.6L214,268.9c0,0-9.7-141.8-9.3-204.1l86.9-2.1l27.5-0.7l85.2-2.2l4.7,100.1L413.9,260.6z"/>
			<g>
				<path class="st10" d="M305.6,60.1c-0.5,2.2-2.1,7.9-3.7,13.8c-0.4,1.4,0.4,2.8,1.8,3.2l0,0c1.4,0.4,2.9-0.4,3.3-1.8
					c1.8-5.9,3.5-11.6,4.2-13.7v0c-1-2.1-3.5-2.8-5.5-1.6L305.6,60.1z"/>
				<polygon class="st11" points="321.6,51.3 325.6,25.6 311.6,22.6 302.2,44.8 				"/>
				<path class="st12" d="M330.3,63.4c0.4-5.8-3.1-11.7-8.4-14.3l-19.2-5.5c-5.8-0.6-11.9,2.6-14.6,7.8l0,0
					c11.6,9.5,26.6,13.9,41.4,12.1L330.3,63.4z"/>
				<path class="st12" d="M335.9,22c-2,3.8-6.4,6.1-10.7,5.7l-14.1-4c-3.9-1.9-6.4-6.2-6.1-10.5L335.9,22z"/>
			</g>
			<g>
				<path class="st13" d="M348.3,241.5c-0.2,0-0.5,0-0.7,0c-2.5-0.3-4.4-2.2-4.8-4.6c-0.1-0.6-0.2-1.2-0.1-1.9
					c0.1-0.8,0.3-1.6,0.7-2.2c1.1-2.8,3.3-5.1,6.2-6.2c1.5-0.6,3.2-0.5,4.6,0.3c1.4,0.8,2.5,2.1,2.8,3.7c0.6,2.6-0.1,5.5-2,7.6
					c-1,1.2-2.4,2.1-3.8,2.5C350.4,241.2,349.4,241.5,348.3,241.5z"/>
			</g>
			<g>
				<path class="st13" d="M349.9,213c-0.1,0-0.2,0-0.3,0c-3.1-0.2-5.4-2.8-5.2-5.9c0.6-10,5.8-18.8,9.6-24.5c1.5-2.2,3-4.3,4.5-6.3
					c3.1-4.3,6.1-8.4,8.3-12.8c1.6-3.1,2.3-5.5,2.3-7.5c0-1.9-0.8-3.6-1.9-4.3c-0.8-0.5-2-0.7-3.7-0.7c-8.9-0.1-17.6,6.3-20.1,14.8
					c-0.9,3-4,4.6-7,3.7c-3-0.9-4.6-4-3.7-7c4-13.3,16.8-22.8,30.7-22.8c0.1,0,0.2,0,0.3,0c3.8,0,7,0.8,9.5,2.4
					c4.4,2.8,7.1,8.1,7.1,13.8c0,5.1-2,9.6-3.5,12.6c-2.6,5.2-6,9.8-9.2,14.3c-1.4,2-2.9,4-4.2,6c-3.1,4.6-7.3,11.7-7.8,19
					C355.3,210.7,352.9,213,349.9,213z"/>
			</g>
			<g>
				<path class="st13" d="M226.2,155.5c-1.3,0-2.6-0.7-3.3-1.8c-1.1-1.8-0.6-4.3,1.2-5.4c8.3-5.2,17.4-8.7,27-10.5
					c1.9-0.3,7.5-1.4,11.1,2.4c0.7,0.8,1.2,1.6,1.6,2.3c0.2,0.3,0.4,0.6,0.5,0.8c0.6,0.8,2.4,1.2,4.2,0.9c1.4-0.2,2.8-0.7,4.3-1.2
					c1.2-0.4,2.4-0.8,3.8-1.2c3.9-1,7.2-0.6,9.8,0.9c0.5,0.3,1,0.7,1.4,1c0.3,0.2,0.6,0.5,0.7,0.5c0.1,0,0.6,0,1.3-0.1
					c3.7-0.5,7.4-1.4,11-2.6c2-0.7,4.3,0.3,5,2.4c0.7,2-0.3,4.3-2.4,5c-4.1,1.4-8.3,2.4-12.5,3c-1.1,0.1-3,0.4-5-0.3
					c-1.2-0.4-2.1-1.1-2.8-1.6c-0.3-0.2-0.5-0.4-0.7-0.5c-0.8-0.5-2.1-0.5-3.9,0c-1,0.3-2,0.6-3.1,1c-1.7,0.6-3.6,1.2-5.6,1.5
					c-4.9,0.8-9.2-0.7-11.7-3.9c-0.4-0.6-0.8-1.2-1.1-1.6c-0.2-0.3-0.4-0.7-0.5-0.9c-0.1-0.1-0.7-0.7-3.9-0.1
					c-8.5,1.6-16.9,4.9-24.3,9.5C227.6,155.3,226.9,155.5,226.2,155.5z"/>
			</g>
			<g>
				<path class="st13" d="M228.2,118.4c-1.3,0-2.6-0.6-3.3-1.8c-1.2-1.8-0.6-4.3,1.2-5.4c10.2-6.5,21.1-12.5,32.8-9.8
					c1.8,0.4,3.4,1,5,1.6c2.1,0.8,4.2,1.5,6.1,1.6c2.9,0.1,5.9-1.1,9-2.4c2.3-0.9,4.6-1.9,7.2-2.5c1.4-0.3,3.4-0.6,5.5,0.3
					c1.6,0.7,2.6,1.8,3.3,2.6c0.1,0.2,0.3,0.3,0.4,0.5c1.4,1.5,4,1.9,5.8,1c1.9-1,4.3-0.2,5.3,1.7c1,1.9,0.2,4.3-1.7,5.3
					c-4.9,2.5-11.3,1.4-15.1-2.6c-0.2-0.2-0.4-0.5-0.6-0.7c-0.1-0.2-0.3-0.4-0.4-0.5c-0.1,0-0.3,0-0.6,0.1c-1.9,0.4-3.9,1.2-6,2.1
					c-3.7,1.5-7.8,3.2-12.4,2.9c-3.1-0.2-5.8-1.1-8.3-2.1c-1.4-0.5-2.8-1-4.1-1.3c-8.8-2.1-18.1,3.2-26.8,8.8
					C229.6,118.2,228.9,118.4,228.2,118.4z M288.4,107.1C288.4,107.1,288.4,107.1,288.4,107.1S288.4,107.1,288.4,107.1z"/>
			</g>
			<g>
				<path class="st13" d="M347.1,113.1c-2.4,0-4.8-0.6-6.9-2.2c-1-0.7-1.7-1.5-2.4-2.2c-0.5-0.5-1.2-1.3-1.5-1.4
					c-0.2-0.1-0.9,0-1.9,0.2c-4.2,0.9-8.2,2.4-12,4.3c-1.9,1-4.3,0.2-5.3-1.7c-1-1.9-0.2-4.3,1.7-5.3c4.4-2.3,9.1-4,13.9-5
					c1.9-0.4,3.9-0.7,6.1,0c2.2,0.8,3.6,2.3,4.7,3.5c0.5,0.5,0.9,1,1.3,1.3c2.1,1.6,6.2,0,9.8-1.4l0.4-0.2c3.3-1.3,6.8-2.2,10.3-2.9
					c4.6-0.9,8.3,0.6,9.7,3.7l11.1-2.1c2.1-0.4,4.2,1,4.6,3.1c0.4,2.1-1,4.2-3.1,4.6L375,112c-2.5,0.5-4.5-0.1-5.8-1.7
					c-0.7-0.8-1-1.8-1.2-2.5c-0.3,0-0.7,0-1.1,0.1c-3.1,0.6-6.1,1.4-9.1,2.5l-0.4,0.2C354.4,111.8,350.8,113.1,347.1,113.1z"/>
			</g>
			<g>
				<path class="st13" d="M252.9,181.5c-1.3,0-2.6-0.6-3.3-1.8c-1.2-1.8-0.6-4.2,1.2-5.4c5.4-3.4,11.3-5.9,17.5-7.3
					c6.3-1.4,8.8,1.7,9.6,3.2c0,0.1,0.1,0.1,0.1,0.2c0.1,0,0.1,0,0.2-0.1c6.3-2.8,13.1-4.5,20-4.9c2.2-0.1,4,1.5,4.2,3.7
					c0.1,2.2-1.5,4-3.7,4.2c-6,0.4-11.8,1.8-17.3,4.2c-5.7,2.5-8.4-0.1-9.3-1.3c-0.4-0.6-0.7-1.2-0.9-1.6c-0.3,0-0.7,0.1-1.1,0.2
					c-5.3,1.2-10.4,3.3-15,6.3C254.4,181.3,253.6,181.5,252.9,181.5z"/>
			</g>
		</g>
		<g>
			<g>
				<g>
					<path class="st14" d="M714.2,324.8c25.1-14.5,10.8-45.2-1.6-60.8c-4.1-5.2-11.6-12-18.6-12c-26.7-0.4-99,48.9-141.8,79
						c22.3,13.1,42.3,15.2,68.5,6.8l-1.5,13C619.2,350.9,669.6,350.6,714.2,324.8L714.2,324.8z"/>
					<path class="st14" d="M721.8,316.7c9.3-16.8,1.1-38.5-4.6-47.4s-13.5-17.7-24-18.1c-8.7-0.3-15.8-12.6-23.4-8.4
						c-39.4,21.6-78.5,51.1-118.9,88.6c1.8,1.9,8.4,2.2,8.4,2.2s106.2-70.5,138.3-66.2C710.6,269.1,724.9,289.5,721.8,316.7
						L721.8,316.7z"/>
					<g>
						<path class="st15" d="M690,294.3c-1,4.5-2,9-3,13.4c4.5,0.9,9.1,0.9,13.5,0"/>
						<path class="st15" d="M646.4,290.2c-1.6,3.4-3.2,6.7-4.8,10c4.6,1.2,8.7,1.4,12.8,1.6"/>
						<path class="st15" d="M607.3,314l-6.4,11.8c4.5,0.3,11.7,0.8,11.7,0.8"/>
					</g>
				</g>
				<g>
					<path class="st16" d="M800.5,440.4c0.1,0.9,0.2,1.6,0.3,2.5c0.4,5.9-0.9,12-3.7,17.2c-3.2,5.9-8.4,10.5-14.2,12.6
						c-6.3,2.3-13.2,1.9-19.8,1.4c-0.5,0-1-0.1-1.5-0.4c-0.1-0.1-0.2-0.2-0.3-0.3"/>
					<path class="st17" d="M794.9,449c-0.4,0.5-1,0.6-1.6,0.6c-6.1,0.3-12.1,0.7-18.2,0.9l0,0c-10.5,0.3-21,0.2-31.3-1.2
						c-3.4-0.4-6.8-1-10-1.7c0.7-12.6,11.3-23,22.4-25.7c11.2-2.7,22.7,0.8,33,5.8c0.3,11.8,2.7,15.2,5.2,18.5
						C795,447,795.6,448.3,794.9,449L794.9,449z"/>
					<path class="st18" d="M779.2,446.7c-1.2,1.4-2.6,2.7-4.2,3.8l0,0c-10.5,0.3-21,0.2-31.3-1.2c2.2-5,5.6-9.4,9.9-12.6
						c6.6-4.9,15.1-6.2,22.1-5.2c1.2,0.2,2.4,0.4,3.6,0.7c0.3,0.1,0.7,0.2,1,0.3c0.1,0.5,0.2,1,0.2,1.6c0,0.3,0.1,0.6,0.1,0.9
						C780.9,438.9,780.5,442.9,779.2,446.7z"/>
					<path class="st17" d="M797.9,447.6c-0.5,2.1-1.6,4-3.1,5.7c-3.2,3.8-8,6.7-12.2,8.1c-8.2,2.9-17.2,4.6-25.8,3.4
						c-4-0.6-7.8-1.8-11.4-3.9c0.6-10.7,7.8-20.1,16.6-25.1c5.6-3.2,11.2-5.1,17.1-6.2c7.5-1.4,14.9,2.5,18,10
						C798.1,442.3,798.6,444.8,797.9,447.6z"/>
					<path class="st18" d="M794.8,453.3c-3.2,3.8-8,6.7-12.2,8.1c-8.2,2.9-17.2,4.6-25.8,3.4c1.2-8.5,5.8-16.6,12.4-21.4
						c6.6-4.9,15.1-6.2,22.1-5.2c1.2,0.2,2.4,0.4,3.6,0.7c0.3,0.1,0.7,0.2,1,0.3c0.1,0.5,0.2,1,0.2,1.6c0,0.3,0.1,0.6,0.1,0.9
						C796.4,445.6,796,449.6,794.8,453.3L794.8,453.3z"/>
					<path class="st17" d="M797,460c-3.2,5.9-8.4,10.5-14.2,12.6c-0.3,0.1-0.7,0.3-1,0.3c-0.2,0.1-0.3,0.1-0.6,0.2
						c-0.4,0.1-0.8,0.3-1.2,0.3c-5.5,1.3-11.3,0.9-16.9,0.4c-0.5,0-1-0.1-1.5-0.4c-0.1-0.1-0.2-0.2-0.3-0.3
						c-0.3-0.3-0.3-0.8-0.3-1.3c0-0.7,0-1.4,0-2.2c0.2-10,5.1-19.8,12.7-25.4c6.6-4.9,15.1-6.2,22.1-5.2c1.2,0.2,2.4,0.4,3.6,0.7
						c0.3,0.1,0.7,0.2,1,0.3c0.1,0.5,0.2,1,0.2,1.6c0,0.3,0.1,0.6,0.1,0.9C801.2,448.8,799.8,454.9,797,460L797,460z"/>
					<path class="st19" d="M658.7,121.4c-10.5,39.7-13.9,87.4,5.1,131.9c-22.7,86.2,15.7,179.8,175.3,202.6
						c1-31.9-0.2-67.7,0.3-100.5c0.6-36.8,1.6-60.3,5-95.9c30-66.2-4.6-136.5-4.6-136.5s-25.1,10.7-35,21.7
						c-28.6-7.3-72.8-12.6-111.2,1.2C693.7,145.9,667.3,124.6,658.7,121.4L658.7,121.4z"/>
					<path class="st20" d="M823.7,453.5c0,0,5.6-60.3,3.1-100.6c0.7,3.6,4.2,6,7.7,6.7s7.2-0.1,10.7-1c-6.2,34.7-5.7,83.7-5.7,83.7
						l-0.3,13.9L823.7,453.5L823.7,453.5z"/>
					<path class="st20" d="M837,124.4c5.5,22.1,6.4,118.9-11.4,133.8c13.9,0.8,17.8,13.6,21.1,3.3c6.5-20.1,13.3-54.3,10.7-77.4
						c-3.6-32.8-17.5-61-17.5-61L837,124.4z"/>
					<path class="st21" d="M687.4,309.4c3.2,68,61,101.2,93.1,112.4c5.1,1.8,9.9-3.5,7.6-8.4c-8.7-18.5-23.6-56.2-24.1-99.6
						c-0.1-5.2-4.3-8.7-9.4-8.1c-16.5,2.3-36.5,0.4-56.7-4.9C692.4,299.5,687.2,303.8,687.4,309.4L687.4,309.4z"/>
					<g>
						<path class="st22" d="M797.8,432.7l-158.6-26.8c-4.2-0.7-7.1-4.7-6.4-8.9l12.9-76.4c0.7-4.2,4.7-7.1,8.9-6.4L813.3,341
							c4.2,0.7,7.1,4.7,6.4,8.9l-12.9,76.4C806,430.5,802,433.4,797.8,432.7z"/>
						<g>
							<path class="st23" d="M680,354.1c1.8,0.3,3.4,0.9,4.7,1.7c1.4,0.8,2.5,1.9,3.3,3.1s1.4,2.7,1.8,4.3c0.3,1.6,0.3,3.4,0,5.3
								c-0.3,1.9-0.9,3.6-1.7,5c-0.8,1.4-1.9,2.6-3.1,3.5c-1.2,0.9-2.6,1.5-4.2,1.9c-1.6,0.3-3.2,0.3-5,0c-1.8-0.3-3.4-0.9-4.8-1.7
								c-1.4-0.8-2.5-1.9-3.4-3.1c-0.9-1.3-1.4-2.7-1.8-4.3c-0.3-1.6-0.3-3.4,0-5.3c0.3-1.9,0.9-3.6,1.7-5c0.8-1.4,1.9-2.6,3.1-3.5
								c1.2-0.9,2.6-1.5,4.2-1.8C676.5,353.8,678.2,353.8,680,354.1z M676.6,374.5c2,0.3,3.6-0.1,4.8-1.3c1.2-1.2,2-3.1,2.4-5.7
								c0.4-2.6,0.3-4.7-0.4-6.2c-0.7-1.5-2.1-2.5-4.1-2.8c-2-0.3-3.7,0.1-4.9,1.3c-1.2,1.2-2,3.1-2.5,5.7c-0.4,2.6-0.3,4.6,0.5,6.2
								C673.2,373.2,674.5,374.2,676.6,374.5z"/>
							<path class="st23" d="M715.6,364.9l-8.6-1.5l-3.3,19.8l-5.8-1l3.3-19.8l-8.6-1.5l0.7-4.3l23,3.9L715.6,364.9z"/>
							<path class="st23" d="M729.3,362.8c1.5,0.3,2.8,0.6,3.9,1.1c1.1,0.5,1.9,1,2.5,1.7s1.1,1.3,1.3,2.1c0.2,0.8,0.3,1.6,0.1,2.4
								c-0.1,0.5-0.2,1-0.5,1.6c-0.2,0.5-0.6,1-1,1.5c-0.4,0.5-1,0.9-1.6,1.2c-0.7,0.3-1.4,0.5-2.4,0.6c0.8,0.3,1.5,0.7,2.1,1.1
								c0.6,0.4,1.1,0.9,1.5,1.4c0.4,0.5,0.7,1.1,0.8,1.8c0.2,0.7,0.2,1.4,0,2.1c-0.2,1.2-0.6,2.2-1.3,3c-0.7,0.8-1.5,1.4-2.4,1.9
								c-1,0.4-2,0.7-3.2,0.8c-1.2,0.1-2.4,0-3.6-0.2l-9.9-1.7l4.1-24.2L729.3,362.8z M726.3,383c1.2,0.2,2.2,0.1,3.1-0.4
								c0.8-0.5,1.3-1.2,1.5-2.3c0.1-0.4,0.1-0.9,0-1.3c-0.1-0.4-0.2-0.8-0.5-1.1c-0.3-0.3-0.6-0.6-1.1-0.9
								c-0.5-0.2-1.1-0.4-1.9-0.6l-4.4-0.7l-1.1,6.5L726.3,383z M724.7,365.9l-1.1,6.3l3.8,0.6c0.6,0.1,1.1,0.1,1.6,0
								s0.9-0.3,1.3-0.5c0.4-0.2,0.7-0.6,1-0.9s0.4-0.8,0.5-1.3c0.1-0.4,0.1-0.7,0-1.1c-0.1-0.4-0.2-0.7-0.5-1
								c-0.3-0.3-0.6-0.6-1.1-0.9s-1.1-0.4-1.8-0.6L724.7,365.9z"/>
							<path class="st23" d="M745.8,378.8c-0.1,1.3-0.1,2.4,0.1,3.3c0.2,1,0.5,1.8,1,2.5c0.5,0.7,1.1,1.2,1.8,1.7s1.6,0.7,2.5,0.9
								c0.9,0.2,1.8,0.2,2.5,0.1c0.7-0.1,1.4-0.2,1.9-0.4c0.6-0.2,1-0.3,1.5-0.5c0.4-0.2,0.8-0.2,1.2-0.1c0.5,0.1,0.8,0.3,1,0.7
								l1.3,2.4c-0.8,0.6-1.6,1.2-2.5,1.5c-0.9,0.4-1.8,0.6-2.7,0.8c-0.9,0.2-1.8,0.2-2.8,0.2c-0.9,0-1.8-0.1-2.7-0.3
								c-1.7-0.3-3.2-0.8-4.5-1.6c-1.4-0.8-2.5-1.8-3.3-3.1c-0.9-1.3-1.5-2.8-1.8-4.5c-0.3-1.7-0.3-3.6,0-5.7
								c0.3-1.6,0.8-3.2,1.6-4.5c0.8-1.4,1.8-2.5,2.9-3.4c1.2-0.9,2.5-1.6,4.1-1.9c1.5-0.4,3.2-0.4,5-0.1c1.5,0.3,2.9,0.7,4.1,1.4
								s2.2,1.6,3,2.7c0.8,1.1,1.3,2.4,1.6,3.8c0.3,1.4,0.3,3,0,4.8c-0.1,0.9-0.3,1.5-0.6,1.7c-0.2,0.3-0.6,0.4-1.2,0.3L745.8,378.8
								z M757.5,377.1c0.1-0.8,0.1-1.5,0-2.2c-0.1-0.7-0.3-1.3-0.7-1.9c-0.3-0.6-0.8-1.1-1.4-1.5c-0.6-0.4-1.3-0.7-2.2-0.8
								c-1.7-0.3-3.1,0-4.2,0.8c-1.1,0.8-2,2-2.5,3.8L757.5,377.1z"/>
							<path class="st23" d="M788.4,377.2l-8.6-1.5l-3.3,19.8l-5.8-1l3.3-19.8l-8.6-1.4l0.7-4.3l23,3.9L788.4,377.2z"/>
						</g>
					</g>
					<g>
						<g>
							<path class="st24" d="M690.8,205.9c0-12.3,3.6-30.1,22.3-30.1s22.3,17.8,22.3,30.1c0,12.3-10.5,12.8-22.8,12.8
								C700.3,218.6,690.8,218.2,690.8,205.9z"/>
							<path class="st24" d="M763.8,205.9c0-12.3,3.5-30.1,22.3-30.1s22.3,17.8,22.3,30.1c0,12.3-10.5,12.8-22.8,12.8
								C773.4,218.6,763.8,218.2,763.8,205.9z"/>
						</g>
						<path class="st17" d="M763.3,214.1c0,7.4-12,24.8-13.6,27.1c-0.1,0.2-0.2,0.3-0.2,0.3s-13.1-19.6-13.1-27.4
							c0-5.9,7.2-10,12.6-10.2h0.1C754.6,203.6,763.3,206.4,763.3,214.1z"/>
						<path class="st18" d="M749.5,241.5c1.1-12.5,1.1-25.2-0.3-37.6c5.5-0.2,14.1,2.5,14.1,10.2
							C763.3,221.5,751.2,239.1,749.5,241.5L749.5,241.5z"/>
						<path class="st25" d="M698.8,205.3c0-9,6.2-16.3,13.9-16.3s13.9,7.3,13.9,16.3s-6.4,13.4-14.1,13.4S698.8,214.3,698.8,205.3
							L698.8,205.3z"/>
						<path class="st25" d="M772.6,205.3c0-9,6.2-16.3,13.9-16.3s13.9,7.3,13.9,16.3s-5.8,13.4-13.5,13.4S772.6,214.3,772.6,205.3z"
							/>
						
							<ellipse transform="matrix(0.7071 -0.7071 0.7071 0.7071 67.3528 559.1556)" class="st24" cx="708.6" cy="198.3" rx="4.9" ry="4.2"/>
					</g>
					
						<ellipse transform="matrix(0.7071 -0.7071 0.7071 0.7071 87.8995 611.7888)" class="st24" cx="782.4" cy="199.8" rx="4.9" ry="4.2"/>
					<path class="st19" d="M775.3,291.9c4.9,55.1,35.9,99.6,35.9,99.6l10.6-9.4c8.7,28.2,23,44.4,48.3,56
						c0-56.2-1.5-150.3-18.3-173.5c-4.4-6.2-15-8.5-22.1-8.9C808.4,254.5,772.5,260.9,775.3,291.9L775.3,291.9z"/>
					<path class="st20" d="M777.7,280.1c22-19.5,48.8-19.6,58.4-9.3c23.7,25.6,27.3,162.5,27.3,162.5s4.3,5.6,7.1,6.1
						c1.6-48.2-2-96.2-7.4-144.2c-1-9.3-4.5-23.1-10.1-30.6c-6.8-9-19.4-10.4-30.8-9.9C810.9,255.3,786.7,261.5,777.7,280.1
						L777.7,280.1z"/>
					<g>
						<path class="st26" d="M666.6,138.1c2.9,4.9,5.3,10.1,7.2,15.4"/>
						<path class="st26" d="M828.5,139.1c-2.9,4.4-4.9,9.4-6,14.5"/>
						<g>
							<path class="st27" d="M798.6,293.3c2,4.4,4.9,8.5,8.4,11.9c3.3-3.6,6.6-7.3,10-10.9"/>
							<path class="st27" d="M832.3,330.3c2.8,3.5,5.5,6.9,9.4,10.2c2-3.5,3.9-6.9,5.9-10.4"/>
							<path class="st27" d="M836.4,382.2c0,0,4.9,6.1,8,9.8l6.4-12.9"/>
							<path class="st27" d="M777.2,280.6c-4.3,19.4-0.9,39.9,6.2,58.6c7.1,18.6,17.8,35.6,28.9,51.9c2.9-2.6,5.6-5.2,7.8-7.4
								c8.3,23.7,26.2,44,48.7,55.1"/>
						</g>
					</g>
				</g>
			</g>
			<path class="st27" d="M726.8,217.5c0,0,23.9-37,44.1,0"/>
			<g>
				<polygon class="st28" points="769.1,233.4 797.5,210.3 805.2,216.8 775,243.3 				"/>
				<polygon class="st28" points="778.9,246.1 807.3,222.9 808.4,228.4 785.6,248.2 				"/>
				<circle class="st28" cx="788.6" cy="228.4" r="19.7"/>
				<circle class="st29" cx="788.6" cy="228.4" r="20.2"/>
			</g>
			<g>
				<polygon class="st28" points="688.6,233.4 717,210.3 724.6,216.8 694.5,243.3 				"/>
				<polygon class="st28" points="698.4,246.1 726.8,222.9 727.9,228.4 705.1,248.2 				"/>
				<circle class="st28" cx="708.1" cy="228.4" r="19.7"/>
				<circle class="st29" cx="708.1" cy="228.4" r="20.2"/>
			</g>
			<path class="st30" d="M590.6,340.7c1.5-2.5,0.6-5.8-2-7.2L384.1,224.1c-1.4-0.7-3-0.3-3.9,1l0,0c-0.8,1.4-0.4,3.2,1,4
				l202.3,113.4C586.1,343.9,589.2,343.1,590.6,340.7L590.6,340.7z"/>
		</g>
		<g>
			<polygon class="st31" points="907.5,588.6 60.9,588.6 110.8,487.5 866.7,487.5 			"/>
			<rect x="60.9" y="588.6" class="st32" width="846.6" height="39.6"/>
			<rect x="149.6" y="659.8" class="st33" width="179" height="29.8"/>
			<polygon class="st33" points="191.5,728.8 171.8,728.8 192.1,685.4 211.8,685.4 			"/>
			<polygon class="st33" points="276.9,728.8 296.6,728.8 276.3,685.4 256.6,685.4 			"/>
			<g>
				<g>
					<g>
						<path class="st17" d="M288.7,703.6L288.7,703.6c3-0.1,5.4-2.6,5.4-5.7l-1.2-44.1c-0.1-3-2.6-5.4-5.7-5.4l0,0
							c-3,0.1-5.4,2.6-5.4,5.7l1.2,44.1C283.1,701.2,285.7,703.6,288.7,703.6z"/>
						<path class="st17" d="M287.8,668.9c0,0,0.8,6.1,4.5,12.4c1.3-0.5,2.7-0.9,4.2-0.9c3.6-0.1,6.7,1.7,9.2,4
							c1.6,1.4,2.4,3.7,2.8,5.6c0.6,2.7,2.9,4.7,5.7,4.9c0,0,0.1,0,0.1,0c4.5,0.3,7.9-4,6.5-8.2C318.3,679,310.7,668.3,287.8,668.9z
							"/>
						<path class="st17" d="M288.9,668.9c0,0-0.5,6.1-3.8,12.6c-1.3-0.5-2.7-0.7-4.2-0.7c-3.6,0.1-6.6,2.1-9,4.5
							c-1.5,1.5-2.2,3.8-2.5,5.8c-0.4,2.8-2.7,4.9-5.4,5.2c0,0-0.1,0-0.1,0c-4.4,0.6-8.1-3.5-7-7.9
							C258.9,680.6,265.9,669.5,288.9,668.9z"/>
					</g>
					<g>
						<path class="st17" d="M216.9,707.6L216.9,707.6c3-0.1,5.4-2.6,5.4-5.7l-1.2-44.1c-0.1-3-2.6-5.4-5.7-5.4v0
							c-3,0.1-5.4,2.6-5.4,5.7l1.2,44.1C211.4,705.3,213.9,707.7,216.9,707.6z"/>
						<path class="st17" d="M216,673c0,0,0.8,6.1,4.5,12.4c1.3-0.5,2.7-0.9,4.2-0.9c3.6-0.1,6.7,1.7,9.2,4c1.6,1.4,2.4,3.7,2.8,5.6
							c0.6,2.7,2.9,4.7,5.7,4.9c0,0,0.1,0,0.1,0c4.5,0.3,7.9-4,6.5-8.2C246.6,683,238.9,672.4,216,673z"/>
						<path class="st17" d="M217.1,672.9c0,0-0.5,6.1-3.8,12.6c-1.3-0.5-2.7-0.7-4.2-0.7c-3.6,0.1-6.6,2.1-9,4.5
							c-1.5,1.5-2.2,3.8-2.5,5.8c-0.4,2.8-2.7,4.9-5.4,5.2c0,0-0.1,0-0.1,0c-4.4,0.6-8.1-3.5-7-7.9
							C187.1,684.7,194.1,673.6,217.1,672.9z"/>
					</g>
					<path class="st19" d="M384.8,545.6c-36.6-10.6-70.8-3.4-76.5,16s19.4,43.9,56,54.5s76.5-16,76.5-16S421.4,556.3,384.8,545.6z"
						/>
					<path class="st19" d="M385.4,540c-36.2-11.9-70.6-5.9-77,13.4c-6.3,19.3,17.9,44.5,54,56.4c36.2,11.9,77-13.4,77-13.4
						S421.6,551.8,385.4,540z"/>
					<path class="st20" d="M175.5,562.1c-10.7,17.3-45.6,15-78-5c-29-17.9-37.6-57.9-39.1-66c-0.2-0.9-0.2-1.5-0.2-1.5s45.6-15,78,5
						c18.3,11.3,31.8,25.8,38.3,39.4C179.4,544.5,180.1,554.5,175.5,562.1z"/>
					<path class="st19" d="M150.4,530.2c-0.6,3.7-3.7,26.8-3.4,26.8c-8.7,0-17.7-0.8-26.1-3.4c-9.7-3-19-7.4-27.7-12.7
						c-19.6-12.1-29.8-34.2-34.9-49.8c-0.2-0.9-0.2-1.5-0.2-1.5s45.6-15,78,5c5.6,3.4,10.9,7.3,15.8,11.5c1.3,1.1,3,1.8,3.3,3.5
						c0.3,1.6-1.4,4.9-1.8,6.5c-1.2,4.5-2.2,9.1-3,13.7C150.5,529.9,150.5,530,150.4,530.2z"/>
					<path class="st20" d="M351.5,575.8L351.5,575.8c0,0-0.3,1.2-1,3.3c-0.2,0.6-0.4,1.2-0.6,1.9c-0.1,0.2-0.1,0.4-0.2,0.6
						c-1.2,3.4-2.6,6.7-4.1,9.9c-15.4,33.6-64.4,107.1-191,77.8l-0.4-16.1l-2.8-103.9c0,0,0,0,0,0l-0.1-3.1h0
						c-0.8-74.1,44.1-92.3,99.7-93.9c29-0.8,55.3,2.7,74.3,16.8c18,13.4,29.5,36.5,30.6,74.6C356.1,554.6,354.6,565.5,351.5,575.8z"
						/>
					<path class="st19" d="M345.6,546.7c-1.1,11-4,21.5-8.4,31.4h0c0,0-0.5,1.1-1.4,3.1c-0.3,0.6-0.6,1.2-0.9,1.8
						c-0.1,0.2-0.2,0.4-0.3,0.5c-1.6,3.2-3.4,6.3-5.4,9.3c-18.3,29.1-69.9,88.8-175.2,60.3l-2.8-103.9c0,0,0,0,0,0l-0.1-3.1h0
						c-0.8-74.1,44.1-92.3,99.7-93.9c29-0.8,55.3,2.7,74.3,16.8C341.2,484.6,349.5,508.9,345.6,546.7z"/>
					<g>
						<path class="st19" d="M343.7,506.1c0,0,12.6-10.4,1.1-43.4c-1.1-3.1-5-4.1-7.4-1.8l-29.8,28.3L343.7,506.1z"/>
					</g>
					<g>
						<path class="st19" d="M162.8,511c0,0-13.1-9.7-3.5-43.3c0.9-3.2,4.8-4.4,7.3-2.2l31.3,26.6L162.8,511z"/>
					</g>
					<path class="st34" d="M363.5,600.5l8.2-2.7c3.4-1.1,4.2-5.5,1.5-7.8l-0.8-0.7"/>
					<path class="st34" d="M130.4,511.3l-12.2-4.6c-1.5-0.6-3.1,0.8-2.8,2.4l1.1,5.4"/>
					<path class="st34" d="M383.9,572.5c-0.1,0.1,3.4-0.1,5.9-0.2c1.1-0.1,1.6-1.3,0.9-2.1l-8.9-10.4"/>
					<path class="st34" d="M118.1,531.6c0.1-0.1-3.3-0.6-5.8-1c-1.1-0.2-1.8,1-1.3,1.9l6.6,12"/>
				</g>
				<path class="st33" d="M300.3,637.1H137.5c-7.8,0-14.1-6.3-14.1-14.1v-45.6c0-7.8,6.3-14.1,14.1-14.1h162.8
					c7.8,0,14.1,6.3,14.1,14.1V623C314.4,630.8,308.1,637.1,300.3,637.1z"/>
				<path class="st35" d="M299.4,637H137.1c-7.4,0-13.3-6-13.3-13.3v-43.3c0-6.4,5.2-11.6,11.6-11.6h162.8c5.4,0,9.7,4.3,9.7,9.7
					v50.1C307.9,633.2,304.1,637,299.4,637z"/>
				<circle class="st36" cx="148.1" cy="596.2" r="5.8"/>
				<circle class="st36" cx="273.9" cy="596.2" r="5.8"/>
				<path class="st34" d="M354,523.1c0,0,8.4,54.7-40.9,114"/>
				<rect x="153.9" y="637" class="st37" width="17.9" height="9.5"/>
				<rect x="263.8" y="637" class="st37" width="17.9" height="9.5"/>
			</g>
			<g>
				<g>
					<g>
						<path class="st17" d="M751.2,703.6L751.2,703.6c3-0.1,5.4-2.6,5.4-5.7l-1.2-44.1c-0.1-3-2.6-5.4-5.7-5.4l0,0
							c-3,0.1-5.4,2.6-5.4,5.7l1.2,44.1C745.7,701.2,748.2,703.6,751.2,703.6z"/>
						<path class="st17" d="M750.3,668.9c0,0,0.8,6.1,4.5,12.4c1.3-0.5,2.7-0.9,4.2-0.9c3.6-0.1,6.7,1.7,9.2,4
							c1.6,1.4,2.4,3.7,2.8,5.6c0.6,2.7,2.9,4.7,5.7,4.9c0,0,0.1,0,0.1,0c4.5,0.3,7.9-4,6.5-8.2C780.8,679,773.2,668.3,750.3,668.9z
							"/>
						<path class="st17" d="M751.4,668.9c0,0-0.5,6.1-3.8,12.6c-1.3-0.5-2.7-0.7-4.2-0.7c-3.6,0.1-6.6,2.1-9,4.5
							c-1.5,1.5-2.2,3.8-2.5,5.8c-0.4,2.8-2.7,4.9-5.4,5.2c0,0-0.1,0-0.1,0c-4.4,0.6-8.1-3.5-7-7.9
							C721.4,680.6,728.4,669.5,751.4,668.9z"/>
					</g>
					<g>
						<path class="st17" d="M679.4,707.6L679.4,707.6c3-0.1,5.4-2.6,5.4-5.7l-1.2-44.1c-0.1-3-2.6-5.4-5.7-5.4v0
							c-3,0.1-5.4,2.6-5.4,5.7l1.2,44.1C673.9,705.3,676.4,707.7,679.4,707.6z"/>
						<path class="st17" d="M678.5,673c0,0,0.8,6.1,4.5,12.4c1.3-0.5,2.7-0.9,4.2-0.9c3.6-0.1,6.7,1.7,9.2,4
							c1.6,1.4,2.4,3.7,2.8,5.6c0.6,2.7,2.9,4.7,5.7,4.9c0,0,0.1,0,0.1,0c4.5,0.3,7.9-4,6.5-8.2C709.1,683,701.4,672.4,678.5,673z"
							/>
						<path class="st17" d="M679.6,672.9c0,0-0.5,6.1-3.8,12.6c-1.3-0.5-2.7-0.7-4.2-0.7c-3.6,0.1-6.6,2.1-9,4.5
							c-1.5,1.5-2.2,3.8-2.5,5.8c-0.4,2.8-2.7,4.9-5.4,5.2c0,0-0.1,0-0.1,0c-4.4,0.6-8.1-3.5-7-7.9
							C649.6,684.7,656.6,673.6,679.6,672.9z"/>
					</g>
					<path class="st19" d="M847.4,545.6c-36.6-10.6-70.8-3.4-76.5,16c-5.7,19.5,19.4,43.9,56,54.5c36.6,10.6,76.5-16,76.5-16
						S883.9,556.3,847.4,545.6z"/>
					<path class="st19" d="M847.9,540c-36.2-11.9-70.6-5.9-77,13.4c-6.3,19.3,17.9,44.5,54,56.4c36.2,11.9,77-13.4,77-13.4
						S884.1,551.8,847.9,540z"/>
					<path class="st20" d="M660.8,548c8.3,18.5-13.2,46.2-47.9,61.7c-31.1,13.9-69-1.4-76.6-4.7c-0.9-0.4-1.3-0.6-1.3-0.6
						s13.2-46.2,47.9-61.7c19.6-8.8,39.2-11.9,54.1-9.5C648.5,534.9,657.1,539.9,660.8,548z"/>
					<path class="st19" d="M620.4,550.8c2.8,2.6,20.1,18.1,20.3,17.9c-4.9,7.2-10.6,14.1-17.5,19.6c-7.9,6.4-16.8,11.6-26.1,15.7
						c-21,9.4-45.1,5.5-60.8,0.9c-0.9-0.4-1.3-0.6-1.3-0.6s13.2-46.2,47.9-61.7c6-2.7,12.1-4.9,18.4-6.6c1.7-0.5,3.2-1.5,4.8-0.8
						c1.5,0.6,3.3,3.9,4.4,5.1c3.1,3.5,6.3,6.9,9.6,10.2C620.2,550.7,620.2,550.7,620.4,550.8z"/>
					<path class="st20" d="M814,575.8L814,575.8c0,0-0.3,1.2-1,3.3c-0.2,0.6-0.4,1.2-0.6,1.9c-0.1,0.2-0.1,0.4-0.2,0.6
						c-1.2,3.4-2.6,6.7-4.1,9.9c-15.4,33.6-64.4,107.1-191,77.8l-0.4-16.1l-2.8-103.9c0,0,0,0,0,0l-0.1-3.1h0
						c-0.8-74.1,44.1-92.3,99.7-93.9c29-0.8,55.3,2.7,74.3,16.8c18,13.4,29.5,36.5,30.6,74.6C818.6,554.6,817.1,565.5,814,575.8z"/>
					<path class="st19" d="M808.1,546.7c-1.1,11-4,21.5-8.4,31.4h0c0,0-0.5,1.1-1.4,3.1c-0.3,0.6-0.6,1.2-0.9,1.8
						c-0.1,0.2-0.2,0.4-0.3,0.5c-1.6,3.2-3.4,6.3-5.4,9.3c-18.3,29.1-69.9,88.8-175.2,60.3l-2.8-103.9c0,0,0,0,0,0l-0.1-3.1h0
						c-0.8-74.1,44.1-92.3,99.7-93.9c29-0.8,55.3,2.7,74.3,16.8C803.7,484.6,812,508.9,808.1,546.7z"/>
					<g>
						<path class="st19" d="M806.2,506.1c0,0,12.6-10.4,1.1-43.4c-1.1-3.1-5-4.1-7.4-1.8l-29.8,28.3L806.2,506.1z"/>
					</g>
					<g>
						<path class="st19" d="M625.3,511c0,0-13.1-9.7-3.5-43.3c0.9-3.2,4.8-4.4,7.3-2.2l31.3,26.6L625.3,511z"/>
					</g>
					<path class="st34" d="M826,600.5l8.2-2.7c3.4-1.1,4.2-5.5,1.5-7.8l-0.8-0.7"/>
					<path class="st34" d="M593.4,556.8l-10.7,7.5c-1.3,0.9-1.1,3,0.4,3.6l5,2.1"/>
					<path class="st34" d="M846.4,572.5c-0.1,0.1,3.4-0.1,5.9-0.2c1.1-0.1,1.6-1.3,0.9-2.1l-8.9-10.4"/>
					<path class="st34" d="M603.4,578.4c0-0.1-2.4,2.4-4.1,4.3c-0.7,0.8-0.2,2.1,0.8,2.2l13.6,1.3"/>
				</g>
				<path class="st33" d="M762.8,637.1H600c-7.8,0-14.1-6.3-14.1-14.1v-45.6c0-7.8,6.3-14.1,14.1-14.1h162.8
					c7.8,0,14.1,6.3,14.1,14.1V623C776.9,630.8,770.6,637.1,762.8,637.1z"/>
				<path class="st35" d="M760.6,637H598.3c-7.4,0-13.3-6-13.3-13.3v-43.3c0-6.4,5.2-11.6,11.6-11.6h162.8c5.4,0,9.7,4.3,9.7,9.7
					v50.1C769.1,633.2,765.3,637,760.6,637z"/>
				<circle class="st36" cx="610.6" cy="596.2" r="5.8"/>
				<circle class="st36" cx="736.4" cy="596.2" r="5.8"/>
				<path class="st34" d="M816.5,523.1c0,0,8.4,54.7-40.9,114"/>
				<rect x="616.4" y="637" class="st37" width="17.9" height="9.5"/>
				<rect x="726.3" y="637" class="st37" width="17.9" height="9.5"/>
				<path class="st20" d="M807.3,462.7c0,0,0.2,31.4-10.3,44.2c0,0,1.8,8.1,9.2-0.7C813.5,497.2,814.4,477.1,807.3,462.7z"/>
				<path class="st20" d="M629,465.5c0,0,18.7,14.4,26.4,24.8c1.2,1.7,0.7,4.1-1.1,5l0,0c-2.8,1.5-6.2,0.1-7.1-3
					C645.1,485.3,640.1,473.4,629,465.5z"/>
			</g>
			<rect x="59.7" y="747.3" class="st32" width="846.6" height="39.6"/>
			<polygon class="st31" points="907.5,747.5 60.9,747.5 110.8,646.5 866.7,646.5 			"/>
			<g>
				<g>
					<path class="st19" d="M595.2,719.1c-36.6-10.6-70.8-3.4-76.5,16c-5.7,19.5,19.4,43.9,56,54.5c36.6,10.6,76.5-16,76.5-16
						S631.7,729.8,595.2,719.1z"/>
					<path class="st19" d="M595.7,713.5c-36.2-11.9-70.6-5.9-77,13.4c-6.3,19.3,17.9,44.5,54,56.4c36.2,11.9,77-13.4,77-13.4
						S631.9,725.4,595.7,713.5z"/>
					<path class="st20" d="M393.1,708.9c8.9,18.2-11.5,46.6-45.7,63.4c-30.6,15-69,1.1-76.7-2c-0.9-0.4-1.4-0.6-1.4-0.6
						s11.5-46.6,45.7-63.4c19.3-9.5,38.8-13.2,53.7-11.5C380.3,696.3,389.1,701,393.1,708.9z"/>
					<path class="st19" d="M357.5,712.4c0.4,2.5,0.6,5,0.8,7.5c0.7,8.8,0.9,17.7-1.5,26.2c-0.7,2.6-1.7,5.3-3.4,7.4
						c-1.4,1.8-4.1,3-6,4.3c-5.1,3.5-10.5,6.6-16.1,9.4c-20.6,10.1-44.8,7.1-60.8,3.1c-0.9-0.4-1.4-0.6-1.4-0.6s11.5-46.6,45.7-63.4
						c8.1-4,16.4-6.8,25-9.1c2.4-0.6,4.8-1.2,7.2-0.7c3.8,0.8,6.5,4.3,8,7.8C356.3,707,357,709.7,357.5,712.4z"/>
					<path class="st20" d="M561.8,749.3L561.8,749.3c0,0-0.3,1.2-1,3.3c-0.2,0.6-0.4,1.2-0.6,1.9c-0.1,0.2-0.1,0.4-0.2,0.6
						c-1.2,3.4-2.6,6.7-4.1,9.9c-15.4,33.6-64.4,107.1-191,77.8l-0.4-16.1l-2.8-103.9c0,0,0,0,0,0l-0.1-3.1h0
						c-0.8-74.1,44.1-92.3,99.7-93.9c29-0.8,55.3,2.7,74.3,16.8c18,13.4,29.5,36.5,30.6,74.6C566.4,728.1,564.9,739,561.8,749.3z"/>
					<path class="st19" d="M555.9,720.2c-1.1,11-4,21.5-8.4,31.4h0c0,0-0.5,1.1-1.4,3.1c-0.3,0.6-0.6,1.2-0.9,1.8
						c-0.1,0.2-0.2,0.4-0.3,0.5c-1.6,3.2-3.4,6.3-5.4,9.3c-18.3,29.1-69.9,88.8-175.2,60.3l-2.8-103.9c0,0,0,0,0,0l-0.1-3.1h0
						c-0.8-74.1,44.1-92.3,99.7-93.9c29-0.8,55.3,2.7,74.3,16.8C551.5,658.1,559.8,682.4,555.9,720.2z"/>
					<g>
						<path class="st19" d="M554.1,679.6c0,0,12.6-10.4,1.1-43.4c-1.1-3.1-5-4.1-7.4-1.8l-29.8,28.3L554.1,679.6z"/>
					</g>
					<g>
						<path class="st19" d="M373.1,684.5c0,0-13.1-9.7-3.5-43.3c0.9-3.2,4.8-4.4,7.3-2.2l31.3,26.6L373.1,684.5z"/>
					</g>
					<path class="st34" d="M573.8,774l8.2-2.7c3.4-1.1,4.2-5.5,1.5-7.8l-0.8-0.7"/>
					<path class="st34" d="M326.1,720.1l-10.4,7.9c-1.3,1-1,3,0.5,3.6l5.1,1.9"/>
					<path class="st34" d="M594.3,746.1c-0.1,0.1,3.4-0.1,5.9-0.2c1.1-0.1,1.6-1.3,0.9-2.1l-8.9-10.4"/>
					<path class="st34" d="M336.8,741.3c0-0.1-2.3,2.5-3.9,4.4c-0.7,0.8-0.2,2.1,0.9,2.1l13.7,0.8"/>
					<path class="st20" d="M555.7,637c0,0,0.2,31.4-10.3,44.2c0,0,1.8,8.1,9.2-0.7C562,671.5,562.9,651.4,555.7,637z"/>
					<path class="st20" d="M377.5,639.8c0,0,18.7,14.4,26.4,24.8c1.2,1.7,0.7,4.1-1.1,5l0,0c-2.8,1.5-6.2,0.1-7.1-3
						C393.6,659.6,388.6,647.8,377.5,639.8z"/>
				</g>
				<path class="st33" d="M510.6,810.6H347.8c-7.8,0-14.1-6.3-14.1-14.1v-45.6c0-7.8,6.3-14.1,14.1-14.1h162.8
					c7.8,0,14.1,6.3,14.1,14.1v45.6C524.7,804.3,518.4,810.6,510.6,810.6z"/>
				<path class="st35" d="M509.7,810.5H347.4c-7.4,0-13.3-6-13.3-13.3v-43.3c0-6.4,5.2-11.6,11.6-11.6h162.8c5.4,0,9.7,4.3,9.7,9.7
					V802C518.2,806.7,514.4,810.5,509.7,810.5z"/>
				<circle class="st36" cx="358.4" cy="769.7" r="5.8"/>
				<circle class="st36" cx="484.2" cy="769.7" r="5.8"/>
				<path class="st34" d="M564.4,696.6c0,0,8.4,54.7-40.9,114"/>
				<rect x="364.2" y="810.5" class="st37" width="17.9" height="9.5"/>
				<rect x="474.1" y="810.5" class="st37" width="17.9" height="19.4"/>
			</g>
			<path class="st20" d="M344.8,462.7c0,0,0.2,31.4-10.3,44.2c0,0,1.8,8.1,9.2-0.7C351.1,497.2,352,477.1,344.8,462.7z"/>
			<path class="st20" d="M166.6,465.5c0,0,18.7,14.4,26.4,24.8c1.2,1.7,0.7,4.1-1.1,5h0c-2.8,1.5-6.2,0.1-7.1-3
				C182.7,485.3,177.7,473.4,166.6,465.5z"/>
			<g>
				<ellipse class="st24" cx="180.2" cy="366.1" rx="92" ry="66.8"/>
				<polygon class="st24" points="208.6,412.4 250.9,452.9 239.8,387.7 				"/>
			</g>
			<ellipse class="st24" cx="474.2" cy="440.1" rx="111.6" ry="72"/>
			<polygon class="st24" points="462.6,487.4 466.1,604.7 505,485 			"/>
		</g>
	</g>
</g>
</svg>
