<?xml version="1.0" encoding="utf-8"?>
<!-- Generator: Adobe Illustrator 25.4.1, SVG Export Plug-In . SVG Version: 6.00 Build 0)  -->
<svg version="1.1" id="a" xmlns="http://www.w3.org/2000/svg" xmlns:xlink="http://www.w3.org/1999/xlink" x="0px" y="0px"
	 viewBox="0 0 1021.8 788.1" style="enable-background:new 0 0 1021.8 788.1;" xml:space="preserve">
<style type="text/css">
	.st0{fill:#FAC176;}
	.st1{clip-path:url(#SVGID_00000136396157864776222790000008750628919428576677_);}
	.st2{fill-rule:evenodd;clip-rule:evenodd;fill:#E8B170;}
	.st3{fill:#CE8046;}
	.st4{fill:#BFCEF8;}
	.st5{clip-path:url(#SVGID_00000102510600176506249090000005659697157631969669_);}
	.st6{fill:#664323;}
	.st7{fill:#4E8927;}
	.st8{clip-path:url(#SVGID_00000163072670501989027610000001998134248767930810_);}
	.st9{opacity:0.24;fill:#FFFFFF;}
	.st10{fill:#635BFF;}
	.st11{opacity:0.15;fill:#FFFFFF;enable-background:new    ;}
	.st12{fill:#FFFFFF;stroke:#33305E;stroke-width:6.5572;stroke-linecap:round;stroke-linejoin:round;}
	.st13{fill:#FFFFFF;}
	.st14{fill:#33305E;stroke:#33305E;stroke-width:0.882;stroke-miterlimit:10;}
	.st15{fill:#FFCD70;}
	.st16{fill:#F5B062;}
	.st17{fill:none;stroke:#635BFF;stroke-width:6.5572;stroke-linecap:round;stroke-linejoin:round;}
	.st18{fill:#F99569;}
	.st19{fill:#E88360;}
	.st20{fill:#F7F484;}
	.st21{fill:#CC2E2C;}
	.st22{fill:#FFFBF0;}
	.st23{fill:#15334E;}
	.st24{fill:#9A9AED;}
	.st25{fill:#FFFFFF;stroke:#33305E;stroke-width:6.7945;stroke-linecap:round;stroke-linejoin:round;}
	.st26{fill:#33305E;stroke:#33305E;stroke-width:0.914;stroke-miterlimit:10;}
	.st27{fill:none;stroke:#635BFF;stroke-width:7.0276;stroke-linecap:round;stroke-linejoin:round;}
	.st28{fill:none;stroke:#635BFF;stroke-width:6.7945;stroke-linecap:round;stroke-linejoin:round;}
	.st29{fill-rule:evenodd;clip-rule:evenodd;fill:#C66D4E;}
	.st30{fill-rule:evenodd;clip-rule:evenodd;fill:#A3523D;}
	.st31{fill:#AD2121;}
	.st32{clip-path:url(#SVGID_00000158741040590394654270000010678070030067703717_);}
	.st33{fill:#CEEE4D;}
	.st34{fill:#9EC724;}
	.st35{fill:#7171C6;}
</style>
<path class="st0" d="M11.5,379.2c-5.6,33.7-5.6,69-0.9,103.1c14,102.1,82.4,191.5,173.9,237.4c62.6,31.4,132.3,46.4,201.9,54.1
	c181.3,19.9,551.9-23.9,613.9-224.2c4.6-15,8-30.4,10.1-46c10.1-75.5,2.2-155.2-34.4-222c-21.8-39.7-55.3-68.3-92.6-93.7
	c-15.2-10.4-112-39.1-112-39c-22.2-42.2-60.9-74.1-103.9-94.5C624.4,34,576.9,24.5,529.6,19.3c-72.9-7.9-147.8-5.7-217.7,16.5
	s-134.4,65.7-173.5,127.7c-8.3,13.1-15.5,27.4-17.1,42.8c-0.4,3.6-0.5,7.2-1.8,10.5c-2.5,6.1-8.6,9.8-14.2,13.3
	C49.1,265.4,22,316.1,11.5,379.2z"/>
<g>
	<defs>
		<path id="SVGID_1_" d="M11.5,379.2c-5.6,33.7-5.6,69-0.9,103.1c14,102.1,82.4,191.5,173.9,237.4c62.6,31.4,132.3,46.4,201.9,54.1
			c181.3,19.9,551.9-23.9,613.9-224.2c4.6-15,8-30.4,10.1-46c10.1-75.5,2.6-155.4-34.4-222c-66.4-119.3-204.7-132.7-204.6-132.7
			c-22.2-42.2-60.9-74.1-103.9-94.5C624.4,34,576.9,24.5,529.6,19.3c-72.9-7.9-147.8-5.7-217.7,16.5s-134.4,65.7-173.5,127.7
			c-8.3,13.1-15.5,27.4-17.1,42.8c-0.4,3.6-0.5,7.2-1.8,10.5c-2.5,6.1-8.6,9.8-14.2,13.3C49.1,265.4,22,316.1,11.5,379.2z"/>
	</defs>
	<clipPath id="SVGID_00000050625061642449889860000009464834107294087347_">
		<use xlink:href="#SVGID_1_"  style="overflow:visible;"/>
	</clipPath>
	<g style="clip-path:url(#SVGID_00000050625061642449889860000009464834107294087347_);">
		<g>
			<rect x="-89.8" y="503.7" class="st2" width="1149.9" height="9.5"/>
			<rect x="-89.8" y="425" class="st2" width="1149.9" height="9.5"/>
			<rect x="-89.8" y="346.3" class="st2" width="1149.9" height="9.5"/>
			<rect x="-89.8" y="267.7" class="st2" width="1149.9" height="9.5"/>
			<rect x="-89.8" y="189" class="st2" width="996" height="9.5"/>
			<rect x="-89.8" y="100.1" class="st2" width="996" height="9.5"/>
		</g>
		<g>
			<path class="st3" d="M400.9,402H74.2c-12.4,0-22.6-10.2-22.6-22.6V52.7c0-12.4,10.2-22.6,22.6-22.6h326.7
				c12.4,0,22.6,10.2,22.6,22.6v326.7C423.5,391.8,413.4,402,400.9,402z"/>
			<path class="st4" d="M385.3,384.2H89.8c-11.2,0-20.4-9.2-20.4-20.4V68.3c0-11.2,9.2-20.4,20.4-20.4h295.5
				c11.2,0,20.4,9.2,20.4,20.4v295.5C405.8,375,396.6,384.2,385.3,384.2z"/>
			<g>
				<defs>
					<path id="SVGID_00000160158550579125303570000006473715785556512141_" d="M385.3,384.2H89.8c-11.2,0-20.4-9.2-20.4-20.4V68.3
						c0-11.2,9.2-20.4,20.4-20.4h295.5c11.2,0,20.4,9.2,20.4,20.4v295.5C405.8,375,396.6,384.2,385.3,384.2z"/>
				</defs>
				<clipPath id="SVGID_00000096027116221292381240000008224129718541148559_">
					<use xlink:href="#SVGID_00000160158550579125303570000006473715785556512141_"  style="overflow:visible;"/>
				</clipPath>
				<g style="clip-path:url(#SVGID_00000096027116221292381240000008224129718541148559_);">
					<path class="st6" d="M-311.5,1035.4c0,0,45-85.9,55.5-108.1c10.4-22.2,23-43.9,38.6-102.5c15.6-58.6,39.7-98.8,46.1-111.4
						c6.4-12.7,21.9-35.2,20.7-53.2c-4.1-62.6-7.1-136,15.9-194.6c7.2-18.4,15.4-36.6,27.6-52.1c18.7-23.9,41.5-30.1,69.1-37.4
						c30.9-8.2,61.7-20.1,87.9-38.8c47.2-33.6,75.6-54.2,113.9-60.5s135-53.2,161.3-77l20.5-14.9c0,0-5.9,12.9-24.2,27.2
						c-18.3,14.3-73.8,47.3-119.6,63.5c-45.8,16.1-47.6,14.9-61.4,20.6c-13.9,5.8-29.4,11.2-48.5,28.7S18,388-27.4,403.5
						s-47.9,14.4-53.1,20.4s-9.1,14.8-11.5,50.1s1,98.5,4.9,122.9c3.9,24.4,15.7,59.9,36.6,65.7c0,0,4.1,4.7,15.9-5.6
						s39.1-25.4,49.1-39.1c10-13.7,24.1-37,28.5-45.5s18.8,4.6,18.8,4.6s-5.1,31.3,1.1,36.6s16.5-5.5,23.7-18
						c7.2-12.5,24.9,8,24.9,8s-15,10.6-19.8,15.3c-4.7,4.7-13.3,19.2-9.6,23.4c3.8,4.2,17.4,8.7,32.4,4.2c15-4.5,40.9-13.3,50-12.6
						c9.1,0.7,25.1,16.3,25.1,16.3s-4.7,7.5-16.3,10.2c0,0,13,21.2,86.1,30.2c73.1,9,151.4,77.7,151.4,77.7s-67.2-13.1-97.3-16.6
						c-30.1-3.5-99.5-27.6-130.9-46.2s-50-40.8-90.1-36.7s-80.6,18.3-93.9,24s-25,20.3-29.5,30.7c-4.5,10.3-32.6,84.8-32.6,84.8
						s-35.9,110.1-48.8,149.4c-12.9,39.3-53.9,126.7-70.2,154S-312,1060-312,1060L-311.5,1035.4z"/>
					<path class="st7" d="M354.5,119.6c0,0-8.9,20.5-24.8,35.1c-15.9,14.7-37.5,25.7-37.5,25.7s-2.8-33.7,21.4-49.5
						S354.5,119.6,354.5,119.6z"/>
					<path class="st7" d="M293.3,180.9c0,0,22.2-2.3,42.8,4.3c20.6,6.6,40.8,20,40.8,20s-28,19-53.6,5.7
						C297.7,197.7,293.3,180.9,293.3,180.9z"/>
					<path class="st6" d="M201.8,265.3c0,0,7.1-33.9,21.9-56.3s20.5-36.2,20.5-36.2s-2-5.3-16.3,13.9s-28.1,59.6-33.3,69.7
						c-5.2,10.1-14.5,22.5-14.5,22.5L201.8,265.3z"/>
					<path class="st6" d="M201.6,121.9c0,0-12.5,51.3-9.5,70.8c0,0,67,0.9,104.6-16.2l-1.9,7.8c0,0-65.1,16.1-97.8,18.7
						c0,0-12.3,0.1-27,23.7c-14.7,23.6-29.3,61.1-29.3,61.1l-12.4,2.5c0,0,26.1-63.3,53.1-93.1c0,0,2.8-2.1,3.1-13.7
						c0.3-11.6,6.7-52.5,11.6-61.5S201.6,121.9,201.6,121.9z"/>
					<path class="st7" d="M197.4,127.8c0,0,0.7-24.5,14.8-35.6s24.5-8.2,24.5-8.2S228.1,120.6,197.4,127.8z"/>
					<path class="st7" d="M183,162.9c0,0-23.6-6.5-31.1-22.8c-7.4-16.3-2.1-25.7-2.1-25.7S183.3,131.4,183,162.9z"/>
					<path class="st7" d="M254.2,280.6c0,0-23.6-6.5-31.1-22.8c-7.4-16.3-2.1-25.7-2.1-25.7S254.5,249.1,254.2,280.6z"/>
					<path class="st7" d="M276.1,235.9c0,0-19.4,5.4-31.5-3c-12.1-8.4-12.3-17.2-12.3-17.2S263,213.6,276.1,235.9z"/>
					<path class="st7" d="M380.2,151.4c0,0-1.9,20-14,28.3c-12.1,8.3-20.5,5.4-20.5,5.4S354.7,155.6,380.2,151.4z"/>
				</g>
			</g>
			<rect x="226.6" y="36.3" class="st3" width="20.6" height="348"/>
		</g>
		<g>
			<path class="st3" d="M660.1,402h326.7c12.4,0,22.6-10.2,22.6-22.6V52.7c0-12.4-10.2-22.6-22.6-22.6H660.1
				c-12.4,0-22.6,10.2-22.6,22.6v326.7C637.5,391.8,647.6,402,660.1,402z"/>
			<path class="st4" d="M675.7,384.2h295.5c11.2,0,20.4-9.2,20.4-20.4V68.3c0-11.2-9.2-20.4-20.4-20.4H675.7
				c-11.2,0-20.4,9.2-20.4,20.4v295.5C655.2,375,664.4,384.2,675.7,384.2z"/>
			<g>
				<defs>
					<path id="SVGID_00000044143214561418686420000005072858409462497448_" d="M675.7,384.2h295.5c11.2,0,20.4-9.2,20.4-20.4V68.3
						c0-11.2-9.2-20.4-20.4-20.4H675.7c-11.2,0-20.4,9.2-20.4,20.4v295.5C655.2,375,664.4,384.2,675.7,384.2z"/>
				</defs>
				<clipPath id="SVGID_00000176017778732752493780000006646062106292484791_">
					<use xlink:href="#SVGID_00000044143214561418686420000005072858409462497448_"  style="overflow:visible;"/>
				</clipPath>
				<g style="clip-path:url(#SVGID_00000176017778732752493780000006646062106292484791_);">
					<path class="st6" d="M1421.1-468.1c0,0-51.2,66.6-63.4,84.1c-12.2,17.4-26.2,34.1-48.2,81.7c-22,47.7-48.5,78.4-55.9,88.3
						c-7.3,9.9-23.9,26.8-25.6,42.4c-5.8,54-14.1,117.1-42.4,163.8c-8.9,14.6-18.6,28.9-31.2,40.4c-19.5,17.6-39.9,19.6-64.5,21.7
						c-27.6,2.4-55.7,8-80.8,20.1c-45.3,21.7-72.6,35.1-106.2,34.8c-33.6-0.3-123.1,25.4-149.1,41.8l-19.7,9.7c0,0,7-10.1,24.7-19.6
						c17.7-9.5,70-29.5,111.5-36.4c41.5-7,42.8-5.6,55.5-8.5c12.7-2.9,26.7-5.2,45.7-17.3c18.9-12.1,72.3-43.1,113.4-49.5
						s43-5.2,48.3-9.5c5.3-4.4,10-11.3,17.3-41c7.3-29.7,13.7-84.2,14-105.7s-4.5-53.5-21.5-61.5c0,0-2.8-4.6-14.4,2.4
						c-11.6,7-37.1,15.9-47.7,26.1s-26.1,28-31.1,34.6c-5,6.6-15.4-6.7-15.4-6.7s9-26,4.5-31.4c-4.5-5.4-14.9,2.3-22.9,11.9
						c-8,9.6-20.1-10.5-20.1-10.5s14.4-6.8,19.1-10.1c4.7-3.3,14.2-14.4,11.6-18.5c-2.6-4.2-13.6-10-27.1-8.4s-36.9,5.3-44.6,3.4
						c-7.6-2-19-17.7-19-17.7s5.1-5.7,15.4-6.3c0,0-7.9-20-69-38.6s-117.7-88.7-117.7-88.7s55.4,21.1,80.6,28.6
						c25.2,7.5,80.8,38.3,104.9,58.9c24.1,20.6,36.7,42.3,71.5,44.7c34.8,2.5,71.5-3.6,83.7-6.6s24.3-13.7,29.7-21.8
						c5.4-8.2,40.4-67.6,40.4-67.6s47-88.7,63.8-120.3c16.8-31.6,64.8-100.2,82.8-121c18-20.9,102.9,63.2,102.9,63.2L1421.1-468.1z"
						/>
					<path class="st7" d="M716.8,214.9c0,0,10.6-16.1,26.4-26.3s35.8-16.4,35.8-16.4s-2.6,29.2-25.6,39.1
						C730.4,221.3,716.8,214.9,716.8,214.9z"/>
					<path class="st7" d="M778.1,171.7c0,0-19.3-1.3-35.9-10.1c-16.6-8.7-31.8-23.1-31.8-23.1s26.7-12,46.6,3.1
						C776.9,156.7,778.1,171.7,778.1,171.7z"/>
					<path class="st6" d="M868.7,113.2c0,0-11.1,27.9-27.1,44.8c-15.9,16.9-26.9,31-26.9,31s5,1.7,20-12.6
						c15-14.3,32.8-46.7,38.7-54.6c5.9-7.9,15.7-17.1,15.7-17.1L868.7,113.2z"/>
					<path class="st6" d="M847.6,235.6c0,0,18.3-41.9,18.6-59.1c0,0-57.1-10.7-91.7-1.7l2.8-6.4c0,0,57.9-4.1,86.3-1.5
						c0,0,10.5,1.7,26.5-16.3s34.1-47.8,34.1-47.8l10.9-0.3c0,0-31.6,50.2-59.1,71.6c0,0-2.7,1.4-4.7,11.3
						c-2,9.9-13.5,43.8-19.1,50.8S847.6,235.6,847.6,235.6z"/>
					<path class="st7" d="M852.1,231.2c0,0-4.2,20.8-17.9,28.2c-13.7,7.4-22.1,3.4-22.1,3.4S824.8,232.9,852.1,231.2z"/>
					<path class="st7" d="M869.6,203.4c0,0,19.2,9.1,23.1,24.1c3.9,15-2,22.3-2,22.3S864.6,230.3,869.6,203.4z"/>
					<path class="st7" d="M826.3,92.4c0,0,19.2,9.1,23.1,24.1c3.9,15-2,22.3-2,22.3S821.3,119.3,826.3,92.4z"/>
					<path class="st7" d="M801,127.3c0,0,17.3-1.7,26.4,7.2c9.1,8.9,8,16.5,8,16.5S808.8,148.3,801,127.3z"/>
					<path class="st7" d="M699.6,184c0,0,4.6-16.8,16.1-22.1s18.3-1.6,18.3-1.6S722,184.2,699.6,184z"/>
				</g>
			</g>
			
				<rect x="813.8" y="36.3" transform="matrix(-1 -4.485269e-11 4.485269e-11 -1 1648.1249 420.5303)" class="st3" width="20.6" height="348"/>
		</g>
		<polygon class="st9" points="813.8,55.1 655.3,194.4 655.2,232.2 814.5,93.1 		"/>
		<polygon class="st9" points="813.7,136 655.2,269 655.1,306.8 813.7,168.1 		"/>
		<polygon class="st9" points="226.6,74.5 70.1,214 70.1,251.7 226.8,113 		"/>
		<polygon class="st9" points="226.6,155.6 69.4,289 69.4,326.7 226.6,187.7 		"/>
		<polygon class="st9" points="991.8,139.9 834.6,277.1 834.5,314.8 991.5,176.6 		"/>
		<polygon class="st9" points="991.8,219.5 833.3,352.6 833.2,390.3 991.8,251.6 		"/>
		<polygon class="st9" points="405.8,132.7 247.3,269.6 247.2,307.3 405.9,168.9 		"/>
		<polygon class="st9" points="405.8,211.9 248.9,343.5 248.9,381.2 405.8,244 		"/>
		<g>
			<g>
				<path class="st10" d="M157.5,486.6c26.5-26.7,59.4-36.9,73.6-22.8c14.2,14.1,4.3,47.1-22.2,73.8c-26.5,26.7-73.6,22.8-73.6,22.8
					S131,513.3,157.5,486.6z"/>
				<path class="st11" d="M176.3,467.6c26.5-26.7,59.4-36.9,73.6-22.8c14.2,14.1,4.3,47.1-22.2,73.8c-26.5,26.7-73.6,22.8-73.6,22.8
					S149.8,494.3,176.3,467.6z"/>
				<path class="st10" d="M199.5,499.6c0,0,54.9,121.9,206.7,59.6l-16.4-120.5L199.5,499.6z"/>
				<path class="st10" d="M390.2,441.7c7.5,55.2-29.4,110-84.7,117.5s-107.8-35.1-115.3-90.4c-10.4-76.6,32.3-98.2,87.5-105.7
					C332.9,355.7,380,366.7,390.2,441.7z"/>
				<path class="st11" d="M354.8,450.4c4,29.2,5.2,101.5-30.2,106.3c-53.9,7.3-93.9-59.6-97.9-88.9c-4-29.2,21.5-56.8,56.9-61.6
					S350.8,421.2,354.8,450.4z"/>
				<g>
					<path class="st10" d="M196,430.5c0,0-13.9-8.1-8-42.1c0.6-3.2,4.3-4.8,7-3l33.5,22.8L196,430.5z"/>
					<line class="st12" x1="198.6" y1="400.2" x2="203.1" y2="409.8"/>
				</g>
				<g>
					<path class="st10" d="M372.9,406.5c0,0,11.2-11.5-3.5-42.7c-1.4-3-5.4-3.5-7.5-1l-26.2,30.9L372.9,406.5z"/>
					<line class="st12" x1="362.2" y1="377.9" x2="360.5" y2="388.4"/>
				</g>
				<path class="st13" d="M271.1,416.1c2.1,15.3-6.4,24.1-21.8,26.2s-27-2.4-29.1-17.7c-2.1-15.3,6.9-30.8,22.2-32.9
					S269,400.7,271.1,416.1z"/>
				<path class="st14" d="M264,424.6c1.3,9.3-5.5,16-14.8,17.3c-9.3,1.3-17.6-3.4-18.9-12.7s5-19.9,14.3-21.1
					C253.9,406.8,262.8,415.3,264,424.6z"/>
				<circle class="st13" cx="246.3" cy="435.6" r="6.6"/>
				<path class="st13" d="M345.7,405.9c2.1,15.3-6.4,24.1-21.8,26.2s-27-2.4-29.1-17.7s6.9-30.8,22.2-32.9
					C332.4,379.4,343.6,390.6,345.7,405.9z"/>
				<path class="st14" d="M338.7,414.4c1.3,9.3-5.5,16-14.8,17.3c-9.3,1.3-17.6-3.4-18.9-12.7c-1.3-9.3,5-19.9,14.3-21.1
					C328.6,396.6,337.4,405.1,338.7,414.4z"/>
				<circle class="st13" cx="320.8" cy="425.1" r="6.6"/>
				<g>
					<path class="st15" d="M296.3,431c0.7,5.4-6.4,19.5-7.3,21.4c0,0.1-0.1,0.2-0.1,0.2s-11.6-13.2-12.4-18.9
						c-0.6-4.4,4.3-8.1,8.3-8.8l0.1,0C288.8,424.1,295.5,425.3,296.3,431z"/>
					<path class="st16" d="M288.8,452.6c-0.4-9.3-1.7-18.7-4-27.7c4-0.7,10.7,0.4,11.5,6.1C297,436.4,289.8,450.7,288.8,452.6
						L288.8,452.6z"/>
				</g>
				<g>
					<path class="st15" d="M295.7,629.1L295.7,629.1c-3.4,0.5-6.5-1.9-7-5.3l-6.7-49.3c-0.5-3.4,1.9-6.5,5.3-7l0,0
						c3.4-0.5,6.5,1.9,7,5.3l6.7,49.3C301.5,625.5,299.1,628.7,295.7,629.1z"/>
					<path class="st15" d="M290.5,590.4c0,0,0.2,6.9-2.7,14.6c-1.5-0.4-3.1-0.5-4.8-0.2c-4.1,0.6-7.1,3.1-9.5,6.2
						c-1.5,1.9-2,4.5-2.1,6.8c-0.2,3.1-2.4,5.8-5.4,6.5c0,0-0.1,0-0.1,0c-4.9,1.2-9.5-3-8.7-8C258.4,607.2,264.9,593.9,290.5,590.4z
						"/>
					<path class="st15" d="M289.3,590.6c0,0,1.6,6.7,6.5,13.3c1.4-0.8,2.9-1.3,4.6-1.5c4.1-0.6,7.7,1.1,10.8,3.4
						c1.9,1.4,3.1,3.8,3.8,6c1,3,3.8,4.9,7,4.8c0,0,0.1,0,0.1,0c5-0.2,8.3-5.4,6.3-10C324.7,598.2,314.9,587.1,289.3,590.6z"/>
				</g>
				<g>
					<path class="st15" d="M384,617.1L384,617.1c-3.4,0.5-6.5-1.9-7-5.3l-6.7-49.3c-0.5-3.4,1.9-6.5,5.3-7h0c3.4-0.5,6.5,1.9,7,5.3
						l6.7,49.3C389.7,613.6,387.4,616.7,384,617.1z"/>
					<path class="st15" d="M378.7,578.4c0,0,0.2,6.9-2.7,14.6c-1.5-0.4-3.1-0.5-4.8-0.2c-4.1,0.6-7.1,3.1-9.5,6.2
						c-1.5,1.9-2,4.5-2.1,6.8c-0.2,3.1-2.4,5.8-5.4,6.5c0,0-0.1,0-0.1,0c-4.9,1.2-9.5-3-8.7-8C346.6,595.2,353.1,581.9,378.7,578.4z
						"/>
					<path class="st15" d="M377.5,578.6c0,0,1.6,6.7,6.5,13.3c1.4-0.8,2.9-1.3,4.6-1.5c4.1-0.6,7.7,1.1,10.8,3.4
						c1.9,1.4,3.1,3.8,3.8,6c1,3,3.8,4.9,7,4.8c0,0,0.1,0,0.1,0c5-0.2,8.3-5.4,6.3-10C412.9,586.2,403.1,575.1,377.5,578.6z"/>
				</g>
				<path class="st17" d="M202.1,523.7l-8.3,1.6c-3.5,0.7-6.3-2.7-5-6l0.4-0.9"/>
				<path class="st17" d="M171.1,509.4c0.1,0-3,1.5-5.2,2.6c-0.9,0.5-2-0.4-1.8-1.4l2.7-13.2"/>
				<g>
					<path class="st10" d="M472.8,379.4c0,0,1.6,47.3-26.3,72.5c-4,3.7-8.2,6.9-12.4,9.9c-24.8,17.2-50.9,21.5-62.4,8.8
						c-11.5-12.7-4.5-38.3,15.2-61.1c3.3-3.9,7-7.7,11.1-11.3C425.9,372.9,472.8,379.4,472.8,379.4z"/>
					<path class="st11" d="M453,397.3c0,0,1.3,38.4-18.8,64.4c-24.8,17.2-50.9,21.5-62.4,8.8c-11.5-12.7-4.5-38.3,15.2-61.1
						C414.9,392,453,397.3,453,397.3z"/>
					<path class="st17" d="M406.5,413.2l7.3-4.4c3-1.8,6.9,0.4,6.8,3.9l0,1"/>
					<path class="st17" d="M422.1,430.8c-0.1,0,3.1-1.2,5.5-2c1-0.3,1.9,0.6,1.6,1.6l-4.3,12.8"/>
				</g>
			</g>
			<path class="st18" d="M50.3,600.4h555.7c8,0,14.4,6.4,14.4,14.4v15.4c0,8-6.4,14.4-14.4,14.4H50.3c-8,0-14.4-6.4-14.4-14.4v-15.4
				C36,606.8,42.3,600.4,50.3,600.4z"/>
			<polygon class="st18" points="533.8,555.8 124.2,555.8 43.8,602 612.5,601.9 			"/>
			<polygon class="st19" points="225,561.1 192.5,609 422.2,611.2 390.3,559.8 			"/>
			<polygon class="st20" points="199,602.4 418.2,602.4 390.8,556.3 223.5,556.3 			"/>
			<g>
				<path class="st21" d="M133.6,473.3l-3.2,2.9c-2.2,2-2.4,5.5-0.4,7.7l79.6,88.4l11.4-10l-79.7-88.5
					C139.3,471.5,135.9,471.3,133.6,473.3z"/>
				<path class="st22" d="M221.6,562.9l-3.2-3.6c-0.7-0.9-1.9-0.9-2.7-0.1l0,0l-2.9,2.4L210,564l-2.9,2.4c-0.9,0.7-0.9,1.9-0.1,2.7
					l0,0l3.2,3.6l19,9.8L221.6,562.9z"/>
				<path class="st23" d="M226.1,574.6c-2.5-0.2-4.7,1.6-5,4l8,4.3L226.1,574.6z"/>
			</g>
			<path class="st10" d="M207.5,464.4c0,0-12.6,44.7-49.7,63.5C120.6,546.6,150.7,453.7,207.5,464.4z"/>
			<g>
				<path class="st24" d="M332.9,590.4c-0.7,0-1.4,0-2.1-0.1c-4.7-0.4-8.8-2.2-12.8-4c-3.1-1.3-6-2.6-9-3.2
					c-6.7-1.3-13.5,0.8-20.6,3c-5.3,1.6-10.8,3.3-16.6,3.7c-2.3,0.1-5.7,0.1-8.5-1.7c-0.9-0.5-1.5-1.2-2.2-1.7
					c-0.5-0.4-0.9-0.8-1.3-1.1c-1.3-0.8-3.4-0.6-5.8-0.3l-27.6,3.4c-1.8,0.2-3.4-1.1-3.7-2.9s1.1-3.4,2.9-3.7l27.6-3.4
					c2.6-0.3,6.6-0.8,10,1.2c0.9,0.6,1.7,1.2,2.3,1.8c0.5,0.4,0.9,0.8,1.3,1c1,0.6,2.4,0.8,4.6,0.7c5-0.3,9.9-1.8,15.1-3.4
					c7.6-2.3,15.5-4.8,23.8-3.1c3.7,0.7,7.1,2.2,10.4,3.6c3.7,1.6,7.2,3.1,10.8,3.4c4,0.4,8.2-0.8,12.5-2c4.4-1.3,9-2.5,13.9-2.3
					c3.1,0.1,6,0.8,8.7,1.5c1.4,0.4,2.8,0.7,4.2,1c2.9,0.5,7,0.8,9.7-1.2c1.5-1.1,3.5-0.7,4.6,0.7c1.1,1.5,0.7,3.5-0.7,4.6
					c-3.7,2.7-8.6,3.4-14.8,2.3c-1.6-0.3-3.1-0.7-4.6-1c-2.6-0.6-5-1.2-7.4-1.3c-3.8-0.2-7.7,0.9-11.9,2.1
					C341.6,589.2,337.4,590.4,332.9,590.4z"/>
			</g>
			<g>
				<path class="st10" d="M747.1,347.7c-27.3,29.5-36.3,64.7-20,78.8c16.3,14,51.7,1.5,79-28c27.3-29.5,20-78.8,20-78.8
					S774.4,318.2,747.1,347.7z"/>
				<path class="st11" d="M727.7,368.7c-27.3,29.5-36.3,64.7-20,78.8c16.3,14,51.7,1.5,79-28c27.3-29.5,20-78.8,20-78.8
					S755,339.2,727.7,368.7z"/>
				<path class="st10" d="M493,459.9c32-22.2,67.5-26.4,79.3-9.4c11.8,17-4.5,48.9-36.5,71.1c-32,22.2-79.3,9.4-79.3,9.4
					S461.1,482.1,493,459.9z"/>
				<path class="st11" d="M515.8,444.1c32-22.2,67.5-26.4,79.3-9.4c11.8,17-4.5,48.9-36.5,71.1s-79.3,9.4-79.3,9.4
					S483.8,466.3,515.8,444.1z"/>
				<path class="st10" d="M745.9,443.6c0,0-3.8,138.5-173.8,139.6l-32.5-121.8L745.9,443.6z"/>
				<path class="st10" d="M540.4,464.4c14.9,55.8,72.1,93.5,127.9,78.6c55.8-14.9,89.1-76.7,74.2-132.5
					c-20.6-77.4-70.1-81-125.9-66.1C560.8,359.3,520.2,388.6,540.4,464.4z"/>
				<path class="st11" d="M577.8,458.6c7.9,29.5,35.6,99.1,71.3,89.5c54.5-14.5,66-94.5,58.1-124.1s-43.2-45.8-79-36.2
					C592.5,397.4,569.9,429.1,577.8,458.6z"/>
				<g>
					<path class="st10" d="M721.7,376.1c0,0,10.1-13.3-9.2-43.5c-1.8-2.9-6-2.9-7.8-0.1l-23,35.2L721.7,376.1z"/>
					<line class="st25" x1="707" y1="348.2" x2="706.6" y2="359.2"/>
				</g>
				<g>
					<path class="st10" d="M542.8,423.8c0,0-15.3-6.5-13.7-42.3c0.2-3.4,3.7-5.5,6.8-4l37.4,19.1L542.8,423.8z"/>
					<line class="st25" x1="541.7" y1="392.3" x2="547.5" y2="401.6"/>
				</g>
				<path class="st13" d="M644.1,392.3c4.1,15.5,15.8,20.5,31.3,16.4s24.9-13,20.7-28.5c-4.1-15.5-18.9-26.7-34.4-22.6
					S639.9,376.8,644.1,392.3z"/>
				<path class="st26" d="M653.2,393.8c2.5,9.4,11.7,13.1,21.1,10.6c9.4-2.5,15.5-10.3,13-19.7c-2.5-9.4-12.7-17-22.1-14.5
					C655.7,372.7,650.7,384.4,653.2,393.8z"/>
				<circle class="st13" cx="673.4" cy="382.9" r="6.9"/>
				<path class="st13" d="M568.7,412.4c4.1,15.5,15.8,20.5,31.3,16.4c15.5-4.1,24.9-13,20.7-28.5c-4.1-15.5-18.9-26.7-34.4-22.6
					C570.8,381.8,564.5,396.9,568.7,412.4z"/>
				<path class="st26" d="M577.8,413.9c2.5,9.4,11.7,13.1,21.1,10.6c9.4-2.5,15.5-10.3,13-19.7c-2.5-9.4-12.7-17-22.1-14.5
					C580.3,392.9,575.3,404.5,577.8,413.9z"/>
				<circle class="st13" cx="598" cy="403" r="6.9"/>
				<g>
					<path class="st15" d="M634.5,406.2L634.5,406.2c4.2-1,10.4,0.7,11.5,5.1c1.6,5.8-4.3,23-4.3,23s-0.1,0-0.2-0.2
						c-1.6-1.4-14.1-12-15.6-17.5C624.4,410.9,630.4,407.1,634.5,406.2z"/>
					<path class="st16" d="M641.7,434.3c-1.7-1.4-14.3-12.2-15.7-17.7c-1.5-5.8,4.4-9.5,8.5-10.4
						C635.8,415.7,638.4,425.3,641.7,434.3L641.7,434.3z"/>
				</g>
				<g>
					<path class="st15" d="M705.6,605.9L705.6,605.9c3.4-0.9,5.5-4.4,4.6-7.9l-13.3-49.8c-0.9-3.4-4.4-5.5-7.9-4.6l0,0
						c-3.4,0.9-5.5,4.4-4.6,7.9l13.3,49.8C698.6,604.8,702.1,606.8,705.6,605.9z"/>
					<path class="st15" d="M695.1,566.8c0,0,2.5,6.7,8.5,12.9c1.3-1,2.8-1.7,4.5-2.1c4.1-1.1,8,0.2,11.6,2.1
						c2.2,1.2,3.7,3.5,4.7,5.6c1.4,2.9,4.6,4.6,7.8,4.1c0,0,0.1,0,0.1,0c5.2-0.8,7.9-6.6,5.2-11.1C732.6,570,721,559.9,695.1,566.8z
						"/>
					<path class="st15" d="M696.4,566.5c0,0,1.1,7.1-0.9,15.4c-1.6-0.2-3.3-0.1-5,0.4c-4.1,1.1-6.9,4.1-9,7.6
						c-1.3,2.1-1.5,4.9-1.3,7.2c0.2,3.2-1.7,6.2-4.8,7.4c0,0-0.1,0-0.1,0.1c-4.9,1.8-10.1-1.8-10-7.1
						C665.5,587.8,670.5,573.4,696.4,566.5z"/>
				</g>
				<g>
					<path class="st15" d="M616.4,629.7L616.4,629.7c3.4-0.9,5.5-4.4,4.6-7.9L607.7,572c-0.9-3.4-4.4-5.5-7.9-4.6l0,0
						c-3.4,0.9-5.5,4.4-4.6,7.9l13.3,49.8C609.5,628.5,613,630.6,616.4,629.7z"/>
					<path class="st15" d="M606,590.6c0,0,2.5,6.7,8.5,12.9c1.3-1,2.8-1.7,4.5-2.1c4.1-1.1,8,0.2,11.6,2.1c2.2,1.2,3.7,3.5,4.7,5.6
						c1.4,2.9,4.6,4.6,7.8,4.1c0,0,0.1,0,0.1,0c5.2-0.8,7.9-6.6,5.2-11.1C643.4,593.7,631.9,583.7,606,590.6z"/>
					<path class="st15" d="M607.2,590.2c0,0,1.1,7.1-0.9,15.4c-1.6-0.2-3.3-0.1-5,0.4c-4.1,1.1-6.9,4.1-9,7.6
						c-1.3,2.1-1.5,4.9-1.3,7.2c0.2,3.2-1.7,6.2-4.8,7.4c0,0-0.1,0-0.1,0.1c-4.9,1.8-10.1-1.8-10-7.1
						C576.4,611.6,581.4,597.1,607.2,590.2z"/>
				</g>
				<path class="st27" d="M790.4,392.3l1.2-8.8c0.5-3.7-3.4-6.4-6.9-4.9l-1,0.4"/>
				<path class="st28" d="M506.4,472.1l-6.1,6.3c-2.5,2.6-1.2,7,2.3,7.8l1,0.2"/>
				<path class="st27" d="M772.8,360.6c0,0.1,1.5-3.2,2.5-5.6c0.4-1-0.5-2.1-1.6-1.8l-14.2,3.7"/>
				<path class="st28" d="M520.4,491.9c0-0.1-1.9,2.9-3.3,5.1c-0.6,0.9,0.2,2.1,1.2,2l13.9-1.3"/>
			</g>
			<path class="st18" d="M511.4,600.4h484.4c0,0,0,0,0,0v44.2H511.4V600.4z"/>
			<polygon class="st18" points="909.2,555.8 499.5,555.8 419.2,602 987.8,601.9 			"/>
			<rect x="60.2" y="645.2" class="st29" width="893.8" height="180.1"/>
			<rect x="60.2" y="645.2" class="st30" width="893.8" height="46.2"/>
			<polygon class="st19" points="949.1,609.5 666.6,612.5 675,558.6 919.9,553.7 			"/>
			<g>
				<rect x="674.4" y="528.7" class="st21" width="263.7" height="75.9"/>
				<polygon class="st31" points="938.1,528.7 674.4,528.7 704.3,483.8 909.7,483.8 				"/>
				<rect x="731.7" y="499.6" class="st31" width="147.9" height="18.4"/>
				<polygon points="731.7,499.6 863.2,499.6 866.4,504 729.5,504 				"/>
				<g>
					<path class="st13" d="M731.9,554.1c1.3,0,2.5,0.1,3.5,0.4c1,0.3,1.8,0.6,2.4,1.1c0.6,0.5,1.1,1,1.4,1.6c0.3,0.6,0.5,1.3,0.5,2
						c0,0.5-0.1,0.9-0.2,1.4c-0.1,0.5-0.3,1-0.6,1.4c-0.3,0.5-0.7,0.9-1.2,1.2c-0.5,0.4-1.2,0.7-2,0.9c0.7,0.2,1.4,0.4,1.9,0.6
						c0.6,0.3,1.1,0.6,1.5,1c0.4,0.4,0.7,0.9,1,1.4c0.2,0.5,0.3,1.2,0.3,1.8c0,1.1-0.2,2-0.7,2.8c-0.5,0.8-1.1,1.4-1.8,2
						c-0.8,0.5-1.6,0.9-2.6,1.1c-1,0.2-2,0.4-3.1,0.4h-8.7v-21.4H731.9z M728.4,557.5v5.6h3.4c0.5,0,1-0.1,1.4-0.2
						c0.4-0.1,0.8-0.4,1.1-0.6c0.3-0.3,0.5-0.6,0.7-1s0.3-0.8,0.3-1.2c0-0.3-0.1-0.6-0.2-0.9c-0.1-0.3-0.3-0.6-0.6-0.8
						c-0.3-0.2-0.6-0.4-1.1-0.6c-0.4-0.1-1-0.2-1.6-0.2H728.4z M732.2,572c1.1,0,1.9-0.3,2.6-0.8c0.6-0.5,0.9-1.2,0.9-2.2
						c0-0.4-0.1-0.8-0.2-1.1c-0.1-0.3-0.3-0.6-0.6-0.9c-0.3-0.2-0.6-0.4-1.1-0.6c-0.5-0.1-1-0.2-1.7-0.2h-3.8v5.7H732.2z"/>
					<path class="st13" d="M753.8,553.8c1.6,0,3,0.3,4.3,0.8c1.3,0.5,2.4,1.2,3.3,2.2c0.9,0.9,1.6,2.1,2.1,3.5
						c0.5,1.4,0.7,2.9,0.7,4.6c0,1.7-0.2,3.2-0.7,4.6c-0.5,1.4-1.2,2.5-2.1,3.5c-0.9,1-2,1.7-3.3,2.2c-1.3,0.5-2.7,0.8-4.3,0.8
						c-1.6,0-3-0.3-4.3-0.8c-1.3-0.5-2.4-1.2-3.3-2.2c-0.9-1-1.6-2.1-2.1-3.5c-0.5-1.4-0.8-2.9-0.8-4.6c0-1.7,0.3-3.2,0.8-4.6
						c0.5-1.4,1.2-2.5,2.1-3.5c0.9-0.9,2-1.7,3.3-2.2C750.8,554,752.2,553.8,753.8,553.8z M753.8,571.8c1.8,0,3.1-0.6,3.9-1.8
						c0.9-1.2,1.3-2.9,1.3-5.2s-0.4-4.1-1.3-5.3c-0.9-1.2-2.2-1.8-3.9-1.8c-1.8,0-3.1,0.6-4,1.8c-0.9,1.2-1.3,3-1.3,5.3
						c0,2.3,0.4,4,1.3,5.2C750.7,571.2,752,571.8,753.8,571.8z"/>
					<path class="st13" d="M786.9,575.5h-5.1v-17.5h-8.3v17.5h-5.1v-21.4h18.6V575.5z"/>
					<path class="st13" d="M796.9,557c0.9-1,1.9-1.8,3-2.4c1.1-0.6,2.4-0.9,3.9-0.9c1.2,0,2.2,0.2,3.2,0.7c1,0.5,1.8,1.2,2.5,2.1
						c0.7,0.9,1.2,2.1,1.6,3.4c0.4,1.4,0.6,2.9,0.6,4.7c0,1.6-0.2,3.1-0.6,4.4c-0.4,1.4-1,2.5-1.8,3.5c-0.8,1-1.8,1.8-2.9,2.3
						c-1.1,0.6-2.4,0.8-3.8,0.8c-1.2,0-2.2-0.2-3.1-0.6c-0.8-0.4-1.6-0.9-2.3-1.5v8.7H792v-28.3h3.1c0.7,0,1.1,0.3,1.3,0.9
						L796.9,557z M797.1,569.9c0.6,0.7,1.2,1.2,1.9,1.5c0.7,0.3,1.4,0.4,2.2,0.4c0.8,0,1.5-0.1,2.1-0.4c0.6-0.3,1.2-0.7,1.6-1.3
						c0.4-0.6,0.8-1.3,1-2.3c0.2-0.9,0.4-2,0.4-3.2c0-1.2-0.1-2.3-0.3-3.2c-0.2-0.9-0.5-1.6-0.9-2.1s-0.8-0.9-1.4-1.2
						c-0.5-0.2-1.1-0.4-1.8-0.4c-1.1,0-2,0.2-2.7,0.7c-0.7,0.5-1.5,1.1-2.1,1.9V569.9z"/>
					<path class="st13" d="M825.1,553.8c1.6,0,3,0.3,4.3,0.8c1.3,0.5,2.4,1.2,3.3,2.2c0.9,0.9,1.6,2.1,2.1,3.5
						c0.5,1.4,0.7,2.9,0.7,4.6c0,1.7-0.2,3.2-0.7,4.6c-0.5,1.4-1.2,2.5-2.1,3.5c-0.9,1-2,1.7-3.3,2.2c-1.3,0.5-2.7,0.8-4.3,0.8
						c-1.6,0-3-0.3-4.3-0.8c-1.3-0.5-2.4-1.2-3.3-2.2c-0.9-1-1.6-2.1-2.1-3.5c-0.5-1.4-0.8-2.9-0.8-4.6c0-1.7,0.3-3.2,0.8-4.6
						c0.5-1.4,1.2-2.5,2.1-3.5c0.9-0.9,2-1.7,3.3-2.2C822,554,823.5,553.8,825.1,553.8z M825.1,571.8c1.8,0,3.1-0.6,3.9-1.8
						c0.9-1.2,1.3-2.9,1.3-5.2s-0.4-4.1-1.3-5.3c-0.9-1.2-2.2-1.8-3.9-1.8c-1.8,0-3.1,0.6-4,1.8c-0.9,1.2-1.3,3-1.3,5.3
						c0,2.3,0.4,4,1.3,5.2C821.9,571.2,823.3,571.8,825.1,571.8z"/>
					<path class="st13" d="M854.8,558.6c-0.2,0.2-0.3,0.3-0.4,0.5c-0.1,0.1-0.4,0.2-0.6,0.2c-0.3,0-0.5-0.1-0.8-0.2
						c-0.2-0.2-0.5-0.3-0.9-0.5c-0.3-0.2-0.8-0.4-1.2-0.5c-0.5-0.2-1.1-0.2-1.8-0.2c-0.9,0-1.7,0.2-2.4,0.5s-1.2,0.8-1.7,1.4
						c-0.5,0.6-0.8,1.3-1,2.2c-0.2,0.9-0.3,1.8-0.3,2.9c0,1.1,0.1,2.1,0.4,3c0.2,0.9,0.6,1.6,1.1,2.2c0.5,0.6,1,1.1,1.7,1.4
						c0.7,0.3,1.4,0.5,2.2,0.5s1.5-0.1,2-0.3c0.5-0.2,0.9-0.4,1.3-0.7c0.3-0.2,0.6-0.5,0.9-0.7c0.3-0.2,0.5-0.3,0.9-0.3
						c0.4,0,0.7,0.2,0.9,0.5l1.5,1.9c-0.6,0.7-1.2,1.2-1.9,1.7c-0.7,0.5-1.4,0.8-2.1,1.1c-0.7,0.3-1.4,0.5-2.2,0.6s-1.5,0.2-2.3,0.2
						c-1.3,0-2.6-0.2-3.7-0.7c-1.2-0.5-2.2-1.2-3.1-2.2c-0.9-0.9-1.6-2.1-2.1-3.5c-0.5-1.4-0.8-2.9-0.8-4.7c0-1.6,0.2-3,0.7-4.4
						c0.5-1.3,1.1-2.5,2-3.5c0.9-1,2-1.7,3.2-2.3c1.3-0.6,2.8-0.8,4.5-0.8c1.6,0,3,0.3,4.2,0.8c1.2,0.5,2.3,1.2,3.2,2.2L854.8,558.6
						z"/>
					<path class="st13" d="M868.3,562c1.5,0,2.7,0.2,3.8,0.5c1,0.4,1.9,0.8,2.5,1.5c0.6,0.6,1.1,1.3,1.4,2.1
						c0.3,0.8,0.4,1.6,0.4,2.5c0,1-0.2,1.9-0.5,2.8c-0.4,0.8-0.9,1.6-1.6,2.2c-0.7,0.6-1.5,1.1-2.5,1.4c-1,0.3-2.1,0.5-3.4,0.5h-8.7
						v-21.4h4.9v7.9H868.3z M868.3,571.8c1.2,0,2-0.3,2.6-0.9c0.6-0.6,0.9-1.3,0.9-2.2c0-0.4-0.1-0.8-0.2-1.1
						c-0.1-0.4-0.3-0.7-0.6-1c-0.3-0.3-0.6-0.5-1.1-0.7c-0.4-0.2-1-0.2-1.6-0.2h-3.8v6.1H868.3z M885.4,554.1v21.4h-5.1v-21.4H885.4
						z"/>
				</g>
			</g>
		</g>
		<g>
			<defs>
				<rect id="SVGID_00000061447020669870433410000014231220042386920094_" x="689.8" y="290.1" width="219.3" height="211.2"/>
			</defs>
			<clipPath id="SVGID_00000139256540706452404400000002192522358234747294_">
				<use xlink:href="#SVGID_00000061447020669870433410000014231220042386920094_"  style="overflow:visible;"/>
			</clipPath>
			<g style="clip-path:url(#SVGID_00000139256540706452404400000002192522358234747294_);">
				<path class="st33" d="M787.6,503.1l-94.3-68.8c0,0,60.8-88.1,90.3-124.7l52.2,39.5l16.5,12.5l51.3,38.7l-44.2,61.2
					C816.7,525.5,797.1,509.9,787.6,503.1z"/>
				<path class="st34" d="M787.6,503.1c0,0,6.6,3.5,9.8,2.1c3.1-1.4,4.9-4.8,5.2-8.2c0.3-3.4-0.6-6.8-1.6-10c10.4,4,22.4,2,32.2-3.2
					c15.1-8.1,26.1-22.1,26.1-22.1C816.7,525.5,797.1,509.9,787.6,503.1z"/>
				<g>
					<g>
						<path class="st35" d="M786.9,483.2c-0.6,0-1.3-0.1-1.8-0.3c-0.8-0.1-1.5-0.4-2-1c-1.1-1.1-1.3-2.8-0.6-4.1
							c0.2-0.3,0.4-0.7,0.7-1c0.4-0.4,0.8-0.6,1.2-0.8c1.6-0.9,3.6-1.2,5.4-0.6c1,0.3,1.7,1,2.1,1.9c0.4,0.9,0.4,2,0,2.9
							c-0.7,1.5-2.2,2.6-3.9,2.9C787.5,483.2,787.2,483.2,786.9,483.2z M787.9,481.9L787.9,481.9L787.9,481.9z M788,476.7
							C788,476.7,788,476.7,788,476.7C788,476.7,788,476.7,788,476.7z"/>
					</g>
					<g>
						<path class="st35" d="M797.3,469.6c-0.8,0-1.7-0.3-2.3-0.9c-1.4-1.3-1.5-3.5-0.3-4.9c4.2-4.6,10.1-6.9,14.2-8.2
							c1.5-0.5,3.1-0.9,4.6-1.4c3.2-0.9,6.2-1.8,9-3c2-0.9,3.2-1.8,4-2.8c0.7-0.9,1-2.1,0.8-2.8c-0.2-0.5-0.7-1.1-1.5-1.8
							c-4.3-3.5-11-3.7-15.6-0.6c-1.6,1.1-3.7,0.7-4.8-0.9s-0.7-3.7,0.9-4.8c7.1-4.9,17.2-4.6,23.9,0.9c1.9,1.5,3.1,3.1,3.7,4.9
							c1.1,3,0.3,6.7-1.9,9.5c-2,2.5-4.7,3.9-6.6,4.7c-3.3,1.5-6.7,2.5-10,3.4c-1.5,0.4-3,0.8-4.4,1.3c-3.3,1.1-8.1,2.9-11.1,6.2
							C799.2,469.3,798.3,469.6,797.3,469.6z"/>
					</g>
				</g>
				<g>
					<path class="st35" d="M866.2,421.2c-0.5,0-1-0.1-1.5-0.4l-23.4-14.2c-2.1-1.3-4.7-2.9-6.5-5.4c-0.5-0.7-0.9-1.4-1.3-2.1
						c-0.3-0.6-0.6-1.1-0.9-1.6c-2-2.7-5.9-3.4-10.1-4.2c-0.7-0.1-1.5-0.3-2.2-0.4c-6.7-1.4-13.4-5.8-13.1-12.5
						c0-0.6,0.1-1.1,0.2-1.5c0.1-0.5,0.1-1,0.1-1.3c-0.1-0.6-1.1-1.3-3.1-2.1l-30.5-13.1c-1.5-0.6-2.2-2.4-1.5-3.9
						c0.6-1.5,2.4-2.2,3.9-1.5l30.5,13.1c1.7,0.7,5.8,2.5,6.5,6.5c0.2,1.2,0.1,2.3-0.1,3.2c0,0.3-0.1,0.6-0.1,0.9
						c-0.2,3.4,4.9,5.8,8.4,6.5c0.7,0.1,1.4,0.3,2.1,0.4c4.9,0.9,10.5,2,13.8,6.6c0.5,0.7,1,1.5,1.3,2.2c0.3,0.6,0.6,1.1,0.9,1.5
						c1.1,1.5,3,2.7,4.8,3.8l23.4,14.2c1.4,0.8,1.8,2.7,1,4.1C868.2,420.7,867.2,421.2,866.2,421.2z"/>
				</g>
				<g>
					<path class="st35" d="M853.4,441.2c-0.3,0-0.7-0.1-1-0.2c-6.9-2.4-16.4-5.8-21.5-13.6c-0.2-0.4-0.5-0.7-0.7-1.1
						c-0.5-0.9-1-1.7-1.6-2.2c-0.8-0.7-2.1-1.1-3.4-1.5l-12.8-4c-1.7-0.5-4.1-1.3-5.8-3.1c-1-1.1-1.5-2.2-2-3.2
						c-0.2-0.3-0.3-0.7-0.5-1c-2-3.6-6.3-5.3-10.8-7.2c-3.1-1.3-6.2-2.6-9-4.5c-2.9-2.1-3.5-4.3-3.4-5.8c0.1-1.2,0.5-2.1,0.9-2.8
						c0.1-0.2,0.2-0.4,0.3-0.6c-0.2-0.3-1.1-1.1-2.9-1.7l-28.5-9.6c-1.5-0.5-2.4-2.2-1.9-3.7c0.5-1.5,2.2-2.4,3.7-1.9l28.5,9.6
						c4.9,1.7,7.5,4.8,6.8,8.3c-0.2,0.9-0.5,1.6-0.8,2.2c-0.1,0.1-0.1,0.3-0.2,0.4c0.1,0.1,0.3,0.4,0.8,0.7c2.2,1.6,5,2.7,7.8,3.9
						c5.3,2.2,10.7,4.4,13.7,9.8c0.2,0.4,0.5,0.9,0.7,1.3c0.3,0.7,0.7,1.4,1,1.8c0.7,0.7,2,1.1,3.3,1.5l12.8,4
						c1.7,0.5,3.8,1.2,5.5,2.7c1.3,1.1,2.1,2.4,2.8,3.6c0.2,0.3,0.4,0.6,0.6,0.9c3.7,5.7,10.5,8.5,18.5,11.2
						c1.5,0.5,2.3,2.2,1.8,3.8C855.7,440.5,854.6,441.2,853.4,441.2z M782,390.4L782,390.4L782,390.4z"/>
				</g>
				<g>
					<path class="st35" d="M795.4,437.8c-1,0-2-0.5-2.6-1.5c-4.8-8.4-14.2-14.7-28.6-19.2c-1-0.3-1.8-1.2-2-2.2
						c-0.4-1.7,0.4-3.1,1.1-4l-23.4-12.5c-1.4-0.8-2-2.6-1.2-4c0.8-1.4,2.6-2,4-1.2l24.9,13.3c0.5,0.3,1.4,0.7,2,1.7
						c1.1,1.7,0.6,3.3-0.1,4.4c13.9,4.9,23.2,11.7,28.4,20.7c0.8,1.4,0.3,3.2-1.1,4C796.5,437.7,795.9,437.8,795.4,437.8z"/>
				</g>
			</g>
		</g>
	</g>
</g>
</svg>
