<?xml version="1.0" encoding="UTF-8"?>
<!-- Generated by Pixelmator Pro 3.6.5 -->
<svg width="924" height="154" viewBox="0 0 924 154" xmlns="http://www.w3.org/2000/svg">
    <g id="g1">
        <path id="path1" fill="#002d72" fill-rule="evenodd" stroke="none" d="M 60.312134 93.563721 C 57.721909 92.567047 55.058884 91.771027 52.346603 91.182739 C 51.768234 93.05365 51.001358 94.865662 50.070724 96.603485 C 52.232056 97.051758 54.371872 97.657806 56.462204 98.440277 C 57.967346 97.002869 59.26329 95.361359 60.312134 93.563721 M 25.595764 98.440277 C 27.666519 97.667267 29.794159 97.056213 31.959534 96.61264 C 31.019501 94.865662 30.249664 93.05365 29.677475 91.192139 C 26.981079 91.773468 24.337357 92.568054 21.746094 93.563721 C 22.795853 95.360657 24.091614 97.002045 25.595764 98.440277 M 21.746094 71.009155 C 24.324677 72.00415 26.976395 72.798126 29.677475 73.383972 C 30.249664 71.522461 31.019501 69.713623 31.953354 67.972595 C 29.794983 67.521149 27.670761 66.918274 25.595764 66.139038 C 24.094589 67.577576 22.799133 69.2164 21.746094 71.009155 M 56.462204 66.139038 C 54.381638 66.914886 52.244965 67.531006 50.070724 67.981995 C 51.010757 69.722778 51.768234 71.525665 52.346603 73.387177 C 55.060287 72.805634 57.72377 72.010468 60.312134 71.009155 C 59.259995 69.215698 57.964371 67.576721 56.462204 66.139038 M 63.333099 81.235229 C 63.197037 78.266693 62.489044 75.446594 61.292236 72.886261 C 58.572189 73.953735 55.770996 74.801636 52.915558 75.421875 C 53.36084 77.320465 53.62059 79.268555 53.688614 81.235229 Z M 52.915558 89.157471 C 55.770477 89.777008 58.571548 90.622803 61.292236 91.68689 C 62.489044 89.129517 63.197037 86.312622 63.333099 83.340881 L 53.688614 83.340881 C 53.621353 85.300323 53.362427 87.248474 52.915558 89.157471 M 50.849976 88.746063 C 51.264328 86.977325 51.520859 85.171478 51.585907 83.340881 L 42.08046 83.340881 L 42.08046 87.889648 C 45.042801 87.948273 47.970993 88.226563 50.849976 88.746063 M 47.893814 96.204498 C 48.866684 94.480438 49.662338 92.662262 50.268631 90.777771 C 47.562912 90.311127 44.825638 90.050629 42.08046 89.998535 L 42.08046 95.691162 C 44.022369 95.737671 45.970459 95.907623 47.893814 96.204498 M 44.232635 104.398834 C 48.107056 103.833069 51.647766 102.286987 54.616272 100.011108 C 52.769623 99.381531 50.880722 98.883484 48.963715 98.52066 C 47.614792 100.653198 46.027557 102.625275 44.232635 104.398834 M 46.672272 98.149597 C 45.154114 97.945526 43.617157 97.837158 42.08046 97.790924 L 42.08046 103.539215 C 43.839798 101.891174 45.37973 100.088287 46.672272 98.149597 M 33.060364 98.526855 C 31.155029 98.889069 29.277573 99.38504 27.44194 100.011108 C 30.391907 102.277588 33.926178 103.826904 37.785263 104.389679 C 35.994339 102.619751 34.409302 100.652985 33.060364 98.526855 M 35.345627 98.158752 C 36.650543 100.100647 38.19664 101.918884 39.971573 103.573334 L 39.971573 97.790649 C 38.431656 97.836914 36.879364 97.957642 35.345627 98.158508 M 31.767822 90.783722 C 32.361526 92.657593 33.153122 94.4758 34.136444 96.207458 C 36.072174 95.907379 38.020264 95.737427 39.971573 95.690918 L 39.971573 89.998291 C 37.221054 90.052246 34.478607 90.314789 31.767822 90.783722 M 31.180298 88.745819 C 34.06842 88.226318 37.003052 87.948029 39.971573 87.889404 L 39.971573 83.340637 L 30.435196 83.340637 C 30.512375 85.171234 30.750595 86.983276 31.180298 88.745819 M 18.724869 83.340637 C 18.857956 86.315338 19.565948 89.129272 20.759552 91.686646 C 23.471802 90.623169 26.264771 89.77832 29.111725 89.160187 C 28.660782 87.250854 28.400757 85.301422 28.335464 83.340637 Z M 29.111725 75.4216 C 26.264923 74.79892 23.472076 73.95105 20.759552 72.885986 C 19.565948 75.44635 18.857956 78.266449 18.724869 81.234985 L 28.335464 81.234985 C 28.400543 79.276215 28.660583 77.328827 29.111725 75.4216 M 31.174118 75.826569 C 30.750122 77.600616 30.502625 79.412231 30.435196 81.234985 L 39.971573 81.234985 L 39.971573 76.683228 C 37.020996 76.631592 34.079224 76.345154 31.174118 75.826569 M 34.130264 68.374329 C 33.143967 70.102997 32.361526 71.917999 31.758667 73.78891 C 34.472443 74.259338 37.217896 74.523956 39.971573 74.580536 L 39.971573 68.897064 C 38.007904 68.847565 36.050644 68.677368 34.130264 68.374329 M 37.785263 60.186157 C 33.926178 60.745972 30.391907 62.295044 27.44194 64.561768 C 29.281677 65.192596 31.158768 65.690308 33.060364 66.046021 C 34.409332 63.920837 35.994385 61.955048 37.785263 60.186157 M 35.345627 66.417084 C 36.879364 66.624146 38.431656 66.744873 39.971573 66.778748 L 39.971573 61.008698 C 38.225723 62.626617 36.67337 64.441559 35.345627 66.417084 M 48.963715 66.052216 C 50.880722 65.689423 52.769623 65.191345 54.616272 64.561768 C 51.647766 62.285889 48.107056 60.739807 44.232635 60.183197 C 46.060013 61.976685 47.637039 63.958679 48.963715 66.052216 M 46.675491 66.420074 C 45.353943 64.457275 43.812256 62.652039 42.08046 61.039612 L 42.08046 66.778748 C 43.617157 66.744873 45.154114 66.630341 46.675491 66.420074 M 50.268631 73.795105 C 49.674927 71.921234 48.883331 70.105988 47.902969 68.377563 C 45.985794 68.677368 44.034729 68.847565 42.08046 68.897064 L 42.08046 74.580536 C 44.84787 74.524872 47.575195 74.255737 50.268631 73.795105 M 42.08046 81.234985 L 51.585907 81.234985 C 51.520859 79.407349 51.267288 77.601501 50.849976 75.835968 C 47.95343 76.347137 45.021286 76.630432 42.08046 76.683228 Z M 41.025894 57.817535 C 27.534698 57.817535 16.557358 68.794891 16.557358 82.286316 C 16.557358 95.783691 27.534698 106.761047 41.025894 106.761047 C 54.520294 106.761047 65.49765 95.783691 65.49765 82.286316 C 65.49765 68.794891 54.520294 57.817535 41.025894 57.817535 M 69.715424 45.476654 C 47.167023 45.68692 24.652771 48.105042 2.704254 52.768066 C 12.379654 114.068054 50.682983 143.917023 69.715424 154.427582 Z"/>
        <path id="path2" fill="#002d72" stroke="none" d="M 116.281128 118.394165 C 116.290527 118.38501 116.296722 118.381805 116.305878 118.37265 L 116.281128 118.357086 Z M 129.67041 96.161194 C 129.679626 96.13501 129.692108 96.110077 129.70752 96.086975 L 129.67041 96.06546 Z"/>
        <path id="path3" fill="#002d72" stroke="none" d="M 72.896194 -0.427826 C 49.026794 -0.427826 25.751114 2.116943 3.306625 6.916046 L 3.220291 6.945251 C 1.646225 7.341034 0.461533 8.768402 0.461533 10.472076 L 0.466492 23.048981 C 0.466492 31.321259 0.967667 39.113617 1.867386 46.500305 C 48.4608 36.659637 97.421631 36.662109 143.940826 46.487915 C 144.83139 39.106201 145.336029 31.313843 145.336029 23.048981 L 145.340973 10.472076 C 145.340973 8.725128 144.09668 7.256195 142.45163 6.916046 L 142.404633 6.896759 C 119.992279 2.107056 96.738861 -0.427826 72.896683 -0.427826 Z M 188.930756 5.775879 C 188.230682 6.134583 187.985779 8.250153 188.700714 8.723145 L 191.641998 8.95517 C 198.588348 9.548889 199.763397 10.963623 199.763397 24.033539 L 199.763397 68.546509 C 199.763397 74.901611 199.407166 92.571747 196.700867 98.113007 C 195.88205 99.758057 194.464569 101.165619 191.995758 101.165619 C 190.345764 101.165619 188.700714 100.819305 187.053162 100.339386 C 185.521912 99.871826 184.099487 99.634369 182.684509 99.634369 C 180.213196 99.634369 178.456818 103.055573 178.456818 105.054382 C 178.456818 107.411896 182.103149 107.528168 183.515686 107.528168 C 194.464569 107.528168 202.823425 99.993042 206.717133 90.565521 C 208.95343 85.150452 209.423462 77.024109 209.423462 67.72522 L 209.423462 24.033539 C 209.423462 11.548187 209.665894 9.904358 216.612213 8.95517 L 218.371063 8.723145 C 219.081055 8.250153 218.843567 6.134583 218.128632 5.775879 C 213.426025 6.010895 209.418518 6.138306 204.705994 6.138306 C 199.765869 6.138306 195.76825 6.010895 188.930756 5.775879 Z M 509.333191 5.780823 C 508.615784 6.136322 508.393188 8.253113 509.085815 8.723145 L 512.15332 8.95517 C 518.263489 9.428162 519.104614 11.428955 519.104614 23.798523 L 519.104614 66.19397 C 519.104614 78.560333 518.857178 79.737854 512.276978 80.915375 L 510.273254 81.269104 C 509.555847 81.974121 509.803223 83.851715 510.49585 84.207947 C 515.097046 84.086731 519.104614 83.854187 524.175842 83.854187 C 528.752258 83.854187 532.759766 83.965515 539.117371 84.207947 C 539.809998 83.851715 540.057434 81.736633 539.364746 81.269104 L 535.950928 80.915375 C 529.346008 80.207855 528.752258 78.560333 528.752258 66.19397 L 528.752258 49.582611 C 528.752258 46.052551 528.999695 45.820007 534.639832 45.820007 L 568.332581 45.820007 C 573.972778 45.820007 574.195374 46.052551 574.195374 49.582611 L 574.195374 66.19397 C 574.195374 78.560333 574.195374 79.737854 567.021484 80.915375 L 564.795105 81.269104 C 564.077698 81.974121 564.325073 83.851715 565.04248 84.207947 C 570.212646 83.965515 574.442749 83.854187 579.266602 83.854187 C 583.867859 83.854187 587.875366 83.965515 593.515564 84.207947 C 594.23291 83.851715 594.455566 81.736633 593.762878 81.269104 L 590.94281 80.915375 C 584.090454 80.089111 583.867859 78.560333 583.867859 66.19397 L 583.867859 23.798523 C 583.867859 11.428955 584.090454 9.666382 590.94281 8.95517 L 593.391846 8.723145 C 594.109253 8.253113 593.886597 6.136322 593.16925 5.780823 C 587.875366 6.018799 583.867859 6.133331 579.266602 6.133331 C 574.442749 6.133331 570.435303 6.018799 565.04248 5.780823 C 564.325073 6.136322 564.077698 8.253113 564.795105 8.723145 L 567.021484 8.95517 C 573.972778 9.666382 574.195374 11.428955 574.195374 23.798523 L 574.195374 37.344879 C 574.195374 40.993683 573.972778 41.105011 568.332581 41.105011 L 534.639832 41.105011 C 528.999695 41.105011 528.752258 40.993683 528.752258 37.344879 L 528.752258 23.798523 C 528.752258 11.428955 528.999695 9.666382 535.802551 8.95517 L 538.05365 8.723145 C 538.771057 8.253113 538.523682 6.136322 537.830994 5.780823 C 532.759766 6.018799 528.752258 6.133331 524.175842 6.133331 C 519.104614 6.133331 515.097046 5.895111 509.333191 5.780823 Z M 49.484451 6.268677 C 57.358444 6.390869 66.03891 7.67276 72.873932 10.187103 L 72.90361 10.187103 C 83.83519 6.164276 99.504044 5.290527 109.015671 7.288116 L 113.164185 10.505981 L 114.282333 10.679871 C 114.653397 10.72937 114.950256 10.990845 115.073944 11.22583 L 126.651184 36.807068 C 127.024719 37.519531 126.438416 38.120667 125.775452 37.992004 C 108.157272 34.642548 89.467957 33.613434 72.898666 33.613434 L 72.88382 33.613434 C 56.30957 33.613434 37.627686 34.642548 20.011978 37.992004 C 19.344299 38.120667 18.763458 37.519531 19.137741 36.807068 L 30.708542 11.22583 C 30.837189 10.989838 31.126617 10.728363 31.507584 10.678894 L 32.613342 10.504974 L 36.764328 7.287109 C 40.331512 6.538055 44.762024 6.194458 49.484451 6.26767 Z M 35.517548 10.578461 L 31.695587 13.472534 L 23.767151 34.121552 C 34.347458 32.407227 58.244064 30.470276 70.081039 30.633545 C 70.563431 30.418335 71.157135 30.111572 72.00563 30.111572 C 57.746841 25.441101 41.395233 24.733612 29.763565 26.9328 Z M 110.091766 10.578461 L 115.86554 26.9328 C 104.228943 24.733612 87.857544 25.441101 73.59874 30.111572 C 74.454666 30.111572 75.04837 30.418335 75.523331 30.633545 C 87.367737 30.470276 111.269272 32.407227 121.847107 34.121552 L 113.913742 13.472534 Z M 253.468903 16.695343 C 233.01825 16.695343 218.106384 31.902588 218.106384 51.770905 C 218.106384 69.648834 231.42514 85.448792 253.468903 85.448792 C 272.665344 85.448792 287.953217 70.836243 287.953217 50.771515 C 287.953217 33.286896 276.425446 16.695343 253.468903 16.695343 Z M 628.368469 16.695343 C 607.9104 16.695343 593.018311 31.902588 593.018311 51.770905 C 593.018311 69.648834 606.327209 85.448792 628.368469 85.448792 C 647.540161 85.448792 662.852783 70.836243 662.852783 50.771515 C 662.852783 33.286896 651.325012 16.695343 628.368469 16.695343 Z M 460.176941 16.700043 C 447.263916 16.700043 439.916809 24.345215 439.916809 33.785126 C 439.916809 41.923828 445.655945 47.591217 450.652954 50.868958 L 460.078003 57.0336 C 467.326172 61.696655 468.241455 66.567505 468.241455 70.93866 C 468.241455 76.905365 464.134949 82.36499 455.798401 82.36499 C 444.29541 82.36499 440.213623 72.628235 438.729431 67.566895 C 438.333618 66.968262 436.849304 67.166168 436.329834 67.861298 C 436.52771 72.531769 437.838867 79.582001 439.026245 81.771271 C 440.906311 82.862213 446.175415 85.449768 454.512024 85.449768 C 467.42511 85.449768 475.687439 77.991364 475.687439 67.069672 C 475.687439 57.624817 469.503052 51.865906 463.244446 47.989502 L 455.30365 43.02713 C 451.642456 40.746307 446.868103 36.563171 446.868103 30.80423 C 446.868103 26.230225 448.946045 19.782623 458.692688 19.782623 C 468.216736 19.782623 470.913086 26.232727 472.199463 31.00708 C 472.694214 31.593353 474.277466 31.303925 474.673279 30.707764 C 474.673279 26.534515 473.782715 20.973236 472.892151 18.589264 C 472.100525 18.589264 470.71521 18.384186 469.428833 17.985168 C 466.83136 17.292511 463.269165 16.700043 460.176941 16.700043 Z M 908.052734 16.700043 C 895.139648 16.700043 887.767822 24.345215 887.767822 33.785126 C 887.767822 41.923828 893.531738 47.591217 898.503906 50.868958 L 907.953735 57.0336 C 915.201904 61.696655 916.092407 66.567505 916.092407 70.93866 C 916.092407 76.905365 912.010742 82.36499 903.674072 82.36499 C 892.146362 82.36499 888.064575 72.628235 886.580322 67.566895 C 886.18457 66.968262 884.700317 67.166168 884.205505 67.861298 C 884.403503 72.531769 885.689819 79.582001 886.877197 81.771271 C 888.781982 82.862213 894.026367 85.449768 902.387695 85.449768 C 915.300781 85.449768 923.538452 77.991364 923.538452 67.069672 C 923.538452 57.624817 917.378784 51.865906 911.120117 47.989502 L 903.179321 43.02713 C 899.493408 40.746307 894.718994 36.563171 894.718994 30.80423 C 894.718994 26.230225 896.821777 19.782623 906.568359 19.782623 C 916.092407 19.782623 918.764038 26.232727 920.075195 31.00708 C 920.569946 31.593353 922.153076 31.303925 922.54895 30.707764 C 922.54895 26.534515 921.658447 20.973236 920.767822 18.589264 C 919.976196 18.589264 918.566162 18.384186 917.279785 17.985168 C 914.707153 17.292511 911.120117 16.700043 908.052734 16.700043 Z M 289.165375 17.985168 C 288.571655 18.279053 288.373749 20.073029 288.967468 20.468842 L 291.540192 20.666748 C 296.710358 21.065765 297.403015 22.759552 297.403015 33.191406 L 297.403015 68.954681 C 297.403015 79.384094 297.205109 80.383514 291.63913 81.370514 L 289.95697 81.669861 C 289.363281 82.26355 289.561157 83.854187 290.154877 84.153503 C 294.038696 84.054565 297.403015 83.854187 301.682617 83.854187 C 305.566437 83.854187 308.930756 83.950653 314.298828 84.153503 C 314.892548 83.854187 315.090454 82.065674 314.496735 81.669861 L 311.627197 81.370514 C 306.061218 80.774353 305.566437 79.384094 305.566437 68.954681 L 305.566437 54.94574 C 305.566437 51.964844 305.764343 51.766937 310.513977 51.766937 L 338.937561 51.766937 C 343.711975 51.766937 343.909882 51.964844 343.909882 54.94574 L 343.909882 68.954681 C 343.909882 79.384094 343.909882 80.383514 337.849121 81.370514 L 335.969055 81.669861 C 335.350616 82.26355 335.548523 83.854187 336.166962 84.153503 C 340.520782 83.950653 344.083008 83.854187 348.189484 83.854187 C 352.048553 83.854187 355.437592 83.950653 360.187256 84.153503 C 360.780945 83.854187 360.978851 82.065674 360.385132 81.669861 L 358.010345 81.370514 C 352.24646 80.675415 352.048553 79.384094 352.048553 68.954681 L 352.048553 33.191406 C 352.048553 22.759552 352.24646 21.266632 358.010345 20.666748 L 360.113007 20.468842 C 360.682007 20.073029 360.4841 18.279053 359.915161 17.985168 C 355.437592 18.186279 352.048553 18.280029 348.189484 18.280029 C 344.083008 18.280029 340.718689 18.186279 336.166962 17.985168 C 335.548523 18.279053 335.350616 20.073029 335.969055 20.468842 L 337.849121 20.666748 C 343.711975 21.266632 343.909882 22.759552 343.909882 33.191406 L 343.909882 44.612823 C 343.909882 47.695129 343.711975 47.796539 338.937561 47.796539 L 310.513977 47.796539 C 305.764343 47.796539 305.566437 47.695129 305.566437 44.612823 L 305.566437 33.191406 C 305.566437 22.759552 305.764343 21.266632 311.503479 20.666748 L 313.408295 20.468842 C 314.002014 20.073029 313.804108 18.279053 313.210388 17.985168 C 308.930756 18.186279 305.566437 18.280029 301.682617 18.280029 C 297.403015 18.280029 294.038696 18.087341 289.165375 17.985168 Z M 364.763702 17.985168 C 363.996857 18.387146 363.972137 19.881561 364.590576 20.478485 L 366.272705 20.666748 C 368.647552 20.969757 371.022339 21.66687 372.432404 23.058868 C 374.510376 25.337219 374.609314 27.430023 374.609314 30.208069 L 374.609314 58.923553 C 374.609314 63.690521 374.708252 75.809509 373.322968 79.384094 C 372.828186 80.484924 371.244965 81.073669 368.944397 81.370514 L 366.272705 81.669861 C 365.654266 82.26355 365.753235 83.658752 366.445892 84.153503 C 369.933868 83.955627 372.63031 83.854187 376.786255 83.854187 C 380.472168 83.854187 383.960144 83.955627 388.412903 84.153503 C 389.105591 83.658752 389.204529 82.468872 388.61084 81.669861 L 385.543396 81.370514 C 383.044861 81.172638 381.065857 80.576447 380.472168 79.475616 C 378.789978 76.502167 378.69104 63.589081 378.69104 58.923553 L 378.69104 37.263245 C 378.69104 34.282349 378.789978 32.001526 379.185791 30.809174 L 379.383667 30.809174 C 381.46167 32.99353 388.215027 41.139648 390.911438 44.21701 L 413.942261 70.451324 C 422.600403 80.279602 425.470032 83.760193 426.682129 85.449768 C 427.770569 85.449768 428.364319 84.947601 428.562195 84.356354 C 428.26532 81.773743 428.26532 69.946655 428.26532 66.963318 L 428.26532 43.220093 C 428.26532 38.651031 428.067444 26.334137 429.749634 22.754608 C 430.145447 21.962494 432.12439 21.164703 435.315613 20.666748 L 436.700867 20.478485 C 437.294617 19.881561 437.294617 18.483124 436.502991 17.985168 C 433.138672 18.183075 430.541199 18.280029 426.261597 18.280029 C 422.501465 18.280029 419.112427 18.183075 414.535889 17.985168 C 413.744324 18.279053 413.645386 19.881561 414.362793 20.478485 L 416.044922 20.666748 C 420.002991 21.164703 421.586182 21.76062 422.20459 22.658112 C 424.084656 25.639008 424.183655 38.554565 424.183655 43.220093 L 424.183655 64.479645 C 424.183655 66.567505 424.183655 68.158142 423.787842 68.652893 L 423.589905 68.652893 C 418.91449 63.883453 414.041199 58.32489 407.188843 50.671082 L 397.541138 39.843384 C 394.275818 36.172302 382.55011 23.056396 380.571106 17.985168 C 379.284729 18.183075 377.6026 18.280029 375.994629 18.280029 C 374.213501 18.280029 368.944397 18.279053 364.763702 17.985168 Z M 684.325073 17.985168 C 676.062744 17.985168 669.903015 18.086853 664.633911 18.782471 C 663.842285 19.181488 663.743347 20.67392 664.435974 21.270813 L 668.022949 21.66687 C 672.475708 22.158661 672.673645 23.847992 672.673645 32.295929 L 672.673645 68.954681 C 672.673645 79.384094 672.475708 80.578918 666.711853 81.370514 L 664.633911 81.669861 C 664.040161 82.26355 664.238098 83.854187 664.856567 84.153503 C 669.210327 83.950653 672.797302 83.854187 676.953247 83.854187 C 680.936035 83.854187 684.201355 83.950653 689.866333 84.153503 C 690.460022 83.854187 690.657959 82.16214 690.06427 81.669861 L 687.367798 81.370514 C 681.034973 80.675415 680.837097 79.384094 680.837097 68.954681 L 680.837097 24.647034 C 680.837097 21.460083 680.936035 21.067719 686.205139 21.067719 C 696.520752 21.067719 702.18573 27.326111 702.18573 36.963928 C 702.18573 45.609741 698.30188 51.670471 687.590515 53.661865 C 686.996765 53.857269 686.996765 55.341553 687.689392 55.643341 C 691.771118 55.643341 697.015564 54.747833 701.394104 52.662445 C 705.673706 50.574585 711.338623 46.008026 711.338623 36.867432 C 711.338623 30.012634 707.949585 24.849884 703.373047 21.961761 C 698.722473 19.079803 692.538025 17.985168 684.325073 17.985168 Z M 782.01416 17.985168 C 781.420471 18.282013 781.197876 20.074768 781.816284 20.473541 L 784.2901 20.671692 C 790.152893 21.166443 790.350769 22.853546 790.350769 33.389313 L 790.350769 68.751831 C 790.350769 79.285156 790.152893 80.680359 784.2901 81.375488 L 781.816284 81.669861 C 781.197876 82.26355 781.420471 83.854187 782.01416 84.153503 C 786.98645 83.953125 790.350769 83.854187 794.531433 83.854187 C 798.514221 83.854187 801.87854 83.953125 806.85083 84.153503 C 807.444519 83.854187 807.642456 82.065674 807.048706 81.669861 L 804.574951 81.375488 C 798.712097 80.680359 798.489502 79.285156 798.489502 68.751831 L 798.489502 33.389313 C 798.489502 22.853546 798.712097 21.166443 804.574951 20.671692 L 807.048706 20.473541 C 807.642456 20.074768 807.444519 18.282013 806.85083 17.985168 C 801.87854 18.183075 798.514221 18.284729 794.531433 18.284729 C 790.350769 18.284729 786.98645 18.183075 782.01416 17.985168 Z M 812.812622 17.985168 C 812.020996 18.387146 812.020996 19.881561 812.614685 20.478485 L 814.296875 20.666748 C 816.69635 20.969757 819.071228 21.66687 820.456543 23.058868 C 822.559265 25.337219 822.633484 27.430023 822.633484 30.208069 L 822.633484 58.923553 C 822.633484 63.690521 822.757141 75.809509 821.347046 79.384094 C 820.852356 80.484924 819.269104 81.073669 816.993286 81.370514 L 814.296875 81.669861 C 813.703125 82.26355 813.802124 83.658752 814.494751 84.153503 C 817.982788 83.955627 820.654419 83.854187 824.835083 83.854187 C 828.496277 83.854187 831.984314 83.955627 836.461853 84.153503 C 837.15448 83.658752 837.253479 82.468872 836.659729 81.669861 L 833.567505 81.370514 C 831.09375 81.172638 829.114746 80.576447 828.496277 79.475616 C 826.814148 76.502167 826.71521 63.589081 826.71521 58.923553 L 826.71521 37.263245 C 826.71521 34.282349 826.814148 32.001526 827.23468 30.809174 L 827.407837 30.809174 C 829.485779 32.99353 836.263916 41.139648 838.935608 44.21701 L 861.99115 70.451324 C 870.624573 80.279602 873.51886 83.760193 874.706299 85.449768 C 875.794739 85.449768 876.388428 84.947601 876.586365 84.356354 C 876.289551 81.773743 876.289551 69.946655 876.289551 66.963318 L 876.289551 43.220093 C 876.289551 38.651031 876.091553 26.334137 877.773743 22.754608 C 878.169556 21.962494 880.173279 21.164703 883.339722 20.666748 L 884.749756 20.478485 C 885.343445 19.881561 885.343445 18.483124 884.55188 17.985168 C 881.162842 18.183075 878.590088 18.280029 874.310486 18.280029 C 870.525574 18.280029 867.161316 18.183075 862.584839 17.985168 C 861.793213 18.279053 861.694214 19.881561 862.386902 20.478485 L 864.069092 20.666748 C 868.051819 21.164703 869.635071 21.76062 870.22876 22.658112 C 872.108826 25.639008 872.232483 38.554565 872.232483 43.220093 L 872.232483 64.479645 C 872.232483 66.567505 872.232483 68.158142 871.812012 68.652893 L 871.614075 68.652893 C 866.963379 63.883453 862.090027 58.32489 855.237732 50.671082 L 845.590027 39.843384 C 842.324646 36.172302 830.598999 23.056396 828.595276 17.985168 C 827.308838 18.183075 825.626709 18.280029 824.043457 18.280029 C 822.237671 18.280029 816.993286 18.279053 812.812622 17.985168 Z M 713.911316 17.990112 C 713.317688 18.280792 713.119751 20.071533 713.713501 20.473541 L 716.211914 20.671692 C 721.97583 21.166443 722.173706 22.754608 722.173706 33.186462 L 722.173706 68.959625 C 722.173706 79.386566 721.97583 80.578918 716.706726 81.370514 L 714.702942 81.674805 C 714.109314 82.369934 714.331909 83.851715 714.925598 84.158447 C 718.982544 83.950653 722.371643 83.854187 726.428589 83.854187 C 730.312439 83.854187 733.701477 83.950653 738.550049 84.158447 C 739.168518 83.851715 739.341675 82.070618 738.747986 81.674805 L 736.076294 81.370514 C 730.510315 80.771881 730.312439 79.386566 730.312439 68.959625 L 730.312439 56.140564 C 730.312439 52.662445 730.510315 51.371155 731.994568 51.371155 C 734.394165 51.371155 735.977417 53.355103 741.642273 59.710205 L 749.58313 68.652893 C 753.367981 72.930023 755.940613 75.609131 757.82074 77.993835 C 758.513367 78.889343 759.230774 79.683411 759.230774 80.284546 C 759.230774 80.774353 758.241333 81.071198 756.831238 81.269104 L 754.555359 81.674805 C 753.96167 82.268494 754.258484 83.950653 754.951172 84.158447 C 759.527649 83.950653 762.990906 83.854187 767.072571 83.854187 C 771.748047 83.854187 775.607117 83.950653 778.204529 84.158447 C 778.897217 83.851715 779.095154 82.167084 778.402527 81.674805 L 775.730774 81.370514 C 772.341736 80.974731 770.164795 79.680939 767.765259 77.298706 C 760.0224 69.15506 752.378418 60.207428 742.92865 49.379761 C 741.642273 47.794067 741.048584 46.995056 741.048584 46.302399 C 741.048584 45.508301 741.939209 44.615295 743.324463 43.220093 L 752.254761 34.779572 C 757.82074 29.510468 763.386719 24.842468 766.182068 23.256775 C 768.952698 21.664154 772.836548 20.671448 775.409241 20.473541 C 776.00293 19.876862 775.903992 18.484863 775.211304 17.990112 C 772.242859 18.188019 768.853699 18.280029 765.390442 18.280029 C 761.902405 18.280029 757.944397 18.188019 754.456421 17.990112 C 753.664795 18.484863 753.565857 19.777924 754.258484 20.473541 L 756.930237 21.067719 C 758.241333 21.370758 758.637085 21.667358 758.637085 22.063171 C 758.637085 22.458984 758.439148 22.957458 757.919678 23.647614 C 756.930237 25.045319 752.056885 30.1091 750.176819 31.900116 L 739.465393 42.524963 C 738.352173 43.516937 735.779419 46.106964 734.394165 47.294373 C 733.701477 47.794067 732.48938 48.395203 731.598755 48.395203 C 730.510315 48.395203 730.312439 46.502777 730.312439 44.617767 L 730.312439 33.186462 C 730.312439 22.754608 730.510315 21.268341 736.274231 20.671692 L 738.154236 20.473541 C 738.772705 20.071533 738.550049 18.280792 737.95636 17.990112 C 733.701477 18.188019 730.312439 18.280029 726.428589 18.280029 C 721.97583 18.280029 718.784668 18.188019 713.911316 17.990112 Z M 251.786743 19.782623 C 270.760529 19.782623 278.033417 37.461151 278.033417 53.848877 C 278.033417 73.42627 266.703552 82.363983 254.779999 82.363983 C 235.20752 82.363983 228.055878 63.286285 228.055878 48.592102 C 228.055878 26.835327 241.461212 19.782623 251.786743 19.782623 Z M 626.686279 19.782623 C 645.660095 19.782623 652.908203 37.461151 652.908203 53.848877 C 652.908203 73.42627 641.603088 82.363983 629.679504 82.363983 C 610.112061 82.363983 602.93811 63.286285 602.93811 48.592102 C 602.93811 26.835327 616.370667 19.782623 626.686279 19.782623 Z M 76.050247 45.475159 L 76.050247 60.387054 L 89.467957 69.300018 L 89.467957 45.875916 C 85.002808 45.665649 80.522827 45.517212 76.050247 45.475159 Z M 102.880737 46.776367 L 102.880737 78.225372 L 116.2836 87.158142 L 116.2836 48.258148 C 111.828354 47.694122 107.360733 47.17218 102.880737 46.776367 Z M 129.686493 50.224792 L 129.686493 96.071136 L 116.288559 87.158142 L 116.288559 118.384521 L 116.313293 118.399384 C 121.100037 111.905731 125.65918 104.509155 129.691437 96.172577 L 129.691437 96.081055 L 129.726074 96.10083 C 135.650757 83.818573 140.430054 69.470703 143.06958 52.757935 C 138.626678 51.812958 134.173889 50.976837 129.686493 50.224792 Z M 89.467957 69.309937 L 89.467957 100.526398 L 76.055191 91.608459 L 76.055191 154.417419 C 79.882111 152.314728 84.478378 149.405579 89.467957 145.645447 L 89.467957 100.531342 L 102.875793 109.46167 L 102.875793 78.230316 Z M 102.880737 109.456696 L 102.880737 133.991516 C 107.390411 129.516479 111.937195 124.324066 116.2836 118.419159 L 116.2836 118.384521 Z M 727.804016 114.456177 C 727.60614 114.463623 727.383545 114.503204 727.309326 114.552673 C 726.962952 116.600952 726.196106 119.88858 725.355042 122.201569 C 725.577637 122.602295 726.295044 122.864532 726.690857 122.55777 C 727.259766 121.271423 727.779236 120.1409 728.991455 119.012878 C 730.277771 117.835358 733.0979 117.731445 735.32428 117.731445 L 738.144348 117.731445 C 739.678162 117.731445 739.678162 117.773499 739.678162 119.36908 L 739.678162 142.305878 C 739.678162 147.683838 739.406006 148.463074 736.487 148.712921 L 734.656433 148.871246 C 734.23584 149.118622 734.334778 149.996826 734.656433 150.147705 C 737.946472 150.051239 739.7276 149.996826 741.780823 149.996826 C 743.834045 149.996826 745.590393 150.051239 748.50946 150.147705 C 748.806274 149.996826 748.905273 149.071625 748.608398 148.871246 L 746.950989 148.712921 C 743.982483 148.463074 743.883484 147.683838 743.883484 142.305878 L 743.883484 119.475464 C 743.883484 117.778473 743.834045 117.731445 745.367798 117.731445 L 749.004211 117.731445 C 751.82428 117.731445 753.778564 118.139618 754.966003 119.012878 C 755.73291 119.579376 756.103943 121.479218 756.25238 122.758148 C 756.499756 123.062439 757.390259 123.062439 757.588196 122.661682 C 757.415039 121.113098 757.786072 116.962128 758.355042 114.861877 C 758.256104 114.659027 757.687195 114.609558 757.415039 114.708527 C 756.672913 116.039398 756.202881 116.138336 753.432312 116.138336 L 732.652588 116.138336 C 730.277771 116.138336 728.595642 116.195251 728.298828 114.552673 C 728.224609 114.475983 728.001953 114.448761 727.804016 114.456177 Z M 644.066956 115.322021 C 637.387817 115.322021 633.578186 119.275085 633.578186 124.148407 C 633.578186 128.353821 636.571411 131.270386 639.144165 132.969879 L 644.017517 136.156067 C 647.75293 138.558105 648.222961 141.073944 648.222961 143.334961 C 648.222961 146.417267 646.120239 149.22995 641.815796 149.22995 C 635.854126 149.22995 633.751404 144.205719 632.984497 141.590942 C 632.786621 141.281738 631.994995 141.375732 631.74762 141.73938 C 631.846558 144.148834 632.514526 147.78775 633.132935 148.920715 C 634.097656 149.489685 636.818848 150.818115 641.147949 150.818115 C 647.802368 150.818115 652.057251 146.973877 652.057251 141.328735 C 652.057251 136.455414 648.890808 133.484406 645.650208 131.483124 L 641.543762 128.907959 C 639.638977 127.730438 637.18988 125.585663 637.18988 122.602295 C 637.18988 120.24234 638.27832 116.905212 643.30011 116.905212 C 648.222961 116.905212 649.608276 120.244812 650.276123 122.708679 C 650.523499 123.015442 651.339844 122.864532 651.537781 122.555298 C 651.537781 120.395691 651.092468 117.523651 650.622498 116.286774 C 650.201904 116.286774 649.484497 116.19278 648.84137 115.982513 C 647.480774 115.628754 645.650208 115.322021 644.066956 115.322021 Z M 285.865356 115.982513 C 285.568512 116.138336 285.444824 117.009125 285.766418 117.219391 L 287.052765 117.315857 C 290.021301 117.573151 290.120239 118.446381 290.120239 123.782288 L 290.120239 135.89386 C 290.120239 141.999115 291.406586 145.739471 294.127747 147.998016 C 296.651001 150.150177 300.188477 150.823059 303.725983 150.823059 C 307.510834 150.823059 311.320435 149.487213 313.522095 147.070343 C 316.391663 143.997925 317.10907 139.280457 317.10907 134.822723 L 317.10907 129.014313 C 317.10907 126.134857 317.10907 120.24234 317.826447 118.552765 C 318.123291 117.882355 319.112823 117.422241 320.39917 117.315857 L 321.636078 117.219391 C 321.883423 116.905212 321.932892 116.242249 321.51236 115.982513 C 319.681763 116.088867 318.296478 116.138336 316.119537 116.138336 C 314.140533 116.138336 312.235718 116.088867 310.281464 115.982513 C 309.984589 116.19278 309.885651 116.858215 310.182495 117.219391 L 311.468872 117.315857 C 312.755219 117.422241 313.670502 117.778473 314.041565 118.399384 C 314.90741 119.935577 315.006348 125.83551 315.006348 129.014313 L 315.006348 134.919189 C 315.006348 142.718994 312.186249 148.557068 304.740204 148.557068 C 296.898376 148.557068 294.325653 143.122223 294.325653 134.86972 L 294.325653 123.782288 C 294.325653 118.446381 294.424591 117.573151 297.393097 117.315857 L 298.654724 117.219391 C 298.951599 117.009125 298.852631 116.138336 298.531067 115.982513 C 296.032562 116.088867 294.325653 116.138336 292.222931 116.138336 C 290.169708 116.138336 288.43808 116.088867 285.865356 115.982513 Z M 349.268066 115.982513 C 348.847504 116.19278 348.847504 116.959656 349.169067 117.26886 L 350.034912 117.375244 C 351.24704 117.526123 352.483917 117.882355 353.201324 118.602234 C 354.289795 119.782196 354.339233 120.860779 354.339233 122.298035 L 354.339233 137.115906 C 354.339233 139.584717 354.388733 145.853241 353.671356 147.683838 C 353.42395 148.247864 352.582886 148.557068 351.420227 148.712921 L 350.034912 148.871246 C 349.713318 149.180481 349.762787 149.890442 350.13385 150.147705 C 351.939728 150.051239 353.325043 149.996826 355.452484 149.996826 C 357.357239 149.996826 359.163116 150.051239 361.463715 150.147705 C 361.834808 149.890442 361.884247 149.276947 361.562683 148.871246 L 359.979462 148.712921 C 358.693115 148.613983 357.678833 148.30722 357.357239 147.740753 C 356.491455 146.204529 356.441956 139.535248 356.441956 137.115906 L 356.441956 125.932007 C 356.441956 124.403198 356.491455 123.218262 356.689362 122.602295 L 356.7883 122.602295 C 357.87674 123.735291 361.364777 127.938232 362.750092 129.531342 L 374.648926 143.072723 C 379.101685 148.151398 380.610718 149.947327 381.204346 150.818115 C 381.773376 150.818115 382.09491 150.563293 382.193909 150.254089 C 382.045471 148.920715 382.045471 142.817932 382.045471 141.281738 L 382.045471 129.019257 C 382.045471 126.656799 381.946533 120.299225 382.812317 118.446381 C 383.010254 118.035736 384.049194 117.625092 385.681946 117.375244 L 386.399292 117.26886 C 386.696167 116.959656 386.696167 116.242249 386.300354 115.982513 C 384.543945 116.088867 383.20813 116.138336 381.006531 116.138336 C 379.052185 116.138336 377.320557 116.088867 374.97052 115.982513 C 374.549988 116.138336 374.500488 116.959656 374.871521 117.26886 L 375.737366 117.375244 C 377.790588 117.625092 378.606934 117.929352 378.903809 118.399384 C 379.89325 119.933105 379.942749 126.609802 379.942749 129.019257 L 379.942749 139.995361 C 379.942749 141.071472 379.942749 141.895233 379.744873 142.150024 L 379.621155 142.150024 C 377.221619 139.686157 374.698364 136.811646 371.160889 132.863495 L 366.188629 127.270294 C 364.506439 125.377869 358.445709 118.602234 357.406738 115.982513 C 356.7388 116.088867 355.873016 116.138336 355.056671 116.138336 C 354.141388 116.138336 351.420227 116.138336 349.268066 115.982513 Z M 415.936096 115.982513 C 415.639282 116.138336 415.515564 117.058594 415.837097 117.26886 L 417.123474 117.375244 C 420.141479 117.625092 420.240417 118.493378 420.240417 123.935669 L 420.240417 142.199493 C 420.240417 147.631897 420.141479 148.351746 417.123474 148.707977 L 415.837097 148.871246 C 415.515564 149.180481 415.639282 149.996826 415.936096 150.152649 C 418.508789 150.053711 420.240417 149.996826 422.392639 149.996826 C 424.445862 149.996826 426.202209 150.053711 428.750183 150.152649 C 429.071777 149.996826 429.170715 149.076569 428.849182 148.871246 L 427.587524 148.707977 C 424.5448 148.351746 424.445862 147.631897 424.445862 142.199493 L 424.445862 123.935669 C 424.445862 118.493378 424.5448 117.625092 427.587524 117.375244 L 428.849182 117.26886 C 429.170715 117.058594 429.071777 116.138336 428.750183 115.982513 C 426.202209 116.088867 424.445862 116.138336 422.392639 116.138336 C 420.240417 116.138336 418.508789 116.088867 415.936096 115.982513 Z M 456.827454 115.982513 C 456.406921 116.239777 456.357483 116.962128 456.703796 117.26886 L 457.643799 117.375244 C 459.845459 117.625092 460.612366 118.708588 461.775024 121.578156 L 470.829041 143.842072 C 471.694824 145.999207 472.610107 148.505127 473.179077 150.664734 C 473.426453 150.763672 473.698547 150.818115 473.945923 150.818115 C 474.14386 150.818115 474.366455 150.763672 474.514893 150.664734 C 475.380737 147.941101 477.780273 141.999115 479.833557 137.271759 L 482.604126 130.966125 C 484.929504 125.743988 486.908508 121.575684 488.368042 119.166229 C 489.03595 118.090149 489.802795 117.47171 491.039673 117.375244 L 492.573425 117.26886 C 492.820801 117.011597 492.820801 116.19278 492.449707 115.982513 C 490.767578 116.088867 489.184387 116.133392 487.477478 116.133392 C 485.547913 116.133392 483.593628 116.088867 482.158875 115.982513 C 481.787781 116.19278 481.688843 116.962128 482.059875 117.26886 L 482.975159 117.375244 C 484.781067 117.575623 485.275818 117.986267 485.275818 118.339996 C 485.275818 118.706116 485.226318 119.275085 484.805786 120.351166 C 483.939941 122.555298 481.540405 128.351349 480.056152 131.834412 C 478.868774 134.560516 476.716553 139.839539 475.133362 143.228577 C 472.560669 137.375641 470.210571 131.480652 467.835754 125.53125 C 466.252502 121.630127 465.386719 118.859497 465.287781 118.339996 C 465.337219 117.929352 465.733032 117.625092 467.687317 117.375244 L 468.454163 117.26886 C 468.825256 116.962128 468.726318 116.19278 468.355225 115.982513 C 466.203064 116.088867 464.397217 116.133392 462.146057 116.133392 C 459.944397 116.133392 458.286987 116.088867 456.827454 115.982513 Z M 519.710632 115.982513 C 519.389038 116.138336 519.2901 117.058594 519.586975 117.26886 L 520.40332 117.380188 C 523.446045 117.728973 523.544983 118.49585 523.544983 123.839172 L 523.544983 142.310822 C 523.544983 147.683838 523.297607 148.45813 520.353821 148.707977 L 518.671692 148.871246 C 518.374817 149.177979 518.449036 149.996826 518.77063 150.152649 C 521.788635 150.053711 523.544983 149.996826 525.746643 149.996826 L 530.37262 149.996826 C 534.924316 149.996826 539.500793 150.053711 544.10199 150.152649 C 544.769958 148.769836 546.056274 144.821686 546.427368 143.025726 C 546.229431 142.558197 545.487305 142.402344 545.140991 142.662079 C 543.805176 145.328796 542.419861 147.124756 541.504578 147.634369 C 540.366638 148.200867 538.882385 148.403717 534.924316 148.403717 C 530.422058 148.403717 529.333618 147.834747 528.715149 147.218781 C 527.923584 146.352966 527.750427 144.613892 527.750427 141.895233 L 527.750427 134.66687 C 527.750427 133.32608 527.898804 133.276611 529.432617 133.276611 L 532.425842 133.276611 C 534.404846 133.276611 535.641724 133.32608 536.38385 133.536377 C 537.398071 133.79364 537.744385 134.562988 537.942322 135.488159 L 538.437073 137.479553 C 538.659729 137.783813 539.550293 137.786285 539.748169 137.420166 C 539.748169 136.306976 539.550293 134.35022 539.550293 132.507263 C 539.550293 130.557953 539.748169 128.554199 539.748169 127.317322 C 539.550293 126.963562 538.659729 126.96109 538.437073 127.270294 L 538.016541 129.370544 C 537.744385 130.656891 537.398071 130.963654 536.779663 131.17392 C 536.161194 131.37677 534.553284 131.483124 532.425842 131.483124 L 529.432617 131.483124 C 527.898804 131.483124 527.750427 131.483124 527.750427 130.043396 L 527.750427 119.779724 C 527.750427 117.832886 527.750427 117.726501 529.284119 117.726501 L 532.970032 117.726501 C 535.245911 117.726501 536.878601 117.776001 537.942322 118.035736 C 540.638733 118.708588 541.083984 120.502075 541.850891 122.91153 C 542.122986 123.220734 542.939331 123.121796 543.137268 122.815063 C 542.939331 120.551544 542.617737 116.860687 542.320923 115.982513 C 541.702454 116.138336 538.684448 116.138336 535.394348 116.138336 L 525.746643 116.138336 C 523.643921 116.138336 521.912292 116.091339 519.710632 115.982513 Z M 586.725037 115.982513 C 581.703308 115.982513 578.165833 116.133392 575.296204 116.393158 C 574.875671 116.596008 574.875671 117.422241 575.222046 117.684448 L 576.879456 117.882355 C 578.982178 118.14209 579.130554 119.012878 579.130554 123.893616 L 579.130554 142.310822 C 579.130554 147.683838 579.031616 148.351746 576.06311 148.707977 L 574.776733 148.871246 C 574.455139 149.227478 574.578857 149.996826 574.875671 150.152649 C 577.275269 150.053711 579.130554 149.996826 581.282776 149.996826 C 583.335999 149.996826 585.092346 150.053711 587.392944 150.152649 C 587.714539 149.996826 587.813477 149.121094 587.491882 148.871246 L 586.428162 148.707977 C 583.434937 148.304749 583.335999 147.683838 583.335999 142.310822 L 583.335999 135.851807 C 583.335999 134.765839 583.434937 134.716339 585.760254 134.716339 C 587.813477 134.716339 588.629822 135.225952 589.396729 136.358917 C 590.979919 138.662018 593.082642 142.204437 594.418457 144.101837 C 598.054871 149.276947 600.677063 150.563293 605.055664 150.563293 C 606.020447 150.563293 606.836792 150.45694 607.306824 150.301086 C 607.554138 150.100708 607.5047 149.687592 607.257324 149.581238 C 605.872009 149.482269 604.585632 148.918243 603.719849 148.151398 C 600.231812 145.23233 597.510681 141.125885 593.404175 134.513489 C 593.15686 134.100372 592.884705 133.580902 593.132141 133.276611 C 595.704834 132.25 599.563904 129.588226 599.563904 124.714905 C 599.563904 121.118042 597.758057 118.807556 595.284302 117.528595 C 592.934204 116.242249 589.916199 115.982513 586.725037 115.982513 Z M 682.632996 115.982513 C 682.311462 116.138336 682.212463 117.058594 682.534119 117.26886 L 683.820435 117.375244 C 686.83844 117.625092 686.937378 118.493378 686.937378 123.935669 L 686.937378 142.199493 C 686.937378 147.631897 686.83844 148.351746 683.820435 148.707977 L 682.534119 148.871246 C 682.212463 149.180481 682.311462 149.996826 682.632996 150.152649 C 685.20575 150.053711 686.937378 149.996826 689.089539 149.996826 C 691.142761 149.996826 692.89917 150.053711 695.447144 150.152649 C 695.768799 149.996826 695.867676 149.076569 695.546082 148.871246 L 694.259705 148.707977 C 691.24176 148.351746 691.142761 147.631897 691.142761 142.199493 L 691.142761 123.935669 C 691.142761 118.493378 691.24176 117.625092 694.259705 117.375244 L 695.546082 117.26886 C 695.867676 117.058594 695.768799 116.138336 695.447144 115.982513 C 692.89917 116.088867 691.142761 116.138336 689.089539 116.138336 C 686.937378 116.138336 685.20575 116.088867 682.632996 115.982513 Z M 785.071716 115.982513 C 784.700684 116.19278 784.651245 116.90274 784.948059 117.26886 L 786.382813 117.523651 C 787.941345 117.776001 788.708191 118.035736 790.4646 121.419861 L 796.50061 133.227142 C 797.984802 136.09671 798.13324 136.757202 798.13324 139.579773 L 798.13324 142.204437 C 798.13324 147.68631 798.034363 148.403717 795.065796 148.712921 L 793.482605 148.871246 C 793.161011 149.180481 793.259888 149.991882 793.581482 150.147705 C 796.302673 150.046295 798.13324 149.991882 800.310181 149.991882 C 802.338684 149.991882 804.095032 150.046295 807.286194 150.147705 C 807.583069 149.991882 807.706787 149.180481 807.385193 148.871246 L 805.430847 148.712921 C 802.660278 148.507599 802.338684 147.68631 802.338684 142.204437 L 802.338684 139.532776 C 802.338684 135.5896 802.511841 135.127014 804.763 131.220917 L 808.003601 125.637634 C 810.551575 121.221954 812.110107 117.986267 814.756958 117.523651 L 816.216492 117.26886 C 816.562805 116.959656 816.513367 116.242249 816.092834 115.982513 C 814.361145 116.088867 812.926392 116.138336 811.318481 116.138336 C 809.759949 116.138336 808.251038 116.088867 806.395691 115.982513 C 805.999878 116.19278 805.950317 116.90274 806.296692 117.26886 L 807.211975 117.375244 C 808.473633 117.526123 809.388916 117.882355 809.388916 118.191589 C 809.388916 118.802582 807.48407 122.295563 806.049316 124.964752 C 804.515564 127.940704 802.808716 130.914154 801.225464 133.637787 C 799.22168 130.087921 797.316895 126.040863 795.436829 122.248566 C 795.164734 121.734009 793.828918 118.805054 793.828918 118.297943 C 793.828918 117.882355 794.199951 117.625092 795.981079 117.375244 L 796.649048 117.26886 C 796.970581 116.959656 796.970581 116.138336 796.50061 115.982513 C 795.214172 116.088867 793.383667 116.138336 791.033508 116.138336 C 788.559753 116.138336 786.704407 116.088867 785.071716 115.982513 Z M 586.675598 117.578094 C 592.365234 117.578094 594.888489 121.422333 594.888489 125.481781 C 594.888489 128.967316 593.70105 130.758331 592.315796 131.834412 C 590.831482 132.967407 588.901978 133.170258 587.046631 133.170258 C 584.424438 133.170258 583.657593 133.071289 583.484375 132.917908 C 583.335999 132.707642 583.335999 132.143646 583.335999 131.220917 L 583.335999 119.215729 C 583.335999 117.778473 583.484375 117.578094 586.675598 117.578094 Z"/>
    </g>
</svg>
