<?xml version="1.0" encoding="UTF-8"?>
<!-- Generated by Pixelmator Pro 3.6.5 -->
<svg width="924" height="264" viewBox="0 0 924 264" xmlns="http://www.w3.org/2000/svg">
    <path id="path1" fill="#ffffff" stroke="none" d="M 101.753281 260.647949 C 84.364182 247.645142 68.745453 232.454132 55.328613 215.493896 L 54.147476 213.997253 L 102.990921 166.466919 L 151.989471 214.110626 L 150.798859 215.61142 C 137.363434 232.520111 121.715881 247.673615 104.289612 260.647949 L 103.019363 261.593994 Z"/>
    <path id="path2" fill="#ffffff" stroke="none" d="M 102.990921 163.513489 L 100.035614 166.384247 L 54.039032 211.142822 L 51.300232 213.806549 L 53.671982 216.808868 C 67.197266 233.915131 82.952499 249.233154 100.487213 262.34436 L 103.018982 264.240631 L 105.555679 262.353485 C 123.132477 249.261566 138.907074 233.976532 152.455475 216.935913 L 154.841248 213.929016 L 152.092957 211.255798 L 105.946243 166.384247 Z M 102.990921 169.4245 L 149.137268 214.296051 C 135.748505 231.143311 120.218872 246.141327 103.023529 258.951111 C 85.644287 245.957794 70.203766 230.879791 56.993958 214.178131 L 102.991302 169.4245"/>
    <path id="path3" fill="#ffffff" stroke="none" d="M 103.040588 120.173431 L 35.020218 185.511139 L 33.679062 183.120789 C 21.485825 161.421204 12.741974 138.225342 7.697388 114.191528 L 7.160858 111.640778 L 198.967743 111.640778 L 197.772186 117.504761 C 192.572144 140.644135 184.08728 162.766907 172.534088 183.308502 L 171.192932 185.694275 Z"/>
    <path id="path4" fill="#ffffff" stroke="none" d="M 201.573456 109.521942 L 4.552109 109.521942 L 5.625183 114.62796 C 10.717163 138.873352 19.53154 162.26181 31.83284 184.163544 L 34.51059 188.930939 L 38.458984 185.137634 L 103.039078 123.112823 L 167.751526 185.321167 L 171.699524 189.109528 L 174.377289 184.342499 C 186.033966 163.631409 194.594299 141.311096 199.832275 117.997711 L 200.184906 116.223145 L 200.504913 114.623016 Z M 196.358978 113.757355 C 196.128448 114.867981 195.930511 115.959625 195.695435 117.070251 C 190.448364 140.43103 181.925964 162.290253 170.687866 182.267273 L 103.039078 117.235199 L 35.527176 182.083374 C 23.573959 160.816772 14.820633 137.809387 9.771118 113.756989 L 196.358978 113.756989"/>
    <path id="path5" fill="#ffffff" stroke="none" d="M 102.999268 172.377167 L 56.795654 217.333282 L 55.33696 215.4935 C 47.242645 205.257965 39.938904 194.367981 33.637726 183.120789 L 32.837662 181.685608 L 102.998886 114.295776 L 173.292816 181.878601 L 172.492767 183.299774 C 166.144196 194.608002 158.849915 205.479034 150.802643 215.611053 L 149.34848 217.446259 Z"/>
    <path id="path6" fill="#ffffff" stroke="none" d="M 102.999268 111.35907 L 100.067459 114.177856 L 32.550629 179.031342 L 30.188339 181.299591 L 31.788483 184.156342 C 38.146164 195.492981 45.510941 206.481201 53.680328 216.811157 L 56.593552 220.491058 L 59.958374 217.215729 L 102.998886 175.332489 L 146.190308 217.333282 L 149.550598 220.599518 L 152.46344 216.924133 C 160.576691 206.707184 167.93692 195.737579 174.34201 184.344421 L 175.94632 181.478577 L 173.584045 179.214874 L 105.935242 114.1828 Z M 102.999268 117.237091 L 170.648041 182.269165 C 164.342499 193.497864 157.152527 204.206482 149.146362 214.293427 L 102.998886 169.421478 L 57.003067 214.180786 C 48.97435 204.034729 41.774139 193.305145 35.482437 182.086029 L 102.998886 117.237091"/>
    <path id="path7" fill="#ffffff" stroke="none" d="M 102.999268 172.377167 L 56.795654 217.333282 L 55.33696 215.4935 C 47.242645 205.257965 39.938904 194.367981 33.637726 183.120789 L 32.837662 181.685608 L 102.998886 114.295776 L 173.292816 181.878601 L 172.492767 183.299774 C 166.144196 194.608002 158.849915 205.479034 150.802643 215.611053 L 149.34848 217.446259 Z"/>
    <path id="path8" fill="#ffffff" stroke="none" d="M 102.999268 111.35907 L 100.067459 114.177856 L 32.550629 179.031342 L 30.188339 181.299591 L 31.788483 184.156342 C 38.146164 195.492981 45.510941 206.481201 53.680328 216.811157 L 56.593552 220.491058 L 59.958374 217.215729 L 102.998886 175.332489 L 146.190308 217.333282 L 149.550598 220.599518 L 152.46344 216.924133 C 160.576691 206.707184 167.93692 195.737579 174.34201 184.344421 L 175.94632 181.478577 L 173.584045 179.214874 L 105.935242 114.1828 Z M 102.999268 117.237091 L 170.648041 182.269165 C 164.342499 193.497864 157.152527 204.206482 149.146362 214.293427 L 102.998886 169.421478 L 57.003067 214.180786 C 48.97435 204.034729 41.774139 193.305145 35.482437 182.086029 L 102.998886 117.237091"/>
    <path id="path9" fill="#ffffff" stroke="none" d="M 8.00415 115.931946 L 7.651138 114.247253 C 2.846191 91.286499 1.443985 67.799072 3.495728 44.437897 L 3.72171 41.840546 L 6.22049 42.598145 C 14.126358 44.998352 22.357559 46.21701 30.682419 46.21701 C 59.581848 46.21701 86.627121 31.139008 101.267563 6.870056 L 103.079269 3.858276 L 104.895538 6.870056 C 119.512848 31.139008 146.553192 46.21701 175.45755 46.21701 C 183.805908 46.21701 192.04129 44.993408 199.952454 42.58374 L 202.45578 41.821594 L 202.676849 44.428802 C 204.68158 67.605682 203.236908 91.093109 198.384949 114.246887 L 198.036865 115.93158 Z"/>
    <path id="path10" fill="#ffffff" stroke="none" d="M 103.077759 -0.240662 L 99.449402 5.773499 C 85.194962 29.411835 58.841324 44.099304 30.680893 44.099304 C 22.602097 44.102264 14.567093 42.912964 6.835526 40.569916 L 1.837952 39.059265 L 1.385971 44.254395 C -0.684875 67.80957 0.727951 91.541351 5.578934 114.684448 L 6.284958 118.049286 L 199.757568 118.049286 L 200.459045 114.684448 C 205.353088 91.324036 206.807251 67.624664 204.788483 44.2453 L 204.336517 39.030823 L 199.329468 40.555511 C 191.625702 42.903748 183.592834 44.099304 175.460571 44.099304 C 147.29068 44.099304 120.946136 29.416382 106.706116 5.778442 Z M 103.077759 7.966675 C 117.628708 32.112732 144.589417 48.334717 175.460571 48.334717 C 184.213928 48.334717 192.63736 47.02655 200.567108 44.612335 C 202.519867 67.238647 201.197693 90.490997 196.312744 113.813843 L 9.725616 113.813843 C 4.960388 91.079071 3.571198 67.766174 5.602814 44.626373 C 13.518539 47.02655 21.942352 48.334717 30.681274 48.334717 C 61.547897 48.334717 88.513519 32.113098 103.07814 7.966675"/>
    <path id="path11" fill="#f46f1b" stroke="none" d="M 56.993958 214.178131 C 70.203766 230.879791 85.643906 245.957794 103.023163 258.951111 C 120.218872 246.141327 135.748871 231.143311 149.137268 214.296051 L 102.990158 169.424133 Z"/>
    <path id="path12" fill="#f46f1b" stroke="none" d="M 35.526031 182.084503 L 103.042877 117.236328 L 170.687103 182.268402 C 181.924805 162.291412 190.452148 140.432159 195.699219 117.071747 C 195.929749 115.960754 196.127686 114.86911 196.358246 113.758514 L 9.770355 113.758514 C 14.81987 137.810913 23.577759 160.818298 35.526031 182.084869"/>
    <path id="path13" fill="#f46f1b" stroke="none" d="M 35.484711 182.084503 C 41.776794 193.308167 48.972076 204.033234 57.000412 214.17926 L 103.001541 169.421082 L 149.143738 214.292267 C 157.149872 204.205353 164.339844 193.496735 170.645416 182.268036 L 103.001541 117.236328 Z"/>
    <path id="path14" fill="#231f20" stroke="none" d="M 102.999268 166.468048 L 57.219193 211.015045 C 50.164963 201.932587 43.760269 192.346588 38.136673 182.473145 L 102.998886 120.175323 L 167.993805 182.656677 C 162.322296 192.587677 155.953156 202.103668 148.934418 211.132965 Z"/>
    <path id="path15" fill="#231f20" stroke="none" d="M 102.999268 117.235199 L 35.482437 182.08374 C 41.774139 193.307434 48.97435 204.032471 57.003067 214.178528 L 102.998886 169.424896 L 149.145996 214.296448 C 157.152191 204.207825 164.342163 193.497559 170.647675 182.267273 Z M 102.999268 123.11319 L 165.330078 183.034729 C 160.316193 191.681702 154.76474 200.005585 148.708435 207.957336 L 105.95459 166.384644 L 102.999268 163.514252 L 100.043945 166.384644 L 57.44519 207.839813 C 51.360519 199.834961 45.779007 191.463104 40.800018 182.855743 L 102.999268 123.11319 M 200.567108 44.60968 C 192.637726 47.028839 184.213928 48.332062 175.460571 48.332062 C 144.589417 48.332062 117.628708 32.115387 103.077759 7.963989 C 88.512772 32.115387 61.547516 48.332062 30.680893 48.332062 C 21.941986 48.332062 13.518158 47.028442 5.602432 44.628632 C 3.570847 67.766815 4.960037 91.078064 9.725235 113.811188 L 196.31311 113.811188 C 201.197693 90.493256 202.520264 67.235992 200.567505 44.60968"/>
    <path id="path16" fill="#ffffff" stroke="none" d="M 149.033386 73.149292 L 149.033386 65.219543 L 144.185974 65.219543 L 144.185974 59.623993 L 139.103485 58.20285 L 138.73642 58.20285 L 138.73642 53.454773 C 138.73642 53.454773 136.985748 55.553894 128.938477 55.553894 C 121.324554 55.553894 116.858231 53.087738 110.797073 53.087738 C 104.970993 53.087738 103.187332 56.415009 103.187332 56.415009 L 103.187332 58.335175 L 102.985245 58.335175 L 102.985245 56.415009 C 102.985245 56.415009 101.164047 53.087738 95.370956 53.087738 C 89.314346 53.087738 84.84346 55.572479 77.234116 55.572479 C 69.186813 55.572479 67.798264 53.469177 67.798264 53.469177 L 67.798264 58.466736 L 67.4646 58.466736 L 61.953613 59.62439 L 61.953613 65.21991 L 57.087616 65.21991 L 57.087616 73.149658 L 61.953613 73.149658 L 61.953613 85.978027 L 57.087616 85.978027 L 57.087616 93.921783 L 61.953613 93.921783 L 61.953613 103.78537 C 61.953613 103.78537 70.113525 105.060913 77.662201 105.060913 C 86.584641 105.060913 91.733124 103.771698 97.526215 103.653778 L 97.526215 106.152557 C 97.526215 106.152557 99.860428 107.315125 102.971207 107.315125 C 106.114594 107.315125 108.613373 106.152557 108.613373 106.152557 L 108.613373 103.653778 C 114.392441 103.771332 119.540924 105.060547 128.510376 105.060547 C 136.025696 105.060547 144.185974 103.78537 144.185974 103.78537 L 144.185974 93.921783 L 149.033386 93.921783 L 149.033386 85.978027 L 144.185974 85.978027 L 144.185974 73.149292 Z"/>
    <path id="path17" fill="#231f20" stroke="none" d="M 143.232727 103.273468 C 141.157471 103.569977 134.545746 104.431091 128.394714 104.431091 C 119.575806 104.431091 108.700211 103.056946 108.591766 103.042938 L 107.641159 102.91098 L 107.641159 105.805237 C 106.803558 106.120728 104.977814 106.685303 102.841156 106.685303 C 100.746948 106.685303 99.03421 106.120331 98.238693 105.824188 L 98.238693 102.91098 L 97.288086 103.042938 C 97.180023 103.056946 86.2995 104.431091 77.53215 104.431091 C 71.362915 104.431091 64.746262 103.569977 62.670639 103.273468 L 62.670639 60.52417 C 63.447189 60.373627 65.757904 59.879547 66.882553 59.649017 L 66.882553 98.369934 C 67.296616 99.264038 69.066238 101.316132 77.160553 101.316132 L 87.405563 99.974609 L 95.236359 98.849976 C 100.464462 98.849976 102.107071 101.631256 102.177582 101.744232 L 102.422165 101.612274 L 103.627182 101.612274 L 103.857727 101.744232 C 103.928253 101.631256 105.537491 98.849976 110.728439 98.849976 L 118.554688 99.960571 L 128.884247 101.315765 C 137.086609 101.315765 139.138367 99.16507 139.340851 98.915558 L 139.500854 59.44693 C 140.573914 59.74762 142.545654 60.29361 143.232727 60.49118 Z M 68.572174 55.296051 C 69.927353 55.973663 72.360153 56.683838 77.160553 56.683838 L 87.480637 55.328674 L 95.302322 54.20401 C 100.440948 54.20401 102.078613 56.947754 102.173035 57.098297 L 102.173035 99.344055 C 100.92099 98.303955 98.822235 97.16037 95.236359 97.16037 L 87.043076 98.317993 L 77.160553 99.62616 C 69.927353 99.62616 68.421631 97.889526 68.407227 97.875854 C 68.407227 97.875854 68.553207 58.175903 68.572174 55.296051 M 103.857727 57.098297 C 103.928253 56.980743 105.537491 54.20401 110.728439 54.20401 L 118.554688 55.310089 L 128.884247 56.665283 C 133.886749 56.665283 136.432556 55.888702 137.844238 55.211121 L 137.844238 98.303955 C 137.736145 98.08783 135.707947 99.626526 128.884247 99.626526 L 118.921326 98.303955 L 110.728439 97.16037 C 107.180084 97.16037 105.099915 98.303955 103.857727 99.330017 Z M 139.510345 57.677307 L 139.533844 51.601715 L 138.06073 53.159393 C 138.041779 53.173401 136.234985 54.980591 128.884247 54.980591 L 118.921326 53.653442 L 110.728439 52.514801 C 106.234039 52.514801 103.994232 54.350006 103.015198 55.460632 C 102.031601 54.350006 99.772842 52.514404 95.302322 52.514404 L 87.11853 53.672424 L 77.160553 54.994598 C 69.927353 54.994598 68.421631 53.257965 68.407227 53.23941 L 66.906067 51.404175 L 66.882553 53.738403 L 66.882553 57.907837 L 60.9814 59.150024 L 60.9814 104.746185 L 61.696533 104.845154 C 61.776535 104.864136 70.002808 106.134735 77.53215 106.134735 C 84.958359 106.134735 93.772339 105.160248 96.554001 104.831116 L 96.554001 106.897278 L 97.015076 107.146393 C 97.12352 107.198334 99.565811 108.388947 102.841156 108.388947 C 106.135452 108.388947 108.7332 107.198334 108.841263 107.146393 L 109.330399 106.915863 L 109.330399 104.831116 C 112.112061 105.160645 120.926422 106.134735 128.394714 106.134735 C 135.895996 106.134735 144.131378 104.864136 144.211365 104.84552 L 144.92691 104.746582 L 144.92691 59.201965 Z"/>
    <path id="path18" fill="#231f20" stroke="none" d="M 80.571259 62.883789 C 79.9077 62.935364 79.479614 63.2789 79.282059 63.725952 L 76.566757 69.768524 C 76.566757 69.768524 76.434814 69.867126 76.35025 69.867126 C 76.270248 69.867126 76.166718 69.768524 76.100754 69.585022 C 76.034775 69.373047 75.705276 68.526337 74.99469 66.874268 L 74.11499 64.902527 C 73.804077 64.173004 73.554947 63.692963 73.470383 63.547363 C 73.154922 63.001343 72.75943 62.949402 72.331345 62.883789 C 72.279388 62.81781 72.279388 62.751831 72.279388 62.700256 C 72.279388 62.634277 72.279388 62.601318 72.312378 62.521301 L 72.759811 62.521301 C 73.272461 62.521301 73.700562 62.554291 74.082001 62.554291 C 74.529053 62.554291 75.272629 62.50235 75.77124 62.50235 L 76.067764 62.50235 C 76.119705 62.521301 76.133743 62.619873 76.133743 62.667267 C 76.133743 62.700256 76.133743 62.81781 76.100754 62.864838 C 75.77124 62.90274 75.027679 62.883789 75.027679 63.344879 C 75.027679 63.448395 75.042084 63.62735 75.093658 63.744904 L 76.881851 67.980316 L 78.368988 64.474426 C 78.501999 64.183624 78.569443 63.867126 78.566544 63.547363 C 78.566544 63.147308 78.288986 62.968353 77.540863 62.883789 C 77.52684 62.831848 77.493851 62.766235 77.493851 62.718842 C 77.493851 62.653259 77.52684 62.554291 77.540863 62.502716 L 77.757004 62.502716 C 78.091431 62.502716 78.420563 62.554291 79.164505 62.554291 C 79.296082 62.554291 79.809113 62.521301 80.058609 62.521301 L 80.571259 62.521301 C 80.604248 62.58728 80.637238 62.619873 80.637238 62.685852 C 80.637238 62.733246 80.604248 62.831848 80.571259 62.883789 M 88.135864 69.653259 C 85.966202 69.653259 84.79454 69.606232 84.493484 69.606232 C 84.262939 69.606232 83.735886 69.58728 83.467422 69.58728 C 83.170898 69.58728 82.474731 69.638855 81.711823 69.638855 L 81.284119 69.619904 C 81.251129 69.554291 81.251129 69.521301 81.251129 69.455322 C 81.251129 69.403748 81.251129 69.323761 81.265152 69.258148 C 81.843781 69.206207 82.262772 69.107239 82.36174 69.022675 C 82.474731 68.876709 82.558914 68.575256 82.592285 67.930664 C 82.592285 67.601135 82.606308 67.239044 82.606308 66.857574 C 82.606308 66.311554 82.592285 65.64801 82.592285 64.852875 L 82.592285 63.72821 C 82.573318 62.95166 82.192245 62.95166 81.382706 62.853088 C 81.368668 62.782562 81.349716 62.716583 81.349716 62.669556 C 81.349716 62.617615 81.368668 62.504608 81.41568 62.486023 L 81.811172 62.486023 C 82.079254 62.486023 82.789825 62.505005 84.14502 62.505005 C 85.387573 62.505005 86.597153 62.519012 86.860687 62.519012 C 87.025253 62.519012 87.505295 62.537964 87.60881 62.537964 C 87.773376 62.537964 87.839355 62.551636 87.839355 62.702545 L 87.937927 64.321259 C 87.839355 64.373199 87.820389 64.391785 87.740753 64.391785 C 87.674789 64.391785 87.623215 64.391785 87.571274 64.372833 C 87.095779 63.56366 86.860687 63.398712 86.498199 63.130646 C 86.366241 63.032043 86.168686 62.966064 85.867615 62.95166 C 85.769028 62.95166 85.51915 62.932709 84.907547 62.932709 C 84.413467 62.932709 84.164352 62.95166 84.097992 62.95166 C 84.013443 62.95166 84.032394 62.95166 83.999405 63.229584 C 83.980453 63.398712 83.966415 63.72821 83.966415 64.669342 L 83.966415 65.596436 L 84.210983 65.596436 C 84.526459 65.596436 84.841568 65.563812 85.025085 65.516815 C 85.307571 65.431854 85.604095 65.234314 85.754623 65.003784 C 85.820602 64.918854 85.886581 64.523743 85.919189 64.405823 C 85.966202 64.373199 86.051132 64.358795 86.150101 64.358795 C 86.214478 64.356995 86.278061 64.373291 86.333633 64.405823 C 86.314667 64.702332 86.267654 65.248352 86.267654 65.944885 C 86.267654 66.292969 86.300644 67.055511 86.300644 67.370605 C 86.234665 67.417633 86.201675 67.417633 86.09816 67.417633 C 86.051132 67.417633 85.952179 67.417633 85.900604 67.403595 C 85.834641 66.791992 85.735672 66.37793 85.223022 66.161407 C 84.940521 66.043854 84.709991 66.010864 84.427505 66.010864 C 84.276962 66.010864 84.097992 66.029816 83.947464 66.043488 L 83.947464 67.916626 C 83.947464 68.345093 83.980453 68.608246 84.046051 68.759155 C 84.097992 68.876709 84.262939 69.121277 84.479446 69.154266 C 84.578033 69.173218 84.761551 69.206207 85.138077 69.206207 L 86.168686 69.206207 C 86.43222 69.206207 86.813293 69.173218 86.945251 69.088654 C 87.194748 68.923706 87.853378 68.212769 88.088852 67.549591 C 88.187424 67.516571 88.234833 67.516571 88.30043 67.516571 C 88.366409 67.516571 88.432373 67.535553 88.516937 67.568542 L 88.516937 69.455322 C 88.516937 69.638855 88.399399 69.653259 88.135864 69.653259 M 96.742447 64.75351 C 96.695435 64.75351 96.624908 64.734558 96.545273 64.734558 C 96.380325 64.287872 96.177856 63.892792 96.01329 63.675903 C 95.716766 63.313782 95.43428 63.06427 94.69072 62.984283 C 94.526154 62.965302 94.125748 62.965302 93.994171 62.965302 L 93.980133 66.127655 C 93.980133 66.622101 93.980133 67.205292 93.994171 68.297302 C 94.013123 69.12088 94.37561 69.12088 95.236725 69.238434 C 95.2883 69.322998 95.302704 69.388977 95.302704 69.435974 C 95.30275 69.500153 95.286575 69.563263 95.255692 69.619507 L 94.940216 69.619507 C 94.441223 69.619507 93.448532 69.586517 93.133057 69.586517 C 92.921478 69.586517 91.829437 69.638458 91.311859 69.638458 C 91.264832 69.553925 91.24588 69.553925 91.24588 69.435974 C 91.24588 69.388977 91.264832 69.322998 91.297836 69.257385 C 92.441437 69.172455 92.554428 68.955933 92.587036 68.593842 C 92.620026 68.363281 92.620026 67.417236 92.620026 66.457153 L 92.620026 63.845398 C 92.620026 63.511322 92.605988 63.181824 92.554428 62.965698 C 92.337921 62.965698 91.64592 62.965698 91.443436 63.050262 C 90.864807 63.261841 90.450745 63.746429 90.00824 64.621948 C 89.95668 64.635986 89.871735 64.635986 89.824722 64.635986 C 89.758743 64.635986 89.693146 64.621948 89.660156 64.570007 L 89.660156 62.734772 C 89.660156 62.570221 89.674194 62.518646 89.871735 62.518646 C 90.041229 62.518646 90.304764 62.537231 90.652847 62.537231 C 90.897797 62.537231 91.942429 62.551239 93.250595 62.551239 C 94.973206 62.551239 96.243835 62.504242 96.577881 62.504242 C 96.742447 62.504242 96.860367 62.504242 96.926346 62.570221 C 96.940384 62.602814 96.926346 62.734772 96.926346 62.83374 L 96.926346 64.668945 C 96.893372 64.734924 96.808807 64.75351 96.742447 64.75351 M 80.224304 75.958984 C 80.158325 75.958984 80.106766 75.940033 80.007797 75.940033 C 79.861816 75.497894 79.659332 75.098267 79.480743 74.881378 C 79.198257 74.519257 78.901733 74.269745 78.15361 74.189758 C 77.988678 74.170776 77.593567 74.170776 77.461624 74.170776 L 77.442657 77.33313 C 77.442657 77.832123 77.442657 78.406189 77.461624 79.502777 C 77.476028 80.330902 77.857101 80.330902 78.718216 80.443909 C 78.752136 80.504028 78.768433 80.57251 78.765228 80.641449 C 78.765228 80.707428 78.765228 80.759003 78.732254 80.824982 L 78.421707 80.824982 C 77.908661 80.824982 76.915985 80.792389 76.614532 80.792389 C 76.398407 80.792389 75.306381 80.843933 74.779312 80.843933 C 74.746323 80.759369 74.727371 80.759369 74.727371 80.641449 C 74.727371 80.594452 74.746323 80.528839 74.760361 80.46286 C 75.903961 80.37793 76.021881 80.161804 76.068512 79.799316 C 76.087479 79.568756 76.087479 78.622711 76.087479 77.662628 L 76.087479 75.046326 C 76.087479 74.716797 76.087479 74.387299 76.035919 74.170776 C 75.819397 74.170776 75.108826 74.170776 74.910889 74.255707 C 74.33226 74.467316 73.932236 74.947357 73.489731 75.827423 C 73.419205 75.841461 73.339203 75.841461 73.287628 75.841461 C 73.225525 75.845398 73.164932 75.821167 73.122681 75.775452 L 73.122681 73.940247 C 73.122681 73.775696 73.15567 73.724121 73.339203 73.724121 C 73.52272 73.724121 73.76767 73.742676 74.115753 73.742676 C 74.383835 73.742676 75.42392 73.756714 76.732086 73.756714 C 78.43573 73.756714 79.725311 73.709717 80.040787 73.709717 C 80.224304 73.709717 80.341858 73.709717 80.38887 73.775696 C 80.42186 73.808685 80.407837 73.940247 80.407837 74.039215 L 80.407837 75.87442 C 80.36412 75.930878 80.295609 75.962433 80.224304 75.958984 M 88.400528 80.858734 C 86.250214 80.858734 85.054672 80.806793 84.7771 80.806793 C 84.542007 80.806793 84.014954 80.792755 83.732468 80.792755 C 83.449982 80.792755 82.739395 80.839783 81.995834 80.839783 L 81.562805 80.825745 C 81.530197 80.759766 81.515793 80.727142 81.515793 80.661163 C 81.515793 80.609222 81.515793 80.529236 81.548782 80.463257 C 82.127792 80.411682 82.541855 80.312714 82.621857 80.228149 C 82.753433 80.082184 82.824341 79.780731 82.856949 79.136139 C 82.871353 78.807007 82.889938 78.439941 82.889938 78.063049 C 82.889938 77.517426 82.870972 76.853851 82.870972 76.058716 C 82.870972 75.493744 82.856949 75.164612 82.856949 74.933685 C 82.837982 74.157501 82.475876 74.157501 81.661774 74.053986 C 81.633026 73.998566 81.616974 73.937439 81.614761 73.875031 C 81.614761 73.82309 81.647751 73.705536 81.694763 73.691498 L 82.075836 73.691498 C 82.358322 73.691498 83.054871 73.705536 84.410065 73.705536 C 85.671204 73.705536 86.861816 73.724487 87.143936 73.724487 C 87.290298 73.724487 87.788925 73.743439 87.868927 73.743439 C 88.052444 73.743439 88.118423 73.757477 88.118423 73.90802 L 88.202972 75.531647 C 88.118423 75.578674 88.085434 75.59726 88.005814 75.59726 C 87.953857 75.59726 87.901901 75.59726 87.835938 75.578308 C 87.374847 74.769135 87.144318 74.600006 86.762863 74.33609 C 86.631287 74.237518 86.448135 74.171539 86.146698 74.157501 C 86.048111 74.157501 85.803162 74.13855 85.172211 74.13855 C 84.692551 74.13855 84.429016 74.157501 84.377075 74.157501 C 84.278488 74.157501 84.29744 74.157501 84.264084 74.435059 C 84.264084 74.59964 84.245117 74.933685 84.245117 75.875183 L 84.245117 76.802277 L 84.476028 76.802277 C 84.810089 76.802277 85.120636 76.769287 85.290131 76.72229 C 85.586655 76.637329 85.869141 76.439789 86.033325 76.209259 C 86.080719 76.124329 86.165283 75.729218 86.184235 75.611664 C 86.256073 75.576874 86.334961 75.559082 86.41478 75.559723 C 86.49971 75.559723 86.565308 75.578674 86.61232 75.611664 C 86.598297 75.907806 86.5327 76.453827 86.5327 77.15036 C 86.5327 77.498444 86.579712 78.260986 86.579712 78.57608 C 86.49971 78.623474 86.480743 78.623474 86.38179 78.623474 C 86.316193 78.623474 86.231247 78.623474 86.165649 78.60907 C 86.09967 77.992889 86.01474 77.583405 85.487686 77.366882 C 85.205566 77.249329 84.974655 77.216339 84.711121 77.216339 C 84.560593 77.216339 84.377457 77.235291 84.231079 77.249329 L 84.231079 79.122467 C 84.231079 79.550568 84.264084 79.814087 84.311096 79.964233 C 84.377075 80.082184 84.542007 80.326752 84.74411 80.359741 C 84.842697 80.378693 85.040634 80.411682 85.403122 80.411682 L 86.447769 80.411682 C 86.711288 80.411682 87.078339 80.378693 87.209915 80.294128 C 87.473816 80.129181 88.137375 79.41861 88.36792 78.755066 C 88.44754 78.722046 88.518463 78.722046 88.584061 78.722046 C 88.631439 78.722046 88.716003 78.741028 88.781982 78.774017 L 88.781982 80.661163 C 88.781982 80.839783 88.664444 80.858337 88.400909 80.858337 M 93.43222 81.023682 C 92.834259 81.023682 92.175629 80.793121 91.775223 80.595215 C 91.693069 80.554413 91.603607 80.530426 91.51207 80.524689 C 91.432068 80.524689 91.215546 80.642212 90.980072 80.807159 C 90.815506 80.807159 90.617966 80.727142 90.570557 80.595215 C 90.570557 80.444672 90.70253 79.99762 90.70253 79.715515 C 90.70253 79.550568 90.650574 78.741028 90.636551 78.557495 C 90.70253 78.458923 90.834091 78.406952 90.947479 78.406952 L 91.065018 78.406952 C 91.215546 78.708405 91.51207 79.484589 91.728577 79.800049 C 92.175629 80.31308 92.834259 80.543243 93.314301 80.543243 C 93.846283 80.543243 94.241394 80.444672 94.476868 80.19516 C 94.805984 79.880066 94.871964 79.682526 94.871964 79.334442 C 94.871964 79.070526 94.824936 78.854004 94.674408 78.689453 C 94.490891 78.458923 94.340347 78.359955 93.930847 78.162384 C 93.615372 78.011871 92.505127 77.72937 92.10965 77.512848 C 91.610657 77.282318 91.361526 77.084381 91.116577 76.821228 C 90.815506 76.439789 90.70253 75.927155 90.70253 75.513062 C 90.70253 74.369476 91.610657 73.507996 92.900238 73.507996 C 93.384827 73.507996 94.043839 73.559937 94.608444 74.006989 C 94.736877 73.859711 94.875214 73.721344 95.022491 73.592926 C 95.234467 73.592926 95.384995 73.705902 95.403946 73.790466 C 95.384995 73.955017 95.286407 74.402069 95.286407 74.769135 C 95.286407 74.94809 95.403946 75.710632 95.403946 75.828186 C 95.319016 75.861176 95.234467 75.926758 95.12146 75.926758 C 95.08847 75.926758 95.036911 75.907806 94.989517 75.894135 C 94.787399 75.545685 94.608444 74.967072 94.391922 74.651581 C 94.062424 74.204529 93.596786 74.039978 92.970764 74.039978 C 92.25563 74.039978 91.67662 74.48703 91.67662 75.098633 C 91.67662 75.691681 92.156662 75.974152 92.55632 76.157684 C 92.909515 76.297028 93.267426 76.424133 93.629395 76.538757 C 94.161377 76.72229 94.55687 76.854218 94.773376 76.967224 C 95.601501 77.399872 95.949585 78.011871 95.949585 78.854004 C 95.949585 80.181122 94.754425 81.023682 93.431839 81.023682 M 83.104172 92.080505 C 80.934891 92.080505 79.758301 92.033478 79.461792 92.033478 C 79.231247 92.033478 78.699631 92.014526 78.43573 92.014526 C 78.139206 92.014526 77.443039 92.066101 76.680511 92.066101 L 76.252045 92.04715 C 76.219437 91.981537 76.219437 91.948547 76.219437 91.882568 C 76.219437 91.830994 76.219437 91.751007 76.233459 91.685394 C 76.812469 91.633453 77.226532 91.534485 77.3255 91.449921 C 77.443039 91.303955 77.527588 91.002502 77.560593 90.35791 C 77.560593 90.028778 77.574615 89.66629 77.574615 89.284821 C 77.574615 88.7388 77.560593 88.075256 77.560593 87.280121 L 77.560593 86.155487 C 77.541626 85.378906 77.160553 85.378906 76.351013 85.280334 C 76.332901 85.220642 76.321823 85.159058 76.318024 85.096802 C 76.318024 85.044861 76.332428 84.931854 76.383987 84.913269 L 76.77948 84.913269 C 77.047562 84.913269 77.758133 84.932251 79.113693 84.932251 C 80.355881 84.932251 81.56546 84.946259 81.828613 84.946259 C 81.993561 84.946259 82.473602 84.96524 82.572571 84.96524 C 82.741684 84.96524 82.807648 84.978882 82.807648 85.129791 L 82.906235 86.753052 C 82.807648 86.800446 82.788696 86.819031 82.709061 86.819031 C 82.643082 86.819031 82.591522 86.819031 82.539566 86.800079 C 82.059525 85.990906 81.828995 85.825958 81.466507 85.557892 C 81.33493 85.45929 81.132446 85.393311 80.835922 85.378906 C 80.737335 85.378906 80.487839 85.359955 79.875854 85.359955 C 79.381775 85.359955 79.13266 85.378906 79.066299 85.378906 C 78.98175 85.378906 79.000702 85.378906 78.967712 85.65686 C 78.948761 85.825958 78.934723 86.155487 78.934723 87.096588 L 78.934723 88.023682 L 79.179291 88.023682 C 79.494766 88.023682 79.80986 87.991058 79.993393 87.944061 C 80.275879 87.8591 80.572403 87.66156 80.718384 87.43103 C 80.783981 87.3461 80.854889 86.950989 80.887863 86.833069 C 80.934891 86.800446 81.01944 86.786041 81.118408 86.786041 C 81.182785 86.784241 81.246368 86.800537 81.301941 86.833069 C 81.282974 87.129578 81.235962 87.675598 81.235962 88.372131 C 81.235962 88.720215 81.268951 89.482758 81.268951 89.797852 C 81.202972 89.844879 81.165436 89.844879 81.066467 89.844879 C 81.01944 89.844879 80.920486 89.844879 80.868912 89.830841 C 80.802933 89.219238 80.703979 88.805176 80.19133 88.588654 C 79.908829 88.4711 79.678299 88.43811 79.395813 88.43811 C 79.24527 88.43811 79.066299 88.457092 78.915771 88.470734 L 78.915771 90.343872 C 78.915771 90.772339 78.948761 91.040436 79.014359 91.186401 C 79.066299 91.303955 79.231247 91.548523 79.447754 91.581512 C 79.546341 91.600464 79.725311 91.633453 80.106384 91.633453 L 81.132446 91.633453 C 81.400528 91.633453 81.781982 91.600464 81.913544 91.5159 C 82.158127 91.350983 82.821686 90.640015 83.052612 89.976837 C 83.151184 89.943848 83.20314 89.943848 83.268738 89.943848 C 83.334717 89.943848 83.400681 89.962799 83.485245 89.995789 L 83.485245 91.882568 C 83.485245 92.066101 83.367706 92.080505 83.104172 92.080505 M 93.531189 85.278046 C 92.801651 85.311035 92.17601 85.71106 92.17601 86.868713 L 92.157043 90.544067 C 92.157043 90.690063 92.223022 91.734711 92.223022 92.130188 C 92.110031 92.196167 91.992477 92.247711 91.926514 92.247711 C 91.893509 92.247711 91.827927 92.196167 91.742981 92.130188 L 86.693466 86.699219 L 86.745041 87.810211 L 86.764008 89.814911 C 86.764008 89.96051 86.796982 90.34198 86.829971 90.624084 C 86.862961 91.071503 86.994537 91.22168 87.192474 91.38623 C 87.441589 91.603119 87.856033 91.668732 88.152161 91.701721 C 88.183426 91.751007 88.199753 91.808289 88.199188 91.866638 C 88.193069 91.930847 88.170471 91.992371 88.133591 92.045227 L 87.58757 92.045227 C 87.126495 92.045227 86.764008 92.031219 86.283966 92.031219 C 85.968857 92.031219 85.521805 92.064209 85.206329 92.064209 L 84.975784 92.064209 C 84.956833 92.012268 84.956833 91.932617 84.956833 91.899628 C 84.956833 91.866638 84.956833 91.800659 84.989822 91.716125 C 85.356857 91.683136 85.916916 91.518188 86.133423 91.22168 C 86.213425 91.038147 86.250961 90.709015 86.250961 90.360931 L 86.250961 87.795776 C 86.250961 87.381714 86.23201 87.165222 86.213425 86.770111 C 86.199402 86.435669 86.133423 86.186188 85.968857 85.989014 C 85.949905 85.94162 85.785339 85.776672 85.620392 85.607544 C 85.455826 85.475983 85.05542 85.362976 84.806305 85.25946 C 84.781174 85.207642 84.765274 85.151825 84.759293 85.094543 C 84.759293 85.047516 84.773315 84.962952 84.806305 84.915924 L 84.989822 84.915924 C 85.14035 84.915924 85.916916 84.948914 86.514496 84.948914 L 86.862961 84.948914 C 86.92894 84.981537 87.04155 85.047516 87.074539 85.094543 L 90.815903 89.18396 C 91.098373 89.499451 91.460495 89.913513 91.662979 90.177399 L 91.662979 87.231201 C 91.662979 86.835724 91.644012 86.553619 91.62999 86.403076 C 91.597 86.106567 91.526474 85.843018 91.413864 85.640533 C 91.295944 85.461578 90.59938 85.362976 90.236893 85.278046 C 90.204285 85.212463 90.204285 85.127502 90.204285 85.06192 C 90.204285 85.028931 90.204285 84.981537 90.223236 84.915924 L 90.434814 84.915924 C 90.782898 84.915924 91.347504 84.962952 91.695969 84.962952 C 92.557083 84.962952 92.820618 84.929962 93.249084 84.929962 L 93.531189 84.929962 C 93.564178 84.995941 93.564178 85.061523 93.564178 85.113495 C 93.564178 85.146484 93.564178 85.226471 93.531189 85.278046 M 117.117584 62.8508 C 116.407013 62.883423 115.762405 63.2789 115.762405 64.441071 L 115.762405 68.111511 C 115.762405 68.262421 115.809418 69.307068 115.809418 69.702545 C 115.710831 69.768524 115.578873 69.820099 115.526932 69.820099 C 115.479904 69.820099 115.428345 69.768524 115.329758 69.702545 L 110.279861 64.27652 L 110.350403 65.382202 L 110.364426 67.387299 C 110.364426 67.532898 110.397415 67.914337 110.416367 68.196442 C 110.463379 68.64389 110.595352 68.794037 110.77887 68.958588 C 111.042389 69.175476 111.456451 69.241089 111.738571 69.274078 C 111.769943 69.323334 111.786407 69.380615 111.785965 69.439026 C 111.779816 69.500702 111.763809 69.561005 111.738571 69.617615 L 111.173965 69.617615 C 110.726913 69.617615 110.364426 69.603577 109.870361 69.603577 C 109.555252 69.603577 109.122238 69.636566 108.806763 69.636566 L 108.576218 69.636566 C 108.560226 69.582825 108.549194 69.527771 108.543228 69.472015 C 108.543228 69.439026 108.543228 69.373047 108.595184 69.288483 C 108.943268 69.255493 109.503311 69.090546 109.719818 68.794037 C 109.818405 68.610535 109.837372 68.281403 109.837372 67.933319 L 109.837372 65.368164 C 109.837372 64.954102 109.837372 64.737579 109.818405 64.342499 C 109.804764 64.008057 109.719818 63.758545 109.56929 63.561371 C 109.536301 63.513977 109.385773 63.34903 109.206787 63.179932 C 109.056259 63.04834 108.642197 62.935364 108.3927 62.831848 C 108.378662 62.765869 108.359711 62.685852 108.359711 62.666901 C 108.363861 62.606293 108.374924 62.546387 108.3927 62.488312 L 108.595184 62.488312 C 108.726761 62.488312 109.503311 62.521301 110.100891 62.521301 L 110.449356 62.521301 C 110.515335 62.553894 110.62796 62.619873 110.679901 62.666901 L 114.421249 66.756348 C 114.703354 67.071808 115.065857 67.48587 115.263412 67.749786 L 115.263412 64.803558 C 115.263412 64.408081 115.230408 64.125977 115.216385 63.975433 C 115.201355 63.708466 115.127563 63.44809 115.000259 63.212921 C 114.882339 63.033936 114.185776 62.935364 113.842239 62.850433 C 113.809708 62.782928 113.792114 62.709198 113.79068 62.634277 C 113.79068 62.601318 113.79068 62.553894 113.823654 62.488312 L 114.039795 62.488312 C 114.38826 62.488312 114.948303 62.535309 115.296387 62.535309 C 116.138931 62.535309 116.421036 62.50235 116.85405 62.50235 L 117.117584 62.50235 C 117.148209 62.558929 117.165939 62.621613 117.169525 62.685852 C 117.164902 62.743927 117.147141 62.800201 117.117584 62.850433 M 123.391083 63.529541 C 123.042999 63.068085 122.614929 62.78595 121.96994 62.78595 C 121.372345 62.78595 120.991272 63.0495 120.642792 63.529144 C 120.214722 64.075165 119.979248 64.950684 119.979248 66.06131 C 119.979248 67.152954 120.214722 68.014069 120.610199 68.560089 C 120.972321 69.091705 121.386383 69.355225 122.016937 69.355225 C 122.77948 69.355225 123.226532 68.993103 123.574982 68.376556 C 123.890106 67.830536 124.036072 67.072937 124.036072 66.079895 C 124.036072 64.90329 123.805542 64.075165 123.391479 63.529144 M 124.549103 68.758026 C 123.857086 69.435242 122.89209 69.835266 121.998352 69.835266 C 121.155823 69.835266 120.182098 69.473145 119.499573 68.809601 C 118.756012 68.098999 118.426514 67.138916 118.426514 66.079895 C 118.426514 65.068237 118.756012 64.108154 119.499573 63.378632 C 120.294708 62.616455 121.155823 62.305542 122.017334 62.305542 C 122.647888 62.305542 123.226898 62.47049 123.904114 62.832611 C 125.015106 63.543549 125.659698 64.719788 125.659698 66.009369 C 125.659698 67.020996 125.259674 68.03302 124.548706 68.757629 M 134.711823 62.883789 C 134.06723 62.935364 133.638763 63.2789 133.436646 63.725952 L 130.721344 69.768524 C 130.721344 69.768524 130.589417 69.867126 130.509399 69.867126 C 130.424835 69.867126 130.312225 69.768524 130.260284 69.585022 C 130.194305 69.373047 129.860229 68.526337 129.135254 66.874268 L 128.274536 64.902527 C 127.959045 64.173004 127.709534 63.692963 127.629547 63.547363 C 127.295471 63.001343 126.914032 62.949402 126.485931 62.883789 C 126.419952 62.81781 126.419952 62.751831 126.419952 62.700256 C 126.419952 62.634277 126.419952 62.601318 126.46698 62.521301 L 126.914429 62.521301 C 127.413025 62.521301 127.841125 62.554291 128.222565 62.554291 C 128.669617 62.554291 129.417755 62.50235 129.930756 62.50235 L 130.208344 62.50235 C 130.27887 62.521301 130.293274 62.619873 130.293274 62.667267 C 130.293274 62.700256 130.293274 62.81781 130.260284 62.864838 C 129.911835 62.90274 129.182281 62.883789 129.182281 63.344879 C 129.182281 63.448395 129.182281 63.62735 129.24826 63.744904 L 131.022797 67.980316 L 132.528137 64.474426 C 132.649384 64.180389 132.711853 63.865417 132.712036 63.547363 C 132.712036 63.147308 132.429565 62.968353 131.681427 62.883789 C 131.667419 62.831848 131.648438 62.766235 131.648438 62.718842 C 131.648438 62.653259 131.667419 62.554291 131.681427 62.502716 L 131.897552 62.502716 C 132.227448 62.502716 132.561127 62.554291 133.319092 62.554291 C 133.436646 62.554291 133.968628 62.521301 134.213226 62.521301 L 134.730774 62.521301 C 134.763763 62.58728 134.777802 62.619873 134.777802 62.685852 C 134.777802 62.733246 134.763763 62.831848 134.711823 62.883789 M 114.783737 75.958984 C 114.717773 75.958984 114.670746 75.940033 114.56723 75.940033 C 114.421249 75.497894 114.218765 75.098267 114.040176 74.881378 C 113.75769 74.519257 113.461182 74.269745 112.713058 74.189758 C 112.548111 74.170776 112.153 74.170776 112.021057 74.170776 L 112.00209 77.33313 C 112.00209 77.832123 112.00209 78.406189 112.021057 79.502777 C 112.03508 80.330902 112.416534 80.330902 113.277649 80.443909 C 113.329208 80.528839 113.329208 80.594452 113.329208 80.641449 C 113.329208 80.707428 113.329208 80.759003 113.2966 80.824982 L 112.98114 80.824982 C 112.468109 80.824982 111.475037 80.792389 111.173965 80.792389 C 110.962387 80.792389 109.870361 80.843933 109.338745 80.843933 C 109.305756 80.759369 109.286804 80.759369 109.286804 80.641449 C 109.286804 80.594452 109.305756 80.528839 109.319778 80.46286 C 110.463379 80.37793 110.580933 80.161804 110.62796 79.799316 C 110.646912 79.568756 110.646912 78.622711 110.646912 77.662628 L 110.646912 75.046326 C 110.646912 74.716797 110.646912 74.387299 110.595352 74.170776 C 110.37883 74.170776 109.668243 74.170776 109.470322 74.255707 C 108.891693 74.467316 108.496216 74.947357 108.049164 75.827423 C 107.983185 75.841461 107.898621 75.841461 107.847061 75.841461 C 107.784958 75.845398 107.724365 75.821167 107.682114 75.775452 L 107.682114 73.940247 C 107.682114 73.775696 107.715103 73.724121 107.898621 73.724121 C 108.082153 73.724121 108.327103 73.742676 108.675186 73.742676 C 108.943268 73.742676 109.983353 73.756714 111.291519 73.756714 C 112.995163 73.756714 114.284744 73.709717 114.599838 73.709717 C 114.783371 73.709717 114.901291 73.709717 114.948303 73.775696 C 114.981293 73.808685 114.96727 73.940247 114.96727 74.039215 L 114.96727 75.87442 C 114.923477 75.930969 114.854797 75.962555 114.783371 75.958984 M 118.839813 75.181671 L 118.820862 75.181671 C 118.674866 75.464172 118.411346 76.075775 118.307831 76.339294 C 117.926758 77.266388 117.7948 77.581879 117.729202 77.71344 L 119.865479 77.71344 C 119.700928 77.284973 119.154907 75.976807 118.839813 75.181671 M 123.35733 80.857208 L 122.797302 80.857208 C 122.430237 80.857208 122.016174 80.810211 121.587708 80.810211 C 120.910126 80.810211 120.049011 80.857208 119.714966 80.857208 C 119.681976 80.824219 119.667938 80.758636 119.667938 80.678223 C 119.667938 80.626678 119.681976 80.560699 119.700928 80.508759 C 120.397491 80.476135 120.675018 80.363129 120.675018 80.080658 C 120.675018 79.963104 120.675018 79.732574 120.463074 79.153564 C 120.246948 78.621948 120.129395 78.391418 120.082001 78.25946 C 120.049011 78.212433 120.030426 78.179474 119.88446 78.179474 L 117.630234 78.179474 C 117.479706 78.358429 117.300735 78.857056 117.10318 79.549042 C 117.051224 79.732574 117.051224 79.897125 117.051224 79.963104 C 117.051224 80.198212 117.267731 80.461731 118.063263 80.476135 C 118.097717 80.53772 118.114014 80.607788 118.11026 80.678223 C 118.11026 80.72525 118.11026 80.776825 118.096252 80.84317 L 117.893768 80.84317 C 117.366699 80.84317 117.216171 80.810211 116.656128 80.810211 C 116.289078 80.810211 115.413559 80.84317 115.117035 80.84317 C 115.098083 80.777191 115.084427 80.75824 115.084427 80.692657 C 115.084427 80.645264 115.084427 80.593689 115.117035 80.508759 C 115.545517 80.410156 115.940613 80.29718 116.143097 79.981689 C 116.256088 79.817139 116.637161 79.153564 117.051224 78.127502 C 117.446716 77.167816 117.926758 75.958221 118.14325 75.464172 C 118.444336 74.833588 118.543304 74.636047 118.641876 74.419525 C 118.760223 74.167267 118.887451 73.91925 119.023346 73.675964 C 119.088928 73.591034 119.234924 73.544006 119.300903 73.544006 C 119.418427 73.544006 119.56897 73.609985 119.615997 73.690002 C 119.681976 73.821564 119.766907 73.958069 119.780945 74.038055 C 120.195007 75.031128 120.529053 75.911224 121.042084 77.134827 C 121.305603 77.746429 121.437195 78.146454 121.719666 78.791077 C 121.917206 79.186554 122.035156 79.502014 122.232697 79.864136 C 122.496216 80.410156 122.92923 80.410156 123.35733 80.52771 C 123.376312 80.579651 123.423309 80.626282 123.423309 80.692657 C 123.423309 80.75824 123.39032 80.791229 123.35733 80.857208 M 134.413788 80.858734 L 131.519897 80.825745 L 130.724762 80.825745 C 130.69635 80.76825 130.678772 80.706055 130.672821 80.642212 C 130.672821 80.54364 130.691803 80.529236 130.7388 80.463257 C 130.889343 80.444275 131.270416 80.463257 131.449371 80.397644 C 131.750458 80.261139 131.868011 79.96463 131.868011 79.536163 L 131.868011 74.387665 L 131.84903 74.387665 L 130.324738 77.72937 C 130.15979 78.096405 129.96225 78.491516 129.797668 78.886993 C 129.449219 79.668121 129.265686 80.19516 129.166718 80.510254 C 129.11972 80.642212 129.002167 80.642212 128.936188 80.642212 C 128.837585 80.642212 128.771637 80.609222 128.720062 80.444672 C 128.522125 80.016205 128.390167 79.7341 128.324585 79.550568 L 125.938782 74.303131 L 125.891388 74.303131 L 125.891388 75.644287 L 125.938782 78.990509 C 125.938782 80.016205 126.470398 80.496246 127.279938 80.496246 C 127.311249 80.546967 127.333435 80.602783 127.34552 80.661163 C 127.343262 80.72345 127.327209 80.784454 127.298523 80.839783 C 127.246948 80.839783 127.082397 80.858734 126.931458 80.858734 C 126.832886 80.858734 126.305847 80.806793 125.543304 80.806793 C 125.327179 80.806793 124.87973 80.825745 124.531647 80.825745 L 124.051605 80.825745 C 124.037201 80.759766 124.018616 80.708191 124.018616 80.642212 C 124.018616 80.628204 124.037598 80.54364 124.051605 80.496246 C 124.253723 80.444672 124.94574 80.28009 125.096252 80.129181 C 125.246796 79.983215 125.378723 79.682129 125.378723 78.971558 L 125.378723 75.296173 C 125.359772 74.717194 125.293793 74.486633 125.011688 74.289093 C 124.898712 74.204529 124.45166 74.157501 124.07019 74.10556 C 124.039948 74.043823 124.02243 73.976654 124.018616 73.90802 C 124.018616 73.856079 124.037598 73.790466 124.07019 73.705536 C 124.352692 73.705536 124.846771 73.743439 125.345764 73.743439 L 127.082397 73.743439 C 127.14798 73.7901 127.180969 73.82309 127.23291 73.922058 L 129.364655 78.755066 L 129.745728 77.794983 C 130.079773 77.018402 130.559845 75.842194 131.237427 74.585602 C 131.383423 74.303131 131.567322 73.94101 131.665894 73.757477 L 134.380798 73.705536 C 134.414185 73.776062 134.447174 73.82309 134.447174 73.889069 C 134.447205 73.953217 134.43103 74.016357 134.400146 74.072571 C 134.098694 74.124512 133.585663 74.124512 133.336548 74.533661 C 133.256561 74.670166 133.20459 74.802124 133.20459 75.380737 L 133.20459 78.839996 C 133.20459 80.16217 133.538635 80.294128 133.684631 80.397644 C 133.769196 80.444672 134.183624 80.496246 134.414185 80.496246 C 134.447174 80.562195 134.465729 80.609222 134.465729 80.675201 C 134.465729 80.773804 134.43277 80.792755 134.414185 80.858734 M 114.618805 87.181519 C 114.552826 87.181519 114.501251 87.162567 114.402664 87.162567 C 114.256302 86.720428 114.053833 86.320801 113.87561 86.103912 C 113.592743 85.741791 113.2966 85.492279 112.548492 85.412292 C 112.383545 85.393311 111.988068 85.393311 111.856491 85.393311 L 111.837524 88.555664 C 111.837524 89.05011 111.837524 89.628723 111.856491 90.725311 C 111.870514 91.548889 112.251602 91.548889 113.112701 91.666443 C 113.146759 91.726532 113.163177 91.795013 113.160095 91.863983 C 113.160095 91.929962 113.160095 91.981537 113.127121 92.047516 L 112.816193 92.047516 C 112.303543 92.047516 111.310852 92.014526 111.009399 92.014526 C 110.792892 92.014526 109.701248 92.066467 109.174179 92.066467 C 109.14119 91.981903 109.122238 91.981903 109.122238 91.863983 C 109.122238 91.816986 109.14119 91.751007 109.155228 91.685394 C 110.298828 91.600464 110.416367 91.383942 110.463379 91.021851 C 110.482346 90.79129 110.482346 89.845245 110.482346 88.885162 L 110.482346 86.273407 C 110.482346 85.939331 110.482346 85.609833 110.430405 85.393707 C 110.214264 85.393707 109.503311 85.393707 109.305756 85.478271 C 108.726761 85.68985 108.326721 86.169891 107.884598 87.049957 C 107.814072 87.063965 107.73407 87.063965 107.682114 87.063965 C 107.620132 87.067841 107.559708 87.04361 107.517548 86.997986 L 107.517548 85.162781 C 107.517548 84.99823 107.550537 84.946655 107.733688 84.946655 C 107.917587 84.946655 108.162155 84.96524 108.51062 84.96524 C 108.774155 84.96524 109.818787 84.979248 111.126953 84.979248 C 112.830597 84.979248 114.119797 84.932251 114.435272 84.932251 C 114.618805 84.932251 114.736343 84.932251 114.783371 84.99823 C 114.81636 85.030823 114.802322 85.162781 114.802322 85.261749 L 114.802322 87.096954 C 114.758606 87.153412 114.690109 87.184967 114.618805 87.181519 M 123.506744 85.311432 C 122.862122 85.358429 122.428741 85.706512 122.231201 86.153564 L 119.5159 92.196167 C 119.5159 92.196167 119.383942 92.294739 119.303925 92.294739 C 119.21936 92.294739 119.101837 92.196167 119.05481 92.012634 C 118.988831 91.800659 118.659332 90.953979 117.929779 89.30188 L 117.069061 87.33017 C 116.753571 86.600616 116.504074 86.120575 116.424072 85.974976 C 116.090012 85.428955 115.708557 85.377014 115.280472 85.311432 C 115.214493 85.245453 115.214493 85.179474 115.214493 85.127899 C 115.214493 85.06192 115.214493 85.028931 115.266434 84.948914 L 115.708557 84.948914 C 116.20755 84.948914 116.635651 84.981903 117.016724 84.981903 C 117.464157 84.981903 118.207336 84.929962 118.725311 84.929962 L 119.002869 84.929962 C 119.068848 84.948914 119.087799 85.047516 119.087799 85.09491 C 119.087799 85.127899 119.087799 85.245453 119.05481 85.29245 C 118.706329 85.325439 117.977188 85.311432 117.977188 85.772491 C 117.977188 85.876007 117.977188 86.054993 118.042786 86.172546 L 119.817352 90.407959 L 121.322662 86.902069 C 121.442932 86.60788 121.503754 86.292786 121.501648 85.974976 C 121.501648 85.574951 121.224091 85.391052 120.475952 85.311432 C 120.461945 85.25946 120.442963 85.193878 120.442963 85.146484 C 120.442963 85.080872 120.461945 84.981903 120.475952 84.930328 L 120.692108 84.930328 C 121.02652 84.930328 121.355652 84.981903 122.118195 84.981903 C 122.231201 84.981903 122.762787 84.948914 123.007751 84.948914 L 123.525299 84.948914 C 123.558319 85.014893 123.572327 85.047516 123.572327 85.113495 C 123.572327 85.160889 123.558319 85.25946 123.506744 85.311432 M 134.562805 92.080505 L 131.682587 92.047516 L 130.873413 92.047516 C 130.840424 91.981537 130.840424 91.896973 130.840424 91.863983 C 130.840424 91.765411 130.840424 91.751007 130.887451 91.685028 C 131.056946 91.666077 131.419037 91.685028 131.616974 91.619049 C 131.899078 91.482544 132.012085 91.186401 132.012085 90.758301 L 132.012085 86.583557 C 132.012085 86.583557 132.031036 85.825958 132.031036 85.609833 L 131.998047 85.609833 L 130.491974 88.950775 C 130.308441 89.31781 130.129852 89.713287 129.945953 90.113342 C 129.612274 90.889893 129.414337 91.416962 129.315735 91.732422 C 129.282745 91.863983 129.169769 91.863983 129.085205 91.863983 C 129.000275 91.863983 128.934296 91.830994 128.868713 91.666443 C 128.689728 91.237976 128.553223 90.955475 128.487244 90.771973 L 126.087036 85.524902 L 126.040405 85.524902 L 126.040405 86.866058 L 126.087433 90.21228 C 126.106384 91.237976 126.619049 91.718018 127.44754 91.718018 C 127.480164 91.765015 127.494568 91.863983 127.494568 91.882568 C 127.494568 91.929962 127.494568 91.995575 127.461578 92.066101 C 127.395599 92.066101 127.245056 92.080505 127.080109 92.080505 C 126.981537 92.080505 126.468506 92.033478 125.705963 92.033478 C 125.475433 92.033478 125.028381 92.047516 124.698883 92.047516 L 124.219208 92.047516 C 124.186218 91.981537 124.167267 91.929962 124.167267 91.863983 C 124.167267 91.849976 124.186218 91.765411 124.219208 91.718018 C 124.40274 91.666443 125.113312 91.501892 125.263855 91.350983 C 125.395416 91.204987 125.527374 90.9039 125.527374 90.193329 L 125.541412 88.503723 L 125.527374 86.517944 C 125.508423 85.938965 125.461395 85.708405 125.160339 85.510864 C 125.047333 85.4263 124.600281 85.378906 124.233246 85.327332 C 124.193085 85.269012 124.170227 85.200531 124.167267 85.129791 C 124.167267 85.07785 124.186218 85.012238 124.233246 84.931854 C 124.501312 84.931854 125.014343 84.964844 125.494385 84.964844 L 127.245056 84.964844 C 127.296631 85.011871 127.348572 85.044861 127.381561 85.143829 L 129.513306 89.976837 L 129.91333 89.016754 C 130.228424 88.240204 130.72287 87.063965 131.400452 85.807373 C 131.532043 85.524902 131.734528 85.162781 131.833496 84.978882 L 134.529816 84.931854 C 134.562805 84.997833 134.614777 85.044861 134.614777 85.11084 C 134.614777 85.176819 134.581757 85.228363 134.548767 85.294342 C 134.266296 85.346313 133.753265 85.346313 133.50415 85.755432 C 133.41922 85.891937 133.353241 86.023895 133.353241 86.602509 L 133.353241 90.061371 C 133.353241 91.383942 133.687683 91.515533 133.852234 91.619049 C 133.918213 91.666443 134.332275 91.718018 134.562805 91.718018 C 134.614777 91.783997 134.628784 91.830994 134.628784 91.896973 C 134.628784 91.995575 134.595795 92.014526 134.562805 92.080505"/>
    <path id="path19" fill="#000000" stroke="none" d="M 299.522339 73.878052 C 299.522339 66.941376 295.550476 60.470306 289.639862 57.806976 C 286.595062 56.49881 281.234955 55.670685 273.107697 55.670685 C 265.987488 55.670685 254.900299 56.235291 250.015717 56.235291 C 246.589447 56.235291 241.41748 55.854218 238.551666 55.854218 C 238.274109 56.315277 238.081085 56.9599 238.081085 57.326935 C 238.081085 57.708374 238.081085 58.715118 238.36322 59.181122 C 240.118805 59.74115 242.980072 60.188202 244.834259 60.668243 C 246.401031 62.042389 246.77298 63.251984 247.328094 65.934265 C 247.601105 69.158051 247.789581 73.233459 247.789581 80.249756 C 247.789581 99.747101 247.700073 109.99173 247.417999 112.212982 C 247.055481 114.994232 245.205841 117.855133 242.151581 118.763641 C 240.763794 119.046143 238.725708 119.512146 236.800995 119.690735 C 236.671143 120.328918 236.606506 120.978607 236.608002 121.629852 C 236.608002 122.373047 236.706573 122.472015 236.880981 122.938019 C 239.836304 122.938019 248.528229 122.556946 251.855499 122.556946 C 260.08139 122.556946 268.486237 122.938019 271.898102 122.938019 L 274.213715 122.938019 C 274.49585 122.556946 274.49585 121.911957 274.49585 121.464905 C 274.49585 120.899933 274.49585 120.156738 274.30777 119.789703 C 271.531067 119.427216 267.380188 118.867157 265.625336 116.829468 C 264.698273 115.737793 263.771179 114.147156 263.771179 111.38446 L 263.488678 91.059753 C 269.032257 91.421875 274.952362 91.605774 278.185608 91.605774 C 282.435089 91.605774 286.034973 90.875854 288.896271 89.948761 C 295.456421 87.468933 299.522339 80.979309 299.522339 73.878052 M 282.995117 73.496979 C 282.995117 78.212067 281.324463 82.367493 278.28421 85.050171 C 276.340546 86.621857 273.286652 87.54895 268.669769 87.54895 C 266.731049 87.54895 265.243896 87.468933 264.698273 87.365417 C 263.959229 87.266846 263.488678 87.186462 263.488678 86.706421 L 263.58728 59.642181 C 264.698273 59.562561 266.269928 59.181122 268.952637 59.181122 C 275.22995 59.181122 279.112701 60.752808 280.957428 64.640137 C 282.242065 67.124908 282.995117 70.268677 282.995117 73.496979 M 383.321838 121.366333 C 383.321838 120.899933 383.143311 119.789703 382.860779 119.427216 C 381.943176 119.427216 378.159729 119.243683 376.771179 118.217651 C 376.305542 117.671631 375.571472 116.565948 375.194946 115.902374 C 373.989929 111.666962 372.615753 108.801117 371.223022 105.295258 C 369.279388 100.673828 366.606537 96.320862 364.389893 94.287689 C 363.55191 93.558533 360.69101 92.348969 357.453217 91.238342 C 355.980103 90.692322 354.779999 90.231262 353.669769 89.765259 C 355.053009 89.487701 355.697968 89.384186 357.453217 89.219238 C 364.295837 88.377441 365.862976 87.186829 367.613281 85.793732 C 371.317078 83.012451 373.340759 78.777039 373.340759 73.779083 C 373.340759 66.296783 368.540375 59.096558 361.796661 56.9599 C 359.570892 56.315277 355.617981 55.952789 350.718994 55.952789 C 343.782318 55.952789 334.083282 56.597412 329.466797 56.597412 C 328.0737 56.597412 320.031342 56.413879 316.80304 56.413879 C 315.409912 56.413879 311.904053 56.235291 311.358032 56.235291 C 311.075562 56.879883 310.892029 57.604492 310.892029 57.990875 C 310.892029 58.352997 310.98645 59.28009 311.075562 59.642181 C 312.647614 59.825714 315.513428 60.188202 316.991089 60.470703 C 319.20282 62.141357 319.946411 63.435486 320.864014 65.468262 C 321.339539 68.433441 321.419525 75.995758 321.419525 89.022064 C 321.419525 98.45752 321.518097 109.347137 321.057037 112.871979 C 320.784027 115.173218 319.946411 117.940063 317.264099 119.046143 C 316.073486 119.243683 313.847717 119.611115 312.002625 119.690735 C 311.72052 120.156738 311.536987 121.083832 311.536987 121.544922 C 311.536987 121.827393 311.72052 122.556946 311.904053 123.018036 C 313.212219 123.018036 327.344177 122.754517 330.290375 122.754517 C 336.201019 122.754517 341.198578 123.018036 346.46463 123.018036 C 346.643585 122.655548 346.827087 122.010925 346.827087 121.629852 C 346.827087 120.999268 346.643585 120.072205 346.46463 119.690735 C 344.610443 119.512146 342.309204 118.966125 341.292633 118.763641 C 338.982269 117.671631 337.311249 115.455322 337.311249 112.212982 L 337.226685 90.875854 C 337.956238 90.777283 338.883728 90.777283 339.626892 90.777283 C 340.817505 90.777283 342.210602 90.974823 344.516388 92.250366 C 347.937714 94.203156 349.608398 95.596252 351.824677 99.00354 C 354.780365 103.620026 356.723663 112.114014 357.64621 118.867157 C 357.919189 120.801361 358.65329 122.472015 360.417999 122.655548 C 361.152069 122.75412 366.051056 122.938019 369.56189 122.938019 L 382.776245 122.938019 C 383.143311 122.556946 383.322266 121.827026 383.322266 121.366333 M 356.535583 73.049561 C 356.535583 78.777039 352.652802 85.332275 348.135254 86.442902 C 346.281097 86.904327 343.961273 87.186462 340.553986 87.186462 C 339.626892 87.186462 338.238708 87.186462 337.128113 86.984344 L 337.038635 79.13916 L 337.038635 62.141724 C 337.038635 61.035675 337.311615 60.386139 337.589203 60.108582 C 337.862213 59.826111 339.537384 59.562561 341.481079 59.562561 C 348.681305 59.562561 351.825043 60.188599 354.408417 64.541565 C 355.8815 67.040344 356.535583 69.906555 356.535583 73.050323 M 430.627014 121.267731 C 430.627014 120.801727 430.528015 119.7901 430.354004 119.427582 C 428.965454 119.32901 425.182007 118.966522 423.520813 118.599457 C 422.038208 116.829834 421.012207 114.811096 420.372498 111.483795 C 420.28302 107.046295 420.184082 97.892914 420.184082 89.304535 L 420.184082 66.579254 C 420.184082 64.080475 421.200256 62.141724 421.854736 61.581696 C 423.610291 59.925049 427.120728 59.562561 430.080994 59.181488 C 430.264465 58.814453 430.354004 57.807343 430.354004 57.425903 C 430.354004 56.880249 430.080994 56.132141 429.892517 55.953156 L 427.210205 55.953156 C 423.327454 55.953156 414.273438 56.414246 411.129639 56.414246 C 409.195862 56.414246 400.141052 56.132141 396.075134 56.052124 L 394.05188 56.052124 C 393.769348 56.414246 393.585815 56.781677 393.585815 57.604858 C 393.585815 57.990875 393.665833 58.913025 393.769348 59.360474 C 398.30127 59.741547 400.320068 60.188599 400.974121 60.66864 C 402.085144 61.496765 403.647339 63.534454 404.028381 68.513824 C 404.112976 70.269043 404.20282 74.061951 404.291931 82.570343 C 404.395447 87.186829 404.484924 93.63855 404.484924 99.003906 C 404.484924 101.686218 404.291931 107.695831 404.202454 110.91922 C 404.028381 113.140442 403.557861 115.258148 402.922302 116.467743 C 401.811707 117.394806 400.696533 119.046143 393.948303 119.512512 C 393.769348 119.874634 393.665833 121.084229 393.665833 121.465302 C 393.665833 122.189911 393.858826 122.557312 393.858826 123.018402 L 395.430542 123.018402 C 399.129395 123.018402 408.367371 122.557312 413.167358 122.557312 C 414.555908 122.557312 424.155945 122.839447 427.210205 122.839447 L 430.264465 122.839447 C 430.528015 122.37381 430.626587 121.629852 430.626587 121.267731 M 521.97937 57.242767 C 521.97937 56.880249 521.875854 56.235657 521.697205 55.953552 L 519.560547 55.953552 C 514.944031 55.953552 511.997864 56.131775 503.673035 56.131775 C 500.80719 56.131775 496.552795 55.953552 495.545715 55.953552 L 493.145447 55.953552 C 492.863403 56.131775 492.764832 57.16275 492.764832 57.524872 C 492.764832 57.991241 492.863403 58.715485 493.244446 59.096924 C 494.71759 59.562561 500.346069 60.188965 502.760315 61.779236 C 504.416565 63.71344 505.146118 67.586365 505.423706 71.196136 C 505.527222 72.570282 505.62616 73.958435 505.62616 77.751373 L 505.62616 97.064819 C 505.62616 99.286011 505.527527 100.011017 505.423706 101.041229 C 503.870972 99.286011 501.635681 95.95874 497.945923 91.803314 L 467.126282 57.605255 C 466.844177 57.242767 466.298157 56.781677 465.733582 56.414642 C 464.999146 56.414642 463.700439 56.315674 462.970886 56.315674 C 457.046204 56.315674 446.335205 56.052124 444.76355 56.052124 C 444.580017 56.414246 444.401001 56.960266 444.401001 57.327301 C 444.401001 57.524872 444.580017 58.814453 444.664551 59.096924 C 446.053101 59.459045 449.106995 59.925049 451.601257 62.607361 C 453.088379 64.25946 455.672119 66.579254 456.500244 68.433441 C 456.777771 69.078033 456.871826 70.08551 456.871826 71.379669 C 456.871826 76.179657 456.598816 82.932831 456.598816 89.384552 L 456.598816 108.156891 C 456.598816 111.201691 456.316711 113.601898 456.03418 115.173584 C 454.100403 117.211304 451.144714 118.684021 446.335205 119.874634 C 446.151672 120.354675 445.973083 121.084229 445.973083 121.545288 C 445.973083 121.827789 446.052734 122.754883 446.246094 122.839447 L 448.001343 122.839447 C 449.846008 122.839447 454.100037 122.557312 456.872192 122.557312 C 460.933167 122.557312 463.700439 122.839447 467.48877 122.839447 L 473.004333 122.839447 C 473.366455 122.754883 473.465393 121.629852 473.465393 121.267731 C 473.465393 120.900696 473.366821 120.156738 473.187866 119.7901 C 469.978088 118.966522 465.277039 118.218384 462.133301 114.062988 C 461.498169 112.674438 460.933167 105.841644 460.933167 102.59436 C 460.933167 99.648132 460.834595 95.596619 460.834595 90.133057 C 460.834595 82.833862 460.933167 76.461792 461.027222 73.233826 C 461.578125 73.878448 462.227295 74.706573 462.688782 75.252594 L 505.343689 123.220886 C 505.804749 123.667938 507.461365 123.766907 507.927368 123.766907 C 508.388428 123.766907 508.670593 123.766907 509.03302 123.583008 C 509.216553 123.117004 509.861572 121.630249 509.861572 119.427582 C 509.861572 116.7453 509.763 113.96402 509.763 112.594788 L 509.763 74.061218 C 509.763 62.50766 515.226135 59.279694 521.598267 58.997223 C 521.875854 58.531189 521.97937 57.708008 521.97937 57.241608 M 593.901123 109.991364 C 593.623535 109.163239 592.875061 107.775055 590.75769 107.775055 C 590.569275 107.775055 590.286804 107.873657 590.113098 107.873657 C 584.559631 115.737427 578.460938 118.683258 571.533386 118.683258 C 561.923889 118.683258 555.090698 112.212585 552.869446 106.485107 C 551.664856 103.436127 550.008179 96.786499 550.008179 89.66629 C 550.008179 82.932068 551.02478 77.468109 552.779968 73.496613 C 556.841309 62.785583 562.75238 59.458282 569.966614 59.458282 C 575.97583 59.458282 580.959717 62.889099 584.748108 67.769135 C 586.319824 69.905792 587.97644 74.061218 589.449158 78.960175 C 589.8302 79.039825 590.658752 79.223724 591.486877 79.223724 C 592.042358 79.223724 593.341064 78.776276 593.703552 78.395203 C 593.623535 77.388123 592.696472 70.26828 592.696472 68.051605 C 592.696472 65.289307 593.430542 60.752441 593.430542 58.997223 C 592.875061 58.432251 591.030334 58.070129 589.8302 57.990112 C 588.442444 58.997223 587.976074 60.187836 586.686829 61.778473 C 581.514893 58.070129 576.705383 55.208832 566.178223 55.208832 C 556.478882 55.208832 548.799011 58.531189 542.982361 64.362213 C 536.610291 70.635315 533.099487 79.322296 533.099487 90.414398 C 533.099487 102.23111 538.087952 111.944122 546.125793 118.038666 C 551.217773 121.728058 558.695557 124.226837 567.65094 124.226837 C 578.921997 124.226837 587.148315 119.972473 591.303345 114.349274 C 592.960022 112.113617 593.14801 111.563049 593.901123 109.991364 M 672.058044 106.763031 C 672.058044 105.473846 672.058044 104.913788 671.959473 104.085297 C 671.498413 103.803192 671.31488 103.803192 670.571289 103.803192 C 669.926697 103.803192 669.197144 103.803192 668.533569 103.986694 C 665.408813 111.10199 660.871887 116.645569 658.382629 118.118683 C 656.999023 118.965759 654.871826 119.144714 651.445923 119.144714 L 643.878662 119.144714 C 640.927917 119.144714 638.608093 118.866791 637.779602 118.683258 C 636.391785 118.401154 634.91864 116.184479 634.273743 114.711365 C 633.619629 113.139679 633.248047 113.139679 633.248047 108.885681 L 633.248047 88.65918 L 636.673889 88.65918 C 637.591553 88.65918 639.817261 88.838165 642.302429 89.948395 C 644.617676 90.974457 645.544434 92.348572 646.462036 93.840271 C 647.299988 95.110901 647.846008 100.212372 648.029541 101.501953 C 648.499756 101.765472 649.700195 101.864075 650.443787 101.864075 C 651.172913 101.864075 651.634338 101.765472 652.278931 101.402985 C 652.278931 98.904205 651.728455 92.16507 651.728455 88.461639 C 651.728455 83.84021 652.373047 77.468109 652.645996 74.15979 C 652.278931 73.957672 651.728455 73.778717 650.805908 73.778717 C 650.161255 73.778717 648.956665 73.778717 648.40564 74.061218 C 648.128113 75.350403 647.106995 79.223724 646.918945 79.506195 C 645.544739 81.821472 643.12561 83.576691 640.645813 84.320251 C 638.979675 84.767303 636.57489 85.049774 635.280823 85.049774 L 633.346985 85.049774 L 633.346985 76.461395 C 633.346985 67.585602 633.525208 64.724335 633.619995 63.05365 C 633.709106 61.962006 633.892639 60.752441 633.991638 59.924316 C 634.819702 59.825714 635.280823 59.740784 639.535156 59.740784 C 644.881226 59.740784 647.389465 59.825348 648.21759 59.825348 C 650.805908 60.023285 652.744995 60.568909 654.132813 61.679504 C 657.643982 64.362213 660.326233 68.597626 662.999146 73.134125 C 663.554626 73.31308 664.481689 73.31308 664.942749 73.31308 C 665.497864 73.31308 665.587402 73.134125 666.330933 72.767059 C 666.330933 67.124512 665.954407 59.825714 665.770935 57.524109 C 665.672302 56.597412 665.497864 56.314545 663.653198 56.314545 C 662.905029 56.314545 659.398804 56.131378 655.704834 56.131378 C 650.443787 56.131378 648.307068 56.234894 640.264771 56.234894 C 635.925781 56.234894 626.965454 56.314545 623.177063 56.314545 C 617.638062 56.314545 612.922546 56.131378 610.522705 56.131378 L 607.374451 56.131378 C 607.096863 56.498444 606.922485 57.242004 606.922485 57.604126 C 606.922485 58.070496 607.096863 59.096191 607.374451 59.458282 C 608.485046 59.825348 612.828552 59.740784 614.127563 60.470306 C 615.421753 61.580933 616.612366 62.042023 617.449951 66.479919 C 617.638062 68.432678 617.727478 73.779083 617.727478 78.033081 L 617.727478 97.064056 C 617.727478 100.936981 617.638062 106.584442 617.539429 108.885681 C 617.355957 112.490143 616.066345 116.829468 615.520325 117.671234 C 614.673218 118.321167 610.884888 118.866791 607.195435 119.045746 C 606.922485 119.610748 606.729431 120.537445 606.729431 121.083466 C 606.729431 121.629486 606.922791 122.29303 607.195862 122.75412 L 610.240601 122.75412 C 613.2005 122.75412 624.099548 122.471649 626.602905 122.471649 C 628.909058 122.471649 633.346619 122.655151 638.702515 122.655151 C 641.652527 122.655151 650.344788 123.220123 669.008728 123.220123 C 669.742798 123.220123 670.570923 123.299774 671.498413 123.017639 C 671.780518 122.55658 671.780518 122.373047 671.869934 121.544525 C 672.058044 119.690369 672.058044 114.245361 672.058044 106.763031 M 751.688477 76.738953 L 751.688477 57.886597 C 751.688477 56.498444 751.142456 56.131012 749.754272 56.131012 C 746.982483 56.131012 732.393616 56.498444 717.612122 56.498444 C 706.148438 56.498444 696.632935 56.314911 691.460999 56.314911 L 684.61377 56.314911 C 683.423157 56.314911 683.051514 56.597412 683.051514 57.886597 L 683.051514 75.534302 C 683.423157 75.811859 684.058655 75.915375 684.53418 75.915375 C 684.896301 75.915375 686.194946 75.915375 686.562012 75.712891 C 690.712891 67.322052 694.604309 62.785583 699.503357 60.286804 C 702.265991 60.023285 707.710693 59.924316 709.193237 59.924316 C 709.287231 60.931396 709.38623 64.17868 709.466248 68.051605 C 709.564819 74.706177 709.564819 77.567078 709.564819 93.275665 C 709.564819 106.866547 709.466248 112.956146 709.287231 114.42926 C 708.920227 117.012604 709.385864 118.965759 698.294128 119.426819 C 698.011658 120.071442 698.011658 120.800964 698.011658 121.544525 C 698.011658 121.911591 698.011658 122.655548 698.110229 123.017639 L 701.705994 123.017639 C 705.131897 123.017639 713.164795 122.655151 716.501526 122.655151 C 719.174744 122.655151 727.772583 122.937653 733.400696 122.937653 L 735.984436 122.937653 C 736.262024 122.471649 736.262024 121.464539 736.262024 120.998901 C 736.262024 120.438843 736.172546 119.789337 735.899902 119.328247 C 734.87384 119.328247 728.963196 119.51178 726.384033 117.572662 C 726.101929 116.565552 725.546448 113.88324 725.546448 110.6409 C 725.456909 100.673431 725.358337 96.885071 725.358337 90.230865 C 725.358337 81.637939 725.456909 75.811859 725.456909 59.825348 C 726.746521 59.825348 729.711365 59.740784 732.473633 59.825348 C 738.210632 61.3974 740.982361 63.533691 743.471741 66.842041 C 745.038879 68.978699 746.709534 72.569519 748.365723 76.922485 C 748.925842 77.106018 749.391785 77.106018 749.937805 77.106018 C 750.309448 77.106018 751.509521 76.922485 751.688477 76.738953 M 832.904663 88.376678 C 832.904663 75.449371 827.172607 65.566864 816.452087 59.641815 C 810.734131 56.498444 805.002502 54.926727 798.903748 54.926727 C 785.420959 54.926727 773.222778 62.969116 767.759155 72.122467 C 764.248779 77.849579 762.418091 84.122711 762.418091 90.776886 C 762.418091 101.402985 767.590088 111.845551 775.622986 117.855133 C 781.726624 122.29303 788.649231 124.490753 796.69165 124.490753 C 801.600098 124.490753 806.207092 123.582245 810.734436 121.827026 C 815.817017 119.874268 820.155945 116.829468 823.572327 113.04071 C 829.581909 106.485474 832.904236 98.075684 832.904236 88.376678 M 816.184021 86.621094 C 816.184021 100.57486 812.30127 112.871613 807.040161 117.210541 C 804.362366 119.426819 801.030579 120.537445 797.242188 120.537445 C 792.079651 120.537445 787.538635 118.499756 784.964417 114.349274 C 781.453552 108.984253 779.505371 99.002777 779.505371 90.329834 C 779.505371 77.468109 782.827759 67.407013 788.743286 62.508026 C 791.886719 59.924316 795.115356 58.912659 798.352783 58.912659 C 803.350403 58.912659 808.150757 61.312866 810.917969 65.289307 C 814.428467 70.084778 816.184021 77.021057 816.184021 86.62149 M 922.054321 57.242004 C 922.054321 56.879517 921.979248 56.234894 921.781738 55.952789 L 919.66394 55.952789 C 915.038086 55.952789 912.096802 56.131012 903.767334 56.131012 C 900.901123 56.131012 896.647217 55.952789 895.640015 55.952789 L 893.239868 55.952789 C 892.96228 56.131012 892.868286 57.161987 892.868286 57.524109 C 892.868286 57.990509 892.96228 58.714722 893.324463 59.096191 C 894.816528 59.561798 900.44458 60.188202 902.840332 61.778473 C 904.510498 63.712677 905.249512 67.585602 905.5271 71.195374 C 905.612061 72.569519 905.706055 73.957672 905.706055 77.75061 L 905.706055 97.064056 C 905.706055 99.285278 905.612061 100.010254 905.5271 101.040466 C 903.950806 99.285278 901.739136 95.957977 898.0354 91.802582 L 867.182739 57.604492 C 866.909729 57.242004 866.349731 56.780914 865.799133 56.413879 C 865.055969 56.413879 863.766357 56.314911 863.036804 56.314911 C 857.107239 56.314911 846.401123 56.051392 844.824829 56.051392 C 844.645874 56.413483 844.452881 56.959503 844.452881 57.326569 C 844.452881 57.524109 844.645874 58.81369 844.725891 59.096191 C 846.114075 59.458282 849.163452 59.924316 851.667114 62.606598 C 853.140259 64.258698 855.723572 66.578491 856.556641 68.432678 C 856.834229 69.077271 856.928223 70.084778 856.928223 71.378906 C 856.928223 76.178925 856.646118 82.932068 856.646118 89.383789 L 856.646118 108.156128 C 856.646118 111.200958 856.377625 113.601135 856.095581 115.172821 C 854.165894 117.210541 851.196594 118.683258 846.401123 119.873901 C 846.20813 120.353912 846.038574 121.083466 846.038574 121.544525 C 846.038574 121.827026 846.114075 122.75412 846.302124 122.838684 L 848.052795 122.838684 C 849.911926 122.838684 854.165894 122.55658 856.92865 122.55658 C 860.994568 122.55658 863.766357 122.838684 867.554688 122.838684 L 873.098328 122.838684 C 873.460388 122.75412 873.564331 121.629089 873.564331 121.266968 C 873.564331 120.899933 873.460388 120.156006 873.281799 119.789337 C 870.053467 118.965759 865.333496 118.217651 862.189697 114.062225 C 861.545105 112.673676 860.994568 105.840881 860.994568 102.593597 C 860.994568 99.647369 860.900146 95.595856 860.900146 90.132294 C 860.900146 82.833099 860.994568 76.461029 861.088562 73.233063 C 861.648621 73.877686 862.293213 74.705811 862.749756 75.251831 L 905.437622 123.220123 C 905.894165 123.667175 907.555298 123.766144 908.021362 123.766144 C 908.477905 123.766144 908.755493 123.766144 909.132324 123.582245 C 909.315552 123.116241 909.960083 121.629486 909.960083 119.426819 C 909.960083 116.744537 909.866089 113.963257 909.866089 112.594055 L 909.866089 74.061218 C 909.866089 62.50766 915.315674 59.279694 921.687744 58.997223 C 921.979614 58.531189 922.054688 57.708008 922.054688 57.241608 M 309.966431 160.849396 C 309.966431 160.486908 309.782898 159.922302 309.509918 159.658752 L 306.8367 159.658752 C 303.966339 159.658752 300.083527 159.837341 296.756653 159.837341 C 293.067261 159.837341 288.911835 159.658752 286.224579 159.658752 L 282.902222 159.658752 C 282.624664 160.204773 282.525696 160.383362 282.525696 160.849396 C 282.525696 161.230469 282.624298 161.59259 282.80365 162.05896 C 283.184723 162.05896 289.923462 162.138611 291.123566 163.814178 C 292.140137 165.201965 294.356812 168.614197 294.723877 170.646973 C 294.902435 171.574066 295.467041 175.362427 295.467041 180.811981 C 295.467041 188.657166 295.467041 193.918274 295.37796 196.699554 C 295.18457 201.880646 294.629456 205.937469 293.702362 208.982269 C 291.123932 217.024628 285.123474 220.996521 275.603424 220.996521 C 271.532562 220.996521 268.026672 220.172943 264.789276 218.681274 C 258.779297 215.735046 255.91803 210.087952 255.833099 207.043152 L 255.362915 179.339233 L 255.277954 168.063629 C 255.277954 165.931885 257.951172 163.992767 258.873322 162.887085 C 259.616913 162.52005 263.678284 162.138611 265.988983 161.959991 C 266.271484 161.413971 266.450043 161.1315 266.450043 160.665863 C 266.450043 160.204407 266.177063 159.73877 265.80545 159.47525 L 262.299591 159.559814 C 258.873322 159.658386 254.350891 159.73877 251.489594 159.73877 C 247.052063 159.73877 243.62619 159.658752 240.863495 159.658752 L 236.99057 159.658752 C 236.609497 159.922302 236.52002 160.486908 236.52002 160.947968 C 236.52002 161.413971 236.609497 161.776489 236.891602 162.05896 C 239.83783 162.421082 241.781494 162.703583 243.08017 162.967102 C 244.647308 163.894196 245.762482 165.465881 246.317993 167.037567 C 246.407471 168.247162 246.591003 171.19339 246.591003 177.019073 L 246.591003 199.198334 C 246.591003 204.925446 246.873108 208.982269 247.518066 211.580017 C 248.70871 216.380035 251.296967 220.172943 255.550964 222.935242 C 260.078369 225.895508 265.715973 227.368622 272.459656 227.368622 C 278.652771 227.368622 283.914246 226.079041 288.351776 223.580231 C 292.968292 221.09549 295.829529 217.024628 297.495667 211.297516 C 298.413269 207.890228 298.978241 204.181854 298.978241 200.308929 L 298.978241 182.5672 C 298.978241 179.240295 299.156464 175.084869 299.156464 173.414215 C 299.255432 168.430664 300.549927 165.465881 301.93808 163.249207 C 303.410828 162.788116 304.704987 162.52005 309.603943 161.959991 C 309.782898 161.592957 309.966431 161.310455 309.966431 160.848999 M 395.521545 160.383362 C 395.521545 160.020874 395.432068 159.73877 395.239075 159.47525 L 393.121338 159.47525 C 388.504822 159.47525 386.466736 159.658752 378.160889 159.658752 C 375.285583 159.658752 371.04068 159.47525 370.033569 159.47525 L 367.614777 159.47525 C 367.351257 159.658752 367.252289 160.303375 367.252289 160.665863 C 367.252289 161.1315 367.351257 161.310455 367.713745 161.677521 C 369.19632 162.138611 374.833923 162.788116 377.233765 164.359833 C 378.885864 166.312592 379.633972 170.185883 379.91156 173.790741 C 379.99646 175.164886 380.095093 176.557983 380.095093 180.346344 L 380.095093 207.79126 C 380.095093 210.007935 379.99646 210.751495 379.91156 211.763519 C 378.339844 210.007935 375.662048 206.582062 372.062164 202.327698 L 336.762207 161.1315 C 336.480103 160.750427 335.934082 160.303375 335.37439 159.921906 C 334.63501 159.921906 333.717407 159.837341 332.974213 159.837341 C 327.063202 159.837341 321.891602 159.559814 320.310059 159.559814 C 320.135986 159.922302 320.046509 160.105804 320.046509 160.486908 C 320.046509 160.665863 320.135986 161.413971 320.220917 161.677521 C 321.608734 162.058594 325.675018 162.52005 327.345703 164.274902 C 328.818787 165.931885 331.035095 167.865692 331.863617 169.719879 C 332.145721 170.364502 332.24469 171.376892 332.24469 172.685059 C 332.24469 177.485077 331.962189 186.256989 331.962189 192.727661 L 331.962189 212.408142 C 331.962189 215.452942 331.684631 217.853149 331.411621 219.424835 C 329.463409 221.462524 326.508087 222.935242 321.703125 224.144836 C 321.519623 224.605927 321.336121 224.789459 321.336121 225.250885 C 321.336121 225.53302 321.420685 226.079041 321.6091 226.163574 L 323.364685 226.163574 C 325.209045 226.163574 329.463409 225.895508 332.24469 225.895508 C 336.301117 225.895508 338.145813 226.163574 341.929657 226.163574 L 347.487244 226.163574 C 347.854309 226.079041 347.934662 225.335449 347.934662 224.968414 C 347.934662 224.605927 347.854309 224.408356 347.661682 224.041321 C 344.437897 223.217743 339.72699 222.469635 336.583588 218.314209 C 335.934082 216.926025 335.374023 209.909363 335.374023 206.68103 C 335.374023 203.715851 335.284546 198.915833 335.284546 193.471222 C 335.284546 186.172028 335.374023 176.09198 335.472992 172.863647 C 336.028107 173.513184 336.861176 174.520294 337.501221 175.263855 L 381.295166 226.545044 C 381.751709 227.006104 381.939758 227.091064 382.415283 227.091064 C 382.857361 227.091064 382.584778 227.091064 382.961243 226.907135 C 383.139893 226.441528 383.422363 224.968414 383.422363 222.75174 C 383.422363 220.069427 383.332886 217.306732 383.332886 215.918945 L 383.332886 176.656586 C 383.332886 165.103394 388.786987 161.856476 395.159058 161.592957 C 395.432068 161.1315 395.521545 160.849396 395.521545 160.383362 M 437.282349 224.968414 C 437.282349 224.507324 437.197754 224.041321 437.009277 223.679199 C 435.616577 223.580231 431.837341 223.217743 430.167053 222.850708 C 428.689392 221.095123 427.682251 219.062714 427.018738 215.735413 C 426.938721 211.297516 426.844299 201.236023 426.844299 192.628693 L 426.844299 169.174255 C 426.844299 166.675476 427.856323 164.722321 428.510437 164.176666 C 430.265991 162.519653 433.771545 162.138611 436.727234 161.776489 C 436.9198 161.413971 437.009277 160.947968 437.009277 160.585876 C 437.011963 160.166626 436.841919 159.764832 436.539124 159.474854 L 433.865967 159.474854 C 429.983154 159.474854 424.439575 159.922302 421.29126 159.922302 C 419.366516 159.922302 413.813843 159.658752 409.757019 159.559814 L 407.71936 159.559814 C 407.441772 159.922302 407.25824 159.922302 407.25824 160.750427 C 407.25824 161.1315 407.347717 161.493988 407.441772 161.959991 C 411.964233 162.336517 414.001526 162.788116 414.637024 163.249207 C 415.757141 164.091736 417.329224 166.115417 417.700806 171.113342 C 417.785339 172.863647 417.884338 177.583649 417.973816 186.073456 C 418.062927 190.689941 418.166443 196.982025 418.166443 202.327698 C 418.166443 205.024414 417.973816 211.947052 417.884338 215.170441 C 417.700806 217.391693 417.239746 219.523407 416.585266 220.71402 C 415.484131 221.641113 414.373535 223.29776 407.629822 223.777802 C 407.441772 224.144836 407.347717 224.789459 407.347717 225.151947 C 407.347717 225.895111 407.540344 225.895111 407.540344 226.361511 L 409.1026 226.361511 C 412.801819 226.361511 418.528931 225.895111 423.329346 225.895111 C 424.717102 225.895111 430.811646 226.163574 433.865967 226.163574 L 436.9198 226.163574 C 437.197754 225.716522 437.282349 225.335449 437.282349 224.968414 M 518.187561 160.585876 C 518.187561 160.204407 518.088989 159.658752 517.721924 159.559814 L 514.578552 159.559814 C 512.361877 159.559814 508.851074 159.73877 507.279358 159.73877 C 499.796631 159.73877 497.118958 159.277313 496.008301 159.277313 L 494.352051 159.277313 C 494.154114 159.73877 493.872009 160.020874 493.872009 160.486908 C 493.872009 160.849396 494.06958 161.1315 494.06958 161.493988 C 496.233154 161.754059 498.366943 162.220551 500.44165 162.887085 C 501.552246 163.992767 502.761475 166.213989 502.761475 168.712799 C 502.761475 169.621307 501.834351 173.974274 500.526184 177.118042 L 485.664673 213.697357 L 467.405396 167.404602 C 467.678406 165.202362 468.878479 163.065674 470.440674 162.237579 C 472.00293 162.058594 473.927979 161.493988 476.426758 161.493988 C 476.610291 161.1315 476.789307 160.585876 476.789307 160.204773 C 476.789307 159.837341 476.70929 159.277313 476.32782 159.192749 L 474.012573 159.192749 C 471.179688 159.192749 466.845337 159.559814 461.94635 159.559814 C 459.824097 159.559814 455.668701 159.376282 451.597839 159.376282 L 447.997925 159.376282 C 447.809814 159.73877 447.635437 159.922302 447.635437 160.486908 C 447.635437 161.032898 447.724915 161.230072 447.908447 161.592957 C 450.492126 162.237579 452.990906 163.249207 455.668701 164.722321 C 457.424255 167.319672 461.217163 176.656586 463.249939 181.536957 L 470.897217 200.026459 C 477.254883 215.372925 481.043274 225.613373 481.509277 227.368622 C 481.970398 227.650696 481.509277 227.914642 482.337402 227.914642 C 483.165955 227.914642 483.080994 227.749664 483.264465 227.288605 L 507.095825 170.00238 C 507.92395 167.964661 509.218079 166.030487 510.422729 164.722321 C 511.895874 163.065674 514.94519 162.420715 517.806519 161.776093 C 517.905029 161.413971 518.187927 161.032898 518.187927 160.58548 M 586.589417 211.015045 C 586.589417 209.72583 586.589417 209.160858 586.504822 208.33728 C 586.038452 208.055176 585.860229 208.055176 585.116333 208.055176 C 584.467163 208.055176 584.565735 208.055176 583.916199 208.252716 C 581.878845 214.991852 578.377502 219.98941 574.396118 222.389618 C 573.012512 223.217743 570.513428 223.396729 566.550964 223.396729 L 556.197876 223.396729 C 552.969971 223.298126 550.936829 223.118774 550.099182 222.935242 C 548.715576 222.671722 547.232971 220.436462 546.597839 218.963348 C 545.934265 217.391693 545.571838 216.841095 545.571838 212.591675 L 545.571838 191.518066 L 548.532043 191.518066 C 551.487366 191.518066 553.887573 191.716003 556.381775 192.826233 C 558.697083 193.838257 560.452271 195.311371 561.369873 196.784088 C 562.207886 198.092255 562.485413 203.170227 562.668945 204.464355 C 563.125488 204.741913 563.407593 204.826843 564.141663 204.826843 C 564.880676 204.826843 564.970215 204.741913 565.624207 204.365387 C 565.624207 201.880646 565.068726 195.127838 565.068726 191.43808 C 565.068726 186.817017 565.713379 181.174469 565.986389 177.847198 C 565.624207 177.663666 565.435791 177.485077 564.513672 177.485077 C 563.859558 177.485077 563.596008 177.485077 563.036011 177.748596 C 562.763 179.056763 562.014893 182.929688 561.840454 183.212158 C 560.452637 185.508484 557.209961 187.362671 554.725159 188.111145 C 553.054504 188.572235 550.654297 188.85434 547.14386 188.85434 L 545.670776 188.85434 L 545.670776 179.786285 C 545.670776 170.929443 545.854248 167.320068 545.934265 165.649414 C 546.032898 164.538422 546.216797 163.347778 546.31543 162.52005 C 547.14386 162.421082 549.826172 162.336517 554.080566 162.336517 C 559.426208 162.336517 563.407593 162.421082 564.240601 162.421082 C 566.824402 162.604614 568.763062 163.164276 570.151306 164.275269 C 574.67865 167.786072 575.878357 170.101349 578.377502 175.729462 C 578.932678 175.912994 579.012695 175.912994 579.488159 175.912994 C 580.03418 175.912994 580.132751 175.729462 580.862305 175.362427 C 580.862305 169.720276 580.495239 163.348175 580.311707 161.032898 C 580.212769 160.105804 580.033752 159.837341 578.189087 159.837341 C 577.450439 159.837341 573.939636 159.658752 570.250244 159.658752 C 564.970215 159.658752 562.852478 159.738403 554.81012 159.738403 C 550.470764 159.738403 542.809509 159.837341 539.016541 159.837341 C 533.473022 159.837341 532.263428 159.658752 529.854126 159.658752 L 526.69635 159.658752 C 526.413818 160.020874 526.220825 160.383362 526.220825 160.750427 C 526.220825 161.230469 526.414246 161.677521 526.69635 162.058594 C 527.811523 162.421082 532.183411 162.336517 533.473022 163.065674 C 534.762207 164.176666 535.96228 164.458801 536.799927 168.891754 C 536.983459 170.830475 537.082397 177.118042 537.082397 181.37204 L 537.082397 200.388947 C 537.082397 204.261871 536.983765 210.652924 536.889404 212.954132 C 536.701294 216.563538 535.406799 221.095123 534.856201 221.923615 C 534.018616 222.568207 530.230225 223.118774 526.50293 223.29776 C 526.220825 223.862732 526.032776 224.224823 526.032776 224.789459 C 526.032776 225.335449 526.220825 225.613007 526.50293 226.079041 L 529.576172 226.079041 C 532.545898 226.079041 539.943665 225.796539 542.428467 225.796539 C 544.743713 225.796539 547.882568 225.980072 553.242554 225.980072 C 556.197876 225.980072 564.880676 226.545044 583.549133 226.545044 C 584.288208 226.545044 585.116333 226.643616 586.038879 226.361511 C 586.321289 225.895111 586.321289 225.716919 586.415344 224.888397 C 586.589417 223.03421 586.589417 218.497742 586.589417 211.015045 M 664.106262 225.052979 C 664.106262 224.605927 663.932251 224.041321 663.650146 223.678833 C 662.7276 223.678833 658.934692 223.4953 657.546509 222.469238 C 657.089966 221.923615 656.350952 220.817566 655.97937 220.172943 C 654.779297 215.918579 653.489685 212.125641 652.096619 208.619781 C 650.162781 203.998352 647.480103 199.645386 645.263794 197.626648 C 644.435303 196.883057 641.847412 195.673859 638.609253 194.581818 C 637.136475 194.016876 635.92688 193.555786 634.821228 193.090149 C 636.209045 192.82663 636.854004 192.727661 638.609253 192.544128 C 644.619202 191.800568 646.651978 190.510986 648.407227 189.118256 C 652.096619 186.35556 654.50177 182.200531 654.50177 177.202576 C 654.50177 169.719879 649.696777 162.604614 642.953125 160.486908 C 640.736389 159.837341 636.755432 159.47525 631.865906 159.47525 C 624.938354 159.47525 619.757263 160.105804 615.140381 160.105804 C 613.766602 160.105804 609.229736 159.922302 606.001404 159.922302 C 604.613647 159.922302 601.102478 159.73877 600.547302 159.73877 C 600.274353 160.383362 600.086243 160.585876 600.086243 160.948364 C 600.086243 161.310455 600.175781 161.856476 600.274353 162.237579 C 601.841492 162.421082 604.702759 162.788116 606.184937 163.065674 C 608.401611 164.722321 609.145203 166.030853 610.067749 168.063263 C 610.519287 171.00946 610.618286 179.339233 610.618286 192.365173 C 610.618286 201.782043 610.712341 213.617706 610.24176 217.123596 C 609.973328 219.424835 609.145203 222.187134 606.457947 223.29776 C 605.25824 223.4953 603.041565 223.862732 601.191895 223.961304 C 600.914368 224.408752 600.721741 224.789459 600.721741 225.250519 C 600.721741 225.53302 600.914368 225.895111 601.102783 226.361511 C 602.392029 226.361511 613.018066 226.079041 615.973389 226.079041 C 621.893921 226.079041 623.366638 226.361511 628.628113 226.361511 C 628.821106 225.980072 629.009155 225.716919 629.009155 225.335449 C 629.009155 224.690857 628.821106 224.323792 628.628113 223.961304 C 626.792908 223.777802 624.472351 223.218109 623.456116 223.03421 C 621.145386 221.923615 619.493713 219.70694 619.493713 216.464569 L 619.395142 193.37262 C 620.138306 193.273651 622.811523 193.273651 623.545654 193.273651 C 626.044434 193.273651 628.548096 193.470856 630.938843 194.581818 C 634.453857 196.134949 637.781067 198.638275 639.997375 202.064148 C 642.953125 206.68103 644.896423 215.452942 645.823853 222.187134 C 646.091919 224.144836 646.83551 225.796906 648.590698 225.980072 C 649.324768 226.079041 650.444946 226.262543 653.950745 226.262543 L 663.551208 226.262543 C 663.932251 225.895508 664.106262 225.53302 664.106262 225.052979 M 644.708313 176.09198 C 644.708313 182.002594 639.997803 188.656799 634.552795 189.866364 C 632.326965 190.327454 629.09375 190.609924 624.938354 190.609924 C 623.827759 190.609924 620.68396 190.609924 619.30072 190.407471 L 619.211182 182.285095 L 619.211182 164.821289 C 619.211182 163.611694 619.493713 162.967102 619.855835 162.703583 C 620.227844 162.421082 624.011658 162.138611 626.32196 162.138611 C 634.999817 162.138611 638.981201 162.967102 642.124939 167.503571 C 643.880188 170.00238 644.708313 172.863647 644.708313 176.09198 M 726.465576 207.970215 C 726.465576 200.572449 723.157227 195.508911 716.027527 191.716003 C 714.084229 190.609924 710.677368 189.40036 705.77832 188.012177 C 700.139954 186.435577 695.429443 184.600342 692.380127 182.929688 C 690.351501 181.819092 686.926025 178.774261 686.926025 172.863647 C 686.926025 166.95755 692.939758 162.058594 699.951904 162.058594 C 705.495483 162.058594 709.938293 164.821289 712.611145 168.510681 C 714.931335 171.757599 715.75946 173.230682 718.338257 179.056763 C 718.620728 179.136383 718.982849 179.240295 719.26532 179.240295 C 720.093872 179.240295 720.837463 178.774261 721.30304 178.308655 C 721.020935 175.993011 720.564392 172.765045 720.564392 170.00238 C 720.564392 167.602173 721.119568 164.458801 721.402039 162.788116 C 720.648987 161.677521 719.820801 161.493988 718.620728 161.493988 C 717.331543 162.336517 716.121948 163.611694 715.010986 164.821289 C 708.921326 159.922302 703.933289 159.093781 699.311829 159.093781 C 687.95166 159.093781 679.824402 166.675476 679.824402 176.736938 C 679.824402 180.167389 681.015015 183.490112 683.231628 186.901581 C 685.269348 189.762848 688.229248 191.98407 692.206055 193.654755 C 694.879272 194.746765 706.884033 198.370209 708.549805 199.019714 C 715.938416 201.880646 718.719299 204.365387 718.719299 210.916443 C 718.719299 214.163361 717.331543 217.024994 714.648804 220.25293 C 712.248657 223.218109 708.455688 224.605927 704.394348 224.605927 C 700.050842 224.605927 692.568176 222.75174 688.869263 217.773132 C 686.652954 214.906921 683.51416 208.897339 682.587036 205.29248 C 681.942444 205.108948 681.942444 205.108948 681.297485 205.108948 C 680.741943 205.108948 680.087891 205.29248 679.54187 205.654968 C 679.54187 206.864532 679.913818 212.954132 679.913818 214.808319 C 679.913818 219.325867 679.076233 221.542542 678.897705 223.03421 C 679.170654 223.961304 680.741943 224.888397 681.857544 224.888397 C 683.786804 223.217743 685.815369 221.923615 686.478943 221.923615 C 687.024963 221.923615 687.853088 222.187134 688.67627 222.75174 C 694.686279 226.643616 699.683777 227.368622 704.121765 227.368622 C 717.147644 227.368622 726.465576 220.817566 726.465576 207.970215 M 772.113647 224.968414 C 772.113647 224.507324 772.015076 224.041321 771.836121 223.679199 C 770.461975 223.580231 766.664124 223.217743 764.998413 222.850708 C 763.525269 221.095123 762.508728 219.062714 761.864136 215.735413 C 761.770081 211.297516 761.671143 201.236023 761.671143 192.628693 L 761.671143 169.174255 C 761.671143 166.675476 762.697144 164.722321 763.337219 164.176666 C 765.087524 162.519653 768.607788 162.138611 771.554016 161.776489 C 771.742065 161.413971 771.836121 160.947968 771.836121 160.585876 C 771.836121 160.020874 771.553589 159.658752 771.379578 159.474854 L 768.70636 159.474854 C 764.819397 159.474854 759.270935 159.922302 756.127502 159.922302 C 754.188416 159.922302 748.644775 159.658752 744.583801 159.559814 L 742.546082 159.559814 C 742.273132 159.922302 742.0896 159.922302 742.0896 160.750427 C 742.0896 161.1315 742.183594 161.493988 742.273132 161.959991 C 746.80957 162.336517 748.83783 162.788116 749.482422 163.249207 C 750.588501 164.091736 752.15564 166.115417 752.536743 171.113342 C 752.62616 172.863647 752.706177 177.583649 752.800232 186.073456 C 752.898804 190.689941 752.988708 196.982025 752.988708 202.327698 C 752.988708 205.024414 752.800232 211.947052 752.706177 215.170441 C 752.536743 217.391693 752.061584 219.523407 751.426086 220.71402 C 750.30603 221.641113 749.200317 223.29776 742.456665 223.777802 C 742.273132 224.144836 742.183594 224.789459 742.183594 225.151947 C 742.183594 225.895111 742.353149 225.895111 742.353149 226.361511 L 743.934265 226.361511 C 747.637695 226.361511 753.360657 225.895111 758.160278 225.895111 C 759.553406 225.895111 765.638428 226.163574 768.706787 226.163574 L 771.742065 226.163574 C 772.015076 225.716522 772.113647 225.335449 772.113647 224.968414 M 848.901428 179.339233 L 848.901428 161.413971 C 848.901428 160.020874 848.336426 159.658386 846.953247 159.658386 C 844.181396 159.658386 831.428101 160.020874 816.646606 160.020874 C 805.182556 160.020874 797.52124 159.837341 792.345093 159.837341 L 785.511536 159.837341 C 784.316406 159.837341 783.935364 160.105804 783.935364 161.413971 L 783.935364 178.129669 C 784.316406 178.41217 784.598877 178.492188 785.036438 178.492188 C 785.422485 178.492188 785.784546 178.492188 786.156555 178.308655 C 789.760986 170.266266 791.606079 166.030853 797.799194 162.887085 C 800.56604 162.604614 810.265076 162.52005 811.752197 162.52005 C 811.841675 163.531677 811.93573 166.76001 812.030151 170.646973 C 812.124146 177.301544 812.124146 180.892365 812.124146 196.619537 C 812.124146 210.191467 812.030151 217.20816 811.841675 218.681274 C 811.479187 221.278625 811.93573 223.217743 800.853149 223.678833 C 800.56604 224.323425 800.56604 224.507324 800.56604 225.250885 C 800.56604 225.613007 800.56604 225.980072 800.664612 226.361511 L 804.264954 226.361511 C 807.681335 226.361511 812.20874 225.980072 815.540527 225.980072 C 818.218323 225.980072 823.300842 226.262543 828.938416 226.262543 L 831.522156 226.262543 C 831.799744 225.796539 831.799744 225.335449 831.799744 224.888397 C 831.799744 224.323425 831.705688 224.041321 831.428101 223.580231 C 830.41156 223.580231 824.505493 223.777802 821.912659 221.824646 C 821.630188 220.817566 821.070129 218.135254 821.070129 214.906921 C 820.995056 204.925446 820.895691 200.209961 820.895691 193.555786 C 820.895691 184.967407 820.995056 178.41217 820.995056 162.421082 C 822.284241 162.421082 829.121948 162.336517 831.903259 162.421082 C 837.616333 163.992767 839.833008 166.115417 842.326843 169.437775 C 844.548462 172.402557 845.103577 175.084869 846.477661 179.517853 C 847.047241 179.701355 847.315674 179.701355 847.875366 179.701355 C 848.233337 179.701355 848.708374 179.517853 848.901428 179.339233 M 923.538452 160.303375 C 923.538452 159.738403 923.171387 159.559814 922.987915 159.192749 C 919.199463 159.192749 914.215942 159.47525 912.267822 159.47525 C 907.552246 159.47525 901.834351 159.093781 899.335571 159.093781 C 899.052979 159.658752 898.958984 159.738403 898.958984 160.204773 C 898.959595 160.581299 899.023315 160.955048 899.147461 161.310455 C 901.834351 161.856476 905.707275 162.52005 906.450806 163.814178 C 907.095337 165.004791 907.283813 165.931885 907.283813 167.404999 C 907.283813 168.510681 907.199341 169.621307 906.723877 170.830475 C 905.895752 173.132111 904.140503 176.736572 901.64624 181.819092 C 897.391846 190.407471 894.714111 195.772461 893.231934 197.890167 C 890.836548 193.838257 885.476563 183.127228 884.191528 180.346344 L 879.005493 169.075287 C 878.826904 168.712799 878.638428 167.404602 878.638428 166.576508 C 878.638428 165.385864 878.826904 164.538788 879.005493 164.1763 C 879.843445 162.52005 882.709351 162.336517 886.587158 161.856476 C 886.765747 161.413971 886.860229 160.849396 886.860229 160.486908 C 886.860229 159.837341 886.587158 160.020874 886.309204 159.559814 L 884.648438 159.559814 C 878.454956 159.559814 880.299622 159.837341 869.673523 159.837341 C 865.156067 159.837341 859.697021 159.559814 858.962891 159.559814 C 858.591309 160.204407 858.402832 160.303375 858.402832 160.947968 C 858.402832 161.310455 858.496887 161.59259 858.783936 162.05896 C 864.963013 163.531677 866.807373 164.63739 867.461792 165.846954 L 883.63147 197.527679 C 885.198608 200.492828 886.121216 202.789154 886.587158 204.464355 C 887.231812 207.043152 887.335327 210.836426 887.335327 215.537476 C 887.335327 219.523407 885.9422 221.641113 884.365906 222.671722 C 883.725891 223.03421 879.095337 223.678833 876.977295 223.862335 C 876.605652 224.506958 876.502136 224.690857 876.502136 225.151947 C 876.502136 225.613007 876.699341 225.895111 876.794128 226.262543 C 881.5047 226.262543 886.40332 226.163971 889.175415 226.163971 C 891.114258 226.163971 894.069458 226.262543 899.519043 226.361115 C 902.657837 226.441528 905.062622 226.545044 906.723877 226.545044 C 906.912231 226.163574 907.199341 225.796539 907.199341 225.335449 C 907.199341 224.888397 907.095825 224.605927 906.818237 224.144836 C 903.858032 223.777802 899.716553 223.217743 898.784912 222.290649 C 897.297852 220.71402 896.573242 219.98941 896.375244 216.380035 L 895.641235 202.511597 C 895.547119 201.499573 895.919189 200.572449 896.012817 200.308929 C 896.28125 199.283264 896.648315 198.454773 897.010742 197.711578 L 911.251221 169.536377 C 912.535889 167.136169 915.317139 164.458801 917.166382 163.348175 C 918.469971 162.52005 921.32666 161.959991 923.171387 161.493988 C 923.369019 161.032898 923.538452 160.665863 923.538452 160.303375"/>
</svg>
