<?xml version="1.0" encoding="UTF-8"?>
<!-- Generated by Pixelmator Pro 3.6.5 -->
<svg width="254" height="255" viewBox="0 0 254 255" xmlns="http://www.w3.org/2000/svg">
    <g id="g1">
        <path id="path7" fill="#635bff" stroke="none" d="M 9.800003 0.5 C -2.300003 46.299988 -6.300003 101.399994 15.699997 152.799988 C -10.5 252.299988 33.800003 360.399994 218.100006 386.700012 C 219.200012 349.899994 217.899994 308.5 218.5 270.700012 C 219.200012 228.200012 220.399994 201.100006 224.300018 160 C 258.899994 83.600006 219 2.399994 219 2.399994 C 219 2.399994 190 14.799988 178.600006 27.399994 C 145.600006 19 94.600006 12.799988 50.199997 28.799988 C 50.100006 28.799988 19.700005 4.200012 9.800003 0.5 L 9.800003 0.5 Z"/>
        <path id="path11" fill="#635bff" stroke="none" d="M 144.300003 197.299988 C 149.899994 260.899994 185.699982 312.299988 185.699982 312.299988 L 197.899994 301.5 C 208 334 224.5 352.799988 253.699982 366.100006 C 253.699982 301.200012 252 192.600006 232.600006 165.799988 C 227.5 158.700012 215.299988 156 207.100006 155.5 C 182.5 154.100006 141.100006 161.5 144.300003 197.299988 L 144.300003 197.299988 Z"/>
    </g>
</svg>
