<?xml version="1.0" encoding="UTF-8"?>
<!-- Generated by Pixelmator Pro 3.6.5 -->
<svg width="924" height="194" viewBox="0 0 924 194" xmlns="http://www.w3.org/2000/svg">
    <g id="g1">
        <path id="path1" fill="#8c1515" stroke="none" d="M 505.150696 20.370667 C 512.634766 7.413055 527.705383 0.582336 542.304321 0.452515 C 555.625366 -0.408539 570.695923 1.808289 580.029053 12.339966 C 575.283875 18.598083 570.747864 24.984589 566.002686 31.241272 C 560.709473 25.167755 556.356628 16.616364 547.805237 14.894257 C 539.383667 12.288025 528.800049 16.668304 526.609192 25.688416 C 523.062561 40.001801 525.201538 54.965637 524.679382 69.56604 L 552.028259 69.56604 L 552.028259 85.861115 L 524.653442 85.861115 C 524.653442 110.420593 524.653442 134.978607 524.627502 159.538055 C 524.523621 166.498596 525.644287 173.381256 526.94812 180.211975 C 533.204834 183.105225 539.957703 184.592255 546.866272 184.722046 C 546.840332 186.416748 546.814392 189.832123 546.788391 191.552765 C 524.418335 190.09317 502.023804 189.648956 479.681091 191.526794 C 479.681091 190.09317 479.733032 187.224457 479.733032 185.790802 C 486.797424 184.538879 495.557983 181.254761 495.843567 172.75531 C 498.582458 143.894897 496.73053 114.825378 497.278625 85.861115 C 491.82959 85.861115 486.380615 85.861115 480.93158 85.835175 C 480.957581 83.38327 481.009521 80.908264 481.035461 78.457794 C 486.562378 75.902069 491.959412 73.06073 497.277161 70.140076 C 497.277161 53.402191 496.286316 35.308563 505.1521 20.370667 Z M 908.38855 0.426575 C 893.920898 3.762604 879.268555 6.577972 864.408569 7.229889 C 864.251343 8.585663 863.964294 11.29718 863.833008 12.652924 C 869.359985 14.320221 878.381531 13.878876 878.7724 21.595184 C 880.989197 37.239807 879.424377 53.113739 879.868591 68.859314 C 858.568665 65.210297 834.764954 65.445404 816.646851 78.715973 C 796.806519 92.611084 790.001831 118.52774 791.983521 141.627594 C 793.104126 159.538055 802.070984 177.918732 818.314087 186.651855 C 837.658264 197.288788 862.400879 195.097961 880.520447 182.844177 C 880.650269 186.468689 880.72821 190.091736 880.75415 193.716217 C 894.780518 190.145081 909.121216 188.137421 923.538452 187.302338 L 923.538452 181.044189 C 903.105347 177.563934 908.754883 168.108215 907.321289 152.029449 C 907.34729 101.504303 906.564087 50.951721 908.38855 0.429443 Z M 855.384094 81.903473 C 864.011902 81.811157 872.786804 84.567383 879.869995 89.377441 C 879.895935 116.569122 879.81665 143.760773 879.920471 170.953857 C 864.747498 177.914398 844.229309 177.418243 832.340515 164.539978 C 822.147766 153.641968 820.427063 137.687256 821.338623 123.451752 C 822.355408 110.494141 825.069824 95.686066 836.38324 87.6539 C 842.051453 83.765472 848.673035 81.971252 855.38269 81.900574 Z M 48.355957 17.033203 C 65.536606 15.990417 82.769196 17.111084 99.768127 19.509613 C 98.751312 31.606171 98.855164 43.782074 99.794098 55.878632 C 98.149872 55.878632 94.865753 55.904572 93.224426 55.904572 C 91.920578 48.344055 90.564819 39.166718 82.508148 35.803253 C 70.567352 30.771088 56.592911 30.276367 44.209351 33.873474 C 28.019547 38.670563 25.35994 62.498779 37.404572 72.902069 C 52.473709 86.094788 70.932251 94.72406 86.366287 107.524445 C 110.533447 126.764709 107.380569 171.555298 78.70192 185.033569 C 54.560715 196.192627 26.220993 193.377289 1.296631 186.363403 C 1.452393 174.377869 1.009613 162.392395 0.461533 150.421295 C 2.260086 150.395355 5.884583 150.317444 7.709091 150.291504 C 8.986969 157.82608 10.160995 167.079865 17.799408 170.965393 C 31.459427 178.629791 49.08287 179.255737 63.267883 172.660095 C 80.970657 162.882751 77.71106 134.622345 61.154907 125.106079 C 46.789612 114.04364 30.286835 105.865814 17.016235 93.375488 C 2.312012 79.71405 0.487503 55.780548 9.951859 38.703735 C 17.694122 25.094208 33.311325 18.290863 48.354507 17.038971 Z M 150.316376 42.661407 C 151.672119 42.739288 154.409607 42.86908 155.765381 42.94696 C 155.73941 52.046448 155.73941 61.119934 155.73941 70.217957 L 197.453583 70.217957 L 197.453583 85.861115 L 155.73941 85.861115 C 155.896606 107.760986 155.400482 129.686829 155.974518 151.61264 C 156.548553 159.956329 156.782196 170.358185 164.57782 175.468262 C 174.407074 181.30957 186.164703 177.659119 195.993988 173.826935 C 199.018494 181.230255 191.328156 185.375397 185.982971 188.451843 C 173.4422 194.526794 158.139404 195.178711 145.181793 190.122009 C 134.102051 185.975403 128.756897 173.852875 128.182861 162.747192 C 126.853058 137.144928 128.182861 111.492218 128.391998 85.864014 L 112.095459 85.864014 L 112.016129 80.753937 C 129.720337 74.078979 141.659698 58.826691 150.316376 42.662842 Z M 261.950287 66.081451 C 243.155701 65.889618 224.199585 75.225616 218.160645 94.099548 C 219.802002 95.037018 223.139496 96.887482 224.808228 97.826447 C 232.029785 85.076508 248.897491 78.534241 262.192596 85.887085 C 272.620422 90.632263 273.50885 103.379303 273.301178 113.365753 C 256.902252 118.631592 239.92926 122.778198 224.443298 130.495941 C 205.88092 140.299255 203.482361 168.089447 216.778931 183.132629 C 232.448059 197.497925 258.596954 195.175842 274.081451 181.593689 C 278.800659 190.925385 289.959717 194.49939 299.682251 191.761902 C 308.155762 190.117706 313.760529 183.054749 319.314819 177.083649 C 318.34848 175.987488 316.39563 173.772125 315.430725 172.650024 C 311.937469 173.537018 308 176.299042 304.584625 173.616364 C 300.152466 170.564453 300.699097 164.437561 300.387543 159.719788 C 300.699097 139.488678 301.819733 119.205627 300.751007 98.949982 C 300.230347 88.468811 295.537109 77.752533 286.25589 72.251587 C 279.005463 68.2276 270.494476 66.170868 261.950287 66.082886 Z M 273.012726 129.164703 C 273.116577 142.798737 273.012726 156.434235 273.118011 170.068298 C 264.383453 173.953857 254.007538 177.552368 244.80426 173.094238 C 233.541321 167.097168 234.011536 149.16217 243.318695 141.627594 C 252.260925 135.474762 262.870483 132.580078 273.012726 129.164703 Z"/>
        <path id="path2" fill="#8c1515" stroke="none" d="M 621.270142 66.59491 C 607.532288 66.750671 593.34729 70.166046 582.606445 79.108276 C 566.624329 92.039948 559.691223 113.417694 560.39502 133.491608 C 560.315735 150.672241 565.659424 169.000977 579.192566 180.421112 C 595.173218 194.343628 618.402832 195.723907 638.295044 191.578735 C 659.280518 186.963379 675.054932 168.584167 679.513062 147.988129 C 684.31012 126.610382 682.30249 101.76535 667.598206 84.506805 C 656.283386 71.263611 638.165283 66.255951 621.271606 66.59491 Z M 621.453369 81.186646 C 628.837891 81.330872 636.143127 84.362579 640.875366 90.241394 C 649.452698 100.747101 651.747375 114.878754 652.373352 128.070007 C 652.477173 142.435303 650.652649 157.94577 641.605103 169.677429 C 632.716248 181.173981 613.553833 182.451874 603.3078 172.100494 C 595.46167 164.82843 592.539612 154.009735 590.766968 143.841522 C 588.916504 130.33728 589.386719 116.283539 593.637146 103.273987 C 596.608276 94.566833 602.394775 85.754395 611.572144 82.78183 C 614.742065 81.653809 618.090881 81.112305 621.454773 81.183746 Z M 329.118134 74.885223 C 343.694 74.650146 358.476135 73.138611 371.928436 67.11557 C 372.397217 70.582855 372.762115 74.05014 373.049133 77.569336 C 388.509094 67.454498 408.479187 63.517029 426.181946 69.775177 C 438.852539 74.02417 447.715454 86.433716 448.837585 99.573059 C 451.443848 124.576752 447.663574 149.917938 451.001038 174.868256 C 451.365906 182.714355 459.813477 184.488403 465.940369 185.766266 C 465.96637 187.225891 465.96637 190.145081 465.992249 191.60614 C 445.292419 189.961914 403.839294 191.526794 403.839294 191.526794 L 403.761414 185.616272 C 403.761414 185.616272 418.713745 181.411987 419.664185 177.109589 C 423.07959 158.547211 422.271912 139.358887 422.088684 120.50946 C 421.410828 109.246552 421.697815 95.168274 410.931091 88.311584 C 399.381165 81.662598 385.224976 84.740448 373.415466 89.041412 C 373.493347 113.445099 373.415466 137.871857 373.415466 162.275543 C 373.754395 168.794739 373.285675 176.22403 377.534668 181.64563 C 381.105835 184.123505 385.589905 184.566284 389.683167 185.712921 C 389.709106 187.17395 389.735107 190.11911 389.735107 191.604675 C 369.32077 190.276337 348.855988 189.415283 328.467682 191.578735 C 328.467682 190.11911 328.519592 187.225891 328.519592 185.790802 C 334.724365 184.357147 342.910828 182.401398 344.083435 174.894226 C 346.924774 156.905884 344.735352 138.525208 345.413239 120.379669 C 345.153625 110.02829 346.300262 99.548523 344.475739 89.326965 C 343.040649 82.340485 334.515228 82.731354 329.144104 81.351074 C 329.144104 79.734253 329.118134 76.50061 329.118134 74.883789 Z M 693.428345 74.337158 C 708.030212 74.128021 722.62915 72.146301 736.499695 67.480469 L 736.889099 78.221283 C 750.91687 66.932404 772.061035 64.065125 786.998901 75.250153 L 771.422119 99.023529 C 764.14856 87.813995 749.392456 85.102478 737.738647 90.811096 C 737.738647 90.811096 737.660767 140.163666 737.816528 164.826965 C 738.416565 170.327911 737.556946 177.471619 742.717407 181.068695 C 747.697693 183.989349 753.745361 183.832153 759.298157 184.717712 C 759.298157 186.413849 759.272156 189.855194 759.272156 191.549896 C 736.877625 190.036926 714.431091 189.723938 692.035095 191.497986 L 692.030762 184.719177 C 699.249512 183.487457 706.76532 180.990814 707.859985 176.688446 C 710.962402 166.077454 709.450867 154.840515 709.763855 143.916534 C 709.450867 126.526733 710.389771 109.110992 709.345581 91.748596 C 709.267639 83.30249 699.699524 82.546722 693.494751 81.32077 C 693.506287 78.926544 693.452881 76.467438 693.444214 74.33429 Z"/>
    </g>
</svg>
