<?xml version="1.0" encoding="UTF-8"?>
<!-- Generated by Pixelmator Pro 3.6.5 -->
<svg width="924" height="428" viewBox="0 0 924 428" xmlns="http://www.w3.org/2000/svg">
    <path id="path1" fill="#011f5b" stroke="none" d="M 0.722076 -0.487976 L 0.722076 9.438782 C 28.738098 9.438782 38.65741 21.695557 38.65741 62.552734 L 38.65741 272.097778 C 38.65741 316.457397 24.06691 324.046722 0.718369 324.046722 L 0.718369 333.977173 L 120.959808 333.977173 L 120.959808 324.046722 C 92.940079 324.046722 83.020752 312.374298 83.020752 270.93277 L 83.020752 177.538605 C 107.538025 180.452972 119.791077 181.041077 134.385315 181.041077 C 210.267151 181.041077 252.300476 150.110687 252.300476 94.655579 C 252.296753 48.542847 214.938354 -0.487976 122.712921 -0.487976 L 0.7258 -0.487976 Z M 83.017044 12.360596 L 124.46228 12.360596 C 185.749878 12.360596 205.603394 60.218994 205.603394 95.82428 C 205.603394 141.352661 174.077454 168.207397 124.46228 168.207397 C 106.949951 168.207397 98.19191 167.619293 83.017044 162.367462 L 83.017044 12.356873 Z M 322.33493 121.506592 C 263.97287 121.506592 218.437073 170.541107 218.437073 232.993713 C 218.437073 295.450043 265.130463 340.394043 329.924225 340.394043 C 366.113892 340.394043 390.046814 328.140991 415.144714 296.034424 L 415.144714 280.848358 C 385.371887 314.123657 370.785126 324.042999 342.177277 324.042999 C 314.161255 324.042999 258.7099 300.705597 259.871155 207.895813 L 411.63855 207.895813 C 414.560364 160.029999 370.197021 121.502869 322.331207 121.502869 Z M 481.088623 121.506592 L 416.882935 127.930878 L 416.882935 137.853912 C 444.898926 137.853912 451.334412 143.109467 451.334412 168.207397 L 451.334412 284.362 C 451.334412 321.712982 444.318298 324.046722 416.882935 324.046722 L 416.882935 333.977173 L 526.036377 333.977173 L 526.036377 324.046722 C 495.098511 324.046722 491.019104 315.87677 491.019104 284.362 L 491.019104 183.37854 C 511.445862 155.943176 529.542542 143.105743 549.969238 143.105743 C 572.145325 143.105743 596.08197 157.115601 596.08197 190.387207 L 596.08197 298.371857 C 596.08197 317.633575 588.488892 324.046722 560.476624 324.046722 L 560.476624 333.977173 L 778.776001 333.977173 L 778.776001 324.046722 C 747.845642 324.046722 743.751343 315.87677 743.751343 284.362 L 743.751343 183.382263 C 764.185547 155.943176 782.271057 143.109467 802.708923 143.109467 C 824.88501 143.109467 848.821655 157.119354 848.821655 190.387207 L 848.821655 298.371857 C 848.821655 317.633575 841.239807 324.046722 813.220032 324.046722 L 813.220032 333.977173 L 923.542236 333.977173 L 923.542236 324.046722 C 894.35376 324.046722 888.517456 315.884216 888.517456 289.029449 L 888.517456 195.635315 C 888.517456 146.020111 852.904785 121.506592 818.468201 121.506592 C 792.205261 121.506592 768.272339 134.932068 743.755066 162.951813 L 743.755066 121.506592 L 733.839478 121.506592 L 669.626343 127.93457 L 669.626343 137.857635 C 697.64978 137.857635 704.070374 143.109467 704.070374 168.207397 L 704.070374 284.362 C 704.070374 321.418915 697.110107 324.002045 670.214417 324.039276 C 641.565674 323.927612 635.777832 315.694366 635.777832 289.029449 L 635.777832 195.635315 C 635.777832 146.020111 600.176208 121.506592 565.735962 121.506592 C 539.476685 121.506592 515.5401 134.932068 491.02655 162.951813 L 491.02655 121.506592 L 481.096069 121.506592 Z M 317.079376 133.763367 C 343.349731 133.763367 374.280151 152.440704 372.523315 197.969055 L 259.871155 197.969055 C 262.208618 159.445648 282.646515 133.763367 317.079376 133.763367 Z M 448.375366 363.33313 C 445.594971 363.33313 433.941162 364.788483 430.434998 378.895142 L 424.204224 378.895142 L 423.61615 381.67923 L 429.906433 381.67923 L 420.430054 428.487976 L 423.411438 428.487976 C 427.181946 418.423462 432.482117 397.43103 435.727783 381.67923 L 444.400208 381.67923 L 445.985779 380.283447 L 446.253784 378.895142 L 436.528015 378.895142 L 437.246399 375.712738 C 438.84314 368.566376 441.817078 365.849243 445.788513 365.849243 C 448.568909 365.849243 450.686768 367.907562 451.609863 369.694153 L 453.269897 368.893921 L 454.073853 364.524231 C 453.076355 363.597412 449.893982 363.33313 448.379089 363.33313 Z M 0.461533 365.652008 L 0.461533 367.375305 C 6.424301 368.104828 6.156311 367.769867 6.156311 373.929871 L 6.156311 393.66803 C 6.156311 405.64563 10.526016 412.799438 24.63266 412.799438 C 33.174805 412.799438 42.249207 407.495483 42.249207 393.258606 L 42.249207 374.592407 C 42.249207 373.204102 42.50975 372.080017 42.64003 371.019226 C 42.971298 368.629639 45.15242 367.699127 48.334793 367.371582 L 48.334793 365.652008 L 32.705826 365.652008 L 32.705826 367.375305 C 35.817474 367.699127 38.065598 368.629639 38.400589 371.015503 C 38.530869 372.080017 38.798859 373.204102 38.798859 374.592407 L 38.798859 392.994324 C 38.798859 403.591064 34.027161 409.684082 24.956482 409.684082 C 15.089264 409.684082 12.576874 402.593506 12.576874 393.325562 L 12.576874 373.933594 C 12.576874 367.769867 12.308884 368.104828 18.271637 367.375305 L 18.271637 365.652008 L 0.461533 365.652008 Z M 474.243774 365.652008 L 474.243774 367.375305 C 480.206482 368.104828 479.942261 367.769867 479.942261 373.929871 L 479.942261 403.72876 C 479.942261 409.881348 480.20282 409.557526 474.247498 410.287048 L 474.247498 412.00293 L 492.053833 412.00293 L 492.053833 410.287048 C 486.098572 409.557526 486.362854 409.877625 486.362854 403.72876 L 486.362854 367.766144 L 490.397522 367.766144 C 497.823059 367.766144 501.388794 371.212769 501.388794 378.634583 C 501.388794 385.918671 497.555054 390.876465 489.269714 390.746185 L 489.269714 392.067535 C 499.404968 392.670471 508.014099 387.504272 508.014099 377.972046 C 508.014099 370.017975 502.579834 365.652008 491.588562 365.652008 L 474.243774 365.652008 Z M 251.403442 375.627136 C 245.522583 375.627136 240.415924 379.252441 240.415924 383.849182 C 240.415924 389.417419 243.84021 391.412415 246.60199 393.254883 C 254.26947 398.313141 256.044861 401.019104 256.044861 404.339172 C 256.044861 408.068695 253.089569 410.826782 249.456818 410.826782 C 245.522583 410.826782 241.796783 408.582336 241.238495 402.917358 L 239.89856 402.917358 L 239.89856 410.264709 C 239.89856 410.67041 240.062317 410.875122 240.270752 410.986816 C 243.054077 412.070374 246.01593 412.62207 249.002716 412.613342 C 255.140411 412.613342 261.367432 409.24115 261.367432 403.170441 C 261.367432 398.923584 259.625488 396.321838 254.213623 392.287109 C 249.099518 388.4534 245.526306 386.298309 245.526306 382.721405 C 245.526306 378.943512 248.176422 377.413727 251.146637 377.413727 C 255.229736 377.413727 257.176392 380.279724 257.585815 383.849182 L 258.910858 383.849182 L 258.910858 377.149475 C 258.910858 376.896362 258.862488 376.70282 258.553558 376.591156 C 256.513855 375.883972 253.595764 375.623413 251.399719 375.623413 Z M 657.257935 375.627136 C 651.377075 375.627136 646.277771 379.252441 646.277771 383.849182 C 646.277771 389.417419 649.694641 391.412415 652.456421 393.254883 C 660.127625 398.313141 661.910522 401.019104 661.910522 404.339172 C 661.910522 408.068695 658.94397 410.826782 655.322449 410.826782 C 651.38446 410.826782 647.658691 408.582336 647.096619 402.917358 L 645.760437 402.917358 L 645.760437 410.264709 C 645.760437 410.67041 645.920471 410.875122 646.117737 410.986816 C 648.782715 411.999207 651.589172 412.613342 654.864624 412.613342 C 660.994873 412.613342 667.221863 409.24115 667.221863 403.170441 C 667.221863 398.923584 665.491089 396.321838 660.068054 392.287109 C 654.961365 388.4534 651.380737 386.298309 651.380737 382.721405 C 651.380737 378.943512 654.041992 377.413727 657.001099 377.413727 C 661.087891 377.413727 663.038269 380.279724 663.440247 383.849182 L 664.772766 383.849182 L 664.772766 377.149475 C 664.772766 376.896362 664.724365 376.70282 664.415405 376.591156 C 662.375793 375.883972 659.457642 375.623413 657.25415 375.623413 Z M 796.537781 375.627136 C 792.294617 386.912476 786.328064 403.617096 784.124634 408.113342 C 783.305786 409.799469 781.831848 410.674164 780.454712 410.674164 L 780.454712 412.00293 L 789.744934 412.00293 L 789.744934 410.674164 C 787.500549 410.674164 786.521606 408.984314 787.19165 406.993011 L 789.536499 400.151855 L 802.567505 400.151855 L 804.770935 406.739899 C 805.589783 408.988037 805.284607 410.67041 802.061279 410.67041 L 802.061279 412.00293 L 813.968201 412.00293 L 813.968201 410.67041 C 811.772217 410.67041 810.949585 409.040161 809.8255 406.17041 C 808.087341 401.629517 802.872681 385.896301 799.403687 375.623413 L 796.537781 375.623413 Z M 905.825195 375.627136 C 901.59314 386.912476 895.60437 403.617096 893.408325 408.113342 C 892.589478 409.799469 891.108032 410.674164 889.730957 410.674164 L 889.730957 412.00293 L 899.036133 412.00293 L 899.036133 410.674164 C 896.780518 410.674164 895.816406 408.984314 896.479004 406.993011 L 898.831421 400.151855 L 911.866089 400.151855 L 914.047241 406.739899 C 914.866089 408.988037 914.568237 410.67041 911.352417 410.67041 L 911.352417 412.00293 L 923.251831 412.00293 L 923.251831 410.67041 C 921.052124 410.67041 920.240723 409.040161 919.116699 406.17041 C 917.374756 401.629517 912.16748 385.896301 908.691162 375.623413 L 905.825195 375.623413 Z M 52.875717 376.237549 L 52.875717 377.566345 C 55.7901 377.566345 57.379425 379.204041 58.808701 381.035278 L 58.808701 405.10965 C 58.808701 406.177917 58.600266 407.041382 58.496048 407.86026 C 58.24295 409.702698 56.560562 410.428497 54.104004 410.674164 L 54.104004 412.00293 L 66.625046 412.00293 L 66.625046 410.674164 C 63.252853 410.424774 61.514648 409.706421 61.257813 407.86026 C 61.157318 407.041382 60.952606 406.177917 60.952606 405.10965 L 60.952606 382.524139 C 69.282593 392.331787 77.709366 402.399963 85.830917 412.00293 L 87.569122 412.00293 L 87.569122 383.134552 C 87.569122 382.058868 87.777557 381.199066 87.881775 380.380249 C 88.131165 378.537781 89.86937 377.823181 92.273819 377.566345 L 92.273819 376.237549 L 79.752777 376.237549 L 79.752777 377.566345 C 83.124969 377.823181 84.859451 378.534088 85.116287 380.380249 C 85.220505 381.199066 85.421494 382.058868 85.421494 383.134552 L 85.421494 404.138184 L 85.324722 404.138184 C 77.713089 394.888855 69.792526 385.483154 62.17717 376.237549 L 52.87944 376.237549 Z M 102.695618 376.237549 L 102.695618 377.566345 C 107.292374 378.124634 107.087662 377.875275 107.087662 382.628357 L 107.087662 405.612122 C 107.087662 410.365234 107.296097 410.112122 102.695618 410.674164 L 102.695618 412.00293 L 116.444946 412.00293 L 116.444946 410.674164 C 111.844467 410.112122 112.045456 410.365234 112.045456 405.612122 L 112.045456 382.624634 C 112.045456 377.875275 111.844467 378.128357 116.444946 377.566345 L 116.444946 376.237549 Z M 124.309662 376.237549 L 124.309662 377.566345 C 126.762512 377.566345 128.344391 379.15567 130.235199 384.61969 C 133.346863 393.303253 136.823273 403.170441 139.938629 412.00293 L 142.547821 412.00293 C 146.839355 401.532745 151.179291 391.103516 155.474548 380.633301 C 156.542786 378.079987 158.228882 377.566345 159.713989 377.566345 L 159.713989 376.237549 L 148.674347 376.237549 L 148.674347 377.566345 C 152.147034 377.566345 153.4758 379.15567 152.199127 382.371521 C 149.027954 390.187866 145.91629 398.048889 142.648315 405.865234 C 140.074738 398.350677 137.535004 390.824585 135.029236 383.28717 C 133.34314 378.388916 135.390259 377.566345 138.196716 377.566345 L 138.196716 376.237549 L 124.305939 376.237549 Z M 167.586182 376.237549 L 167.586182 377.566345 C 172.182922 378.124634 171.97821 377.875275 171.97821 382.628357 L 171.97821 405.612122 C 171.97821 410.365234 172.182922 410.112122 167.586182 410.674164 L 167.586182 412.00293 L 192.71759 412.00293 L 194.251068 402.809387 L 192.926025 402.809387 C 190.581116 408.280853 190.931 410.365234 183.527802 410.365234 C 178.931061 410.365234 176.936005 410.007904 176.936005 405.671692 L 176.936005 394.118378 L 181.223846 394.118378 C 184.648132 394.118378 185.82431 395.912415 185.928528 398.919861 L 187.249847 398.919861 L 187.249847 388.03653 L 185.928528 388.03653 C 185.82431 391.207703 184.44342 392.484406 181.223846 392.484406 L 176.936005 392.484406 L 176.936005 377.871552 L 183.885101 377.871552 C 187.562531 377.871552 188.58609 380.681702 189.096008 384.467072 L 190.421082 384.467072 L 190.421082 376.237549 L 167.582458 376.237549 Z M 202.071136 376.237549 L 202.071136 377.566345 C 206.671631 378.124634 206.463196 377.875275 206.463196 382.628357 L 206.463196 405.612122 C 206.463196 410.365234 206.671631 410.112122 202.071136 410.674164 L 202.071136 412.00293 L 215.813019 412.00293 L 215.813019 410.674164 C 211.212555 410.112122 211.42099 410.365234 211.42099 405.612122 L 211.42099 396.161804 L 216.222443 396.161804 C 222.401093 406.434723 224.038818 412.00293 227.057404 412.00293 L 232.320404 412.00293 L 232.320404 411.340393 C 230.533813 410.268433 227.671539 406.687805 225.118195 402.958282 L 220.108307 395.34668 C 224.042511 393.809448 227.262115 390.187866 227.262115 384.924866 C 227.262115 378.950958 222.099609 376.237549 216.940826 376.237549 L 202.07486 376.237549 Z M 270.587006 376.237549 L 270.587006 377.566345 C 275.191193 378.124634 274.979034 377.875275 274.979034 382.628357 L 274.979034 405.612122 C 274.979034 410.365234 275.191193 410.112122 270.587006 410.674164 L 270.587006 412.00293 L 284.328888 412.00293 L 284.328888 410.674164 C 279.73584 410.112122 279.944275 410.365234 279.944275 405.612122 L 279.944275 382.624634 C 279.944275 377.875275 279.73584 378.128357 284.328888 377.566345 L 284.328888 376.237549 Z M 292.964081 376.237549 L 291.583191 384.053894 L 292.863586 384.053894 C 294.549683 380.681702 295.576996 377.871552 300.024841 377.871552 L 304.610413 377.871552 L 304.610413 405.612122 C 304.610413 410.365234 304.822601 410.108398 300.218414 410.674164 L 300.218414 412.00293 L 313.975159 412.00293 L 313.975159 410.67041 C 309.370972 410.112122 309.575684 410.365234 309.575684 405.612122 L 309.575684 377.871552 L 314.168701 377.871552 C 318.616577 377.871552 319.640137 380.677979 321.32254 384.050201 L 322.602936 384.050201 L 321.222046 376.233826 L 292.964081 376.233826 Z M 328.535889 376.237549 L 328.535889 377.566345 C 330.880798 377.566345 332.310059 378.839294 333.996185 382.159363 L 341.868347 397.747375 L 341.868347 405.612122 C 341.868347 410.365234 342.06189 410.112122 337.468872 410.674164 L 337.468872 412.00293 L 351.218201 412.00293 L 351.218201 410.674164 C 346.625153 410.112122 346.818695 410.365234 346.818695 405.612122 L 346.818695 399.898743 C 346.818695 398.618347 346.922913 397.185364 347.436554 396.161804 L 355.960114 380.685425 C 357.344727 378.228882 358.721863 377.566345 360.151154 377.566345 L 360.151154 376.237549 L 349.625122 376.237549 L 349.625122 377.566345 C 352.640045 377.566345 354.27771 379.047729 352.53952 382.159363 L 345.493622 394.985626 L 339.30014 382.159363 C 338.030884 379.509277 337.677307 377.566345 341.555695 377.566345 L 341.555695 376.237549 L 328.535889 376.237549 Z M 517.170349 376.237549 L 517.170349 377.566345 C 521.770874 378.124634 521.566101 377.875275 521.566101 382.628357 L 521.566101 405.612122 C 521.566101 410.365234 521.770874 410.112122 517.170349 410.674164 L 517.170349 412.00293 L 542.309204 412.00293 L 543.842712 402.809387 L 542.510193 402.809387 C 540.165344 408.280853 540.526367 410.365234 533.112 410.365234 C 528.518921 410.365234 526.523926 410.007904 526.523926 405.671692 L 526.523926 394.118378 L 530.815491 394.118378 C 534.239746 394.118378 535.415955 395.912415 535.512756 398.919861 L 536.841492 398.919861 L 536.841492 388.03653 L 535.512756 388.03653 C 535.415955 391.207703 534.035095 392.484406 530.815491 392.484406 L 526.523926 392.484406 L 526.523926 377.871552 L 533.476746 377.871552 C 537.154175 377.871552 538.166565 380.681702 538.672791 384.467072 L 540.012756 384.467072 L 540.012756 376.237549 L 517.170349 376.237549 Z M 551.450623 376.237549 L 551.450623 377.566345 C 554.368713 377.566345 555.950623 379.204041 557.37616 381.035278 L 557.37616 405.10965 C 557.37616 406.177917 557.178894 407.041382 557.070984 407.86026 C 556.814148 409.702698 555.131775 410.428497 552.690063 410.674164 L 552.690063 412.00293 L 565.196228 412.00293 L 565.196228 410.674164 C 561.820313 410.424774 560.093262 409.706421 559.836426 407.86026 C 559.735962 407.041382 559.523804 406.177917 559.523804 405.10965 L 559.523804 382.524139 C 567.853821 392.331787 576.284302 402.399963 584.405823 412.00293 L 586.144043 412.00293 L 586.144043 383.134552 C 586.144043 382.058868 586.352478 381.199066 586.456726 380.380249 C 586.702332 378.537781 588.447998 377.823181 590.841309 377.566345 L 590.841309 376.237549 L 578.327698 376.237549 L 578.327698 377.566345 C 581.71106 377.823181 583.441833 378.534088 583.694885 380.380249 C 583.795471 381.199066 584.007568 382.058868 584.007568 383.134552 L 584.007568 404.138184 L 583.892151 404.138184 C 576.284302 394.888855 568.363708 385.483154 560.740967 376.237549 L 551.454346 376.237549 Z M 597.232056 376.237549 L 597.232056 377.566345 C 600.146484 377.566345 601.728333 379.204041 603.15387 381.035278 L 603.15387 405.10965 C 603.15387 406.177917 602.960327 407.041382 602.848694 407.86026 C 602.591858 409.702698 600.909485 410.428497 598.467773 410.674164 L 598.467773 412.00293 L 610.977661 412.00293 L 610.977661 410.674164 C 607.605469 410.424774 605.871033 409.706421 605.614197 407.86026 C 605.517456 407.041382 605.309021 406.177917 605.309021 405.10965 L 605.309021 382.524139 C 613.635254 392.331787 622.062012 402.399963 630.183594 412.00293 L 631.921753 412.00293 L 631.921753 383.134552 C 631.921753 382.058868 632.126465 381.199066 632.234436 380.380249 C 632.480042 378.537781 634.229431 377.823181 636.626465 377.566345 L 636.626465 376.237549 L 624.105408 376.237549 L 624.105408 377.566345 C 627.488831 377.823181 629.223267 378.534088 629.480042 380.380249 C 629.576843 381.199066 629.785278 382.058868 629.785278 383.134552 L 629.785278 404.138184 L 629.673645 404.138184 C 622.065735 394.888855 614.152588 385.483154 606.529785 376.237549 L 597.232056 376.237549 Z M 675.105225 376.237549 L 675.105225 377.566345 C 677.45752 377.566345 678.883118 378.839294 680.569275 382.159363 L 688.437683 397.747375 L 688.437683 405.612122 C 688.437683 410.365234 688.642395 410.112122 684.038208 410.674164 L 684.038208 412.00293 L 697.787537 412.00293 L 697.787537 410.674164 C 693.194519 410.112122 693.395508 410.365234 693.395508 405.612122 L 693.395508 399.898743 C 693.395508 398.618347 693.492249 397.185364 694.005859 396.161804 L 702.540649 380.685425 C 703.914001 378.228882 705.294922 377.566345 706.735413 377.566345 L 706.735413 376.237549 L 696.201904 376.237549 L 696.201904 377.566345 C 699.216797 377.566345 700.843323 379.047729 699.108826 382.159363 L 692.062988 394.985626 L 685.884338 382.159363 C 684.603943 379.509277 684.246643 377.566345 688.132507 377.566345 L 688.132507 376.237549 L 675.105225 376.237549 Z M 715.1026 376.237549 L 715.1026 377.566345 C 719.71051 378.124634 719.498352 377.875275 719.498352 382.628357 L 719.498352 405.612122 C 719.498352 410.365234 719.71051 410.112122 715.1026 410.674164 L 715.1026 412.00293 L 740.189331 412.00293 L 741.730286 402.809387 L 740.442444 402.809387 C 738.097534 408.280853 738.406433 410.365234 730.992126 410.365234 C 726.451172 410.365234 724.456177 410.011627 724.456177 406.434723 L 724.456177 382.624634 C 724.456177 377.875275 724.251404 378.128357 728.855591 377.566345 L 728.855591 376.237549 L 715.098877 376.237549 Z M 745.660767 376.237549 L 745.660767 377.566345 C 748.117371 377.566345 749.695496 379.15567 751.586304 384.61969 C 754.847717 393.739136 758.085938 402.866943 761.300903 412.00293 L 763.895203 412.00293 C 768.194153 401.532745 772.530334 391.103516 776.829407 380.633301 C 777.893921 378.079987 779.59491 377.566345 781.072571 377.566345 L 781.072571 376.237549 L 770.029114 376.237549 L 770.029114 377.566345 C 773.516785 377.566345 774.838074 379.15567 773.557678 382.371521 C 770.393921 390.187866 767.267395 398.048889 764.003174 405.865234 C 761.431519 398.350037 758.891785 390.823914 756.384033 383.28717 C 754.697998 378.388916 756.752502 377.566345 759.562683 377.566345 L 759.562683 376.237549 L 745.660767 376.237549 Z M 820.362732 376.237549 L 820.362732 377.566345 C 823.273376 377.566345 824.862671 379.204041 826.288208 381.035278 L 826.288208 405.10965 C 826.288208 406.177917 826.079773 407.041382 825.975586 407.86026 C 825.71875 409.702698 824.0401 410.428497 821.583496 410.674164 L 821.583496 412.00293 L 834.104614 412.00293 L 834.104614 410.674164 C 830.732361 410.424774 828.997864 409.706421 828.741089 407.86026 C 828.633179 407.041382 828.435852 406.177917 828.435852 405.10965 L 828.435852 382.524139 C 836.750977 392.331787 845.19635 402.399963 853.317871 412.00293 L 855.048706 412.00293 L 855.048706 383.134552 C 855.048706 382.058868 855.260803 381.199066 855.361328 380.380249 C 855.614441 378.537781 857.345154 377.823181 859.753357 377.566345 L 859.753357 376.237549 L 847.2323 376.237549 L 847.2323 377.566345 C 850.604553 377.823181 852.342712 378.534088 852.599548 380.380249 C 852.703735 381.199066 852.904785 382.058868 852.904785 383.134552 L 852.904785 404.138184 L 852.800537 404.138184 C 845.192627 394.888855 837.275757 385.483154 829.664124 376.237549 L 820.366394 376.237549 Z M 868.135437 376.237549 L 868.135437 377.566345 C 872.728516 378.124634 872.531189 377.875275 872.531189 382.628357 L 872.531189 405.612122 C 872.531189 410.365234 872.724792 410.112122 868.135437 410.674164 L 868.135437 412.00293 L 881.869873 412.00293 L 881.869873 410.674164 C 877.280579 410.112122 877.477905 410.365234 877.477905 405.612122 L 877.477905 382.624634 C 877.477905 377.875275 877.280579 378.128357 881.869873 377.566345 L 881.869873 376.237549 Z M 211.413544 377.871552 L 215.344055 377.871552 C 219.073578 377.871552 222.140533 379.818207 222.140533 385.390137 C 222.140533 391.166779 220.093414 394.535248 215.649261 394.535248 L 211.413544 394.535248 L 211.413544 377.871552 Z M 401.946289 378.106049 C 390.891724 378.106049 383.4104 391.0849 383.4104 399.761047 C 383.4104 405.980621 385.725525 412.803162 394.196899 412.803162 C 406.848206 412.803162 412.669556 397.304474 412.669556 390.020386 C 412.669556 384.065063 410.763855 378.106049 401.950012 378.106049 Z M 401.358215 379.687927 C 402.415222 379.687927 406.580261 379.948456 406.580261 386.841736 C 406.580261 398.357788 402.556702 410.811859 395.004639 410.811859 C 390.106384 410.811859 389.503418 404.588562 389.503418 401.149353 C 389.503418 392.532776 394.204407 379.687927 401.358215 379.687927 Z M 796.381409 381.601074 L 796.478149 381.601074 L 801.908691 398.212646 L 790.306946 398.212646 Z M 905.665161 381.601074 L 905.776733 381.601074 L 911.184937 398.212646 L 899.590698 398.212646 Z"/>
</svg>
